<?xml version="1.0" encoding="UTF-8"?>
<svg xmlns="http://www.w3.org/2000/svg" viewBox="0 0 750 500">
  <defs>
    <style>
      .cls-1, .cls-2 {
        fill: #fff;
      }

      .cls-3 {
        fill: #61b1eb;
      }

      .cls-3, .cls-4, .cls-5, .cls-2 {
        mix-blend-mode: multiply;
      }

      .cls-4 {
        fill: #6b52e8;
      }

      .cls-5 {
        fill: #ffd731;
      }

      .cls-6 {
        isolation: isolate;
      }
    </style>
  </defs>
  <g class="cls-6">
    <g id="BACKGROUND">
      <rect class="cls-1" y="-.18" width="750" height="500.36"/>
    </g>
    <g id="OBJECTS">
      <g>
        <g>
          <path class="cls-5" d="m387.82,427.98c-2.04,0-4.11-.27-6.18-.82-.47-.08-2.13.01-3.33.08-.7.04-1.4.08-2.09.1-4.41.17-8.27-.12-11.95-.9-2.12.45-4.21.82-6.32,1.18-3.68.63-7.55.09-10.89-1.49-.07,0-.15,0-.23.01-5.21.33-9.85-.29-13.94-.83l-2.83-.37c-1.92-.25-4.09-.54-5.01-.39-2.19.37-4.42.28-6.57-.27-.23-.03-.46-.06-.68-.08-1.93-.23-5.19-.62-8.71-2.25-2.1.06-3.92-.14-5.34-.34-.6.03-1.38.05-2.28.01-.24-.01-.49-.02-.73-.02-1.13-.03-2.68-.08-4.47-.34-1.46.26-2.95.32-4.43.17-2.19.23-6.1.41-10.36-1.43-3.9-.83-7.43-2.63-10.34-5.23-2.02-.08-4.02-.55-5.89-1.4-.21-.08-.96-.3-1.51-.46-2.38-.7-5.9-1.74-9.47-4.11-1.67-.22-3.13-.66-4.39-1.19-.4,0-.8,0-1.19-.03-7.13-.3-13.16-2.75-17.94-7.27-.44-.3-1.62-.87-2.49-1.29-.68-.33-1.36-.66-2.02-1-1.07-.42-2.81-1.22-4.61-2.66-4.96-1.07-8.86-4.4-11.13-8.18-1.64-.92-2.97-1.91-4.08-2.79-.17-.14-.29-.22-.36-.26-6.6-1.19-11.03-4.58-13.97-6.84-.32-.25-.65-.5-.97-.74-1.31-.98-2.25-1.91-2.81-2.47l-.08-.08c-1.83-1.56-4.22-3.1-6.74-4.73-1.45-.93-2.95-1.9-4.49-2.96-.88-.49-2.3-1.35-3.77-2.73-4.56-1.28-7.81-3.56-10.04-5.13-.27-.19-.53-.38-.8-.56-1.3-.89-2.34-1.76-3.1-2.4-.21-.18-.42-.36-.64-.53-3.3-2.31-6.1-5.32-8.2-8.79-3.89-2.02-7.24-4.6-10-7.71-2.55-1.05-4.93-2.64-7.14-4.78-.57-.55-.88-.79-1-.87-4.96-2.17-8.91-6.02-11.42-11.13-.24-.36-1-1.24-1.29-1.58-2.07-2.39-3.69-4.78-5.12-6.88-.31-.46-.63-.93-.95-1.39-3.16-4.56-6.99-9.84-11.46-14.4-1.23-1.25-4.99-5.08-5.98-11.36-.13-.79-.25-1.59-.37-2.39-.28-1.82-.54-3.54-.85-5.16-1.48-7.81,1.09-15.33,7.04-20.62l.26-.23c.47-.42,1.08-.96,1.46-1.33,1.26-2.81,3.02-4.7,4.03-5.69,1.12-1.39,2.22-2.56,3.13-3.53.56-.59,1.32-1.4,1.57-1.74,2.02-3.54,4.73-5.77,6.19-6.97,1.91-1.58,2.5-2.72,2.78-3.44,1.17-3.01,2.84-5.49,5-7.42,1.59-3.98,4.02-6.6,5.95-8.34,1.17-3.52,3.03-6.07,4.23-7.72.15-.2.29-.4.43-.6,2.11-3.03,5.13-5.36,8.97-6.93,2.27-.93,4.36-1.65,6.38-2.21.65-.18,1.73-.48,3.32-2.87,2.06-3.11,5.46-7.65,11.08-11.22.35-.22.89-.63,1.47-1.06,1.46-1.08,3.28-2.44,5.6-3.66,1.54-1.27,3-2.22,4.11-2.93.31-.2.7-.45.96-.63,1.93-2.21,4.04-3.85,6.44-4.98.41-.37,1.14-1.18,1.7-1.78.96-1.05,2.04-2.23,3.37-3.47.2-.19.4-.38.59-.57,1.93-1.88,5.35-5.21,10.77-6.92.41-.26.95-.62,1.47-.98,1.77-1.2,4.19-2.84,7.26-4.14,1.08-.9,2.08-1.75,2.8-2.47,1.34-1.36,5.09-5.18,11.41-6.16,3.71-2.16,7.35-3.57,9.84-4.46,3.29-3.24,6.9-4.65,8.54-5.29l.59-.23c3.45-1.35,6.73-2.63,9.71-4.07,1.19-1.65,2.68-3.2,4.46-4.66l.22-.18c1.73-1.58,3.38-2.54,4.3-3.07,2.88-2.06,7.45-4.22,13.69-3.76l1.07.08c.65.05,1.3.09,1.95.14,2.41-.57,4.51-.73,6-.83.13,0,.28-.02.43-.03,4.3-2.17,8.42-3.01,11.59-3.65,1.19-.24,2.31-.47,3.08-.7.47-.14.94-.28,1.43-.41,3.68-2.92,8.14-4.7,13.31-5.28,5.26-.59,10.35-.16,15.21,1.28,5.66-1.43,10.76-.77,14.1-.33l.59.08c.93.12,1.37.15,1.57.16,3.29-.72,7.98-1.47,13.26-.67,4.41-1.46,8.92-1.48,13.42-.05.91.29,2.15.54,3.5.79,5.21-1.01,9.71.06,12.41.91,2.82-.2,5.78-.28,9.36-.24,4.41.04,8.15,1.07,10.58,1.84.6.19,1.49.4,2.44.62,1.14.26,2.44.57,3.86.98,5.04-.13,10.1.97,15.39,3.33,1.42.14,3.59.47,5.98,1.47,2.1.88,3.23.99,4,.98.06,0,.12,0,.18,0,4.22,0,7.56,1.35,9.36,2.07.19.08.38.16.57.23.58.19,1.25.41,1.92.63,1,.33,2,.67,3.01.97,3.19.94,6.05,2.45,8.52,4.51,2.41.76,4.32,1.72,5.76,2.45.31.16.63.32.95.47,1.54.73,3.64,1.72,5.87,3.25,1.64.26,2.92.67,3.69.92l.16.05c3.2,1.02,7.33,2.52,11.38,5.24.94.53,2.45,1.47,3.98,3.01.55.2,1.09.4,1.63.61,1.94.77,5.93,2.37,9.69,5.78,2.95.47,5.81,1.25,8.56,2.33,5.59,2.21,9.88,6.01,12.78,11.3.75,1.36,1.59,2.9,2.39,4.2.08.13.13.19.13.19,3.13,1.66,5.58,3.71,7.37,5.21l.5.42c1.5,1.25,2.98,2.54,4.45,3.82,1.27,1.11,2.55,2.22,3.85,3.31l.08.06c.32.25.77.6,1.29,1.06,4.75,1.6,8.79,4.2,12.04,7.77.16.09.32.17.47.25l.47.25c1.78.96,5.47,2.94,8.31,7.09,1.06.75,2.03,1.48,2.92,2.14,1.06.79,2.05,1.54,2.91,2.1,4.11,2.68,7.29,6.29,9.33,10.56,4.05,2.52,6.78,5.8,8.76,8.5l.91,1.24c1.6,2.18,3.1,4.24,4.64,6.22.16.21.29.37.39.5,2.96,1.83,4.89,4.07,5.97,5.32l.3.35c.55.63,1.13,1.24,1.7,1.85,2.21,2.38,4.88,5.24,7.16,9.02,2.56,2.35,4.62,5.06,6.13,8.11,6.23,5.83,8.3,10.96,8.13,19.93.2,4.38-.86,8.22-1.96,11.45-.24.72-.5,1.44-.76,2.16-.46,1.28-.94,2.6-1.07,3.34-.89,4.92-3.41,9.22-7.46,12.78-.29.25-.46.43-.56.54-1.51,3.77-3.78,6.21-5.22,7.66-.13.3-.28.64-.4.93-.33.78-.67,1.56-1.02,2.33-1.42,3.03-3.7,5.61-6.47,7.35-.23.21-.63.6-.93.89-1.49,1.45-3.74,3.64-6.89,5.42-.66.37-1.62,1.1-2.65,1.87-1.03.77-2.19,1.65-3.51,2.54-.36.34-1.11,1.2-1.67,1.84-.39.45-.78.9-1.17,1.34l-.35.4c-1.08,1.24-2.88,3.3-5.63,5.11-.2.13-.73.48-1.49,1.79-3.12,5.39-7.39,8.84-10.33,10.97-2.98,2.16-6.05,3.16-8.63,3.6-2.75,2.36-5.92,4.54-9.69,6.68-.54.31-1.09.59-1.66.86-.15.1-.3.2-.45.3-.26.17-.56.37-.83.56-3.66,7.11-10.78,11.62-19.83,12.49-.63.35-1.84,1.27-2.33,1.64l-.35.27c-2.64,2-6.61,5.01-12.44,6.35-.08.03-.16.06-.25.09-.85.3-2.06.72-3.57,1.06-.45.41-.87.77-1.22,1.07-.12.1-.24.2-.35.3-2.55,2.69-5.51,4.39-8.84,5.09-.21.13-.44.27-.64.39-1.61.99-4.04,2.47-7.16,3.51-.93.33-2.78.98-5.22,1.18-.12.04-.23.07-.35.11-1.03.31-2.44.74-4.16,1.05-.37.09-1.59.63-2.47,1.02-1.95.86-4.43,1.96-7.42,2.74-4.09,2.31-8.07,3.5-11.37,4.48l-1.04.31c-.25.1-.81.37-1.22.57-1.32.64-3.1,1.51-5.3,2.22-1.78,1.77-4.15,3.4-7.31,4.63-3.82,1.49-12.05,4.71-21.13,1.12-1.34.27-2.64.45-3.9.57-1.36.75-2.59,1.28-3.53,1.68-.24.1-.49.2-.73.32-5.18,2.73-10.63,4.07-16.19,3.94h-.14c-.77-.01-2.14-.03-3.85-.35-2.6,1.01-5.34,1.53-8.15,1.53Zm-69.64-3.78s0,0,0,0c0,0,0,0,0,0Zm-.04-.01s.02,0,.03,0c0,0-.02,0-.03,0Zm-15.52-5.61s-.02.01-.02.02c0,0,.02-.01.02-.02Zm-24.13-.19s0,0,0,0c0,0,0,0,0,0Zm-.02-.02s.02,0,.02.02c0,0-.02-.01-.02-.02Zm141.36-.24s.01,0,.02,0c0,0-.01,0-.02,0Zm5.79-1.16s-.01.01-.02.02c0,0,.01-.01.02-.02Zm22.47-1.01s0,0,0,0c0,0,0,0,0,0Zm1.69-.66s-.01,0-.02,0c0,0,.01,0,.02,0h0Zm-188.55-6.98s-.02,0-.02,0c0,0,.02,0,.02,0Zm207.19-.73s-.01,0-.02,0c0,0,.01,0,.02,0Zm5.4-1.97s-.01,0-.02.01c0,0,.01,0,.02-.01Zm-227.8-.3s.02.02.03.02c0,0-.02-.02-.03-.02Zm180.36-5.16s0,.02,0,.03c0,0,0-.02,0-.03Zm0-.02s0,.01,0,.02c0,0,0-.01,0-.02Zm-64.51-1.97s.02,0,.02.01c0,0-.02,0-.02-.01Zm44.66-.98s.01,0,.02.01c0,0-.01,0-.02-.01Zm-25.69-1.74c1.64,0,3.42.08,5.31.35,4.87-2.32,10.27-2.68,15.32-1.03,1.16-.61,2.21-1.06,2.98-1.38.04-.02.09-.04.13-.06,3.06-2.5,6.84-3.82,11.27-3.94,1.06-.03,1.58-.07,1.85-.11,4.6-2.13,9.88-2.2,14.72-.22,1.75-1.45,3.92-2.66,6.56-3.46l.33-.12c.82-.3,2.15-.8,3.79-1.16.28-.12.74-.35,1.09-.52,1.42-.69,3.36-1.63,5.75-2.36l1.28-.38c2.06-.62,4.19-1.26,5.09-1.85.88-.59,3.59-2.39,7.49-2.97.46-.13,1.61-.64,2.46-1.01,2.38-1.05,5.61-2.49,9.58-3.22.21-.06.42-.13.63-.19,1.14-.35,2.81-.86,4.86-1.17.19-.11.39-.24.57-.34,1.42-.87,3.41-2.09,5.95-3.07,3.75-5.08,9.59-8.06,15.56-8.06.06,0,.11,0,.17,0,.52-.17,1.12-.35,1.8-.53.35-.25.85-.63,1.24-.92l.39-.3c2.93-2.21,8.1-6.12,15.44-7.49,3-4.25,6.7-6.7,9.15-8.32l.77-.51c1.35-.92,2.56-1.5,3.28-1.84l.12-.06c2.53-1.44,4.3-2.73,5.55-4.05,3.83-4.03,8-5.64,11.57-6.16,2.72-4.48,6.12-8.18,10.14-11.01.03-.03.06-.06.08-.1.2-.23.41-.47.61-.7.29-.32.58-.66.87-.99,1.83-2.1,4.33-4.98,7.91-7.34.6-.39,1.33-.95,2.12-1.54,1.53-1.15,3.4-2.56,5.66-3.88.23-.21.57-.54.84-.8.61-.59,1.3-1.27,2.11-1.98.54-1.21,1.2-2.56,2.06-3.97,1.18-1.93,2.47-3.36,3.44-4.34,1.48-3.11,3.53-5.97,6.2-8.65.52-1.84,1.11-3.48,1.62-4.9.19-.54.39-1.08.57-1.63,0,0,0-.02,0-.02-1.37-1.36-3.13-3.47-4.33-6.42-2.09-1.77-3.81-3.94-5.01-6.32-.47-.92-1.92-2.48-3.32-3.98-.76-.82-1.52-1.63-2.25-2.47l-.33-.38c-3.36-2.18-5.64-4.79-7.61-7.33-1.81-2.33-3.52-4.66-5.17-6.92l-.89-1.21c-.17-.23-.31-.41-.41-.55-6.05-3.21-9.23-7.81-10.9-11.7-1.16-.81-2.22-1.61-3.19-2.33-.99-.75-1.93-1.45-2.74-1.99-1.35-.9-3.91-2.6-6.09-5.55-2.02-1.12-4.68-2.79-7.05-5.41-5.18-1.3-8.59-4.01-10.75-6.51-.07-.05-.13-.11-.2-.17-1.48-1.23-2.93-2.5-4.38-3.76-1.29-1.13-2.59-2.26-3.9-3.35l-.57-.48c-.69-.58-1.64-1.37-2.01-1.6-4.94-2.64-9.02-6.48-12.06-11.38-.69-1.11-1.33-2.22-1.92-3.27-.23-.03-.47-.06-.71-.07-6.03-.44-11.4-3.05-15.28-7.41-.1-.04-.21-.08-.33-.13-.28-.11-.57-.21-.86-.31-2.44-.86-7.01-2.47-10.91-6.59-.3-.17-.72-.36-1.26-.57-5.34.29-10.59-1.79-14.31-5.83-.37-.19-.88-.43-1.15-.56-.57-.27-1.13-.55-1.69-.83-.35-.17-.8-.4-1.05-.52-3.49-.96-6.66-2.58-9.47-4.81-.87-.28-1.7-.55-2.51-.82-.57-.19-1.14-.38-1.71-.57-.82-.26-1.55-.54-2.14-.78-4.17-.2-8.32-1.08-12.59-2.68-2.81-.34-5.57-1.13-8.23-2.37-1.4-.65-1.92-.69-1.94-.69-3.07.34-6.25-.04-9.09-1.09-.58-.21-1.67-.47-2.72-.71-1.42-.33-3.03-.71-4.8-1.26-1.02-.32-1.37-.36-1.41-.37-2.63-.02-4.81.03-6.76.17-2.88.2-6.29.25-10.03-.83-2.04.46-4.5.62-7.32.04-.7-.14-1.42-.27-2.14-.41-1.56-.29-3.25-.6-5.05-1.03-2.92.78-7.06,1.41-11.73.32-.21,0-.75.05-1.89.31-4.67,1.04-8.65.75-12.25.29l-.66-.09c-.74-.1-1.69-.22-2.31-.27-5.12,2.08-10.89,2.03-16.02-.19-.66-.28-1.28-.44-1.99-.48-2.36,1.84-5.11,3.18-8.09,3.94-.84.21-1.68.44-2.51.69-2.14.64-4.11,1.04-5.84,1.39-1.26.25-2.97.6-3.56.86-2.91,1.89-5.69,2.42-6.86,2.63-2.23.5-4.18.64-5.61.74-.22.02-.49.04-.71.05-2.93,1.15-5.62,1.25-7.6,1.09-2.1,3.43-5.48,6.12-9.76,7.54-.97.32-1.82.53-2.45.68-3.87,1.85-7.67,3.34-11.35,4.78-3.58,3.3-7.48,4.96-10.27,5.95-2.13.76-3.65,1.44-4.78,2.13-1.7,1.04-4.02,2.31-6.92,3.12-1.08.97-2.13,1.84-3.09,2.64-.54.45-1.07.89-1.6,1.35-1.76,1.51-3.83,2.62-6.07,3.25-.41.23-1.18.75-1.76,1.15-1.19.81-2.68,1.82-4.43,2.77l-.14.08c-.68.38-1.86,1.02-3.42,1.59-.32.31-.64.63-.97.93-.43.41-1.03,1.05-1.65,1.74-2,2.18-4.84,5.28-9.02,7.73-2.27,2.3-4.58,3.8-6.21,4.86-.34.22-.79.51-1.04.69-1.56,1.61-3.46,2.88-5.55,3.71-.33.21-.97.69-1.45,1.05-.91.68-2.05,1.52-3.36,2.35-.4.25-.97.94-1.7,2.03-5.25,7.9-12.16,13.17-20.55,15.66-1.75,4.42-4.5,7.47-6.44,9.3-.97,2.4-2.66,5.61-5.65,8.41-2.44,4.81-5.95,9.14-10.48,12.92-1.72,2.63-3.61,4.63-5.05,6.16-.62.66-1.26,1.34-1.55,1.72-.29.38-.58.73-.85,1.05-1.32,2.45-2.88,4.44-4.42,6.09,5.13,5.6,9.35,11.45,12.56,16.09.37.54.74,1.07,1.1,1.61,1.03,1.51,2,2.95,2.85,3.92,1.44,1.66,3.03,3.57,4.47,5.93,2.13,1.22,3.92,2.58,5.36,3.82,4.37,1.31,8.1,4.12,10.6,8.08.12.19.4.64,1.86,1.23,5.13,2.08,9.13,5.88,11.58,11.01.94.69,1.72,1.35,2.32,1.85.2.17.4.34.61.51.37.25.73.51,1.1.77.3.21.66.47.95.66,4.85,1.19,8.9,3.43,12.08,6.66.05.03.1.07.15.1,1.24.86,2.59,1.74,4.03,2.66,3.28,2.11,7,4.5,10.58,7.63.47.41.92.84,1.36,1.28.27.2.54.41.8.61.42.32.94.72,1.32.99,4.78,1,9.28,3.15,13.37,6.39.04.03.08.06.12.1,3.06,1.59,5.67,3.58,7.83,5.95,2.33.97,4.55,2.38,6.66,4.23.48.24.96.47,1.43.71,2.46,1.19,5.7,2.77,8.87,5.4,1.81-.02,4.84,0,8.26,1.11,4.58.19,9,2.01,12.58,5.23.28.09.6.18.86.26.48.14,1.01.3,1.59.48,2.85.18,5.1.9,6.46,1.33.11.04.23.07.34.11,3.94.85,7.29,2.6,9.99,5.23,0,0,.02,0,.03,0,.07,0,.14,0,.21,0,4.26-.92,7.91-.15,9.63.25.25.01.5.02.75.02.26,0,.51.01.77.02.99-.06,2.81-.17,5.02.18.09.01.23.04.39.06,5.06-1.14,10.29-.17,14.54,2.65.2.03.4.05.62.08,4.28-.31,8.06.19,11.21.61l2.85.37c3.03.4,5.65.75,7.77.62,3.04-.19,7.17-.21,11.59,1.19.96-.18,1.87-.38,2.75-.59,3.74-.89,7.47-.83,11.1.18,1.2.33,2.72.46,4.75.38.52-.02,1.05-.05,1.58-.08,1.26-.07,2.7-.15,4.27-.15Zm-153.95.13s-.02,0-.03,0c0,0,.02,0,.03,0Zm210.18-4.19s.01,0,.02.01c0,0-.01,0-.02-.01Zm-128.56-1.11s0,0,0,0c0,0,0,0,0,0Zm-7.85-.39h0Zm116.59-.38s0,0,0,0c0,0,0,0,0,0Zm25.68-5.1h0Zm-236.98-.34h0Zm65.14-2.06h0Zm-28.1-9.92s.01.01.02.02c0,0-.01-.01-.02-.02Zm233.04-.1s0,0-.01,0c0,0,0,0,.01,0Zm4.74-1h0s0,0,0,0Zm6.16-2.38s0,0,0,.01c0,0,0,0,0-.01Zm63.21-1.27s-.01,0-.02.01c0,0,.01,0,.02-.01Zm-56.27-1.61s-.04,0-.06,0c.02,0,.04,0,.06,0Zm-322.74-4.47s0,0,0,.01c0,0,0,0,0-.01Zm55.23-1.49h0s0,0,0,0Zm278.69-.89h0Zm85.2-23.79s0,0,0,0c0,0,0,0,0,0Zm-407.53-1.66h0,0Zm-61.93-11.88s0,.01,0,.02c0,0,0-.01,0-.02Zm443.16-4.19s-.01,0-.02.01c0,0,.01,0,.02-.01Zm-415.4-9.1s.01,0,.02,0c0,0-.01,0-.02,0Zm431.58-4.68h0Zm7.54-6.19s-.04.03-.06.04c.02-.01.04-.03.06-.04Zm9.8-19.61s0,.01,0,.02c0,0,0-.01,0-.02Zm-457.66-16.73s0,.01-.01.02c0,0,0-.01.01-.02Zm-35.98-5.01s0,0,0,0h0Zm512.2-6.02s0,0,0,0c0,0,0,0,0,0Zm-17.3-19.28s0,0,.01,0c0,0,0,0-.01,0Zm-56.18-14.9s0,.01.01.02c0,0,0-.01-.01-.02Zm-354.42-4.76s0,0,0,0c0,0,0,0,0,0Zm5.72-3.73h0s0,0,0,0Zm.48-.47s0,0,0,0c0,0,0,0,0,0Zm331.49-.45s.01.02.02.03c0-.01-.01-.02-.02-.03Zm46.02-2.64s0,.01,0,.02c0,0,0-.01,0-.02Zm-373.35-.69s-.02,0-.03.01c0,0,.02,0,.03-.01Zm4.25-3.06s0,0,0,0c0,0,0,0,0,0Zm7.62-8.01s-.02,0-.02,0c0,0,.02,0,.02,0Zm3.35-1.52s0,0,0,0c0,0,0,0,0,0Zm8.49-4.68s0,0,0,0c0,0,0,0,0,0Zm.59-.2h0Zm263.87-8.81h0s0,0,0,0Zm-1.61-1.45s0,0,.01.01c0,0,0,0-.01-.01Zm-6.8-7.63s-.03.01-.05.02c.02,0,.03-.01.05-.02Zm-221.01-2.39s-.01.01-.02.02c0,0,.01-.01.02-.02Zm201.49-2.04h0Zm-17.96-9.05h-.01.01Zm-167.14-.52s.01,0,.02,0h-.02Zm14.05-1.06s0,0-.01,0c0,0,0,0,.01,0Zm5.53-.37s-.03,0-.05.01c.02,0,.03,0,.05-.01Zm204.79-3.2s.01.02.02.03c0-.01-.01-.02-.02-.03Zm-248.24-2s0,.02,0,.03c0,0,0-.02,0-.03Zm242.81-3.21s0,0,.02.01c0,0,0,0-.02-.01Zm-137.65-.58h0,0Zm-16.2-.19s0,0-.01,0c0,0,0,0,.01,0Zm143.44-.89s.01.01.02.02c0,0-.01-.01-.02-.02Zm-160.21-1.36s-.01,0-.01.01c0,0,0,0,.01-.01Zm-60.26-14.55s0,0-.01.01c0,0,0,0,.01-.01Zm20.74-3.11s-.03.02-.04.03c.01,0,.03-.02.04-.03Zm130.15-6.23s-.01,0-.02,0c0,0,.01,0,.02,0Zm-42.08-2.2s-.05.03-.08.04c.03-.01.05-.03.08-.04Zm-36.23-.5s.01,0,.02,0c0,0-.01,0-.02,0Zm45.75-.9s.02,0,.03,0c-.01,0-.02,0-.03,0Zm-33.63-.74h0Z"/>
          <path class="cls-5" d="m476.05,252.8c1.54-3.98.92-7.6-.95-11.2-.27-.51-.49-1.05-.77-1.56-.89-1.63-1.72-3.21-3.11-4.61-1.7-1.71-2.87-3.93-3.96-6.17-1.41-2.9-1.79-6.13-3.17-9.01-1.1-2.3-1.4-4.63-.92-7.15.4-2.07.08-4.11-1.55-5.61-1.46-1.35-2.31-2.86-2.52-4.87-.13-1.27-.57-2.54-1.39-3.62-.63-.82-1.03-1.77-1.1-2.8-.09-1.35-.91-1.97-2.02-2.55-1.49-.77-2.51-2.48-4.56-2.14-.35.06-.85-.25-1.14-.54-3.19-3.1-6.76-5.81-9-9.84-3.05-5.48-7.59-8.62-14.18-7.97-2.12.21-3.99-.3-5.64-1.73-.75-.65-1.69-1.19-2.63-1.46-2.68-.79-5.06-2.12-7.41-3.58-2.84-1.76-5.82-3.11-9.36-2.75-1.77.18-3.46-.53-4.88-1.59-2.48-1.86-5.34-2.25-8.26-2.15-3.67.13-7.15-.21-10.41-2.11-1.1-.64-2.42-1.02-3.69-1.24-1.88-.33-3.68-.81-5.4-1.61-1.65-.76-3.38-.98-5.08-.33-2.72,1.03-5.51.7-8.14.08-2.6-.61-5.09-.63-7.69-.35-5.04.56-10.14.22-14.7,1.02-1.19-.14-2.03-.5-2.6-.25-3.2,1.41-6.84.86-10.01,2.67-2.34,1.33-4.66,2.89-7.38,3.56-.66.16-1.27.71-1.82,1.17-3.36,2.84-6.99,5.1-11.54,5.4-.42.03-.83.23-1.22.42-2.91,1.4-6.09,1.8-9.19,2.4-3.13.61-6.06,1.23-8.88,3.06-2.65,1.72-4.01,4.02-5.04,6.63-.49,1.24-.79,2.44-1.91,3.26-.97.71-1.54,1.68-1.95,2.81-.24.65-.69,1.28-1.19,1.77-1.44,1.43-2.91,2.83-4.45,4.15-1,.86-1.7,1.86-2.42,2.98-1.63,2.54-3.14,5.24-5.55,7.18-2.26,1.82-4.24,3.89-6.25,5.97-2.3,2.37-2.28,5.16-2.06,7.92.1,1.29.51,2.47-.07,3.74-.37.81-.43,1.7-.16,2.56.38,1.24-.11,2.27-.74,3.27-.69,1.11-1.33,2.25-2.05,3.34-1.8,2.75-2.67,5.76-2.47,9.04.07,1.06-.32,1.95-.58,2.93-1.04,3.91-3.05,7.52-3.45,11.62-.05.56-.29,1.14-.58,1.62-.62,1.04-.68,2.16-.8,3.33-.32,2.9.1,5.82-.22,8.68-.25,2.23.05,4.23.57,6.36.75,3.09,1.4,6.32.36,9.45-.82,2.47-.44,5.21-1.83,7.55-.25.41-.21,1.2.02,1.65.77,1.49.69,3.09.85,4.67.08.84.31,1.72.68,2.48,1.74,3.62,5.15,6.11,6.7,9.87,1.79.88,2.07,3.19,3.8,4.08,3.18,1.64,4.87,4.4,6.12,7.59.95,2.43,2.16,4.73,3.64,6.91,2.35,3.45,4.31,7.18,7.71,9.8.22.17.41.44.5.7.98,2.61,3.2,4.15,5.33,5.55,2.36,1.55,4.19,3.56,5.93,5.66,1.6,1.93,3.34,3.49,5.64,4.61,2.3,1.13,4.69,2.42,5.52,5.22,1.84,1.32,3.5,3.12,5.88,3.27,1.41.09,2.43.59,3.57,1.27,2.24,1.33,4.51,2.6,6.5,4.31.68.59,1.47.92,2.35,1.04,1.18.16,2.23.61,3.2,1.28.61.43,1.3.8,2.02.62,1.75-.44,3.06.41,4.47,1.2,1.52.85,3.15,1.49,4.68,2.31,4.7,2.5,9.58,4.04,14.99,3.11,1.16-.2,2.3.12,3.44.19,2.98.19,6,.65,8.81-1.08,1.52-.93,3.26-1.06,5.02-.32,1.59.67,3.35.74,4.98,1.47,1.73.78,3.69.68,5.52-.11.93-.4,1.85-.84,2.81-1.19,2.58-.95,5.12-2.33,7.79-2.69,3.97-.53,8.04-.57,12.05-.38,2.94.14,5.4-.83,7.77-2.19,1.75-1,3.37-2.26,4.93-3.54,1.99-1.64,4.24-2.51,6.77-2.62,4-.16,7.32-2.51,11.11-3.37.87-.2,1.34-1.05,1.89-1.73,1.74-2.13,3.44-4.31,5.27-6.36,2.69-3.03,5.54-5.79,9.22-7.79,3.77-2.04,7.43-4.41,10.09-8.05.87-1.19,1.95-2.62,3.54-3.04,2.14-.56,3.2-2.18,3.5-4,.54-3.28,1.95-6.14,3.93-8.61,2.06-2.57,2.95-5.58,3.97-8.53.73-2.1,1.59-4.01,3.07-5.67,1.78-2.01,2.85-4.33,2.81-7.08-.02-1.48.48-2.78,1.19-4.1,2.05-3.81,4.29-7.48,6.82-10.98.32-.44.67-1.13.54-1.57-.63-2.09.51-4.37-.75-6.4-.27-.44-.29-1.17-.16-1.7.85-3.51.77-7.22,2.38-10.57.83-1.72.97-3.5.75-5.48-.26-2.25-.92-4.69-.08-6.85Zm-65.01.6c-1.19,2.91-1.32,6.08-2.25,9.05-.29.92-.48,1.81-1.24,2.49-2.27,2.04-3.43,4.6-4.26,7.56-.83,2.96-2.5,5.69-3.8,8.52-.06.12-.11.27-.21.34-2.46,1.8-3.85,4.49-5.67,6.82-1,1.28-2.36,2.26-2.29,4.12.02.59-.46,1.04-.96,1.21-1.6.56-1.58,2.53-2.9,3.25-1.3.71-2.76,1.04-4.02,1.91-2.1,1.45-4.62,2.18-6.62,3.9-1.27,1.09-3.12.69-4.71.71-1.08.01-2.15-.08-3.22.18-.79.2-1.53.45-2.12,1.1-1.9,2.09-4.27,3.15-7.11,3.19-2.02.03-3.99.63-6.06.43-1.35-.13-2.67.04-3.83-.88-.53-.42-1.27-.7-1.92-.37-1.73.87-3.81.01-5.49,1.2-.72.51-1.57.2-2.27-.3-1.24-.89-2.55-1.5-4.15-1.37-1.03.08-1.76-.55-2.49-1.18-1.75-1.52-3.61-2.86-5.9-3.49-1.11-.3-1.89-1.01-2.53-1.92-.94-1.35-2-2.59-3.48-3.36-1.27-.66-1.74-1.6-1.42-2.99.32-1.38-.39-2.34-1.39-3.15-.53-.43-1.01-.97-1.62-1.22-3.71-1.52-5.14-4.74-6.73-8.09-1.35-2.85-1.7-5.61-1.49-8.62.14-1.92-.33-3.81-1.5-5.38-1.04-1.39-1.33-2.89-1.31-4.58.02-2.17,0-4.32.29-6.48.23-1.7.86-3.5-.51-5.08-.15-.18-.26-.6-.16-.76,1.18-1.88.21-4.29,1.6-6.16.72-.96,1.11-2.16,1.68-3.24.44-.84.88-1.7,1.72-2.23,3.2-2.03,4.86-5.33,6.81-8.37,1.02-1.59,1.83-3.31,3.32-4.57.4-.34.93-.78,1-1.24.4-2.38,2.3-3.97,3.08-6.11,1.02-2.79,2.99-4.66,5.74-5.31,4.13-.98,7.68-3.32,11.71-4.52,2.46-.73,5.04-.92,7.46-1.92,1.04-.43,2.4-.07,3.81-.07,3.39-.34,6.81.09,9.96,2.01,1.07.65,2.32.67,3.55.73,2.76.15,5.21.97,7.51,2.65,2.97,2.17,6.53,3.3,10.01,4.34,2.59.78,4.45,1.88,4.88,4.71.16,1.05.94,1.51,1.76,2.07,1.66,1.14,3.51,2.23,4.68,3.79,1.12,1.5,2.4,2.93,3.33,4.56.71,1.25,1.61,2.04,3,2.5.86.28,1.57,1.02,2.31,1.6.55.44.83,1.02.73,1.78-.08.67-.01,1.35-.07,2.03-.14,1.69.31,3.2,1.24,4.61,1.41,2.15,2.75,4.34,4.14,6.51.63.98.83,2.07.4,3.11Z"/>
          <path class="cls-3" d="m488.26,266.17c1.54-3.98.92-7.6-.95-11.2-.27-.51-.49-1.05-.77-1.56-.89-1.63-1.72-3.21-3.11-4.61-1.7-1.71-2.87-3.93-3.96-6.17-1.41-2.9-1.79-6.13-3.17-9.01-1.1-2.3-1.4-4.63-.92-7.15.4-2.07.08-4.11-1.55-5.61-1.46-1.35-2.31-2.86-2.52-4.87-.13-1.27-.57-2.54-1.39-3.62-.63-.82-1.03-1.77-1.1-2.8-.09-1.35-.91-1.97-2.02-2.55-1.49-.77-2.51-2.48-4.56-2.14-.35.06-.85-.25-1.14-.54-3.19-3.1-6.76-5.81-9-9.84-3.05-5.48-7.59-8.62-14.18-7.97-2.12.21-3.99-.3-5.64-1.73-.75-.65-1.69-1.19-2.63-1.46-2.68-.79-5.06-2.12-7.41-3.58-2.84-1.76-5.82-3.11-9.36-2.75-1.77.18-3.46-.53-4.88-1.59-2.48-1.86-5.34-2.25-8.26-2.15-3.67.13-7.15-.21-10.41-2.11-1.1-.64-2.42-1.02-3.69-1.24-1.88-.33-3.68-.81-5.4-1.61-1.65-.76-3.38-.98-5.08-.33-2.72,1.03-5.51.7-8.14.08-2.6-.61-5.09-.63-7.69-.35-5.04.56-10.14.22-14.7,1.02-1.19-.14-2.03-.5-2.6-.25-3.2,1.41-6.84.86-10.01,2.67-2.34,1.33-4.66,2.89-7.38,3.56-.66.16-1.27.71-1.82,1.17-3.36,2.84-6.99,5.1-11.54,5.4-.42.03-.83.23-1.22.42-2.91,1.4-6.09,1.8-9.19,2.4-3.13.61-6.06,1.23-8.88,3.06-2.65,1.72-4.01,4.02-5.04,6.63-.49,1.24-.79,2.44-1.91,3.26-.97.72-1.54,1.68-1.95,2.81-.24.65-.69,1.28-1.19,1.77-1.44,1.43-2.91,2.83-4.45,4.15-1,.86-1.7,1.86-2.42,2.98-1.63,2.54-3.14,5.24-5.55,7.18-2.26,1.82-4.24,3.89-6.25,5.97-2.3,2.37-2.28,5.16-2.06,7.92.1,1.29.51,2.47-.07,3.74-.37.81-.43,1.7-.16,2.56.38,1.25-.11,2.27-.74,3.27-.69,1.11-1.33,2.25-2.05,3.34-1.8,2.75-2.67,5.76-2.47,9.04.07,1.06-.32,1.95-.58,2.93-1.04,3.91-3.05,7.52-3.45,11.62-.05.56-.29,1.14-.58,1.62-.62,1.04-.68,2.16-.8,3.33-.32,2.9.1,5.82-.22,8.68-.25,2.23.05,4.23.57,6.36.75,3.09,1.4,6.32.36,9.45-.82,2.47-.44,5.21-1.83,7.55-.25.41-.21,1.2.02,1.65.77,1.49.69,3.09.85,4.67.08.84.31,1.72.68,2.48,1.74,3.62,5.15,6.11,6.7,9.87,1.79.88,2.07,3.19,3.8,4.08,3.18,1.64,4.87,4.4,6.12,7.59.95,2.43,2.16,4.73,3.64,6.91,2.35,3.45,4.31,7.18,7.71,9.8.22.17.41.44.5.7.98,2.61,3.2,4.15,5.33,5.55,2.36,1.55,4.19,3.56,5.93,5.66,1.6,1.93,3.34,3.49,5.64,4.61,2.3,1.13,4.69,2.42,5.52,5.22,1.84,1.32,3.5,3.12,5.88,3.27,1.41.09,2.43.59,3.57,1.27,2.24,1.33,4.52,2.6,6.5,4.31.68.59,1.47.92,2.35,1.04,1.18.16,2.23.61,3.2,1.28.61.43,1.3.8,2.02.62,1.75-.44,3.06.41,4.47,1.2,1.52.85,3.15,1.49,4.68,2.31,4.7,2.5,9.58,4.04,14.99,3.11,1.16-.2,2.3.12,3.44.19,2.98.19,6,.65,8.81-1.08,1.52-.93,3.26-1.06,5.02-.32,1.59.67,3.35.74,4.98,1.47,1.73.78,3.69.68,5.52-.11.93-.4,1.85-.84,2.81-1.19,2.58-.95,5.12-2.33,7.79-2.69,3.97-.53,8.04-.57,12.05-.38,2.94.14,5.4-.83,7.77-2.19,1.75-1,3.37-2.26,4.93-3.54,1.99-1.64,4.24-2.51,6.77-2.62,4-.16,7.32-2.51,11.11-3.37.87-.2,1.34-1.05,1.89-1.73,1.74-2.13,3.44-4.31,5.27-6.36,2.69-3.03,5.54-5.79,9.22-7.79,3.77-2.04,7.43-4.41,10.09-8.05.87-1.19,1.95-2.62,3.54-3.04,2.14-.56,3.2-2.18,3.5-4,.54-3.28,1.95-6.14,3.93-8.61,2.06-2.57,2.95-5.58,3.97-8.53.73-2.1,1.59-4.01,3.07-5.67,1.78-2.01,2.85-4.33,2.81-7.08-.02-1.48.48-2.78,1.19-4.1,2.05-3.81,4.29-7.48,6.82-10.98.32-.44.67-1.13.54-1.57-.63-2.09.51-4.37-.75-6.4-.27-.44-.29-1.17-.16-1.7.85-3.51.77-7.22,2.38-10.57.83-1.72.97-3.5.75-5.48-.26-2.25-.92-4.69-.08-6.85Zm-65.01.6c-1.19,2.91-1.32,6.08-2.25,9.05-.29.92-.48,1.81-1.24,2.49-2.27,2.04-3.43,4.6-4.26,7.56-.83,2.96-2.5,5.69-3.8,8.52-.06.12-.11.27-.21.34-2.46,1.8-3.85,4.49-5.67,6.82-1,1.28-2.36,2.26-2.29,4.12.02.59-.46,1.04-.96,1.21-1.6.56-1.58,2.53-2.9,3.25-1.3.71-2.76,1.04-4.02,1.91-2.1,1.45-4.62,2.18-6.62,3.9-1.27,1.09-3.12.69-4.71.71-1.08.01-2.15-.08-3.22.18-.79.2-1.53.45-2.12,1.1-1.9,2.09-4.27,3.15-7.11,3.19-2.02.03-3.99.63-6.06.43-1.35-.13-2.67.04-3.83-.88-.53-.42-1.27-.7-1.92-.37-1.73.87-3.81.01-5.49,1.2-.72.51-1.57.2-2.27-.3-1.24-.89-2.55-1.5-4.15-1.37-1.03.09-1.76-.55-2.49-1.18-1.75-1.52-3.61-2.86-5.9-3.49-1.11-.3-1.89-1.01-2.53-1.92-.94-1.35-2-2.59-3.48-3.36-1.27-.66-1.74-1.6-1.42-2.99.32-1.38-.39-2.34-1.39-3.15-.53-.43-1.01-.97-1.62-1.22-3.71-1.52-5.14-4.74-6.73-8.09-1.35-2.85-1.7-5.6-1.49-8.62.14-1.92-.33-3.81-1.5-5.38-1.04-1.39-1.33-2.89-1.31-4.58.02-2.17,0-4.32.29-6.48.23-1.7.86-3.5-.51-5.08-.15-.18-.26-.6-.16-.76,1.18-1.88.21-4.29,1.6-6.16.72-.96,1.11-2.16,1.68-3.24.44-.84.88-1.7,1.72-2.23,3.2-2.03,4.86-5.33,6.81-8.37,1.02-1.59,1.83-3.31,3.32-4.57.4-.34.93-.78,1-1.24.4-2.38,2.3-3.97,3.08-6.11,1.02-2.79,2.99-4.66,5.74-5.31,4.13-.98,7.68-3.32,11.71-4.52,2.46-.73,5.04-.92,7.46-1.92,1.04-.43,2.4-.07,3.81-.07,3.39-.34,6.81.09,9.96,2.01,1.07.65,2.32.67,3.55.73,2.76.15,5.21.97,7.51,2.65,2.97,2.17,6.53,3.3,10.01,4.34,2.59.78,4.45,1.88,4.88,4.71.16,1.05.94,1.51,1.76,2.07,1.66,1.14,3.51,2.23,4.68,3.79,1.12,1.5,2.4,2.93,3.33,4.56.71,1.25,1.61,2.04,3,2.5.86.28,1.57,1.02,2.31,1.6.55.44.83,1.02.73,1.78-.08.67-.01,1.35-.07,2.03-.14,1.69.31,3.2,1.24,4.61,1.41,2.15,2.75,4.34,4.14,6.51.63.99.83,2.07.4,3.11Z"/>
          <path class="cls-4" d="m371.03,211.91c3.39-.34,6.81.09,9.96,2.01,1.07.65,2.32.67,3.55.73,2.76.15,5.21.97,7.51,2.65,2.97,2.17,6.53,3.3,10.01,4.34,2.59.78,4.45,1.88,4.88,4.71.16,1.05.94,1.51,1.76,2.07,1.66,1.14,3.51,2.23,4.68,3.79,1.12,1.5,2.4,2.93,3.33,4.56.71,1.25,1.61,2.04,3,2.5.86.28,1.57,1.02,2.31,1.6.55.44.83,1.02.73,1.78-.08.67-.02,1.35-.07,2.03-.14,1.69.31,3.2,1.24,4.61,1.41,2.15,2.75,4.34,4.14,6.51.63.98.83,2.07.4,3.11-1.19,2.91-1.32,6.08-2.25,9.05-.29.92-.48,1.81-1.24,2.49-2.27,2.04-3.43,4.6-4.26,7.56-.83,2.96-2.5,5.69-3.8,8.52-.06.12-.11.27-.21.34-2.46,1.8-3.85,4.49-5.67,6.82-1,1.28-2.36,2.26-2.29,4.12.02.59-.46,1.04-.96,1.21-1.6.56-1.58,2.53-2.9,3.25-1.3.71-2.76,1.04-4.02,1.91-2.1,1.45-4.62,2.18-6.62,3.9-1.27,1.09-3.12.69-4.71.71-1.08.01-2.15-.08-3.22.18-.79.2-1.53.45-2.12,1.1-1.9,2.09-4.27,3.15-7.11,3.19-2.02.03-3.99.63-6.06.43-1.35-.13-2.67.04-3.83-.88-.53-.42-1.27-.7-1.92-.37-1.73.87-3.81.01-5.49,1.2-.72.51-1.57.2-2.27-.3-1.24-.89-2.55-1.5-4.15-1.37-1.03.09-1.76-.55-2.49-1.18-1.75-1.52-3.61-2.86-5.9-3.49-1.11-.3-1.89-1-2.53-1.92-.94-1.35-2-2.59-3.48-3.36-1.27-.66-1.74-1.6-1.42-2.99.32-1.38-.39-2.34-1.39-3.15-.53-.43-1.01-.97-1.62-1.22-3.71-1.51-5.14-4.74-6.73-8.09-1.35-2.85-1.7-5.6-1.49-8.62.14-1.92-.33-3.81-1.5-5.38-1.04-1.39-1.33-2.89-1.32-4.58.02-2.17,0-4.32.29-6.48.23-1.7.86-3.5-.51-5.08-.15-.18-.26-.6-.16-.76,1.18-1.88.21-4.29,1.6-6.16.72-.96,1.11-2.16,1.68-3.24.44-.84.89-1.7,1.72-2.23,3.2-2.03,4.86-5.33,6.81-8.37,1.02-1.59,1.83-3.31,3.32-4.57.41-.34.93-.78,1-1.24.4-2.38,2.3-3.97,3.08-6.11,1.02-2.79,2.99-4.66,5.74-5.31,4.13-.98,7.68-3.32,11.71-4.52,2.46-.73,5.04-.92,7.46-1.92,1.04-.43,2.4-.07,3.81-.07Z"/>
        </g>
        <path class="cls-2" d="m95.66,283.68c.12.8.24,1.6.37,2.39,1,6.28,4.75,10.11,5.98,11.36,4.47,4.56,8.3,9.84,11.46,14.4.32.46.63.92.95,1.39,1.43,2.11,3.05,4.49,5.13,6.88.29.34,1.06,1.22,1.29,1.58,2.51,5.11,6.46,8.96,11.42,11.13.12.09.43.33,1,.87,2.21,2.14,4.59,3.73,7.14,4.78,2.76,3.11,6.11,5.69,10,7.71,2.11,3.47,4.91,6.47,8.2,8.79.22.17.43.35.64.53.76.64,1.8,1.52,3.1,2.4.27.18.54.37.8.56,2.23,1.57,5.47,3.85,10.04,5.13,1.47,1.38,2.89,2.24,3.77,2.73,1.54,1.06,3.04,2.02,4.49,2.96,2.53,1.63,4.92,3.16,6.74,4.73l.08.08c.56.56,1.5,1.5,2.81,2.47.33.24.65.49.97.74,2.94,2.25,7.37,5.65,13.97,6.84.07.04.19.12.36.26,1.11.88,2.44,1.87,4.08,2.79,2.27,3.77,6.16,7.1,11.13,8.17,1.8,1.44,3.54,2.23,4.61,2.66.67.34,1.35.67,2.02,1,.87.42,2.05,1,2.49,1.29,4.78,4.52,10.82,6.97,17.94,7.27.4.02.8.02,1.19.03,1.25.53,2.72.97,4.39,1.19,3.57,2.38,7.09,3.41,9.47,4.11.55.16,1.3.38,1.51.46,1.87.85,3.87,1.32,5.89,1.4,2.91,2.61,6.44,4.4,10.34,5.23,4.26,1.84,8.17,1.67,10.36,1.43,1.49.15,2.98.1,4.43-.17,1.78.26,3.33.3,4.47.34.25,0,.49.01.73.02.89.04,1.68.02,2.28-.01,1.42.2,3.25.4,5.34.34,3.52,1.63,6.77,2.02,8.71,2.25.23.03.46.05.68.08,2.14.55,4.38.64,6.57.27.93-.16,3.1.13,5.01.39l2.83.37c4.09.54,8.74,1.16,13.94.83.08,0,.16-.01.23-.01,3.34,1.58,7.22,2.13,10.89,1.49,2.12-.36,4.21-.73,6.32-1.18,3.68.78,7.55,1.07,11.95.9.69-.03,1.39-.06,2.09-.1,1.21-.07,2.86-.16,3.33-.08,2.07.55,4.14.82,6.18.82,2.81,0,5.55-.51,8.15-1.53,1.71.32,3.08.34,3.85.35h.14c5.55.12,11.01-1.21,16.19-3.94.24-.12.49-.21.73-.32.94-.4,2.17-.92,3.53-1.68,1.26-.12,2.56-.3,3.9-.57,9.07,3.59,17.31.37,21.13-1.12,3.17-1.24,5.54-2.86,7.31-4.63,2.2-.71,3.98-1.58,5.3-2.22.41-.2.97-.47,1.22-.57l1.04-.31c3.3-.99,7.28-2.18,11.37-4.48,2.99-.77,5.47-1.87,7.42-2.74.89-.39,2.1-.93,2.47-1.02,1.72-.3,3.13-.74,4.16-1.05.12-.04.23-.07.35-.11,2.44-.19,4.29-.84,5.22-1.18,3.11-1.03,5.54-2.52,7.16-3.51.2-.12.43-.26.64-.39,3.33-.7,6.29-2.4,8.84-5.09.12-.1.24-.2.35-.3.35-.3.77-.66,1.22-1.07,1.51-.33,2.73-.76,3.57-1.06.08-.03.16-.06.25-.09,5.84-1.35,9.8-4.35,12.44-6.35l.35-.27c.49-.37,1.7-1.28,2.33-1.64,9.05-.87,16.17-5.38,19.83-12.49.27-.18.58-.39.83-.56.15-.1.3-.2.45-.3.56-.27,1.12-.55,1.66-.86,3.78-2.14,6.94-4.31,9.69-6.68,2.59-.44,5.65-1.44,8.63-3.6,2.94-2.13,7.21-5.58,10.33-10.97.75-1.31,1.29-1.66,1.49-1.79,2.75-1.81,4.55-3.87,5.63-5.11l.35-.4c.39-.44.78-.89,1.17-1.34.56-.64,1.31-1.5,1.67-1.84,1.33-.89,2.49-1.76,3.51-2.54,1.03-.77,1.99-1.5,2.65-1.87,3.15-1.78,5.4-3.97,6.89-5.42.3-.3.71-.69.93-.89,2.77-1.73,5.05-4.32,6.47-7.35.36-.77.69-1.55,1.02-2.33.12-.29.27-.64.4-.93,1.44-1.45,3.71-3.9,5.22-7.66.1-.11.28-.28.56-.54,4.06-3.56,6.57-7.86,7.46-12.78.13-.73.61-2.06,1.07-3.34.26-.72.52-1.44.76-2.16,1.09-3.22,2.16-7.06,1.96-11.45.17-8.97-1.9-14.11-8.13-19.93-1.52-3.05-3.57-5.76-6.13-8.11-2.28-3.78-4.94-6.65-7.16-9.02-.57-.61-1.14-1.23-1.7-1.85l-.3-.35c-1.08-1.26-3.01-3.49-5.97-5.32-.1-.12-.23-.29-.39-.5-1.54-1.99-3.05-4.04-4.64-6.22l-.91-1.24c-1.99-2.7-4.71-5.98-8.76-8.5-2.04-4.27-5.23-7.88-9.33-10.56-.85-.56-1.85-1.31-2.91-2.1-.89-.67-1.86-1.4-2.92-2.14-2.84-4.14-6.52-6.13-8.31-7.09l-.47-.25c-.14-.08-.31-.17-.47-.25-3.25-3.57-7.29-6.17-12.04-7.77-.52-.46-.97-.81-1.29-1.06l-.08-.06c-1.3-1.08-2.57-2.2-3.85-3.31-1.47-1.29-2.95-2.57-4.45-3.82l-.5-.42c-1.79-1.5-4.24-3.55-7.37-5.21,0,0-.05-.05-.13-.19-.8-1.3-1.65-2.83-2.39-4.2-2.9-5.29-7.19-9.09-12.78-11.3-2.75-1.09-5.61-1.87-8.56-2.33-3.76-3.41-7.75-5.01-9.69-5.78-.53-.21-1.08-.41-1.63-.61-1.52-1.54-3.04-2.48-3.98-3.01-4.04-2.73-8.18-4.23-11.38-5.24l-.16-.05c-.77-.25-2.05-.66-3.69-.92-2.23-1.53-4.33-2.52-5.87-3.25-.32-.15-.63-.31-.95-.47-1.44-.73-3.35-1.69-5.76-2.45-2.47-2.06-5.33-3.57-8.52-4.51-1.01-.3-2.01-.63-3.01-.97-.67-.22-1.34-.45-1.92-.63-.19-.07-.38-.15-.57-.23-1.81-.73-5.15-2.07-9.36-2.07-.06,0-.12,0-.18,0-.77.01-1.9-.1-4-.98-2.39-1-4.56-1.33-5.98-1.46-5.29-2.36-10.36-3.46-15.39-3.33-1.42-.41-2.73-.72-3.86-.98-.94-.22-1.84-.43-2.44-.62-2.43-.77-6.17-1.79-10.58-1.84-3.58-.04-6.54.04-9.36.24-2.7-.85-7.2-1.93-12.41-.91-1.35-.25-2.59-.5-3.5-.79-4.5-1.42-9.01-1.41-13.42.05-5.28-.8-9.97-.05-13.26.67-.2,0-.64-.04-1.57-.16l-.59-.08c-3.34-.44-8.44-1.1-14.1.33-4.86-1.44-9.96-1.87-15.21-1.28-5.17.58-9.63,2.36-13.31,5.28-.49.14-.96.27-1.43.41-.78.23-1.9.46-3.08.7-3.17.64-7.3,1.48-11.59,3.65-.15.01-.3.02-.43.03-1.49.11-3.6.26-6,.83-.65-.05-1.3-.1-1.95-.14l-1.07-.08c-6.25-.46-10.82,1.7-13.69,3.76-.92.53-2.58,1.48-4.3,3.06l-.22.18c-1.78,1.46-3.27,3.01-4.46,4.66-2.98,1.44-6.25,2.72-9.71,4.07l-.59.23c-1.64.64-5.25,2.05-8.54,5.29-2.49.89-6.13,2.29-9.84,4.46-6.31.98-10.07,4.8-11.41,6.16-.71.72-1.71,1.57-2.8,2.47-3.08,1.31-5.49,2.94-7.26,4.14-.52.36-1.06.72-1.47.98-5.42,1.7-8.84,5.03-10.77,6.92-.2.19-.39.39-.59.57-1.32,1.24-2.41,2.42-3.37,3.47-.56.61-1.29,1.41-1.7,1.78-2.39,1.14-4.51,2.77-6.44,4.98-.26.18-.65.43-.96.63-1.1.72-2.56,1.66-4.11,2.93-2.32,1.23-4.15,2.58-5.6,3.66-.58.43-1.12.84-1.47,1.06-5.62,3.57-9.02,8.12-11.08,11.22-1.6,2.4-2.68,2.7-3.32,2.87-2.03.56-4.12,1.28-6.38,2.21-3.84,1.57-6.86,3.91-8.97,6.93-.14.2-.29.4-.43.6-1.2,1.65-3.07,4.2-4.23,7.72-1.93,1.74-4.36,4.36-5.95,8.34-2.16,1.93-3.83,4.41-5,7.42-.28.72-.87,1.86-2.78,3.44-1.46,1.2-4.16,3.43-6.19,6.97-.25.34-1.01,1.15-1.57,1.74-.91.97-2.02,2.14-3.13,3.53-1.01.99-2.76,2.87-4.03,5.69-.37.36-.98.91-1.46,1.33l-.26.23c-5.95,5.29-8.51,12.81-7.04,20.62.31,1.62.57,3.34.85,5.16Zm35.71-12.06c.27-.31.56-.66.85-1.05.29-.38.93-1.06,1.55-1.72,1.44-1.53,3.32-3.52,5.05-6.16,4.53-3.78,8.05-8.11,10.48-12.92,2.99-2.8,4.68-6.02,5.65-8.41,1.94-1.83,4.69-4.88,6.44-9.3,8.38-2.5,15.29-7.76,20.55-15.66.73-1.09,1.3-1.78,1.7-2.03,1.31-.83,2.45-1.68,3.36-2.35.48-.36,1.12-.83,1.45-1.05,2.09-.83,3.98-2.09,5.55-3.71.26-.18.7-.47,1.04-.69,1.63-1.06,3.95-2.56,6.21-4.86,4.18-2.44,7.02-5.55,9.02-7.73.63-.68,1.22-1.33,1.65-1.74.33-.31.65-.62.97-.93,1.57-.57,2.74-1.22,3.42-1.59l.14-.07c1.75-.96,3.24-1.96,4.43-2.77.58-.39,1.35-.91,1.76-1.15,2.23-.62,4.3-1.73,6.07-3.25.53-.46,1.07-.9,1.6-1.35.97-.8,2.01-1.67,3.09-2.64,2.9-.81,5.22-2.08,6.92-3.12,1.13-.69,2.65-1.37,4.78-2.13,2.79-.99,6.69-2.65,10.27-5.95,3.68-1.44,7.48-2.93,11.35-4.78.63-.15,1.48-.36,2.45-.68,4.28-1.41,7.66-4.11,9.76-7.54,1.97.16,4.67.06,7.6-1.09.23-.02.49-.04.71-.05,1.44-.1,3.38-.24,5.61-.74,1.16-.21,3.95-.74,6.85-2.63.59-.26,2.3-.6,3.56-.86,1.73-.35,3.7-.75,5.84-1.39.83-.25,1.67-.48,2.51-.69,2.98-.76,5.73-2.1,8.09-3.94.7.04,1.33.19,1.99.48,5.12,2.22,10.9,2.28,16.02.19.62.05,1.57.17,2.31.27l.66.08c3.61.46,7.59.75,12.25-.29,1.14-.25,1.68-.3,1.89-.31,4.67,1.09,8.81.47,11.73-.32,1.79.43,3.49.74,5.05,1.03.72.13,1.44.26,2.14.41,2.82.57,5.28.42,7.32-.04,3.75,1.09,7.16,1.04,10.03.84,1.95-.14,4.13-.19,6.76-.17.04,0,.39.05,1.41.37,1.77.56,3.38.93,4.8,1.26,1.06.25,2.15.5,2.72.71,2.85,1.05,6.02,1.42,9.09,1.09.02,0,.54.04,1.94.69,2.65,1.23,5.41,2.03,8.23,2.37,4.27,1.6,8.42,2.48,12.59,2.68.59.23,1.32.51,2.14.78.57.19,1.14.38,1.71.57.81.27,1.64.55,2.51.83,2.8,2.23,5.98,3.85,9.47,4.81.25.11.71.34,1.05.52.56.28,1.12.57,1.69.83.26.12.77.37,1.15.56,3.71,4.04,8.97,6.12,14.31,5.83.54.21.96.4,1.26.57,3.9,4.12,8.48,5.73,10.91,6.59.29.1.58.2.86.31.12.05.23.09.33.13,3.89,4.36,9.25,6.98,15.28,7.41.24.02.48.04.71.07.59,1.05,1.23,2.16,1.92,3.27,3.04,4.9,7.11,8.73,12.06,11.38.37.22,1.32,1.02,2.01,1.6l.57.48c1.32,1.1,2.61,2.23,3.9,3.36,1.45,1.26,2.9,2.53,4.38,3.76.07.06.13.11.2.17,2.16,2.5,5.57,5.2,10.75,6.51,2.37,2.62,5.03,4.29,7.05,5.41,2.19,2.95,4.74,4.65,6.09,5.55.82.54,1.75,1.25,2.74,1.99.97.73,2.03,1.52,3.19,2.33,1.67,3.89,4.86,8.49,10.91,11.7.11.14.24.31.41.55l.89,1.21c1.65,2.26,3.37,4.59,5.17,6.92,1.97,2.54,4.25,5.15,7.61,7.33l.33.38c.74.83,1.49,1.65,2.25,2.47,1.4,1.51,2.85,3.07,3.32,3.98,1.21,2.38,2.93,4.55,5.01,6.32,1.2,2.95,2.96,5.06,4.33,6.42,0,0,0,.02,0,.02-.18.54-.38,1.08-.57,1.63-.51,1.42-1.1,3.06-1.62,4.9-2.66,2.68-4.71,5.54-6.2,8.65-.96.98-2.26,2.41-3.44,4.34-.86,1.41-1.52,2.76-2.06,3.97-.81.71-1.5,1.39-2.11,1.98-.27.26-.61.59-.84.8-2.26,1.32-4.14,2.73-5.66,3.88-.78.59-1.52,1.15-2.12,1.54-3.58,2.37-6.08,5.24-7.91,7.34-.29.33-.58.67-.87.99-.21.23-.41.46-.61.7-.03.03-.06.06-.08.1-4.02,2.83-7.42,6.53-10.14,11.01-3.57.51-7.74,2.13-11.57,6.16-1.25,1.32-3.02,2.61-5.55,4.05l-.12.06c-.72.35-1.92.93-3.28,1.84l-.77.51c-2.45,1.62-6.15,4.07-9.15,8.32-7.34,1.37-12.51,5.28-15.44,7.49l-.39.3c-.39.3-.89.68-1.24.92-.67.17-1.28.36-1.8.53-.06,0-.11,0-.17,0-5.98,0-11.82,2.98-15.56,8.06-2.54.99-4.53,2.2-5.95,3.07-.17.11-.38.23-.57.34-2.05.31-3.72.82-4.86,1.17-.21.06-.42.13-.63.19-3.97.73-7.21,2.17-9.58,3.22-.85.38-2,.88-2.46,1.01-3.9.59-6.61,2.39-7.49,2.97-.89.59-3.02,1.23-5.09,1.85l-1.28.38c-2.39.73-4.33,1.67-5.75,2.36-.35.17-.81.39-1.09.52-1.65.37-2.97.86-3.8,1.16l-.33.12c-2.64.8-4.81,2-6.56,3.46-4.84-1.98-10.12-1.91-14.72.22-.27.03-.8.08-1.85.11-4.42.12-8.2,1.44-11.27,3.94-.04.02-.09.04-.13.06-.77.33-1.82.78-2.98,1.38-5.05-1.65-10.45-1.3-15.32,1.03-1.89-.27-3.67-.35-5.31-.35s-3.01.08-4.27.15c-.53.03-1.05.06-1.58.08-2.04.08-3.55-.04-4.75-.38-3.62-1.01-7.36-1.07-11.1-.18-.88.21-1.8.4-2.75.59-4.42-1.39-8.55-1.38-11.59-1.19-2.12.13-4.74-.21-7.77-.62l-2.85-.37c-3.16-.42-6.94-.92-11.21-.61-.22-.03-.42-.06-.62-.08-4.25-2.81-9.48-3.79-14.54-2.65-.16-.02-.3-.05-.39-.06-2.21-.34-4.03-.24-5.02-.18-.25,0-.51-.02-.77-.02-.25,0-.5,0-.75-.02-1.72-.4-5.37-1.17-9.63-.25-.07,0-.14,0-.21,0,0,0-.02,0-.03,0-2.7-2.63-6.05-4.39-9.99-5.23-.11-.03-.23-.07-.34-.11-1.36-.44-3.61-1.15-6.46-1.33-.58-.18-1.11-.34-1.59-.48-.27-.08-.58-.17-.86-.26-3.58-3.23-8-5.04-12.58-5.23-3.42-1.11-6.46-1.13-8.26-1.11-3.17-2.63-6.41-4.2-8.87-5.4-.48-.23-.96-.46-1.43-.71-2.11-1.85-4.33-3.26-6.66-4.23-2.15-2.37-4.77-4.36-7.82-5.95-.04-.03-.08-.07-.12-.1-4.1-3.24-8.59-5.38-13.37-6.39-.38-.27-.91-.67-1.32-.99-.27-.21-.54-.41-.8-.61-.44-.44-.9-.87-1.36-1.28-3.58-3.13-7.3-5.52-10.58-7.63-1.43-.92-2.79-1.79-4.03-2.66-.05-.03-.1-.07-.15-.1-3.18-3.23-7.23-5.47-12.08-6.66-.29-.19-.66-.45-.95-.66-.36-.26-.73-.51-1.1-.77-.21-.16-.41-.34-.61-.51-.59-.5-1.38-1.16-2.32-1.85-2.46-5.13-6.45-8.94-11.58-11.01-1.46-.59-1.74-1.04-1.86-1.23-2.5-3.96-6.23-6.77-10.6-8.08-1.45-1.25-3.23-2.6-5.36-3.82-1.44-2.37-3.03-4.28-4.47-5.93-.85-.98-1.82-2.41-2.85-3.93-.37-.54-.73-1.08-1.1-1.61-3.21-4.64-7.43-10.49-12.56-16.09,1.53-1.65,3.1-3.64,4.42-6.09Z"/>
        <path class="cls-2" d="m237.81,296.25c.08.84.31,1.72.68,2.48,1.74,3.62,5.15,6.11,6.7,9.87,1.79.88,2.07,3.19,3.8,4.08,3.18,1.64,4.87,4.4,6.12,7.59.95,2.43,2.16,4.73,3.64,6.91,2.35,3.45,4.31,7.18,7.71,9.8.22.17.41.44.5.7.98,2.61,3.2,4.15,5.33,5.55.3.2.57.42.86.64,1.56,2.38,3.2,4.69,5.52,6.48.22.17.41.44.5.7.98,2.61,3.2,4.15,5.33,5.55,2.36,1.55,4.19,3.56,5.93,5.66,1.6,1.93,3.34,3.49,5.64,4.61,2.3,1.13,4.69,2.42,5.52,5.22,1.84,1.32,3.5,3.12,5.88,3.27,1.41.09,2.43.59,3.57,1.27,2.24,1.33,4.52,2.6,6.5,4.31.68.59,1.47.92,2.35,1.04,1.18.16,2.23.61,3.2,1.28.61.43,1.3.8,2.02.62,1.75-.44,3.06.41,4.47,1.2,1.52.85,3.15,1.49,4.68,2.31,4.7,2.5,9.58,4.04,14.99,3.11,1.16-.2,2.3.12,3.44.19,2.98.19,6,.65,8.81-1.08,1.52-.93,3.26-1.06,5.02-.32,1.59.67,3.35.74,4.98,1.47,1.73.78,3.69.68,5.52-.11.93-.4,1.85-.84,2.81-1.19,2.58-.95,5.12-2.33,7.79-2.69,3.97-.54,8.04-.57,12.05-.38,2.94.14,5.4-.83,7.77-2.19,1.75-1,3.37-2.26,4.93-3.54,1.99-1.64,4.24-2.51,6.77-2.62,4-.17,7.32-2.51,11.11-3.38.87-.2,1.34-1.05,1.89-1.73,1.74-2.13,3.44-4.31,5.27-6.36,2.69-3.03,5.54-5.79,9.22-7.79,3.77-2.04,7.43-4.41,10.09-8.05.87-1.19,1.95-2.62,3.54-3.04,2.14-.56,3.2-2.18,3.5-4,.54-3.28,1.95-6.14,3.93-8.61,2.06-2.57,2.95-5.58,3.97-8.53.73-2.1,1.59-4.01,3.07-5.67,1.78-2.01,2.85-4.33,2.81-7.08-.02-1.48.48-2.78,1.19-4.1,2.05-3.81,4.29-7.48,6.82-10.98.32-.44.67-1.13.54-1.57-.63-2.09.51-4.37-.75-6.4-.27-.44-.29-1.17-.16-1.7.85-3.51.77-7.22,2.38-10.57.83-1.72.97-3.5.75-5.48-.26-2.25-.92-4.69-.08-6.85,1.54-3.98.92-7.6-.95-11.2-.27-.51-.49-1.05-.77-1.56-.89-1.63-1.72-3.21-3.11-4.61-1.7-1.71-2.87-3.93-3.96-6.17-1.41-2.9-1.79-6.13-3.17-9.01-1.1-2.3-1.4-4.63-.92-7.15.4-2.07.08-4.11-1.55-5.61-1.46-1.35-2.31-2.86-2.52-4.87-.13-1.27-.57-2.54-1.39-3.62-.63-.82-1.03-1.77-1.1-2.8-.09-1.35-.91-1.97-2.02-2.55-1.49-.77-2.51-2.48-4.56-2.14-.35.06-.85-.25-1.14-.54-.67-.65-1.36-1.28-2.05-1.92-.16-1.2-.57-2.4-1.34-3.43-.63-.82-1.03-1.77-1.1-2.8-.09-1.35-.91-1.97-2.02-2.55-1.49-.77-2.5-2.47-4.54-2.14-1.3-1.58-2.8-2.82-4.52-3.68-2.13-1.99-4.18-4.05-5.65-6.69-3.05-5.48-7.59-8.62-14.18-7.97-2.12.21-3.99-.3-5.64-1.73-.75-.65-1.69-1.19-2.63-1.46-2.68-.79-5.06-2.12-7.41-3.58-2.84-1.76-5.82-3.11-9.36-2.75-1.77.18-3.46-.53-4.88-1.59-2.48-1.86-5.34-2.25-8.26-2.15-3.67.13-7.15-.21-10.41-2.11-1.1-.64-2.42-1.02-3.69-1.24-1.88-.33-3.68-.81-5.4-1.61-1.65-.76-3.38-.98-5.08-.33-2.72,1.03-5.51.7-8.14.08-2.6-.61-5.09-.63-7.69-.35-5.04.56-10.14.22-14.7,1.02-1.19-.14-2.03-.5-2.6-.25-3.2,1.41-6.84.86-10.01,2.67-2.34,1.33-4.66,2.89-7.38,3.56-.66.16-1.27.71-1.82,1.17-3.36,2.84-6.99,5.1-11.54,5.4-.42.03-.83.23-1.22.42-2.91,1.4-6.09,1.8-9.19,2.4-3.13.61-6.06,1.23-8.88,3.06-2.65,1.72-4.01,4.02-5.04,6.63-.49,1.24-.79,2.44-1.91,3.26-.97.71-1.54,1.68-1.95,2.81-.24.65-.69,1.28-1.19,1.77-1.44,1.43-2.91,2.83-4.45,4.15-1,.86-1.7,1.86-2.42,2.98-1.63,2.54-3.14,5.24-5.55,7.18-2.26,1.81-4.24,3.89-6.25,5.97-2.3,2.37-2.28,5.16-2.06,7.92.1,1.29.51,2.47-.07,3.74-.37.81-.43,1.7-.16,2.56.38,1.25-.11,2.27-.74,3.27-.69,1.11-1.33,2.25-2.05,3.34-1.8,2.75-2.67,5.76-2.47,9.04.07,1.06-.32,1.95-.58,2.93-1.04,3.91-3.05,7.52-3.45,11.62-.05.56-.29,1.14-.58,1.62-.62,1.04-.68,2.16-.8,3.33-.32,2.9.1,5.82-.22,8.68-.25,2.23.05,4.23.57,6.36.75,3.09,1.4,6.32.36,9.45-.82,2.47-.44,5.21-1.83,7.55-.25.41-.21,1.2.02,1.65.77,1.49.69,3.08.85,4.67Zm85.45-39.83c1.37,1.58.74,3.38.51,5.08-.29,2.16-.27,4.32-.29,6.48-.02,1.68.28,3.18,1.32,4.58,1.17,1.57,1.64,3.46,1.5,5.38-.21,3.02.14,5.78,1.49,8.62,1.59,3.36,3.02,6.58,6.73,8.09.6.25,1.09.79,1.62,1.22,1,.81,1.71,1.77,1.39,3.15-.32,1.4.15,2.33,1.42,2.99,1.48.77,2.54,2.01,3.48,3.36.64.92,1.43,1.62,2.53,1.92.09.03.17.07.27.1-1,.04-1.99.1-2.88.73-.72.51-1.57.2-2.27-.3-1.24-.89-2.55-1.5-4.15-1.37-1.03.08-1.76-.55-2.49-1.18-1.43-1.25-2.96-2.35-4.72-3.06-3.25-1.61-4.64-4.63-6.14-7.8-1.35-2.85-1.7-5.6-1.49-8.62.14-1.92-.33-3.81-1.5-5.38-1.04-1.39-1.33-2.89-1.31-4.57.02-2.17,0-4.32.29-6.48.23-1.7.86-3.5-.51-5.08-.15-.18-.26-.6-.16-.76,1.18-1.88.21-4.29,1.6-6.16.72-.96,1.11-2.16,1.68-3.24.44-.84.88-1.7,1.72-2.23.43-.27.77-.62,1.15-.93-.38,1.56-.05,3.28-.94,4.7-.1.16,0,.58.16.76Zm7.76-15.05c.41-.65.88-1.27,1.42-1.83-.44.64-.92,1.24-1.42,1.83Zm3.42-4.95c.71-1.71,2.03-3.1,2.67-4.83.64-1.75,1.69-3.08,3.04-4.03-.41.71-.77,1.45-.91,2.3-.08.46-.6.9-1,1.24-1.49,1.26-2.3,2.98-3.32,4.57-.16.25-.31.5-.47.76Z"/>
      </g>
    </g>
  </g>
</svg>