<?xml version="1.0" encoding="UTF-8"?>
<svg xmlns="http://www.w3.org/2000/svg" viewBox="0 0 750 500">
  <defs>
    <style>
      .cls-1, .cls-2 {
        fill: #fff;
      }

      .cls-3 {
        fill: #ffd731;
      }

      .cls-4 {
        fill: #61b1eb;
      }

      .cls-4, .cls-5, .cls-6, .cls-2 {
        mix-blend-mode: multiply;
      }

      .cls-5 {
        fill: #de6acc;
      }

      .cls-6 {
        fill: #6b52e8;
      }

      .cls-7 {
        isolation: isolate;
      }
    </style>
  </defs>
  <g class="cls-7">
    <g id="BACKGROUND">
      <rect class="cls-1" y="-.18" width="750" height="500.36"/>
    </g>
    <g id="OBJECTS">
      <g>
        <g>
          <path class="cls-6" d="m472.99,401.27c.49,3.36-1.05,5.66-3.45,7.52-.06.05-.13.12-.2.13-1.88.38-3.42,1.64-5.28,2.13-.75.2-1.43-.04-2.13-.29-1.36-.49-2.72-.56-4.03.03-1.33.6-2.67.58-4.04.12-.81-.28-1.55-.25-2.37.05-2.34.88-4.78.87-7.2.15-.77-.23-1.43-.23-2.13.13-.59.3-1.19.58-1.82.76-1.27.37-2.55.59-3.87-.02-1.31-.6-2.7-.51-4.12-.56-2.66-.09-5.32-.04-7.99-.07-1.37-.02-2.68.17-3.9.81-.46.24-.9.46-1.42.48-1.93.07-3.87.14-5.81.18-.6.01-1.19-.09-1.71-.4-1.18-.68-2.37-.74-3.67-.27-1.21.44-2.49.52-3.78.47-1.02-.04-2.05.06-3.07.07-.59,0-1.23.06-1.78-.12-1.33-.43-2.62-.71-4.01-.13-.28.12-.68,0-1.01-.07-2.76-.54-5.44-.25-8.15.73-1.38.5-2.88.66-4.35.89-1,.16-1.87-.32-2.68-.82-.78-.48-1.48-.62-2.44-.24-2.18.86-4.37.42-6.41-.36-1.14-.44-2.14-.62-3.27-.12-1.19.53-2.38.56-3.64.44-2.1-.21-4.24,0-6.33-.47-1.2-.27-2.44.05-3.61.76-1.82,1.1-3.64.96-5.23-.3-.67-.53-1.28-.8-2.18-.47-2.35.85-4.67.64-6.85-.22-1.3-.51-2.47-.67-3.9-.21-2.11.67-4.17.03-6.16-.4-1.89-.41-3.73-.42-5.67-.3-3.49.21-6.99.7-10.5.58-1.09-.04-2.22.17-3.33.35-.97.15-1.84.06-2.64-.43-.68-.41-1.42-.75-2.12-1.15-1.72-.98-2.38-2.55-2.23-4.47.15-2.08.88-4.08,1.48-6.08.24-.8.78-1.52,1.52-1.96,1.15-.69,1.73-1.72,2.13-2.83.47-1.32,1.09-2.47,2.31-3.33.7-.5,1.2-1.21,1.29-2.03.24-2.16,1.23-4,2.49-5.83,1.07-1.54,1.78-3.3,2.25-5.08.46-1.74,1.4-3.23,2.7-4.5,1.06-1.04,1.7-2.21,2.14-3.56.53-1.63,1.23-3.2,2.4-4.58.72-.85,1.39-1.81,1.5-2.96.02-.25.1-.51.22-.73,1.99-3.5,3-7.35,5.44-10.63,1.08-1.46,1.54-3.32,2.23-5,.48-1.16,1.07-2.23,2.05-3.11.43-.39.74-.9,1.04-1.39.58-.93,1.34-1.71,2.15-2.44.63-.57,1.39-1.09,2.28-1.03,1.79.12,3.58-.49,5.36-.01.31.08.68.08,1.01.04,2.79-.29,5.57-.44,8.35-.52,1.66-.05,3.38-.09,4.96-.73.94-.38,1.86-.18,2.69.14,1.56.61,3.08.57,4.66.13.97-.27,1.95-.19,2.97-.11,2.22.19,4.45.51,6.69.1,1.48-.27,2.97-.05,4.42.25.98.21,1.94.24,2.93.05.63-.13,1.3-.1,1.95-.13.57-.02,1.2.12,1.71-.05,2.72-.9,5.46-.19,8.18-.07,1.54.07,3.07.1,4.6-.14,1.35-.21,2.73-.22,4.09-.32.16-.01.34-.05.48,0,1.88.72,3.82.35,5.73.5,1.7.14,3.36.02,4.97-.44,1.02-.29,2-.32,3.04,0,.68.21,1.41.23,2.12.32.31.04.66-.03.95.07,2.31.78,4.67.64,7.01.75.73.03,1.41-.07,2.09-.19.88-.15,1.71-.15,2.47.45.65.51,1.39.71,2.21.75,1.47.08,2.46.83,3.21,2.1,1.21,2.03,2.74,3.83,4.38,5.58,1.07,1.14,1.92,2.48,3.07,3.59.48.46.69,1.23.92,1.89.34.98.75,1.91,1.45,2.71.16.18.33.38.4.59.61,1.99,1.97,3.56,3.1,5.28.52.8.91,1.69,1.62,2.37.42.4.69.89.87,1.43.76,2.23,1.88,4.24,3.7,5.83.84.73,1.28,1.63,1.35,2.74.03.47.09,1.03.36,1.38,1.06,1.36,1.58,3.04,2.63,4.36.94,1.18,1.56,2.47,2.1,3.84.75,1.89,1.34,3.86,2.42,5.63.21.35.4.75.47,1.14.43,2.58,2,4.48,3.69,6.32.5.55,1.07,1.05,1.2,1.84.08.49.14.98.19,1.47.04.41.04.82.05,1.23Z"/>
          <path class="cls-4" d="m194.92,330.26c.02-1.33.4-2.62-.01-3.81-.98-2.85-1.14-5.67-.52-8.52.11-.49-.11-1.03.12-1.48,2.33-4.58,1.32-9.37,1.64-14.07.05-.74-.16-1.52.07-2.22.52-1.54.08-2.97-.9-4.36-1.06-1.5.92-2.91.06-4.39-.2-.35-.2-.79-.54-1.06-2.77-2.2-2.5-4.8-2.64-7.41-.08-1.43.63-2.64,1.1-3.95.47-1.29.17-2.69,2.05-3.66.81-.42.39-1.13-.12-1.69-1.79-1.97-2.39-4.1-2.6-6.38-.19-2.02-.21-3.91,1.38-5.7.54-.61.86-1.4.89-2.12.09-2.05,1.22-3.84,2.57-5.6.81-1.05.96-2.07.12-3.18-.5-.65-.61-1.42-1.04-2.1-1.28-2-1.74-3.93-.18-6.01.61-.81.69-1.98.38-2.9-.82-2.36-.15-4.95-2.69-7.05-1.01-.84-.51-1.9-.42-2.87.38-4.05,1.04-8.06,2.14-12.04.54-1.96.82-3.88-1.25-5.64-.5-.42-.43-1.16-.52-1.76-.12-.73.02-1.48-.21-2.19-.88-2.73.33-5.25,1.35-7.81.51-1.28.9-2.59,1.31-3.89.16-.5-.05-.98-.59-1.36-.64-.45-1.4-.93-1.3-1.57.25-1.56-2.66-2.45-1.86-4.11.69-1.43-.09-2.99.41-4.36.62-1.7-.06-3.37.44-5.03.26-.86.21-1.74-.45-2.51-1.23-1.44-.85-2.86.02-4.24,1.55-2.47,1.95-4.91.33-7.46-.41-.65-.46-1.44-.44-2.16.08-2.32.28-4.64-1.01-6.87.61-2.76-.6-5.6.7-8.31.75-1.56.88-3.11.58-4.68-1.01-5.26.34-10.42,1.34-15.59.25-1.31.93-2.6,1.64-3.84.65-1.14,1.31-2.23,1.26-3.5-.1-2.16,1.9-3.29,4.74-3.93.69-.16,1.41-.27,2.13-.34,5.08-.5,10.15-1.05,15.25-1.44,2.4-.19,4.62-.49,6.82-1.22,2.6-.87,5.44-1.16,8.49-.81,3.42.4,6.79.59,10.11,1.54,2.97.84,6.26,1.14,9.64.13,2.8-.84,6-1.1,9.01-1.68,2.39-.46,4.78-.35,7.12.03,2.63.43,4.97,1.64,7.96,1.1.52-.09,1.34.35,1.93.62,3.99,1.83,8.31,1.93,12.7.99,2.61-.56,5.2-.46,7.66,0,4.27.8,8.06.41,11.57-1.24,1.03-.48,2.02-.62,3.05-.15,1.18.55,2.31.54,3.67.28,3.53-.68,7.28-.6,10.79-1.56,2.12-.58,4.75.04,7.13-.37.9-.16,1.68.38,2.47.72,4.35,1.86,9,2.88,14.16,1.86,1.97-.39,3.78-.04,5.43.42,3.12.85,6.16.66,9.32.34,5.1-.52,10.16-1.31,15.42-1.05,1.11.05,2.21-.07,3.24.34,2.36.94,5.02.97,7.62,1.04,3.71.1,7.43-.49,11.15.15.34.06.79.03,1.1-.07,3.8-1.22,7.97-.71,11.95-1.03,4.58-.37,9.09-1.07,13.61-1.71,2.04-.29,3.88-.57,5.96.17,1.44.51,3.23.6,4.88.83.71.1,1.77.29,2.15.06,2.3-1.37,4.86-.73,7.44-.57,2.58.16,5.24-.37,7.75.53,1.04.37,2.23.43,3.29.14,2.47-.68,4.86-.3,7.11.35,2.55.73,5.03.92,7.71.56,3.17-.43,6.29.57,9.53.32,1.64-.13,3.36.03,5.02-.25.72-.12,1.51-.28,2.22-.2,7.31.81,14.66,0,21.99.45,2.63.16,5.27.21,7.91-.1,1.45-.17,3.01-.02,4.52.05,6.8.3,13.6.69,20.42.24,2.07-.13,4.12-.28,6.16-.55,6.96-.9,12.55.85,15.39,5.07,3.08,4.58,5.21,9.36,5.48,14.38.04.73-.12,1.48-.31,2.2-.51,1.97-.52,3.92.42,5.88.45.95.85,1.98.38,2.94-.91,1.85-.38,3.65.2,5.5.45,1.45,1.19,2.93.03,4.37.57,3.04-.21,5.87-2.63,8.47-.27.29-.34.74-.23,1.09.89,2.91-.41,5.66-.99,8.47-.59,2.81-.94,5.66-1.28,8.5-.23,1.9.61,3.68,1.77,5.45,2.15,3.28,3.7,8.42,3.56,10.9-.08,1.39-.38,2.7-1.51,3.91-2.37,2.54-2.65,5.41-2.01,8.3.36,1.64.35,3.23.22,4.86-.22,2.75-.56,5.5.84,8.21.06.12.15.25.12.37-.93,3.28.79,6.42,1.67,9.61.78,2.81-.42,5.48-1.58,8.09-1.51,3.37-2.59,6.76-2.39,10.31.08,1.45-.67,2.72-1.8,3.88-1.37,1.41-1.19,2.71-.14,4.26,1.12,1.66,3.34,2.93,4.08,4.61.74,1.68.61,3.49.95,5.25.1.49.41,1,.81,1.42,1.1,1.13,1.64,2.27,1.05,3.6-.37.85-.26,1.77.34,2.6,1.12,1.54.56,2.97-.33,4.38-1.17,1.87-1.77,3.79-1.84,5.85-.05,1.41-.24,2.74.88,4.06.62.74.36,1.48-.52,2.08-.39.27-.86.49-1.22.78-1.76,1.42-2.5,3-1.83,4.92,1.76,5.04,1.05,10.1.93,15.16-.03,1.4-.2,2.78.47,4.15.96,2,.93,3.95.37,6.01-.97,3.59-1.36,7.26-2.12,10.88-.35,1.65-.31,3.25.23,4.92,1.06,3.31-.91,6.26-2.57,9.18-.75,1.31-2.69,2.09-4.68,2.61-3.38.89-6.8,1.5-10.62,1.28-9.08-.53-18.08-.11-26.97.83-1.54.16-3.05.28-4.57-.02-5.33-1.03-10.19-.08-14.89,1.26-1.31.38-2.47.41-3.86.25-3.79-.42-7.65-.13-11.44-.82-1.3-.23-2.76-.06-3.85.48-2.24,1.11-4.99,1.12-7.55,1.56-.72.12-1.56.21-2.26.09-3.19-.58-6.36-.97-9.67-.75-.83.06-1.8-.37-2.65-.65-1.9-.62-3.78-1.28-5.64-1.96-.88-.32-1.8-.6-2.74-.45-2.68.42-5.26,0-7.92-.25-2.64-.26-5.4.08-7.75.91-3.8,1.34-7.7,1.18-11.64.37-4.15-.85-8.24-1.09-12.39-.38-2.45.42-4.92-.07-7.38-.14-2.08-.05-4.18-.29-6.23-.57-4.72-.64-9.39-.53-14,.14-1.58.23-3.01-.07-4.48-.34-1.65-.31-3.31-.92-4.94-.91-4.15.03-8.26.3-12.22-1.04-.85-.29-1.78.21-2.67.4-5.52,1.19-10.92,1.28-16.42-.61-5.36-1.84-10.06-.33-13.97,1.95-2.45,1.42-5.55,1.04-8.09,1.93-3.96-.74-8.38-.31-11.81-2.39-.66-.4-1.8-.78-2.58-.69-3.78.42-7.93-.58-11.39,1.1-.44.22-1.08.56-1.46.48-4.05-.87-8.13.92-12.19-.34-2.1-.65-4.4-.71-6.66-.46-1.48.16-2.99.33-3.93,1.24-.68.65-1.6,1.03-2.78,1.11-2.21.15-3.52,1.95-6.16,1.35-2.24-.5-4.47.07-6.71.03-1.17-.02-2.14-.33-3.14-.74-2.26-.93-5-1.25-7.23-2.05-4.63-1.66-9.32-1.48-14.16-1.54-5.98-.08-11.96-.52-17.94-.61-4.67-.08-9.31-.17-13.93-.76-2.99-.38-5.79-1.03-8.41-2.07-2.07-.82-3.46-1.97-3.61-3.61-.23-2.49-1.29-4.95-.79-7.48.19-.97.05-2.01-.27-2.98-.57-1.75-.88-3.46-.11-5.12Z"/>
          <path class="cls-3" d="m548.18,152.54c-.02,1-.34,1.98.01,2.87.84,2.15.97,4.27.44,6.42-.09.37.09.78-.1,1.11-1.98,3.45-1.12,7.06-1.39,10.61-.04.56.14,1.14-.06,1.67-.44,1.16-.07,2.24.76,3.29.9,1.13-.78,2.2-.05,3.31.17.26.17.6.46.8,2.36,1.66,2.13,3.62,2.24,5.59.06,1.08-.53,1.99-.94,2.98-.4.98-.14,2.03-1.74,2.76-.69.32-.33.85.1,1.28,1.52,1.48,2.03,3.09,2.21,4.81.16,1.53.18,2.95-1.17,4.3-.46.46-.73,1.06-.76,1.6-.08,1.54-1.04,2.9-2.19,4.22-.69.79-.82,1.56-.1,2.4.42.49.52,1.07.88,1.58,1.09,1.51,1.48,2.97.16,4.53-.52.61-.59,1.5-.32,2.19.7,1.78.13,3.73,2.28,5.32.86.63.44,1.43.36,2.17-.33,3.05-.89,6.08-1.82,9.08-.46,1.48-.7,2.92,1.06,4.25.42.32.36.88.44,1.33.1.55-.01,1.12.18,1.65.75,2.06-.28,3.96-1.15,5.89-.43.97-.77,1.95-1.11,2.93-.13.38.04.74.5,1.03.55.34,1.19.7,1.1,1.18-.21,1.17,2.26,1.85,1.58,3.1-.58,1.08.08,2.25-.35,3.29-.53,1.28.05,2.54-.38,3.79-.22.65-.18,1.31.38,1.89,1.04,1.09.72,2.15-.02,3.19-1.32,1.86-1.66,3.7-.28,5.63.35.49.39,1.08.37,1.63-.07,1.75-.24,3.5.86,5.18-.52,2.08.51,4.23-.59,6.27-.64,1.17-.75,2.34-.49,3.53.86,3.97-.29,7.86-1.14,11.76-.21.99-.79,1.96-1.39,2.89-.55.86-1.12,1.68-1.07,2.64.09,1.63-1.62,2.48-4.03,2.96-.59.12-1.2.21-1.81.26-4.31.38-8.62.79-12.95,1.09-2.04.14-3.92.37-5.79.92-2.21.66-4.62.88-7.22.61-2.9-.3-5.77-.45-8.59-1.16-2.52-.64-5.31-.86-8.19-.09-2.38.64-5.1.83-7.65,1.27-2.03.35-4.06.26-6.05-.02-2.23-.32-4.22-1.24-6.76-.83-.44.07-1.14-.26-1.64-.47-3.39-1.38-7.06-1.46-10.79-.75-2.22.42-4.42.34-6.5,0-3.62-.6-6.84-.31-9.83.94-.87.36-1.71.47-2.59.11-1.01-.41-1.96-.41-3.11-.21-2.99.51-6.19.45-9.17,1.18-1.8.44-4.03-.03-6.05.28-.77.12-1.43-.29-2.1-.54-3.69-1.4-7.65-2.17-12.02-1.4-1.67.29-3.21.03-4.61-.31-2.65-.64-5.23-.5-7.92-.26-4.33.39-8.63.99-13.1.79-.95-.04-1.88.05-2.75-.26-2-.71-4.26-.73-6.47-.78-3.15-.07-6.31.37-9.47-.11-.29-.04-.67-.02-.94.05-3.23.92-6.77.53-10.16.78-3.89.28-7.72.81-11.56,1.29-1.73.22-3.3.43-5.06-.13-1.22-.39-2.74-.45-4.15-.62-.61-.07-1.5-.22-1.82-.05-1.96,1.04-4.12.55-6.32.43-2.19-.12-4.46.28-6.58-.4-.89-.28-1.89-.33-2.79-.11-2.09.51-4.13.22-6.04-.26-2.16-.55-4.27-.69-6.55-.42-2.7.32-5.34-.43-8.1-.24-1.39.1-2.85-.02-4.26.19-.61.09-1.28.21-1.89.15-6.21-.61-12.45,0-18.68-.34-2.23-.12-4.47-.16-6.72.08-1.23.13-2.56.01-3.84-.04-5.78-.22-11.55-.52-17.35-.18-1.76.1-3.5.21-5.23.41-5.91.68-10.66-.64-13.07-3.83-2.61-3.46-4.43-7.06-4.66-10.84-.03-.55.1-1.11.26-1.66.44-1.49.44-2.96-.35-4.44-.39-.72-.72-1.49-.32-2.21.77-1.4.32-2.76-.17-4.15-.39-1.09-1.01-2.21-.02-3.29-.48-2.29.18-4.43,2.23-6.39.23-.22.29-.56.2-.82-.75-2.19.35-4.27.84-6.38.5-2.12.8-4.27,1.09-6.41.19-1.43-.52-2.77-1.5-4.11-1.83-2.48-3.15-6.35-3.02-8.22.07-1.05.32-2.04,1.29-2.95,2.02-1.92,2.25-4.08,1.71-6.26-.31-1.24-.3-2.44-.19-3.66.19-2.07.47-4.15-.71-6.19-.05-.09-.13-.19-.1-.28.79-2.48-.67-4.84-1.42-7.24-.66-2.12.35-4.14,1.34-6.1,1.28-2.54,2.2-5.09,2.03-7.78-.07-1.1.57-2.05,1.53-2.93,1.16-1.06,1.01-2.04.12-3.21-.95-1.25-2.84-2.21-3.47-3.47-.63-1.26-.52-2.64-.81-3.96-.08-.37-.34-.75-.69-1.07-.94-.86-1.39-1.71-.9-2.71.32-.64.22-1.34-.29-1.96-.96-1.16-.48-2.24.28-3.3.99-1.41,1.5-2.86,1.57-4.41.04-1.06.2-2.06-.75-3.06-.53-.55-.3-1.12.45-1.57.34-.2.73-.37,1.03-.59,1.49-1.07,2.13-2.26,1.56-3.71-1.5-3.8-.9-7.62-.79-11.43.03-1.06.17-2.09-.4-3.13-.82-1.51-.79-2.98-.31-4.53.83-2.71,1.15-5.47,1.8-8.21.3-1.25.26-2.45-.19-3.71-.9-2.5.77-4.72,2.19-6.93.63-.99,2.29-1.58,3.97-1.97,2.87-.67,5.77-1.13,9.02-.97,7.72.4,15.36.09,22.91-.63,1.31-.12,2.59-.21,3.88.01,4.53.77,8.65.06,12.65-.95,1.12-.28,2.1-.31,3.28-.19,3.22.32,6.5.1,9.72.62,1.1.18,2.34.04,3.27-.36,1.9-.83,4.24-.85,6.41-1.17.61-.09,1.33-.16,1.92-.07,2.71.44,5.41.73,8.21.56.71-.04,1.53.28,2.25.49,1.61.47,3.21.97,4.79,1.48.74.24,1.53.45,2.33.34,2.27-.32,4.46,0,6.73.19,2.25.19,4.59-.06,6.58-.69,3.22-1.01,6.54-.89,9.89-.28,3.52.64,7,.83,10.53.29,2.08-.32,4.18.06,6.27.1,1.77.04,3.55.22,5.3.43,4.01.48,7.97.4,11.89-.1,1.34-.17,2.56.05,3.8.26,1.4.23,2.81.69,4.2.68,3.53-.03,7.02-.23,10.38.79.73.22,1.51-.16,2.27-.3,4.69-.9,9.27-.97,13.95.46,4.56,1.39,8.54.25,11.87-1.47,2.08-1.07,4.72-.79,6.87-1.46,3.36.56,7.12.24,10.03,1.8.56.3,1.53.59,2.19.52,3.21-.32,6.74.44,9.67-.83.38-.16.92-.42,1.24-.36,3.44.66,6.91-.69,10.36.26,1.79.49,3.74.54,5.66.35,1.26-.12,2.54-.25,3.34-.93.58-.49,1.36-.78,2.36-.84,1.88-.11,2.99-1.47,5.23-1.02,1.9.38,3.8-.06,5.7-.03.99.02,1.82.25,2.67.56,1.92.7,4.24.94,6.14,1.55,3.93,1.25,7.92,1.11,12.02,1.16,5.08.06,10.16.39,15.24.46,3.97.06,7.91.13,11.83.57,2.54.29,4.92.78,7.15,1.56,1.76.62,2.94,1.48,3.07,2.73.2,1.88,1.09,3.73.67,5.64-.16.73-.04,1.52.23,2.25.49,1.32.75,2.61.09,3.86Z"/>
          <path class="cls-5" d="m289.35,202.58c.28-.79-.07-1.54-.3-2.28-.34-1.1-.54-2.19-.62-3.36-.08-1.38-.13-2.87-1.09-4.08-.4-.51-.61-1.14-.63-1.81,0-.07,0-.15-.02-.21-.61-1.89-.75-3.73-.06-5.68.29-.81,0-1.85-.1-2.77-.08-.71-.31-1.4-.45-2.11-.18-.92-.25-1.83.07-2.76.41-1.17.41-2.35.1-3.59-.41-1.62-.06-3.28.36-4.86.17-.63.38-1.16.23-1.84-.33-1.55-.18-3.01,1.16-4.12.22-.18.47-.43.51-.68.29-1.96,1.37-3.77.99-5.86-.25-1.38-.02-2.72,1.14-3.74.5-.44.75-1.04.83-1.71.12-1.03.58-1.93,1.15-2.76.58-.85.97-1.77,1.18-2.76.24-1.13.66-2.19,1.05-3.27.42-1.17.86-2.26,1.74-3.16.4-.41.67-.96.71-1.55.13-1.86,1.38-3.29,1.88-5.02.27-.95,1.17-1.61,2.03-2.16,1.45-.94,2.33-2.29,2.86-3.91.13-.41.33-.8.42-1.22.27-1.36,1-2.4,2.25-2.97,1.17-.53,1.71-1.46,2.03-2.61.22-.77.61-1.44,1.17-2.04.39-.42.69-.92,1.07-1.34.76-.84,1.39-1.85,2.66-2.06.27-.05.58-.19.75-.39,1.13-1.35,2.79-2,4.11-3.11.76-.64,1.67-1.11,2.27-1.94.21-.29.48-.55.64-.86.9-1.81,2.43-2.8,4.31-3.29.65-.17,1.23-.36,1.71-.82.1-.1.23-.18.35-.25,1.23-.73,2.77-.84,3.79-1.96.97-1.06,2.1-1.94,3.2-2.85.56-.46,1.16-.83,1.83-1.12.72-.31,1.44-.68,2.08-1.13.85-.59,1.75-.96,2.78-1.07.93-.1,1.83-.36,2.69-.74.2-.09.4-.2.6-.23,2.6-.39,4.84-1.74,7.24-2.67,1.52-.59,3.12-1.12,4.8-1.06.89.03,1.75-.1,2.47-.62,1.43-1.03,3.07-1.17,4.72-1.21.89-.02,1.66-.17,2.45-.62,1.08-.62,2.32-.76,3.55-.74,1.54.02,3.01-.16,4.38-.9.61-.32,1.25-.29,1.89-.15,1.58.34,3.12.41,4.61-.41.59-.33,1.27-.27,1.89-.03.83.33,1.63.3,2.51.22,1.56-.14,3.13-.35,4.72-.19.92.09,1.87.08,2.8-.02,1.44-.15,2.86-.21,4.28.18.2.06.44.12.64.08,1.44-.28,2.85-.25,4.24.27.48.18.99-.02,1.46-.25.77-.37,1.54-.37,2.26.08.64.4,1.33.47,2.07.45.43-.01.87.02,1.28.13,2.36.59,4.71,1.21,7.07,1.8,1.18.29,2.37.63,3.57.76.95.1,1.83.22,2.66.73.55.34,1.18.48,1.83.61,1.69.34,3.35.79,4.7,1.98.6.53,1.36.83,2.12,1.02,1.39.34,2.71.96,4.16,1.08.75.06,1.36.4,1.88.95.44.47.92.91,1.59,1.05,1.76.38,3.12,1.47,4.39,2.63,1.03.94,2.12,1.71,3.41,2.2.81.31,1.55.71,2.17,1.36.54.57,1.21,1.11,2.02,1.15,1.5.08,2.38.99,2.94,2.2.46.99,1.01,1.6,2.17,1.79,1.17.19,2.14.96,2.57,2.08.34.89,1.27,1.16,1.69,1.91.4.72,1.04,1.15,1.81,1.44.73.27,1.12.91,1.35,1.6.73,2.16,2.37,3.53,4.08,4.84.52.4,1.08.75,1.3,1.39.3.88,1,1.41,1.68,1.91,1.31.97,2.33,2.14,2.85,3.69.24.72.72,1.22,1.3,1.67.65.5,1,1.16,1.24,1.96.41,1.37.93,2.71,1.42,4.06.1.27.22.55.41.75,1.01,1.07,1.74,2.27,2,3.75.05.26.26.53.46.71,1.52,1.36,2.14,3.21,2.76,5.05.25.75.55,1.47.91,2.17.83,1.6,1.24,3.36,1.63,5.11.34,1.55.74,3.07,1.57,4.45.42.7.52,1.47.47,2.29-.06.88.08,1.71.56,2.48.31.49.43,1.06.48,1.64,0,.07.02.14.02.21-.03,1.31.92,2.42.71,3.78-.19,1.22.03,2.43.17,3.65.08.73.17,1.41.61,2.03.72,1.01.77,2.14.51,3.3-.46,2.06-.39,4.13-.19,6.21.14,1.43.26,2.86.31,4.29.03.71-.02,1.45-.19,2.14-.24.99-.43,1.96-.29,2.98.09.67-.08,1.3-.37,1.88-.48.93-.55,1.91-.52,2.93.06,2.33-.24,4.59-1.46,6.65-.45.76-.65,1.58-.7,2.46-.03.5-.06,1.03-.25,1.48-.64,1.48-.9,3.01-.86,4.61,0,.28-.01.64-.17.83-1.23,1.42-1.52,3.39-2.9,4.76-.95.95-1.45,2.29-1.83,3.62-.48,1.66-1.02,3.29-2.28,4.57-.62.63-.78,1.53-1.07,2.34-.79,2.21-2.04,4.09-3.78,5.66-.27.24-.6.44-.77.74-1.28,2.16-3.02,4.02-4.12,6.29-.46.95-1.09,1.7-1.99,2.2-1.41.79-2.55,1.93-3.51,3.15-1.21,1.54-2.78,2.67-4.07,4.11-.74.82-1.88,1.3-2.88,1.85-1.35.74-2.45,1.67-3.28,3.01-1.16,1.87-2.98,3.06-4.79,4.23-.24.15-.49.33-.76.39-2.66.61-4.66,2.43-6.9,3.8-.69.42-1.36.81-2.18.79-1.13-.04-2.04.44-3.02.97-1.59.86-2.99,1.96-4.43,3.03-.65.48-1.32.75-2.15.86-1.77.24-3.51.68-5.07,1.63-.75.45-1.56.72-2.43.84-.57.08-1.16.12-1.68.34-1.6.67-3.23,1.18-4.95,1.46-.41.07-.81.28-1.2.44-.26.11-.5.33-.77.39-1.54.33-3.07.7-4.63.9-2.71.36-5.41.73-8,1.62-.93.32-1.82.4-2.74.16-1.72-.44-3.4-.42-5.07.24-.61.24-1.25.34-1.9.19-.51-.11-1-.13-1.48.09-1.13.52-2.26.34-3.33-.13-.63-.27-1.2-.36-1.87-.14-.98.32-2,.26-2.98-.03-.72-.21-1.41-.15-2.13-.1-1.94.13-3.81-.08-5.72-.61-2.2-.61-4.37-1.43-6.71-1.48-.91-.02-1.83-.34-2.72-.62-.96-.3-1.91-.62-2.84-.97-.93-.35-1.71-.43-2.68-.19-1.33.33-2.75.33-3.88-.66-1.49-1.31-3.23-2.13-5.1-2.69-1.85-.56-3.53-1.56-5.44-1.94-.91-.18-1.79-.43-2.67-.81-1.26-.55-2.48-1.12-3.51-2.05-.31-.28-.72-.48-1.11-.64-.76-.31-1.38-.76-1.84-1.43-.52-.74-1.22-1.27-2.11-1.38-1.26-.15-2.18-.9-2.84-1.8-1.56-2.1-3.8-3.27-5.9-4.61-1.33-.86-2.63-1.69-3.78-2.82-.86-.84-1.93-1.49-2.95-2.15-.68-.44-1.27-.91-1.61-1.67-.69-1.54-1.74-2.8-3.07-3.83-.17-.13-.35-.27-.47-.44-.93-1.39-2.04-2.54-3.61-3.26-.87-.4-1.34-1.32-1.65-2.2-.36-.99-.93-1.73-1.76-2.37-.8-.62-1.45-1.44-1.64-2.47-.27-1.41-1.09-2.47-1.98-3.51-1.78-2.1-3.26-4.37-3.94-7.07-.31-1.22-.85-2.28-1.81-3.11-.61-.53-1-1.19-1.1-2.03-.16-1.3-.84-2.44-1.27-3.66-.16-.45-.53-.86-.88-1.2-.66-.64-1.03-1.36-.99-2.29.08-1.89-.86-3.61-.98-5.47-.01-.2-.16-.39-.25-.59q-.6-1.31-.51-2.46Zm188.77-18.95s-.06,0-.09-.01c.08-.57.17-1.13.23-1.7.06-.6-.17-.92-.78-1.08-.27-.07-.56-.15-.84-.13-1.9.11-3.84-.58-5.72.26-.37.16-.85.05-1.28.11-.57.08-1.18.08-1.69.31-1.34.62-2.64.59-3.94-.03-.41-.2-.84-.27-1.25-.06-.81.41-1.63.4-2.51.29-.85-.11-1.73.02-2.53.39-.61.27-1.24.32-1.89.34-2.22.07-4.44.14-6.66.28-.88.06-1.71.07-2.53-.28-.91-.39-1.84-.25-2.76-.08-1.09.21-1.3.47-1.22,1.6.07,1.16.08,2.32-.21,3.43-.32,1.21-.4,2.4-.24,3.62.15,1.16.04,2.31-.45,3.38-.53,1.15-.69,2.34-.57,3.57.07.74-.09,1.41-.34,2.1-.47,1.28-.9,2.58-1.31,3.88-.71,2.25-1.12,4.6-2.07,6.78-.29.66-.53,1.33-.27,2.08.23.66.09,1.38-.34,1.84-1.06,1.15-1.55,2.52-1.88,3.99-.06.27-.29.49-.43.74-1.09,2.02-2.32,3.97-2.8,6.27-.12.59-.52,1.01-.94,1.41-.64.6-1.16,1.28-1.46,2.1-.1.28-.15.62.13.78.93.54,1.83,1.29,2.83,1.49,1.37.28,2.59.77,3.8,1.42.63.34,1.33.51,2.04.66,1.55.31,3.08.73,4.18,2.02.22.25.58.46.91.53.87.19,1.55.69,2.28,1.15,1.58,1,3.2,1.91,4.66,3.09.61.5,1.22.45,1.72-.15.92-1.12,2.13-1.93,3.13-2.95.4-.41.88-.8,1.12-1.29.81-1.69,2.07-2.91,3.66-3.83.38-.22.73-.46.93-.86.48-.96,1.05-1.89,1.42-2.9.36-.98,1-1.72,1.6-2.52,1.02-1.37,2.13-2.76,2.55-4.43.32-1.26.92-2.21,1.78-3.1.64-.66,1.32-1.31,1.69-2.2.66-1.59,1.41-3.14,2.05-4.73,1.02-2.52,2.01-5.05,2.12-7.82.03-.63.18-1.31.48-1.86.69-1.25,1.42-2.46,1.33-3.96.76-1.44.76-3.05,1.01-4.6.14-.85.48-1.69.45-2.53-.04-1.46.17-2.85.5-4.26.2-.84.26-1.7.39-2.55Zm-174.48,4.13c-.39.02-.97,0-1.53.09-1.23.2-1.75.77-1.84,2-.09,1.36-.09,2.72.24,4.07.2.83.47,1.66.35,2.54-.05.37.02.75.31.99.95.83,1.1,1.96,1.25,3.11.07.56.2,1.15.45,1.65.39.79.54,1.63.74,2.46.73,2.99,1.08,6.09,2.48,8.89.06.13.09.27.11.42.1.74.49,1.33.88,1.94.7,1.08,1.49,2.16,1.73,3.44.19,1.03.58,1.91,1.23,2.71.42.51.64,1.11.92,1.69.62,1.29,1.4,2.49,2.54,3.39.41.32.75.66.98,1.12.27.53.69.9,1.1,1.31.4.4.81.84,1.04,1.35.53,1.15,1.43,1.92,2.31,2.77.85.83,1.27,2.07,2.27,2.82.62.47,1.16,1.24,1.96,1.23,1-.01,1.94-.47,2.8-1.01.18-.11.34-.27.47-.44.68-.8,1.6-1.2,2.56-1.5,1.1-.34,2.14-.77,3.11-1.41.89-.59,1.9-.98,2.95-1.24.62-.16,1.25-.35,1.84-.6,1.32-.56,2.6-1.2,3.93-1.73,1.19-.47,2.37-1.05,3.71-1.02.34,0,.75-.08,1.03-.26,1.06-.72,2.22-.88,3.47-.9,1.34-.02,1.75-1.06,1.05-2.22-1.03-1.7-2.25-3.32-2.59-5.37-.14-.87-.58-1.61-1.18-2.26-.66-.72-.94-1.58-.86-2.58.07-.79-.02-1.58-.34-2.32-.67-1.51-1.3-3.03-2.01-4.52-.35-.72-.67-1.42-.62-2.25.04-.59-.11-1.15-.4-1.66-.65-1.15-.9-2.41-1.07-3.7-.12-.85-.32-1.69-.65-2.49-.19-.46-.33-.95-.39-1.45-.3-2.56-1.22-5.03-1.16-7.65,0-.14-.05-.28-.09-.42-.14-.52-.66-.84-1.16-.69-.34.1-.64.31-.98.43-1.71.65-3.37,1.05-5.19.18-1.1-.53-2.36-.49-3.57-.06-1.56.55-3.27.21-4.85.74-.31.1-.71-.03-1.06-.11-1.18-.29-2.38-.54-3.53-.92-.91-.3-1.76-.49-2.73-.29-.69.14-1.45.18-2.14.05-1.18-.22-2.26-.1-3.37.34-1.11.44-2.27.39-3.36-.08-.95-.41-1.95-.45-3.13-.63Zm35.78-29.87s.04,0,.06,0c.02-.43.1-.86.06-1.29-.1-1.26.11-2.4.84-3.48.44-.65.61-1.45.75-2.23.1-.56.14-1.19.43-1.66.73-1.19,1.06-2.51,1.42-3.81.47-1.66,1.27-3.18,1.66-4.87.3-1.31.59-2.66,1.61-3.7.28-.28.42-.76.49-1.17.23-1.36.62-2.65,1.26-3.87.22-.42.19-.84-.14-1.19-1.25-1.33-2.67-2.38-4.49-2.81-2.76-.66-5.28-1.81-7.36-3.81-.73-.71-1.56-1.31-2.59-1.45-1.07-.15-1.85-.73-2.57-1.46-.4-.41-.81-.82-1.23-1.21-.41-.37-.72-.35-1.1.07-.15.16-.31.31-.41.5-.59,1.01-1.28,1.88-2.45,2.32-.35.13-.59.59-.86.92-.45.56-.82,1.18-1.32,1.69-1.3,1.33-2.35,2.88-3.84,4.04-.56.43-.98,1.03-1.28,1.71-.35.79-.74,1.69-1.5,2.05-1.11.52-1.51,1.46-1.97,2.43-.34.71-.72,1.41-.99,2.15-.26.69-.6,1.36-1.14,1.8-.76.61-1.16,1.45-1.7,2.2-.92,1.28-1.51,2.78-2.75,3.84-.35.3-.5.85-.72,1.31-.88,1.88-1.61,3.84-2.44,5.74-.62,1.43-.98,2.85-.92,4.37.04.97-.08,1.93-.62,2.67-.99,1.38-1.23,2.98-1.7,4.54-.5,1.66-.85,3.32-.87,5.05,0,.36-.06.72-.06,1.07,0,.95-.11,1.85-.78,2.61-.36.41-.32.93-.25,1.44.1.76.42,1.04,1.15.9,1.13-.2,2.24-.63,3.39-.54,1.46.12,2.8-.63,4.25-.43,1.23-.61,2.5-.51,3.79-.27.52.1,1.03,0,1.43-.32,1.06-.82,2.24-.84,3.48-.68.79.1,1.54.09,2.33-.15,1.02-.31,2.07-.44,3.14.08.87.42,1.72.11,2.27-.69.45-.65,1.11-.98,1.81-1.05,1.4-.14,2.89-.43,4.02.85.05.05.12.08.18.12.76.56,1.49.7,2.38.15.84-.52,1.79-.91,2.84-.7.54.11.8-.21.89-.68.16-.77.21-1.58.45-2.32.37-1.13.5-2.22.18-3.38-.28-1.01-.14-2.03.54-2.86.65-.78.76-1.68.82-2.62.04-.64.07-1.29.11-1.93Zm135.61,12.41c.66.04.95-.04,1.53-.41.65-.41.82-.69.58-1.42-.26-.77-.25-1.55-.26-2.34-.02-1.15-.13-2.3-.79-3.31-.53-.81-.72-1.72-.67-2.67.04-.83-.15-1.56-.7-2.19-.55-.63-.74-1.37-.71-2.19.05-1.85-.45-3.48-1.6-5.01-1.16-1.53-2.24-3.17-2.23-5.24,0-.54-.37-.92-.74-1.27-.69-.67-1.09-1.46-1.34-2.4-.51-1.91-1.61-3.51-3.06-4.84-.82-.75-1.39-1.63-1.82-2.63-.59-1.4-1.41-2.64-2.42-3.78-1.61-1.83-3.12-3.75-4.88-5.43-1.24-1.18-2.51-2.33-3.77-3.49-.16-.14-.35-.25-.53-.37-.41-.28-.79-.27-1.16.08-2.55,2.45-5.76,4-8.48,6.23-.33.27-.74.43-1.14.59-1.26.49-2.62.79-3.62,1.81-.14.14-.39.19-.59.24-1.91.47-3.46,1.7-5.22,2.48-.66.29-.68.56-.37,1.19.99,1.99,2.04,3.95,2.93,5.98,1.03,2.36,1.9,4.79,2.87,7.18.46,1.13,1,2.22.85,3.5-.03.27.1.56.2.83.77,2.08,1.57,4.15,2.33,6.23.17.47.39,1,.31,1.45-.2,1.25.27,2.41.37,3.61.06.71.34,1.43.29,2.12-.11,1.51.45,2.82.99,4.15.49,1.19.85,1.38,2.18,1.21.71-.09,1.43-.36,2.12-.09,1.41.55,2.82.36,4.25.16.85-.12,1.71-.22,2.56-.28.52-.04,1-.15,1.43-.43.8-.52,1.66-.54,2.47-.16,1.07.5,2.07.37,3.13,0,1.04-.36,2.05-.33,3.14.04,1.56.54,3.27.74,4.88.45,2.04-.36,3.99-.22,5.97.24.28.06.56.13.73.16Zm-78.24,42.13s-.07,0-.11,0c.04.57,0,1.16.13,1.7.24.93.18,1.86.1,2.78-.11,1.23.01,2.44.18,3.65.28,2.07,1.16,2.9,3.24,3.01.35.02.72-.03,1.07-.1.72-.14,1.42-.09,2.13.1.97.27,1.95.47,2.91.76,2.01.6,4.08.95,6.14,1,1.48.04,2.82.34,4.16.86.47.18.93.39,1.42.49,1.25.26,1.77.09,2.21-1.1.8-2.14,2.39-3.92,2.77-6.27.12-.74.56-1.51,1.04-2.11,1.22-1.53,1.84-3.4,2.92-5.01,1.38-2.05,1.38-4.66,2.55-6.81.1-1.68.54-3.24,1.5-4.65.08-.11.1-.27.12-.41.55-3.33,1.7-6.53,1.98-9.91.02-.28.08-.58.19-.84.61-1.48.38-3.12.86-4.62.04-.13,0-.29-.02-.43-.05-.32-.27-.56-.56-.56-.93,0-1.86.06-2.79.11-2.28.12-4.57.27-6.86.36-.57.02-1.17-.01-1.71-.19-1.62-.52-3.25-.47-4.9-.31-.57.06-1.15.03-1.72.01-.72-.02-1.43.02-2.13.2-1.17.3-2.35.67-3.55.76-2.5.19-5.02.11-7.49.61-1.84-.3-3.53.46-5.29.74-1.08.17-1.31.53-1.37,1.6-.03.5,0,1.01.09,1.49.23,1.2.53,2.38.75,3.57.22,1.2.31,2.4.04,3.63-.24,1.12-.4,2.29-.16,3.42.31,1.43.2,2.85.08,4.28-.2,2.29-.45,4.57.08,6.86.09.41.01.85,0,1.28Zm-11.41,7.06s-.09,0-.13,0c.05-.93.12-1.86.14-2.79.01-.5.02-1.02-.11-1.49-.36-1.34-.38-2.68-.36-4.05.03-1.5.2-3-.11-4.5-.12-.62-.07-1.29,0-1.93.17-1.45.05-2.85-.45-4.24-.24-.67-.42-1.42-.08-2.1.74-1.49.74-3.03.46-4.63-.08-.49.02-1,0-1.5-.08-1.64-.16-3.29-.28-4.93-.05-.73-.36-1.04-1.07-1.14-1.49-.21-3-.46-4.3.65-.1.09-.25.14-.39.18-1.52.44-3.02.98-4.47-.25-.8-.68-1.68-.68-2.6-.16-1.43.81-2.99,1.06-4.57.63-1.21-.33-2.4-.27-3.62-.21-1.57.08-3.16.09-4.71-.09-.96-.11-1.82-.08-2.73.2-1.38.44-2.78.66-4.22.2-.27-.09-.57-.13-.85-.11-2.35.14-2.59.23-2.31,2.46.1.79.2,1.53.54,2.27.62,1.37,1.14,2.79,1.27,4.32.04.49.2.98.36,1.46.41,1.23.68,2.49.83,3.78.13,1.14.32,2.26.88,3.31.29.55.37,1.23.43,1.87.09.96.39,1.8.95,2.59.93,1.3,1.48,2.74,1.78,4.34.27,1.46.61,2.98,1.64,4.16.58.67.89,1.44,1.22,2.24.54,1.32,1.02,2.68,2.09,3.72.56.54,1.13.83,1.91.79,2-.11,4.02.09,5.99-.44.47-.13,1-.08,1.49-.12,2.06-.16,4.14.03,6.2-.44,1.37-.31,2.85-.31,4.26-.21,1.3.09,2.57-.14,3.86-.05.48.03.83-.23.86-.76.06-1,.11-2,.17-3Zm-2.49-77.45c.09-.74-.24-1.22-1.01-1.35-.49-.08-1-.08-1.5-.09-.94-.02-1.87-.07-2.76-.4-2.27-.84-4.86-.67-6.94-2.13-.06-.04-.13-.06-.2-.06-1.73-.05-3.41-.31-4.99-1.07-1.99.03-3.79-.65-5.57-1.46-.76-.35-.99-.27-1.39.44-.4.69-.81,1.37-1.43,1.87-.59.48-.91,1.09-1.09,1.81-.31,1.27-.84,2.48-1.53,3.55-2.2,3.38-2.88,7.31-4.19,11.01-.3.85-.48,1.8-.35,2.76.08.59-.1,1.13-.31,1.67-.72,1.88-1.23,3.82-1.32,5.85-.03.56-.25,1.11-.36,1.68-.18.99-.4,1.98-.47,2.97-.08,1.19.35,1.55,1.58,1.79,1.61.3,3.26.35,4.85.83,1.51.46,3.17.58,4.7.27,1.67-.34,3.24-.46,4.85.12.25.09.62.1.83-.03,1.4-.86,2.88-.68,4.37-.39.55.11.89-.14,1.3-.52,1.4-1.28,3.02-1.87,4.9-1.12.48.19.95.24,1.46.24.85-.01,1.73-.05,2.47.54.15.12.42.19.61.15,1.14-.24,2.29-.03,3.43-.14.98-.1,1.41-.64,1.17-1.63-.29-1.22-.33-2.4-.07-3.62.06-.28.06-.58.03-.86-.18-1.63-.66-3.24-.29-4.9.01-.06-.02-.14-.05-.21-.44-1.21-.27-2.4.18-3.57.23-.61.37-1.24.24-1.9-.43-2.18-.87-4.36-1.31-6.53-.3-1.49-.43-2.98-.07-4.48.09-.35.16-.7.24-1.07Zm12.86,24.89c-.07,1.29-.16,2.22-.16,3.15,0,.74.59,1.18,1.31,1,.34-.08.69-.22.98-.41,1.92-1.28,3.86-1.21,5.92-.3,1.33.59,2.77.76,4.16.07.86-.43,1.78-.53,2.7-.65.94-.12,1.85.31,2.75.33.97.03,1.93-.35,2.96-.17,3.29.57,6.58.3,9.84-.28.8-.14,1.55-.18,2.32.12.53.21,1.08.39,1.67.3.85-.13,1.7-.23,2.55-.35.79-.12,1.07-.4.99-1.11-.29-2.42-.44-4.86-1.4-7.16-.19-.45-.28-.96-.32-1.46-.18-2.3-.99-4.46-1.48-6.69-.09-.41-.35-.78-.56-1.15-1-1.68-1.65-3.53-2.05-5.39-.36-1.68-1.05-3.13-2.01-4.46-.93-1.31-1.63-2.69-2.04-4.23-.11-.41-.29-.81-.52-1.16-.38-.6-.9-.89-1.65-.6-.4.15-.84.27-1.26.26-1.1-.04-1.93.36-2.59,1.24-1.08,1.44-2.56,1.71-4.23,1.34-.28-.06-.56-.14-.84-.16-1.53-.09-3.04.05-4.29,1.03-.8.62-1.62.89-2.59.75-1.39-.19-2.73.09-4.02.54-.84.29-1.66.44-2.53.37-.87-.07-1.72.08-2.56.25-.52.1-.69.43-.67.93.1,2.15,0,4.29-.34,6.42-.09.56-.08,1.15.02,1.71.23,1.38.14,2.74-.32,4.03-.42,1.15-.32,2.2-.02,3.35.39,1.5.96,3.04.3,4.64-.08.18-.04.43,0,.64.27,1.22.07,2.43-.03,3.28Zm-19.32,97.94c.57-.17,1.22.13,1.52-.32.35-.52-.29-.87-.51-1.29-.13-.25-.3-.51-.52-.68-1.7-1.31-2.48-3.55-4.52-4.54-.12-.06-.24-.19-.28-.32-.44-1.32-1.47-2.06-2.59-2.74-.35-.22-.59-.62-.9-.91-1.19-1.1-1.8-2.79-3.49-3.39-.23-.08-.43-.39-.56-.63-.55-1.01-1.18-1.99-1.56-3.06-.29-.79-.64-1.41-1.35-1.84-1.02-.61-1.82-1.37-1.9-2.69-.02-.39-.34-.77-.55-1.14-.32-.56-.67-1.1-.99-1.66-.42-.72-.6-.84-1.38-.61-2.9.85-5.84,1.46-8.84,1.83-.84.1-1.7.27-2.37.92-1.19,1.17-2.7,1.6-4.31,1.71-.73.05-1.4.19-2.08.47-1.46.61-2.93,1.17-4.41,1.73-.48.18-.88.47-1.25.83-.29.29-.31.72.03.93.68.42,1.26.94,1.83,1.5.24.24.58.44.91.53,1.74.45,3.07,1.5,4.27,2.78.73.79,1.52,1.49,2.67,1.69.53.09,1.03.49,1.47.85.65.52,1.33.84,2.17.75.75-.08,1.38.19,2.01.61,3.08,2.07,6.74,2.74,10.1,4.11.13.05.28.06.42.09.77.16,1.55.29,2.32.48.83.21,1.69.41,2.28,1.12.73.88,1.63.99,2.71.83,1.27-.19,2.57-.27,3.77.45.24.14.55.22.82.22,1.47.03,2.83.39,4.12,1.11.3.17.67.21.94.28Zm31.03-2.19c.39.35.76.29,1.1.2.7-.17,1.38-.48,2.11-.33.9.18,1.7-.05,2.51-.38.53-.21,1.09-.38,1.64-.5,1.35-.29,2.62-.74,3.79-1.47.44-.27.88-.53,1.39-.52,1.49.05,2.81-.54,4.14-1.07,1.32-.53,2.8-.68,3.9-1.73.24-.23.64-.35.99-.4,1.06-.13,1.82-.77,2.64-1.36,1.39-1.01,2.73-2.12,4.51-2.42.58-.1,1.03-.51,1.41-.94.48-.54.94-1.09,1.36-1.66.53-.71,1.15-1.25,2.05-1.47.7-.17,1.34-.51,1.87-1.02.35-.34.27-.93-.22-1.01-1.43-.25-2.68-1.02-4.07-1.38-.92-.24-1.79-.6-2.52-1.19-1.41-1.15-3.14-1.72-4.69-2.61-.3-.17-.67-.24-1.02-.3-.91-.16-1.84-.16-2.68-.7-.83-.54-1.97-.33-2.75-1.11-.28-.28-.68-.06-.9.28-.11.18-.24.37-.3.57-.34,1.13-.9,2.11-1.76,2.91-.21.19-.44.43-.5.69-.31,1.18-1.17,1.95-1.94,2.79-.48.53-.98,1.07-1.34,1.68-.54.92-1.42,1.74-1.43,2.85-.02,1.5-.83,2.37-1.95,3.12-.47.32-.94.67-1.32,1.09-.96,1.07-1.86,2.18-2.78,3.28-.28.33-.58.65-.79,1.01-.32.56-.58,1.15-.86,1.73-.32.66-1.19.75-1.59,1.35Zm-2.34-164.56c.44.76.81,1.44,1.23,2.09.15.24.37.44.6.61,1.09.82,2,1.85,3.2,2.54.7.4,1.2,1,1.59,1.72,1.26,2.35,2.9,4.41,4.66,6.4.99,1.12,1.67,2.5,2.84,3.49.15.13.27.35.32.55.32,1.26,1.28,1.99,2.16,2.85.91.89.84,2.4,1.82,3.36.86.84,1.26.99,2.18.27.78-.62,1.53-1.23,2.42-1.73,2.13-1.2,4.28-2.31,6.54-3.24.33-.13.61-.38.92-.56,1.35-.79,2.51-1.89,4.04-2.41.88-.3.97-1.21.32-1.94-.44-.49-.95-.76-1.66-.84-1.84-.2-3.48-.83-4.44-2.59-.29-.54-.78-.79-1.34-1.01-1.66-.65-3.34-1.26-4.78-2.37-.33-.26-.75-.43-1.16-.54-1.61-.43-3.01-1.34-4.5-2.01-1.95-.88-3.84-1.88-5.99-2.22-.21-.03-.45-.06-.62-.18-1.2-.83-2.61-.79-3.94-.88-1.47-.1-2.81-.33-4.06-1.16-.64-.42-1.44-.55-2.34-.2Zm-65.26,13.51c1.1.28,1.85.48,2.6.67.86.22,1.57.58,2.05,1.42.56.98,1.45,1.51,2.61,1.68,1.82.26,3.45.94,4.54,2.56.2.29.48.53.73.79.35.36.71.69,1.2.89.79.32,1.2.23,1.57-.54.44-.92.88-1.83,1.84-2.3,1.16-.56,1.86-1.54,2.54-2.56.71-1.06,1.75-1.9,1.99-3.26.12-.72.59-1.28,1.05-1.85,1.54-1.9,3.56-3.32,5.15-5.17.09-.11.22-.18.34-.26,1.97-1.14,2.76-3.22,3.97-4.96.3-.43-.04-.95-.54-.85-1.74.35-3.6.08-5.22,1.03-.3.18-.68.22-1.02.32-2.66.84-5.39,1.46-7.83,2.92-.41.25-.95.27-1.43.41-.48.13-.96.27-1.44.4-1.69.44-3.12,1.42-4.61,2.28-1.55.9-3.2,1.7-4.53,2.86-1.59,1.39-3.42,2.31-5.56,3.52Zm55.12-4.05c-.21,1.57-.21,2.99.39,4.36.27.62.29,1.27.08,1.89-.24.72-.19,1.37.12,2.08.74,1.66.71,3.36-.01,5.01-.24.55-.32,1.08-.26,1.67.04.42.05.88-.06,1.28-.23.81-.11,1.57.14,2.32.27.8.23,1.7.81,2.4.71-.06,1.42-.13,2.13-.17.43-.03.86,0,1.29,0,1.02,0,2-.12,2.84-.78,1.11-.86,2.42-.96,3.68-.69,1.09.23,1.97.08,2.82-.58.94-.74,2-1.02,3.21-1,.99.02,1.99-.19,2.99-.34.53-.08.67-.47.38-.94-.5-.8-1.18-1.43-1.9-2.04-1.26-1.08-2.36-2.34-3.12-3.79-1.09-2.08-2.77-3.64-4.43-5.2-.78-.73-1.64-1.34-2.25-2.25-.39-.59-.97-1.06-1.65-1.35-.83-.36-1.43-.96-1.85-1.73-.35-.65-.83-1.16-1.4-1.6-1.13-.87-2.37-1.61-3.29-2.74-.13-.16-.35-.25-.55-.32-.11-.04-.3-.02-.38.06-.09.08-.17.27-.13.37.47,1.38.79,2.77.43,4.1Zm-8.94,154.12c.37-.41.08-.74.04-1.06-.08-.64-.28-1.26-.21-1.92.26-2.34.56-4.69.72-7.04.16-2.21.49-4.45-.61-6.55-.12-.24-.18-.58-.12-.84.24-1.09-.09-2.13-.18-3.2-.16-1.78-.17-3.58.1-5.36.18-1.23-.07-1.54-1.33-1.5-.43.01-.87.05-1.28.16-2.21.59-4.55,0-6.75.8-.42.15-.99-.04-1.48-.12-2.42-.37-4.71.03-6.88,1.16-.72.37-.89.94-.29,1.55.97.98,1.77,2.07,2.51,3.21.66,1.02,1.34,2.04,1.96,3.09.3.51.63.95,1.16,1.23,1,.53,1.64,1.35,1.97,2.45.1.33.31.65.53.93,1.73,2.28,3.49,4.53,5.34,6.71,1.11,1.31,2.46,2.42,3.34,3.92.46.79.96,1.56,1.46,2.37Zm19.82-26.79c-2.37.03-4.23.04-6.09.09-.49.01-.98.16-1.47.28-.29.07-.5.29-.57.59-.16.69-.49,1.43-.39,2.08.22,1.42.14,2.89.51,4.25.32,1.17.27,2.22.08,3.36-.17.98-.09,2-.12,3-.01.57.06,1.15-.04,1.71-.11.66-.06,1.28.11,1.91.3,1.05.44,2.1.06,3.17-.1.28-.06.6.31.69.31.08.55-.12.71-.37.27-.42.5-.87.77-1.29.38-.61.8-1.2,1.48-1.52,1.15-.54,1.96-1.4,2.58-2.5.28-.49.7-.9,1.06-1.35,1.25-1.55,2.62-3.02,3.13-5.03.15-.58.54-1.01,1.01-1.35,1.17-.86,1.98-2.07,2.93-3.14.51-.58.88-1.31,1.21-2.01.32-.69-.1-1.4-.85-1.35-1.27.09-2.38-.37-3.55-.7-1.1-.3-2.25-.41-2.87-.52Zm-24.14-106.9c-.72-2-1.05-3.66-.29-5.36.08-.19.04-.43.07-.64.19-1.16.02-2.26-.27-3.4-.55-2.17-.91-4.35.25-6.49.41-.77.4-1.68.27-2.53-.16-.99-.32-1.98-.26-2.99.01-.22-.08-.46-.32-.47-.19,0-.43.07-.58.19-.63.52-.86,1.3-1.22,2-.55,1.07-1.04,2.27-2.26,2.76-.97.39-1.63,1.09-2.37,1.79-1.01.95-1.69,2.12-2.49,3.21-1.61,2.19-3.22,4.38-4.8,6.59-.97,1.35-.69,1.99.98,2.33.41.08.87.12,1.28.05,1.11-.2,2.16.07,3.16.44,1.13.41,2.37.61,3.33,1.45.2.18.52.25.79.3,1.47.25,2.95.49,4.72.77Z"/>
        </g>
        <path class="cls-2" d="m578.9,282.65c.89-1.41,1.45-2.84.33-4.38-.6-.83-.71-1.75-.34-2.6.58-1.33.05-2.46-1.05-3.6-.41-.42-.72-.93-.81-1.42-.34-1.75-.21-3.57-.95-5.25-.74-1.68-2.96-2.95-4.08-4.61-1.05-1.55-1.23-2.85.14-4.26,1.12-1.16,1.88-2.43,1.8-3.88-.2-3.55.88-6.94,2.39-10.31,1.17-2.61,2.36-5.28,1.58-8.09-.89-3.19-2.6-6.32-1.67-9.61.03-.11-.06-.25-.12-.37-1.39-2.71-1.06-5.46-.84-8.21.13-1.62.15-3.21-.22-4.86-.64-2.89-.36-5.75,2.01-8.3,1.13-1.21,1.43-2.53,1.51-3.91.15-2.48-1.4-7.61-3.56-10.9-1.16-1.77-2-3.55-1.77-5.45.34-2.84.69-5.68,1.28-8.5.59-2.81,1.88-5.56.99-8.47-.11-.35-.04-.8.23-1.09,2.42-2.61,3.2-5.44,2.63-8.47,1.16-1.44.43-2.92-.03-4.37-.58-1.84-1.11-3.64-.2-5.5.47-.96.08-1.98-.38-2.94-.93-1.96-.93-3.91-.42-5.88.19-.72.35-1.47.31-2.2-.27-5.02-2.41-9.79-5.48-14.38-2.84-4.22-8.43-5.98-15.39-5.07-2.04.27-4.09.41-6.16.55-6.82.44-13.62.05-20.42-.24-1.51-.07-3.07-.22-4.52-.05-2.64.31-5.28.26-7.91.1-7.33-.44-14.67.36-21.99-.45-.71-.08-1.5.08-2.22.2-1.66.28-3.38.12-5.02.25-3.24.25-6.36-.75-9.53-.32-2.67.36-5.16.17-7.71-.56-2.25-.64-4.64-1.02-7.11-.35-.4.11-.81.15-1.23.17-.24-.53-.6-1-1.19-1.22-.77-.28-1.41-.71-1.81-1.44-.42-.76-1.34-1.02-1.69-1.91-.43-1.13-1.4-1.89-2.57-2.08-1.16-.19-1.71-.8-2.17-1.79-.56-1.21-1.44-2.12-2.94-2.2-.82-.05-1.48-.58-2.02-1.15-.62-.65-1.36-1.05-2.17-1.36-1.29-.5-2.39-1.26-3.41-2.2-1.27-1.16-2.63-2.25-4.39-2.63-.67-.14-1.15-.58-1.59-1.05-.52-.55-1.13-.89-1.88-.95-1.45-.13-2.77-.74-4.16-1.08-.77-.19-1.52-.5-2.12-1.02-1.35-1.19-3.01-1.64-4.7-1.98-.64-.13-1.28-.27-1.83-.61-.83-.51-1.71-.63-2.66-.73-1.2-.13-2.39-.46-3.57-.76-2.36-.58-4.71-1.21-7.07-1.8-.41-.1-.86-.14-1.28-.13-.73.02-1.42-.05-2.07-.45-.73-.45-1.5-.45-2.26-.08-.46.23-.98.42-1.46.25-1.4-.52-2.8-.55-4.24-.27-.2.04-.43-.02-.64-.08-1.41-.39-2.84-.33-4.28-.18-.92.09-1.87.11-2.8.02-1.59-.16-3.16.05-4.72.19-.89.08-1.69.11-2.51-.22-.62-.25-1.3-.3-1.89.03-1.49.82-3.03.76-4.61.41-.65-.14-1.28-.18-1.89.15-1.37.73-2.85.92-4.38.9-1.23-.02-2.47.12-3.55.74-.79.45-1.56.6-2.45.62-1.65.04-3.3.18-4.72,1.21-.71.51-1.57.65-2.47.62-1.69-.06-3.28.47-4.8,1.06-2.4.93-4.64,2.28-7.24,2.67-.21.03-.41.14-.6.23-.86.38-1.76.64-2.69.74-1.03.11-1.93.48-2.78,1.07-.65.45-1.36.82-2.08,1.13-.67.29-1.27.66-1.83,1.12-1.11.9-2.23,1.78-3.2,2.85-1.02,1.11-2.56,1.23-3.79,1.96-.12.07-.25.15-.35.25-.48.46-1.07.65-1.71.82-1.87.49-3.41,1.48-4.31,3.29-.16.31-.43.57-.64.86-.6.83-1.51,1.3-2.27,1.94-1.32,1.11-2.98,1.76-4.11,3.11-.08.09-.19.17-.31.23-.49.04-.98.19-1.47.42-3.51,1.65-7.3,2.04-11.57,1.24-2.45-.46-5.05-.56-7.66,0-4.39.94-8.71.84-12.7-.99-.6-.27-1.41-.72-1.93-.62-2.98.54-5.33-.68-7.96-1.1-2.34-.38-4.73-.49-7.12-.03-3,.57-6.2.84-9.01,1.68-3.38,1.02-6.67.72-9.64-.13-3.32-.94-6.69-1.14-10.11-1.54-3.06-.35-5.89-.06-8.49.81-2.2.74-4.42,1.04-6.82,1.22-5.1.4-10.17.94-15.25,1.44-.72.07-1.44.19-2.13.34-2.84.64-4.84,1.77-4.74,3.93.06,1.26-.61,2.36-1.26,3.5-.71,1.24-1.39,2.53-1.64,3.84-1,5.17-2.35,10.33-1.34,15.59.3,1.58.17,3.13-.58,4.68-1.3,2.71-.09,5.55-.7,8.31,1.3,2.23,1.09,4.55,1.01,6.87-.03.72.02,1.51.44,2.16,1.62,2.55,1.22,5-.33,7.46-.87,1.38-1.25,2.79-.02,4.24.65.77.71,1.65.45,2.51-.51,1.65.18,3.33-.44,5.03-.5,1.37.27,2.93-.41,4.36-.8,1.66,2.12,2.55,1.86,4.11-.1.64.65,1.12,1.3,1.57.54.38.75.86.59,1.36-.41,1.3-.8,2.61-1.31,3.89-1.01,2.56-2.23,5.08-1.35,7.81.23.71.1,1.46.21,2.19.09.6.03,1.34.52,1.76,2.07,1.76,1.79,3.68,1.25,5.64-1.1,3.98-1.76,8-2.14,12.04-.09.98-.59,2.04.42,2.87,2.53,2.1,1.87,4.69,2.69,7.05.32.91.24,2.09-.38,2.9-1.56,2.07-1.1,4,.18,6.01.43.68.54,1.45,1.04,2.1.85,1.11.69,2.13-.12,3.18-1.35,1.76-2.48,3.55-2.57,5.6-.03.72-.35,1.51-.89,2.12-1.59,1.79-1.57,3.68-1.38,5.7.21,2.28.81,4.41,2.6,6.38.51.57.93,1.28.12,1.69-1.88.97-1.58,2.36-2.05,3.66-.47,1.31-1.18,2.51-1.1,3.95.14,2.61-.13,5.21,2.64,7.41.33.26.33.71.54,1.06.86,1.48-1.11,2.9-.06,4.39.98,1.39,1.42,2.82.9,4.36-.24.71-.02,1.48-.07,2.22-.32,4.7.7,9.48-1.64,14.07-.23.45-.02.99-.12,1.48-.62,2.85-.46,5.67.52,8.52.41,1.18.03,2.48.01,3.81-.77,1.66-.47,3.38.11,5.12.32.97.46,2.01.27,2.98-.5,2.53.56,4.99.79,7.48.15,1.65,1.54,2.79,3.61,3.61,2.62,1.04,5.42,1.69,8.41,2.07,4.62.59,9.26.68,13.93.76,5.98.1,11.96.53,17.94.61,4.83.07,9.53-.12,14.16,1.54,2.23.8,4.97,1.12,7.23,2.05,1,.41,1.97.72,3.14.74,2.24.04,4.48-.54,6.71-.03,2.64.59,3.95-1.21,6.16-1.35,1.18-.08,2.1-.46,2.78-1.11.94-.9,2.45-1.07,3.93-1.24,2.26-.25,4.56-.19,6.66.46,4.06,1.26,8.14-.53,12.19.34.38.08,1.02-.26,1.46-.48,3.46-1.68,7.6-.68,11.39-1.1.78-.09,1.92.29,2.58.69,2.9,1.76,6.51,1.73,9.95,2.13-1.16,2.36-2.05,4.82-3.36,7.13-.12.22-.2.48-.22.73-.11,1.15-.78,2.11-1.5,2.96-1.17,1.39-1.87,2.95-2.4,4.58-.44,1.35-1.08,2.52-2.14,3.57-1.3,1.27-2.24,2.76-2.7,4.5-.47,1.78-1.18,3.54-2.25,5.08-1.27,1.83-2.26,3.67-2.49,5.83-.09.82-.59,1.53-1.29,2.03-1.22.86-1.84,2.01-2.31,3.33-.39,1.1-.97,2.14-2.13,2.83-.74.44-1.28,1.16-1.52,1.96-.6,2-1.33,4-1.48,6.08-.14,1.92.51,3.5,2.23,4.47.7.4,1.43.73,2.12,1.15.81.49,1.67.58,2.64.43,1.11-.17,2.24-.39,3.33-.35,3.51.13,7.01-.36,10.5-.58,1.94-.12,3.79-.11,5.67.3,1.99.43,4.05,1.08,6.16.4,1.42-.45,2.6-.3,3.9.21,2.18.86,4.5,1.07,6.85.22.9-.33,1.51-.06,2.18.47,1.59,1.25,3.41,1.4,5.23.3,1.17-.71,2.41-1.03,3.61-.76,2.1.47,4.24.26,6.33.47,1.26.12,2.46.09,3.64-.44,1.13-.5,2.13-.32,3.27.12,2.03.78,4.23,1.22,6.41.36.96-.38,1.66-.24,2.44.24.81.5,1.68.98,2.68.82,1.46-.23,2.97-.39,4.35-.89,2.7-.98,5.39-1.27,8.15-.73.33.07.73.19,1.01.07,1.38-.58,2.68-.3,4.01.13.55.18,1.18.12,1.78.12,1.03,0,2.05-.11,3.07-.07,1.29.05,2.57-.03,3.78-.47,1.3-.47,2.49-.41,3.67.27.53.31,1.12.41,1.71.4,1.94-.05,3.88-.12,5.81-.18.52-.02.96-.24,1.42-.48,1.22-.64,2.53-.83,3.9-.81,2.67.03,5.33-.02,7.99.07,1.42.05,2.81-.04,4.12.56,1.32.61,2.59.39,3.87.02.63-.18,1.24-.46,1.82-.76.7-.36,1.37-.36,2.13-.13,2.42.72,4.86.73,7.2-.15.82-.31,1.55-.33,2.37-.05,1.37.46,2.71.49,4.04-.12,1.31-.59,2.67-.52,4.03-.03.7.25,1.38.49,2.13.29,1.86-.49,3.39-1.75,5.28-2.13.07-.01.13-.08.2-.13,2.4-1.86,3.93-4.16,3.45-7.52-.02-.41-.02-.82-.05-1.23-.05-.49-.11-.98-.19-1.47-.13-.79-.7-1.29-1.2-1.84-1.68-1.84-3.25-3.74-3.69-6.32-.07-.39-.25-.79-.47-1.14-1.08-1.77-1.67-3.74-2.42-5.63-.54-1.37-1.16-2.66-2.1-3.84-1.06-1.33-1.57-3.01-2.63-4.36-.27-.35-.34-.91-.36-1.38-.06-1.11-.51-2.01-1.35-2.74-1.82-1.59-2.94-3.6-3.7-5.83-.18-.54-.45-1.03-.87-1.43-.71-.68-1.1-1.57-1.62-2.37-1.13-1.72-2.48-3.29-3.1-5.28-.07-.22-.24-.41-.4-.59-.42-.48-.73-1.02-.99-1.58,1.48-.22,3.02-.29,4.52-.14,2.66.26,5.25.67,7.92.25.94-.15,1.86.14,2.74.45,1.86.67,3.74,1.33,5.64,1.96.85.28,1.82.7,2.65.65,3.3-.22,6.48.17,9.67.75.7.13,1.54.04,2.26-.09,2.55-.43,5.31-.45,7.55-1.56,1.09-.54,2.55-.71,3.85-.48,3.78.68,7.65.4,11.44.82,1.38.15,2.54.12,3.86-.25,4.71-1.35,9.56-2.29,14.89-1.26,1.51.29,3.03.18,4.57.02,8.9-.95,17.89-1.36,26.97-.83,3.82.22,7.24-.39,10.62-1.28,1.98-.52,3.93-1.3,4.68-2.61,1.67-2.92,3.64-5.88,2.57-9.18-.54-1.67-.58-3.26-.23-4.92.76-3.62,1.15-7.29,2.12-10.88.56-2.06.59-4.01-.37-6.01-.66-1.38-.5-2.75-.47-4.15.12-5.06.83-10.12-.93-15.16-.67-1.91.08-3.49,1.83-4.92.35-.29.82-.51,1.22-.78.88-.6,1.15-1.34.52-2.08-1.11-1.32-.93-2.65-.88-4.06.07-2.06.67-3.99,1.84-5.85Zm-171.44-184.32c1.25.82,2.59,1.06,4.06,1.16,1.33.09,2.75.05,3.94.88.17.12.41.14.62.18,2.15.33,4.03,1.33,5.99,2.22,1.5.67,2.89,1.58,4.5,2.01.41.11.83.29,1.16.54,1.44,1.11,3.12,1.72,4.78,2.37.56.22,1.04.47,1.34,1.01.96,1.76,2.6,2.39,4.44,2.59.71.08,1.22.35,1.66.84.65.72.56,1.63-.32,1.94-.07.02-.13.06-.19.09-.25-.06-.5-.12-.73-.2-2.08-.74-3.92-.46-5.96-.17-4.39.62-8.78,1.29-13.23,1.67-.06-.18-.15-.36-.28-.47-1.17-.99-1.85-2.37-2.84-3.49-1.76-1.99-3.4-4.05-4.66-6.4-.38-.71-.89-1.31-1.59-1.72-1.19-.69-2.11-1.72-3.2-2.54-.23-.17-.45-.37-.6-.61-.41-.65-.78-1.33-1.23-2.09.9-.34,1.7-.22,2.34.2Zm-12.78,4.77c.09-.07.27-.1.38-.06.2.07.42.17.55.32.92,1.13,2.16,1.87,3.29,2.74.58.44,1.06.95,1.4,1.6.42.78,1.02,1.38,1.85,1.73.67.29,1.25.76,1.65,1.35.61.91,1.47,1.52,2.25,2.25,1.02.96,2.03,1.93,2.92,3.01-.61.12-1.21.25-1.8.44-.31.1-.76.13-1.1.07-3.45-.59-6.9-.14-10.34-.14-.06-.18-.1-.35-.17-.53-.31-.7-.37-1.35-.12-2.08.21-.63.19-1.27-.08-1.89-.6-1.37-.6-2.79-.39-4.36.36-1.34.04-2.72-.43-4.1-.03-.1.04-.3.13-.37Zm-19.94,9.78c.74-.69,1.4-1.4,2.37-1.79,1.23-.49,1.71-1.68,2.26-2.76.36-.7.59-1.47,1.22-2,.15-.12.39-.2.58-.2.24,0,.33.25.32.47-.06,1.01.11,2,.26,2.99.13.85.15,1.77-.27,2.53-.52.96-.72,1.93-.75,2.9-2.75.07-5.47.33-8.17.64.68-.96,1.3-1.96,2.19-2.79Zm-29.33-4.78c1.33-1.16,2.99-1.96,4.53-2.86,1.48-.86,2.91-1.84,4.61-2.28.48-.12.96-.27,1.44-.4.48-.13,1.02-.16,1.43-.41,2.43-1.45,5.17-2.08,7.83-2.92.34-.11.72-.15,1.02-.32,1.63-.95,3.49-.68,5.22-1.03.5-.1.84.42.54.85-1.2,1.75-2,3.82-3.97,4.96-.12.07-.25.15-.34.26-1.59,1.85-3.61,3.27-5.15,5.17-.46.57-.93,1.13-1.05,1.85-.24,1.37-1.28,2.2-1.99,3.26-.31.46-.63.91-.99,1.32-1.44-.35-2.99-.56-4.65-.23-1.87.37-3.67.47-5.41.36-.44-.13-.9-.23-1.37-.3-1.16-.17-2.05-.69-2.61-1.68-.47-.83-1.19-1.2-2.05-1.42-.75-.19-1.5-.38-2.6-.67,2.15-1.22,3.97-2.14,5.56-3.52Z"/>
      </g>
    </g>
  </g>
</svg>