<?xml version="1.0" encoding="UTF-8"?>
<svg xmlns="http://www.w3.org/2000/svg" viewBox="0 0 750 500">
  <defs>
    <style>
      .cls-1, .cls-2 {
        fill: #fff;
      }

      .cls-3 {
        fill: #de6acc;
      }

      .cls-3, .cls-4, .cls-2, .cls-5 {
        mix-blend-mode: multiply;
      }

      .cls-4 {
        fill: #ffd731;
      }

      .cls-6 {
        isolation: isolate;
      }
    </style>
  </defs>
  <g class="cls-6">
    <g id="BACKGROUND">
      <rect class="cls-1" y="-.18" width="750" height="500.36"/>
    </g>
    <g id="OBJECTS">
      <g>
        <g>
          <path class="cls-4" d="m345.06,336.26c.22-1.33-.41-2.33-.14-3.4.04-.18-.09-.49-.24-.63-.75-.7-.79-1.65-.95-2.56-.05-.29-.06-.58-.11-.87-.13-.67-.9-.94-1.05-1.58-.13-.61.14-1.29-.29-1.87-.33-.45-.36-.99-.39-1.51-.07-1.14-.37-2.17-1.2-3.01-.52-.53-.5-1.26-.74-1.9-.54-1.47-1.3-2.86-2-4.26-.31-.61-.71-1.12-.74-1.91-.02-.71-.53-1.39-.84-2.06-.66-1.41-1.04-2.99-2.21-4.14-.38-.38-.47-.92-.58-1.44-.33-1.67-.82-3.26-1.93-4.61-.32-.39-.49-.92-.68-1.41-.34-.88-.8-1.69-1.38-2.43-.48-.61-.82-1.28-1-2.03-.12-.52-.35-.98-.57-1.46-.45-.94-1-1.82-1.36-2.82-.4-1.08-1.25-1.96-2.04-2.82-.24-.25-.62-.48-.68-.77-.29-1.32-1.29-2.37-1.4-3.76-.05-.64-.4-1.05-.98-1.35-.7-.36-1.18-.95-1.49-1.67-.27-.63-.68-1.02-1.34-1.27-1-.37-1.71-1.1-2.36-1.98-1.24-1.68-2.45-3.45-4.17-4.65-.97-.68-1.71-1.56-2.56-2.33-.17-.16-.29-.43-.49-.5-1.16-.39-1.7-1.55-2.72-2.12-.69-.39-1.06-1.07-1.26-1.83-.09-.34-.23-.68-.24-1.02-.03-1.28-.8-2.3-1.19-3.45-.15-.42-.44-.92-.81-1.12-.83-.44-1.05-1.38-1.77-1.89-.17-.12-.31-.37-.34-.58-.26-1.92-1.42-3.43-2.37-5.02-.31-.52-.87-.82-.88-1.58-.01-.52-.57-.85-1.08-1.05-.42-.16-.65-.47-.74-.9-.08-.4-.15-.84-.47-1.11-.75-.63-.85-1.49-.92-2.37-.05-.58-.06-1.17-.19-1.74-.16-.71-.18-1.37.14-2.05.36-.77.17-1.53-.31-2.15-1.01-1.3-1.1-2.76-.98-4.31.04-.58-.04-1.16-.06-1.74-.05-1.2.3-2.46-.46-3.56.06-.81.06-1.62.2-2.41.21-1.17.29-2.32-.15-3.45-.15-.39-.28-.78-.16-1.19.49-1.68.46-3.47,1.11-5.12.42-1.05.54-2.13.14-3.25-.22-.6-.27-1.23-.12-1.89.14-.62.11-1.28.18-1.92.05-.5.05-.95-.57-1.08-.05-.01-.12-.05-.15-.09-.06-.1-.18-.24-.15-.3.49-.86-.74-1.46-.35-2.28.21-.44.3-.89.17-1.36-.28-1.04.22-1.85.85-2.53.73-.79,1.38-1.56,1.52-2.68.03-.21.17-.45.33-.6.65-.62.71-1.28.25-2.05-.11-.18-.14-.47-.08-.67.16-.58.08-1.16.03-1.74-.06-.61.04-1.16.39-1.67.28-.39.46-.81.41-1.31,0-.06-.01-.14.02-.17.86-.93,1.15-2.32,2.35-2.94.48-.24.69-.57.84-1.03.21-.67.44-1.32.95-1.85.19-.2.26-.51.36-.78.04-.11.05-.23.05-.35.01-.91,1.06-1.41.94-2.39-.11-.92.42-1.68.72-2.49.1-.27.28-.52.15-.82-.16-.36-.13-.68.14-.97.58-.62.24-1.67,1.21-2.21.66-.36,1.04-1.24,1.58-1.84.58-.64.99-1.29.65-2.2-.05-.14-.02-.44.06-.48.91-.4,1.01-1.78,2.2-1.84.82-.64,1.85-1.15,2.42-1.97.77-1.1,1.99-1.83,2.43-3.18.08-.25.35-.46.57-.65.56-.48.74-1.03.38-1.71-.05-.1-.05-.22-.08-.34,0,0,1.4-2.09,1.41-2.1.21-.1.48-.16.61-.32.89-1.14,2.11-1.56,3.49-1.67.21-.02.49-.15.59-.31.45-.76,1.46-1.02,1.71-1.95.05-.17.33-.31.52-.42.52-.27,1.06-.5,1.58-.76.31-.16.73-.27.89-.53.59-.95,1.62-1.35,2.46-1.91.86-.57,1.8-1.31,3.02-1.04.37.08.72-.09.91-.41.38-.66.98-.97,1.65-1.23.27-.11.55-.24.77-.42.68-.57,1.32-1.03,2.34-.81.59.12,1.27-.21,1.64-.82.35-.58.91-.89,1.46-1.22.6-.36,1.18-.75,1.75-1.16.49-.35,1.04-.67,1.63-.49,1.65.53,2.8-.34,3.92-1.31.29-.25.55-.39.92-.38.78.01,1.49-.19,2.08-.76.16-.15.41-.3.62-.3,1.11-.02,2.06-.84,3.22-.64.11.02.26,0,.34-.06.94-.77,2.22-.59,3.23-1.15.33-.18.67-.11,1.02-.1.82.03,1.63,0,2.45.02.67.01,1.23-.2,1.81-.54,1.05-.63,2.19-1.09,3.45-1.09.65,0,1.28-.12,1.88-.38.95-.43,1.94-.42,2.92-.22,1.01.21,2.03.33,2.96.96.52.36,1.37.45,2.03.35.95-.15,1.85.04,2.76.1,1.16.08,2.3.31,3.48.09.56-.11,1.17-.02,1.74.08.4.07.77.18,1.2.05.2-.06.51-.05.66.07.78.61,1.77.55,2.64.89.84.33,1.62.14,2.14-.64.23-.35.44-.52.85-.39.06.02.12.02.17.05.63.38,1.23-.52,1.84-.06.54.4,1.14.55,1.79.63.53.07.97.3,1.31.78.58.83,1.51,1.28,2.3,1.87.58.43,1.42.51,2.18.2.42-.17.8-.11,1.14.19.56.5,1.24.64,1.96.62,1.25-.03,2.38.54,3.56.81.65.15,1.23.67,1.5,1.37.26.66.77.86,1.41.75,1.23-.21,2.3.21,3.34.78.56.31,1.11.64,1.65.98.65.42,1.34.69,2.13.72,1.08.04,2.05.37,2.94,1,.38.27.8.5,1.23.66.73.27,1.37.64,1.81,1.31.12.19.32.4.52.45,1.08.27,1.81,1.24,2.98,1.4.84.12,1.43.97,2.3,1.19.09.02.19.15.22.26.51,1.32,1.78,1.76,2.86,2.4.56.33,1.02.66,1.44,1.19,1.01,1.29,2.44,2.16,3.64,3.26.12.11.32.14.49.17.7.14,1.33.4,1.8.98.5.63,1.5.43,1.97,1.05.45.6.64,1.37,1.38,1.76.19.1.36.31.46.51.87,1.8,2.12,3.32,3.51,4.73.49.49.7,1.21,1.35,1.59.25.15.29.5.24.8-.09.6-.03,1.16.28,1.69.26.44.14.91.07,1.37-.08.54-.02,1.06.32,1.5.57.75.92,1.62,1.35,2.44.41.77.76,1.58,1.62,2,.19.09.33.32.45.52.71,1.2,1.18,2.51,1.5,3.86.07.3.01.58-.13.84-.56.99-.27,2.06-.25,3.09.01.49.35.85.69,1.19.29.29.6.59.64,1.02.1,1.2.71,2.23,1.12,3.31.35.91.99,1.7,1.33,2.63.08.22.3.46.25.63-.43,1.39.33,2.95-.64,4.26-.16.22-.21.54-.26.83-.21,1.21-.36,2.43-.61,3.62-.15.73-.14,1.42.26,2.02.6.9.61,2,1.1,2.93.03.05.06.11.05.17-.19,1.37,0,2.81-.44,4.12-.38,1.11-.74,2.22-.84,3.38-.07.78-.16,1.48-.7,2.1-.39.45-.62,1.05-.5,1.63.16.8-.03,1.48-.38,2.18-.26.52-.35,1.1-.41,1.69-.12,1.35-.37,2.65-1.3,3.74-.43.5-.57,1.16-.33,1.82.19.53.02,1.02-.07,1.54-.21,1.21-.48,2.38-1.12,3.44-.09.15-.11.41-.22.46-1.09.42-.96,1.48-1.27,2.32-.32.87-.46,1.81-.93,2.63-.11.2-.24.52-.15.66.53.89-.15,1.7-.11,2.54.05,1.1-.47,1.88-1.23,2.57-.48.43-.93.89-1.42,1.3-.47.39-.69.77-.28,1.34.19.26.12.56-.03.83-.18.32-.24.65-.18,1.01.07.38-.1.67-.37.92-1.02.92-1.23,2.37-2.15,3.36-.23.25-.2.66-.15,1.02.11.82-.19,1.47-.79,2.02-.3.27-.54.6-.82.9-.36.39-.73.82-.8,1.34-.1.74-.25,1.35-1.01,1.69-.28.12-.34.47-.33.77.01.41.05.81.12,1.22.08.46-.03.83-.47,1.02-.54.23-.77.69-.99,1.17-.1.21-.16.44-.25.65-.55,1.28-.99,2.62-2.2,3.5-.27.2-.42.55-.61.84-.16.25-.32.52-.63.58-1.3.24-1.69,1.32-2.19,2.31-.16.31-.25.66-.34.99-.14.53-.4.93-.86,1.27-.72.53-1.24,1.23-1.35,2.16-.03.23-.12.45-.18.68-.26.93-1.27,1.41-1.48,2.35-.21.96-.65,1.79-1.33,2.42-.74.69-1.34,1.45-1.88,2.28-.22.34-.46.69-.57,1.08-.26.92-.71,1.66-1.46,2.3-.73.61-.82,1.67-1.12,2.53-.28.79-.55,1.52-1.16,2.1-.21.2-.4.44-.52.7-.27.6-.66,1.04-1.23,1.42-.7.46-.94,1.14-1.01,2.07-.08,1.04-.15,2.17-.82,3.14-.59.85-.68,1.78-.2,2.81.42.88.36,1.94.76,2.85.15.34-.07.67-.14,1.01-.18.83-.78,1.58-.44,2.52.12.35-.15.66-.39.93-.83.94-1.12,2.01-.88,3.25.14.69-.11,1.39.08,2.09.1.37-.13.68-.39.93-.54.52-.86,1.18-.77,1.89.24,1.71-.58,3.08-1.43,4.38-.63.98-1.07,2.07-1.75,3.02-.4.57-.4,1.22-.23,1.85.14.54.12,1.03-.11,1.53-.12.26-.24.55-.25.83-.03.99-.38,1.82-1.07,2.51-.3.3-.5.71-.41,1.11.2.91-.42,1.69-.35,2.58.01.15-.09.4-.21.45-.83.4-1.11,1.38-1.85,1.82-.9.53-1.88.93-2.83,1.38-.45.21-.91.14-1.37.02-1.21-.33-2.32-.1-3.32.63-.32.24-.6.26-.97.14-.7-.22-1.44-.25-2.07-.79-.47-.4-1.14-.49-1.83-.38-1.26.19-2.57.02-3.76.65-.19.1-.48.12-.68.05-.99-.38-2.01-.25-2.93.06-1.55.53-3.12.39-4.66.3-.98-.06-1.84.13-2.73.4-.22.07-.43.18-.64.28-1.99.9-4,.82-5.94-.06-.83-.38-1.45-.33-2.04.32-.65.72-1.7.73-2.39,1.4-.21.21-.56.08-.83-.05-.49-.25-1.01-.33-1.53-.16-.75.24-1.37-.05-1.99-.41-.5-.29-.99-.63-1.53-.84-.83-.33-1.59-.7-2.02-1.56-.19-.37-.58-.34-.92-.16-.2.11-.37.29-.58.39-.2.09-.5.24-.64.16-.85-.47-1.83-.16-2.72-.51-.63-.25-1.38-.17-2.07-.25-1.17-.12-2.31-.36-3.31-1.04-.44-.3-.86-.6-1.1-1.1-.29-.59-.74-1.04-1.31-1.38-1.09-.66-1.78-1.62-2.21-2.82-.28-.81-.98-1.5-.7-2.18Z"/>
          <path class="cls-3" d="m409.32,347.39c1.07,1.17,2.21,1.99,3.11,3.12,1.05,1.32,1.24,2.9,1.66,4.39.19.67-.16,1.56-.44,2.28-.3.77-.47,1.51-.22,2.3.23.75-.13,1.42-.29,2.1-.16.69-.64,1.29-.59,2.05.02.37-.21.66-.47.93-.3.31-.67.61-.81.99-.6,1.69-1.91,2.4-3.53,2.78-.67.15-.75.63-.31,1.12.55.61,1.21.96,2.03,1.13,2.1.44,4.5,2.25,5.56,4.06.25.43.52.88.89,1.2,1.19,1.02,1.73,2.34,2.3,3.79.59,1.51.06,3,.47,4.45.04.12,0,.32-.07.42-.8,1.01-1.08,2.33-2,3.27-.71.72-1.39,1.46-2.11,2.15-.41.4-.85.78-1.34,1.07-.56.34-1.1.69-1.44,1.26-.27.45-.63.79-1.14.93-.51.15-.85.51-1.19.89-1.29,1.44-2.85,1.9-4.82,1.72-1.6-.14-3.26-.34-4.88.23-1.03.36-2.13.11-3.2-.09-1.19-.23-1.45,0-1.72,1.26-.08.36-.14.69-.37.99-1.29,1.72-2.57,3.45-3.86,5.16-.21.28-.45.57-.74.78-1,.73-1.95,1.49-2.29,2.76-.05.19-.22.38-.38.51-1.88,1.45-3.44,3.25-5.22,4.79-.75.64-1.82.82-2.58,1.5-.09.08-.29.14-.41.09-1.22-.44-2.42.14-3.63.05-.29-.02-.6-.1-.85-.01-1.59.56-2.95-.14-4.31-.76-.65-.3-1.27-.67-1.89-1.03-1.18-.7-2.35-1.38-3.82-1.27-.91.07-1.64-.57-2.34-.99-1.65-1.01-3.19-2.2-4.76-3.33-1.11-.8-1.65-1.97-1.98-3.25-.15-.57-.28-1.11-.7-1.54-.86-.88-1.07-1.98-1.12-3.17-.03-.75.36-1.71-.39-2.22-.64-.44-1.37.16-2.06.28-1.08.18-2.16.23-3.18-.24-.61-.28-1.2-.37-1.88-.28-2.19.31-4.27-.31-6.31-.99-1.28-.43-2.51-1.04-3.28-2.29-.21-.35-.67-.54-.98-.83-.2-.19-.51-.45-.49-.65.15-1.23-.69-2.16-.95-3.27-.26-1.12-.87-2.12-1.45-3.12-.25-.43-.29-.97-.52-1.41-.39-.76-.39-1.52-.14-2.3.63-1.91,1.2-3.85,2.49-5.46.22-.27.4-.61.49-.94.17-.66.57-1.14,1.02-1.62.44-.47.82-1,1.16-1.55.75-1.19.73-1.2,2.27-1.04-.17-.75-.85-.97-1.3-1.33-.74-.6-1.43-1.19-1.79-2.1-.51-1.26-1.67-1.96-2.61-2.83-.6-.56-.94-1.18-1.27-1.93-.57-1.27-.53-2.65-.95-3.93-.12-.37-.05-.73.19-1.01.49-.57.71-1.23.86-1.94.09-.4.31-.81.57-1.14.78-.99,1.24-2.11,1.38-3.35.08-.68.35-1.2.83-1.69.54-.56.96-1.25,1.46-1.86.39-.47,1.4-.46,1.3-1.25-.07-.48-.63-.9-.98-1.35-.57-.73-1.05-1.5-1.81-2.1-.7-.56-1.25-1.37-1.55-2.28-.11-.34-.21-.7-.41-.99-.58-.84-.63-1.75-.39-2.68.18-.71.35-1.39-.07-2.08-.16-.26-.07-.54-.04-.83.13-1.32.77-2.44,1.31-3.61.22-.48.71-.7,1.14-.95.43-.25,1.04-.38,1.28-.75.74-1.15,1.85-1.75,2.99-2.36.37-.2.67-.54.98-.83.35-.32.74-.5,1.17-.26.8.43,1.53.28,2.22-.22,1.05-.75,2.21-1.01,3.48-.89,1.6.15,3.16-.19,4.69-.5,1.05-.21,1.98-.11,2.95.11.56.13,1.1.33,1.66.46.27.06.65.17.84.04.87-.59,1.84-.19,2.74-.39.93-.21,1.83-.24,2.74.17.61.27,1.25.31,1.75-.34.16-.21.48-.47.69-.44,1.35.18,2.49-.75,3.78-.68.62.04,1.33.22,1.82.58,1.24.91,2.77.7,4.11,1.19.71.26,1.43-.11,2.04-.48.56-.33,1.03-.41,1.61-.11.24.12.57.17.83.13.62-.11,1.12.05,1.61.41,1.25.91,2.62,1.04,4.1.72,1.04-.23,2.1-.5,3.2-.23.32.08.73,0,1.06-.12,1.41-.5,2.83-.39,4.26-.2.81.11,1.58.09,2.3-.33.59-.35,1.19-.41,1.86-.24,1.18.3,2.42.21,3.6.62.74.26,1.56.29,2.34.04.8-.26,1.59-.12,2.32.18,1.53.61,3.04,1.29,4.55,1.95,1.32.57,2.26,1.53,2.75,2.88.25.69.64,1.27,1.05,1.87,1.27,1.86,1.7,3.9,1.15,6.12-.14.56-.27,1.12-.34,1.69-.07.55-.26.96-.83,1.13-.72.21-1.06.69-1.02,1.44.02.38-.2.67-.39.98-.91,1.45-1.72,2.97-3.15,4.02-.22.16-.38.42-.65.73Z"/>
          <path class="cls-3" d="m333.99,229.73c-.45,2.39.53,4.88,1.15,7.43.22.9,1.05,1.4,1.4,2.2.32.74.28,1.62.94,2.23.44.4.72.91.77,1.53.06.62.41,1.08.87,1.47.51.42.82.98,1.04,1.59.54,1.53,1.45,2.78,2.77,3.74.92.67,1.53,1.62,2.08,2.58.86,1.49,2.02,2.71,3.18,3.93.86.9,1.62,1.81,2.07,2.99.35.93.9,1.76,1.62,2.47,1.04,1.03,1.91,2.2,2.65,3.47.23.41.43.85.83,1.12,1.77,1.2,2.7,3.03,3.57,4.89.33.69.62,1.37,1.21,1.9.4.35.57.87.74,1.38.3.88.6,1.77.92,2.64.12.33.23.69.46.94.68.76,1.01,1.69,1.44,2.58.73,1.49.87,3.15,1.45,4.67.04.11.02.24.07.34.43,1.01.86,1.98.87,3.14.01,1.09.45,2.16.6,3.26.15,1.1.58,2.15.52,3.28-.02.28.12.57.2.84.07.22.22.43.23.66.09,1.51.6,2.95.79,4.43.16,1.26.54,2.51.28,3.82-.06.27.03.59.12.86.29.92.2,1.82.13,2.77-.1,1.33-.01,2.69.09,4.02.2,2.68-.44,5.21-1.28,7.72-.11.33-.26.66-.47.94-.66.92-1.84,1.17-2.78.55-1.24-.8-2.1-1.81-1.93-3.45.08-.74-.09-1.51-.2-2.26-.24-1.67-.13-3.39-.62-5.03-.23-.76.28-1.5.1-2.25-.16-.68-.61-1.28-.56-2.01.16-2.35-.62-4.62-.65-6.96,0-.51-.15-1.05-.34-1.53-.47-1.23-.62-2.5-.57-3.79.07-1.43-.55-2.61-1.39-3.66-.56-.7-1.08-1.35-1.18-2.28-.03-.33-.19-.67-.36-.97-.33-.62-.69-1.22-.84-1.92-.05-.22-.15-.46-.3-.62-1.24-1.32-1.4-3.06-1.71-4.69-.21-1.1-.46-2.02-1.52-2.58-.58-.31-.97-.83-1.05-1.53-.02-.17-.06-.36-.15-.5-1.27-1.74-1.97-3.85-3.5-5.43-1.49-1.54-2.38-3.45-3.26-5.36-.3-.64-.54-1.3-1.1-1.75-.37-.3-.62-.69-.84-1.11-.45-.84-1-1.57-1.87-2.04-.42-.23-.67-.62-.89-1.05-1.06-2.11-2.6-3.86-4.24-5.53-.5-.51-1.02-.99-1.06-1.75-.03-.52-.28-.88-.69-1.15-.79-.52-1.16-1.28-1.24-2.21-.05-.65-.28-1.24-.53-1.84-.88-2.03-1.84-4.03-2.52-6.15-.11-.33-.33-.62-.46-.94-.13-.32-.35-.68-.3-.99.18-1.15-.21-2.2-.45-3.27-.39-1.74-.21-3.49-.21-5.23,0-2.95.75-5.77,1.63-8.56.09-.28.21-.54.34-.81.88-1.84,1.74-3.69,2.64-5.52.83-1.68,1.97-3.17,2.99-4.73.19-.29.46-.53.72-.76.81-.68,1.53-1.44,2.11-2.33.42-.65,1.01-1.09,1.69-1.48,1.21-.7,2.37-1.49,3.49-2.32.63-.47,1.25-.81,2.05-.9.87-.09,1.74-.23,2.59-.42,1.19-.27,2.41-.44,3.49-1.08.62-.37,1.33-.47,2.03-.19.67.26,1.36.3,2.07.28.71-.03,1.4.03,1.97.55.47.43,1.04.48,1.64.34.34-.08.69-.16,1.03-.19.71-.05,1.4,0,2.01.45.28.21.61.48.92.48,1.61,0,2.79,1.13,4.24,1.54.74.21,1.3.71,1.65,1.46.63,1.36,1.64,2.4,2.89,3.22.85.56,1.49,1.29,1.84,2.28.11.32.29.65.53.9.61.65,1.05,1.38,1.4,2.2.3.71.8.82,1.32.15.14-.18.3-.4.5-.49,1.03-.46,1.65-1.27,2.07-2.27.02-.05.05-.12.09-.15,1.21-.84,1.93-2.17,3.08-3.06,1.15-.9,2.26-1.82,3.13-3.02.68-.95,1.77-1.33,2.87-1.54.66-.12,1.23-.33,1.75-.73,2.39-1.83,5.19-2.6,8.08-3.15.29-.05.59-.06.86-.16,1.88-.71,3.63-.3,5.41.43,1.57.64,3.07,1.41,4.54,2.24.71.4,1.49.67,2.26.94,1.38.48,2.52,1.17,2.91,2.71.07.27.23.55.42.76.52.56.83,1.27,1.29,1.87.93,1.22,1.6,2.56,2.19,3.97.45,1.08.92,2.14.83,3.36-.03.39.07.86.29,1.17.81,1.16.84,2.53,1.04,3.84.13.81.21,1.6.6,2.35.5.95.5,1.89-.09,2.83-.56.89-.62,1.9-.43,2.88.3,1.51-.04,3.03.13,4.54.06.57-.32.99-.58,1.43-.37.6-.78,1.16-1.04,1.82-.17.44-.32.87-.34,1.35-.11,2.03-.65,3.9-1.94,5.52-.21.26-.4.61-.44.94-.11.82-.55,1.56-.66,2.35-.21,1.53-1.11,2.68-1.87,3.91-.97,1.59-2.05,3.11-2.57,4.94-.21.74-.65,1.37-1.13,1.96-1.69,2.09-3.24,4.28-4.58,6.61-.14.25-.38.48-.45.75-.38,1.38-1.34,2.45-1.91,3.72-.19.42-.48.82-.82,1.13-.53.49-.96,1.01-1.19,1.7-.17.52-.58.85-.98,1.21-.88.79-1.56,1.74-1.83,2.92-.14.59-.43,1.08-.8,1.54-.72.93-1.3,1.93-1.76,3.02-.29.7-.61,1.39-1.14,1.96-.42.45-.55.98-.56,1.6-.02,1.23-.36,2.39-.84,3.54-.99,2.38-1.6,4.87-1.69,7.46-.01.34-.03.71-.14,1.03-.68,1.89-.67,3.91-1.07,5.85-.03.17-.04.36,0,.52.55,2.26-.09,4.52-.04,6.77.01.51-.12,1.05-.28,1.55-.41,1.31-.54,2.65-.29,3.98.2,1.05-.1,1.83-.92,2.47-.18.14-.33.33-.49.5-1.22,1.19-3.11.76-3.59-.86-.18-.62-.43-1.2-.67-1.79-.45-1.16-.48-2.4-.33-3.61.14-1.06.2-2.09.02-3.14-.04-.23-.14-.48-.08-.69.48-1.87-.22-3.71-.13-5.57.02-.4-.06-.86.09-1.21.41-.94.45-1.9.45-2.9,0-.99.13-1.98.55-2.9.12-.26.24-.56.24-.84.01-1.81.63-3.57.47-5.4-.05-.52.02-1.05.03-1.58.01-.6.12-1.16.51-1.64.53-.66.77-1.42.91-2.25.07-.39.21-.83.46-1.12.68-.79.96-1.74,1.14-2.71.16-.89.5-1.67,1.1-2.34.31-.35.6-.73.68-1.21.12-.78.48-1.43,1.03-1.99.16-.16.3-.38.34-.6.15-.85.62-1.5,1.2-2.1.29-.3.52-.63.61-1.05.14-.64.57-1.14.87-1.7.63-1.19,1.32-2.33,2.34-3.24.5-.45.66-1.09.73-1.74.06-.61.38-1.07.72-1.56,1.21-1.7,2.5-3.34,3.07-5.43.24-.88.73-1.73,1.48-2.35.51-.42.83-.96,1.12-1.54.64-1.25,1.33-2.47,2-3.7.78-1.44,1.5-2.9,1.81-4.53.14-.74.51-1.43.75-2.14.41-1.22.83-2.44,1.21-3.66.21-.67.44-1.35.36-2.06-.16-1.6.3-3.13.52-4.67.11-.77,0-1.5.03-2.25.02-.77.07-1.49-.28-2.21-.15-.3-.14-.68-.16-1.03-.04-.53-.14-1.04-.37-1.52-.03-.05-.05-.11-.08-.16-.53-.96-.21-2.09-.61-3.07-.38-.91-.9-1.77-.77-2.83.04-.28-.02-.61-.14-.85-.82-1.6-1.43-3.33-2.77-4.62-.25-.24-.53-.47-.74-.74-1.73-2.17-4.26-2.72-6.75-3.31-.44-.1-.93-.02-1.39,0-.52.03-1.04.13-1.56.16-.53.03-1.04.13-1.52.36-.21.1-.42.23-.64.28-1.57.39-2.95,1.07-3.84,2.51-.14.24-.42.42-.67.56-1,.57-1.7,1.41-2.25,2.4-.23.41-.53.77-.92,1.04-1.08.77-1.77,1.85-2.25,3.06-.22.55-.5,1.04-.84,1.53-.85,1.2-1.21,2.51-.83,3.98.26,1.02.45,2.05.7,3.07.14.57.36,1.12.33,1.71-.03.56.19,1.03.57,1.42.66.7.87,1.64,1.28,2.47.31.63.26,1.38.02,2.06-.27.76-.24,1.5.07,2.22.28.66.37,1.34.43,2.05.05.58.12,1.17.27,1.73.39,1.43.38,2.89.48,4.34.05.66-.09,1.27-.33,1.88-.54,1.36-.96,2.75-1.13,4.22-.08.71-.36,1.36-.89,1.86-1.14,1.08-2.24,2.21-3.44,3.22-1.24,1.06-2.65,1.72-4.36,1.17-.46-.15-.92-.13-1.39-.08-.69.08-1.27-.18-1.72-.69-.65-.75-1.32-1.48-1.92-2.27-.6-.79-1.14-1.63-1.65-2.48-.55-.92-.73-1.97-.82-3.02-.18-2.09-.32-4.19-.46-6.28-.1-1.54.11-3.04.64-4.48.25-.67.43-1.33.42-2.04,0-.23-.02-.48.05-.7.42-1.28.74-2.54.57-3.93-.09-.74.37-1.46.74-2.13.77-1.39,1.06-2.97,1.71-4.4.11-.25.15-.62.04-.85-.61-1.24-.5-2.8-1.68-3.78-.83-1.76-2.23-3.13-3.21-4.79-.77-1.3-2-2.27-3.3-3.07-.8-.5-1.57-.99-2.13-1.77-.48-.68-1.22-1.09-1.92-1.51-.35-.21-.75-.4-1.16-.31-.81.17-1.48-.18-2.17-.52-.26-.13-.54-.22-.79-.37-1.08-.63-2.17-.71-3.37-.34-1,.31-2.03.53-3.11.28-.32-.07-.69.05-1.02.14-.68.17-1.35.37-2.02.57-.22.06-.48.09-.66.22-1.15.79-2.35,1.53-3.42,2.42-1.12.93-2.17,1.95-2.64,3.42-.11.36-.45.7-.76.94-.76.6-1.07,1.52-1.7,2.22-.19,1.36-1.12,2.4-1.53,3.66-.27.83-.51,1.68-.82,2.49-.32.85-.24,1.73-.3,2.6-.03.41,0,.82,0,1.54Zm41.62,8.31c-.59,1.26-.96,2.34-.92,3.54.01.34-.07.69-.12,1.04-.23,1.72-.64,3.42-.43,5.19.12,1.03.02,2.09,0,3.14,0,.36.09.68.31.98.47.64,1.06.71,1.62.18.58-.54.88-1.2,1.01-1.98.13-.76.15-1.49-.1-2.23-.28-.81.47-1.56.2-2.4-.22-.68-.15-1.39-.16-2.08-.03-1.83-.44-3.56-1.41-5.37Z"/>
          <g class="cls-5">
            <path class="cls-4" d="m389.19,114.87c.31-.9.36-1.84-.15-2.78-.16-.3-.29-.59-.38-.89.01-.34.03-.68.03-1.02-.08,0-.16,0-.24,0-.07-.69.03-1.39.27-2.09.3-.85.49-1.69.22-2.57-.08-.25-.08-.55.05-.78.31-.56.12-1.13.05-1.68-.07-.6-.16-1.2-.15-1.81,0-.52.15-1.14-.65-1.57-.15-.08-.18-.33-.18-.49-.01-.99-.33-2.02.43-2.94.06-.07.09-.17.08-.25-.14-1.12-.19-2.27-1.26-3.24-.31-.28-.38-.57-.15-.86.56-.68.43-1.42.34-2.15-.05-.35-.2-.72-.08-1.04.37-.96.09-1.91-.17-2.85-.22-.77-.67-1.52-.11-2.3.07-.1,0-.26-.03-.39-.19-1.13-.35-2.26-.57-3.39-.08-.4-.06-.77.03-1.16.2-.9.79-1.73.79-2.66,0-.83.5-1.63.25-2.46-.49-1.62-.31-3.32-1.26-4.9-.16-.26-.35-.64-.02-.88.47-.33.33-.67.36-1.06.05-.69-.25-1.4.11-2.08.08-.15.02-.34-.04-.51-.45-1.33-.58-2.67-.39-4.02.04-.26.03-.52,0-.78-.18-1.13-.16-2.27-.62-3.38-.07-.16-.11-.36-.04-.52.2-.44,0-.86-.03-1.29-.02-.33-.1-.66-.15-.99.2-2.3.52-4.61.54-6.91-.31,0-.63,0-.94,0-1.78,0-3.6.28-5.37-.22-.14-.04-.34-.03-.49,0-.72.15-1.52.05-2.23.31-.46.17-1.05.2-1.61.15-.5-.05-.98-.04-1.46.07-.25.06-.55.09-.81.05-.88-.13-1.75-.04-2.63-.07-.73-.02-1.45-.06-2.17-.12-.17,2.04-.31,4.08-.43,6.12-.58.72-1.14,2.12-1.09,2.81.02.3.06.61.05.91,0,.27.07.52.32.74.16.14.38.29.41.44.13.74,1.45,1.19,1.1,2.04-.27.67.15,1.4-.26,2.07-.17.28-.25.6-.07.9.4.66-.17,1.39.43,2.04.11.12-.02.34-.06.51-.24,1.02-.5,2.04-.73,3.06-.19.87-.03,1.7.35,2.57.66,1.49.94,3.01-.22,4.45-.21.26-.36.55-.5.84-.31.63-.48,1.26.08,1.89.36.42.26.95.77,1.34.39.3.4.64.06.96-.24.23-.19.48-.15.75.14.96.16,1.92-.02,2.87-.08.42.01.87.04,1.3.01.17.18.38.1.51-.47.76.04,1.46.29,2.17.15.43.18.84.08,1.29-.19.86-.14,1.76.28,2.58.41.8.38,1.54.14,2.32-.29.95-.3,1.88.6,2.73.24.23.29.47.24.75-.2,1.03.17,2.1-.43,3.09-.09.14-.03.35.03.52.19.55.02,1.05-.41,1.5-.33.35-.42.71-.38,1.12.02.26.14.56-.01.77-.43.6.37,1.09.3,1.65,0,.09.21.24.36.27.8.16.89.62.89,1.05,0,.52-.05,1.05-.25,1.54-.22.56-.22,1.1-.21,1.67.03,1.09.19,2.18.23,3.27,0,.06.01.12.01.18.14,0,.27.01.41.02-.16,2.36-.29,4.72-.42,7.09.12-.02.25-.04.37-.07.82-.19,1.58-.22,2.38.09.69.27,1.46.32,2.25.27.76-.05,1.53-.04,2.3-.08.54-.03,1.12-.04,1.61-.17,1.83-.46,3.73-.48,5.66-.41,1.05.04,2.11.09,3.16.09-.01-.42-.02-.85-.01-1.27.03-1.57.2-3.14.36-4.71.28.02.55.03.83.04Z"/>
            <path class="cls-4" d="m303.29,145.42c-.28-.91-.8-1.7-1.79-2.13-.31-.14-.59-.3-.85-.47-.19-.28-.39-.56-.59-.83-.07.05-.13.1-.2.15-.47-.51-.82-1.13-1.03-1.83-.27-.86-.6-1.65-1.36-2.19-.21-.15-.39-.39-.43-.65-.08-.64-.58-.98-.97-1.38-.42-.44-.85-.86-1.22-1.36-.31-.42-.56-1.01-1.48-.85-.18.03-.34-.15-.44-.28-.61-.79-1.48-1.41-1.41-2.62,0-.09-.02-.19-.08-.25-.8-.81-1.52-1.7-2.99-1.81-.42-.03-.66-.22-.64-.59.05-.89-.49-1.4-1.01-1.93-.25-.25-.6-.45-.69-.78-.27-1-1.07-1.58-1.85-2.17-.64-.48-1.47-.8-1.47-1.77,0-.12-.16-.2-.26-.29-.83-.79-1.65-1.59-2.51-2.35-.3-.27-.52-.58-.68-.95-.37-.84-.39-1.88-.94-2.61-.5-.66-.56-1.61-1.26-2.12-1.38-1-2.25-2.46-3.98-3.14-.29-.11-.68-.3-.54-.69.19-.55-.13-.74-.34-1.07-.37-.58-1.05-.96-1.16-1.73-.02-.16-.19-.28-.34-.38-1.17-.78-2.08-1.78-2.74-2.97-.13-.23-.29-.44-.47-.62-.83-.79-1.5-1.72-2.54-2.32-.15-.09-.31-.22-.34-.39-.1-.47-.51-.69-.8-1.01-.22-.25-.48-.47-.72-.7-1.22-1.96-2.33-4.01-3.7-5.86-.26.19-.52.39-.78.58-1.49,1.1-2.82,2.45-4.59,3.15-.14.06-.3.19-.4.3-.51.57-1.23.98-1.67,1.63-.28.42-.75.81-1.25,1.11-.44.27-.84.57-1.17.96-.17.2-.4.42-.64.54-.81.44-1.48,1.06-2.22,1.58-.62.43-1.23.85-1.87,1.25,1.08,1.74,2.19,3.45,3.32,5.16-.05.94.32,2.4.78,2.92.2.23.42.45.59.7.16.22.37.37.71.39.21.01.49,0,.6.1.56.51,1.92.05,2.14.95.18.71.96,1.02,1.02,1.81.03.32.16.64.48.76.73.28.69,1.22,1.58,1.37.16.03.19.28.26.44.41.97.8,1.94,1.23,2.9.36.82,1,1.38,1.83,1.84,1.44.79,2.59,1.82,2.49,3.7-.02.34.04.66.09.98.12.69.36,1.3,1.2,1.47.55.11.78.6,1.44.59.5,0,.71.26.63.73-.06.33.13.5.32.69.7.68,1.29,1.43,1.71,2.31.19.39.53.69.82,1.02.11.13.38.19.39.35.06.9.9,1.14,1.54,1.56.38.25.65.56.84.98.36.8.94,1.49,1.78,1.89.82.39,1.24,1,1.51,1.76.33.94.88,1.69,2.13,1.81.34.03.53.2.64.45.45.95,1.4,1.57,1.5,2.74.01.17.19.3.33.4.48.32.65.83.56,1.45-.07.48.08.83.35,1.13.17.19.45.37.45.63,0,.75.96.65,1.24,1.14.04.07.32.07.46,0,.76-.37,1.11-.06,1.37.29.31.42.59.87.72,1.39.15.58.48,1.02.83,1.47.68.86,1.47,1.62,2.16,2.47.04.05.08.09.12.14.12-.08.23-.16.35-.24,1.29,1.99,2.6,3.96,3.9,5.93.09-.1.18-.19.27-.29.57-.66,1.18-1.16,2.03-1.4.74-.21,1.4-.65,2.03-1.18.6-.51,1.25-.98,1.86-1.49.43-.36.9-.73,1.24-1.14,1.24-1.51,2.81-2.7,4.45-3.83.9-.62,1.8-1.24,2.68-1.88-.27-.33-.53-.67-.77-1.01-.92-1.27-1.72-2.63-2.53-3.99.24-.16.47-.32.71-.48Z"/>
            <path class="cls-4" d="m276.2,224.76c-.87-.4-1.8-.53-2.78-.08-.31.14-.62.25-.92.32-.34-.04-.67-.08-1.01-.11,0,.08-.02.17-.02.25-.7,0-1.38-.15-2.05-.45-.82-.38-1.63-.65-2.54-.45-.26.06-.55.03-.77-.12-.53-.37-1.11-.22-1.67-.2-.61.02-1.21.06-1.82,0-.52-.05-1.12-.25-1.62.54-.1.15-.34.15-.51.14-.99-.07-2.04.16-2.89-.7-.07-.07-.16-.11-.24-.11-1.13.05-2.28,0-3.34,1.02-.3.29-.6.35-.87.08-.63-.63-1.37-.57-2.11-.53-.35.02-.74.14-1.04,0-.93-.46-1.89-.26-2.85-.07-.79.16-1.58.56-2.3-.09-.09-.08-.26-.01-.39,0-1.14.09-2.28.17-3.43.3-.4.05-.77,0-1.16-.13-.87-.29-1.66-.96-2.58-1.04-.82-.07-1.58-.66-2.42-.47-1.66.36-3.33.04-4.99.87-.27.14-.67.31-.88-.06-.28-.51-.64-.4-1.03-.46-.68-.11-1.42.14-2.06-.29-.14-.09-.34-.05-.51,0-1.37.35-2.71.36-4.04.06-.25-.06-.52-.08-.78-.06-1.14.09-2.28-.03-3.42.35-.17.06-.37.08-.52,0-.42-.24-.85-.08-1.29-.08-.33,0-.67.05-1,.07-2.27-.4-4.54-.94-6.84-1.15-.03.32-.06.65-.09.97-.17,1.84-.05,3.74-.71,5.52-.05.14-.06.35-.04.5.09.76-.09,1.57.1,2.33.13.49.1,1.1,0,1.67-.09.51-.13,1.01-.07,1.51.03.26.04.58-.02.84-.21.9-.2,1.81-.31,2.71-.09.75-.19,1.49-.32,2.22,2.01.35,4.04.67,6.06.97.66.66,2,1.36,2.7,1.36.31,0,.61-.01.92.02.27.03.52-.03.76-.27.15-.15.32-.36.48-.38.75-.07,1.32-1.39,2.13-.96.65.34,1.4-.03,2.03.44.26.2.58.31.89.15.69-.36,1.37.3,2.08-.27.13-.1.34.05.5.1.99.34,1.98.7,2.98,1.02.85.28,1.7.18,2.59-.14,1.55-.55,3.08-.71,4.41.61.24.24.52.42.79.59.6.37,1.21.6,1.89.08.45-.34.97-.19,1.4-.68.33-.37.67-.36.96.02.21.27.46.24.73.22.97-.07,1.92,0,2.86.27.42.12.87.06,1.3.07.17,0,.39-.15.52-.05.71.55,1.45.09,2.19-.11.44-.12.85-.11,1.29.03.84.27,1.74.29,2.6-.07.83-.35,1.57-.26,2.32.05.92.38,1.85.48,2.77-.38.25-.23.5-.26.77-.18,1,.3,2.1,0,3.04.71.14.1.35.06.52.01.56-.14,1.05.07,1.45.55.31.37.67.49,1.08.49.26,0,.58-.09.77.08.56.49,1.12-.28,1.67-.17.08.02.26-.19.31-.35.24-.81.7-.86,1.13-.82.52.05,1.04.14,1.52.39.54.27,1.07.32,1.65.36,1.09.06,2.19-.01,3.28.04.06,0,.12,0,.19,0,.02-.14.04-.28.06-.42,2.34.37,4.68.7,7.02,1.04-.01-.13-.02-.26-.04-.39-.11-.86-.07-1.65.31-2.45.33-.69.45-1.48.48-2.29.02-.79.1-1.59.13-2.38.02-.56.06-1.15-.02-1.68-.3-1.93-.14-3.89.11-5.87.14-1.08.28-2.17.38-3.25-.42-.02-.85-.05-1.27-.1-1.56-.17-3.11-.47-4.66-.77.04-.28.08-.56.12-.85Z"/>
            <path class="cls-4" d="m446.71,145.42c.28-.91.8-1.7,1.79-2.13.31-.14.59-.3.85-.47.19-.28.39-.56.59-.83.07.05.13.1.2.15.47-.51.82-1.13,1.03-1.83.27-.86.6-1.65,1.36-2.19.21-.15.39-.39.43-.65.08-.64.58-.98.97-1.38.42-.44.85-.86,1.22-1.36.31-.42.56-1.01,1.48-.85.18.03.34-.15.44-.28.61-.79,1.48-1.41,1.41-2.62,0-.09.02-.19.08-.25.8-.81,1.52-1.7,2.99-1.81.42-.03.66-.22.64-.59-.05-.89.49-1.4,1.01-1.93.25-.25.6-.45.69-.78.27-1,1.07-1.58,1.85-2.17.64-.48,1.47-.8,1.47-1.77,0-.12.16-.2.26-.29.83-.79,1.65-1.59,2.51-2.35.3-.27.52-.58.68-.95.37-.84.39-1.88.94-2.61.5-.66.56-1.61,1.26-2.12,1.38-1,2.25-2.46,3.98-3.14.29-.11.68-.3.54-.69-.19-.55.13-.74.34-1.07.37-.58,1.05-.96,1.16-1.73.02-.16.19-.28.34-.38,1.17-.78,2.08-1.78,2.74-2.97.13-.23.29-.44.47-.62.83-.79,1.5-1.72,2.54-2.32.15-.09.31-.22.34-.39.1-.47.51-.69.8-1.01.22-.25.48-.47.72-.7,1.22-1.96,2.33-4.01,3.7-5.86.26.19.52.39.78.58,1.49,1.1,2.82,2.45,4.59,3.15.14.06.3.19.4.3.51.57,1.23.98,1.67,1.63.28.42.75.81,1.25,1.11.44.27.84.57,1.17.96.17.2.4.42.64.54.81.44,1.48,1.06,2.22,1.58.62.43,1.23.85,1.87,1.25-1.08,1.74-2.2,3.45-3.32,5.16.05.94-.32,2.4-.78,2.92-.2.23-.42.45-.59.7-.16.22-.37.37-.71.39-.21.01-.49,0-.6.1-.56.51-1.92.05-2.14.95-.18.71-.96,1.02-1.02,1.81-.03.32-.16.64-.48.76-.73.28-.69,1.22-1.58,1.37-.16.03-.19.28-.26.44-.41.97-.81,1.94-1.23,2.9-.36.82-1,1.38-1.83,1.84-1.44.79-2.59,1.82-2.49,3.7.02.34-.04.66-.09.98-.12.69-.36,1.3-1.2,1.47-.55.11-.78.6-1.44.59-.5,0-.71.26-.63.73.06.33-.13.5-.33.69-.7.68-1.29,1.43-1.71,2.31-.19.39-.53.69-.82,1.02-.11.13-.38.19-.39.35-.06.9-.9,1.14-1.54,1.56-.38.25-.65.56-.84.98-.36.8-.94,1.49-1.78,1.89-.82.39-1.24,1-1.51,1.76-.33.94-.88,1.69-2.13,1.81-.34.03-.53.2-.64.45-.45.95-1.4,1.57-1.5,2.74-.01.17-.19.3-.33.4-.48.32-.65.83-.56,1.45.07.48-.08.83-.35,1.13-.17.19-.45.37-.45.63,0,.75-.96.65-1.24,1.14-.04.07-.32.07-.46,0-.76-.37-1.11-.06-1.37.29-.31.42-.59.87-.72,1.39-.15.58-.47,1.02-.83,1.47-.68.86-1.47,1.62-2.16,2.47-.04.05-.08.09-.12.14-.12-.08-.23-.16-.35-.24-1.29,1.99-2.6,3.96-3.9,5.93-.09-.1-.18-.19-.27-.29-.57-.66-1.18-1.16-2.03-1.4-.74-.21-1.4-.65-2.03-1.18-.6-.51-1.25-.98-1.86-1.49-.43-.36-.9-.73-1.24-1.14-1.24-1.51-2.81-2.7-4.45-3.83-.9-.62-1.8-1.24-2.68-1.88.27-.33.53-.67.77-1.01.92-1.27,1.72-2.63,2.53-3.99-.24-.16-.47-.32-.71-.48Z"/>
            <path class="cls-4" d="m473.8,224.76c.87-.4,1.8-.53,2.78-.08.31.14.62.25.92.32.34-.04.67-.08,1.01-.11,0,.08.02.17.02.25.7,0,1.39-.15,2.05-.45.82-.38,1.63-.65,2.54-.45.26.06.55.03.77-.12.53-.37,1.11-.22,1.67-.2.61.02,1.21.06,1.82,0,.52-.05,1.12-.25,1.62.54.1.15.34.15.51.14.99-.07,2.04.16,2.89-.7.07-.07.16-.11.24-.11,1.13.05,2.28,0,3.34,1.02.3.29.6.35.87.08.63-.63,1.37-.57,2.11-.53.35.02.74.14,1.04,0,.93-.46,1.89-.26,2.85-.07.79.16,1.58.56,2.3-.09.09-.08.26-.01.39,0,1.14.09,2.29.17,3.43.3.4.05.77,0,1.16-.13.87-.29,1.66-.96,2.58-1.04.82-.07,1.58-.66,2.43-.47,1.66.36,3.33.04,4.99.87.27.14.67.31.88-.06.28-.51.64-.4,1.03-.46.68-.11,1.42.14,2.06-.29.14-.09.34-.05.51,0,1.37.35,2.71.36,4.04.06.25-.06.52-.08.78-.06,1.14.09,2.28-.03,3.42.35.17.06.37.08.52,0,.42-.24.85-.08,1.29-.08.33,0,.67.05,1,.07,2.27-.4,4.54-.94,6.84-1.15.03.32.06.65.09.97.17,1.84.05,3.74.71,5.52.05.14.06.35.04.5-.09.76.09,1.57-.1,2.33-.13.49-.1,1.1,0,1.67.09.51.13,1.01.07,1.51-.03.26-.04.58.02.84.21.9.2,1.81.31,2.71.09.75.19,1.49.32,2.22-2.01.35-4.04.67-6.06.97-.66.66-2,1.36-2.7,1.36-.31,0-.61-.01-.92.02-.27.03-.52-.03-.76-.27-.15-.15-.32-.36-.48-.38-.75-.07-1.32-1.39-2.13-.96-.64.34-1.4-.03-2.03.44-.26.2-.58.31-.89.15-.69-.36-1.37.3-2.08-.27-.13-.1-.34.05-.5.1-.99.34-1.98.7-2.98,1.02-.85.28-1.7.18-2.59-.14-1.55-.55-3.08-.71-4.41.61-.24.24-.52.42-.79.59-.6.37-1.21.6-1.89.08-.45-.34-.97-.19-1.4-.68-.33-.37-.67-.36-.96.02-.21.27-.46.24-.73.22-.97-.07-1.92,0-2.86.27-.42.12-.87.06-1.3.07-.17,0-.39-.15-.52-.05-.71.55-1.45.09-2.19-.11-.44-.12-.85-.11-1.29.03-.84.27-1.74.29-2.6-.07-.83-.35-1.57-.26-2.32.05-.92.38-1.85.48-2.77-.38-.25-.23-.5-.26-.77-.18-1,.3-2.1,0-3.04.71-.14.1-.35.06-.52.01-.56-.14-1.05.07-1.45.55-.31.37-.67.49-1.08.49-.26,0-.58-.09-.77.08-.56.49-1.12-.28-1.67-.17-.08.02-.26-.19-.31-.35-.24-.81-.7-.86-1.13-.82-.52.05-1.04.14-1.52.39-.54.27-1.07.32-1.65.36-1.09.06-2.19-.01-3.28.04-.06,0-.12,0-.19,0-.02-.14-.04-.28-.05-.42-2.34.37-4.68.7-7.02,1.04.01-.13.02-.26.04-.39.11-.86.07-1.65-.31-2.45-.33-.69-.45-1.48-.48-2.29-.02-.79-.1-1.59-.13-2.38-.02-.56-.06-1.15.02-1.68.3-1.93.14-3.89-.11-5.87-.14-1.08-.28-2.17-.38-3.25.42-.02.85-.05,1.27-.1,1.56-.17,3.11-.47,4.66-.77-.04-.28-.08-.56-.12-.85Z"/>
          </g>
        </g>
        <path class="cls-2" d="m305.65,174.26c-.55.61-.92,1.48-1.58,1.84-.97.53-.64,1.58-1.21,2.21-.27.29-.3.61-.14.97.13.3-.05.55-.15.82-.3.81-.83,1.57-.72,2.49.12.98-.93,1.48-.94,2.39,0,.12-.01.24-.05.35-.11.27-.17.59-.36.78-.51.53-.74,1.18-.95,1.85-.15.46-.36.79-.84,1.03-1.2.62-1.49,2.01-2.35,2.94-.03.03-.02.11-.02.17.05.5-.13.91-.41,1.31-.35.5-.45,1.06-.39,1.67.06.58.14,1.16-.03,1.74-.06.2-.03.49.08.67.46.76.4,1.42-.25,2.05-.16.15-.31.39-.33.6-.14,1.11-.79,1.89-1.52,2.68-.63.68-1.13,1.49-.85,2.53.13.47.04.91-.17,1.36-.39.82.85,1.42.35,2.28-.03.05.08.2.15.3.03.04.09.08.15.09.62.14.63.58.57,1.08-.07.64-.04,1.3-.18,1.92-.15.66-.1,1.3.12,1.89.41,1.12.28,2.2-.14,3.25-.65,1.65-.62,3.44-1.11,5.12-.12.41,0,.81.16,1.19.44,1.13.36,2.28.15,3.45-.14.79-.14,1.61-.2,2.41.76,1.11.42,2.36.46,3.56.02.58.11,1.17.06,1.74-.12,1.54-.03,3.01.98,4.31.48.62.67,1.38.31,2.15-.32.67-.3,1.34-.14,2.05.13.57.14,1.16.19,1.74.07.88.17,1.74.92,2.37.32.27.39.71.47,1.11.09.43.32.74.74.9.51.2,1.07.53,1.08,1.05.02.76.58,1.06.88,1.58.94,1.59,2.1,3.1,2.37,5.02.03.21.17.46.34.58.72.51.94,1.45,1.77,1.9.37.2.66.69.81,1.12.4,1.15,1.16,2.17,1.19,3.45,0,.34.15.68.24,1.02.2.76.58,1.44,1.26,1.83,1.02.57,1.56,1.73,2.72,2.12.19.07.31.34.49.5.86.77,1.59,1.65,2.56,2.33,1.72,1.21,2.94,2.97,4.17,4.65.65.89,1.36,1.61,2.36,1.98.66.25,1.08.64,1.34,1.27.3.72.79,1.31,1.49,1.67.57.29.93.71.98,1.35.1,1.39,1.11,2.43,1.4,3.76.06.29.45.51.68.77.79.86,1.65,1.74,2.04,2.82.37,1,.92,1.88,1.36,2.82.23.48.45.94.57,1.46.18.74.52,1.42,1,2.03.58.74,1.04,1.55,1.38,2.43.19.49.36,1.02.68,1.41,1.11,1.35,1.6,2.94,1.93,4.61.1.52.19,1.07.58,1.44,1.17,1.15,1.55,2.73,2.21,4.14.31.67.82,1.35.84,2.06.02.78.43,1.29.74,1.91.7,1.41,1.46,2.79,2,4.26.23.64.22,1.37.74,1.9.83.84,1.14,1.87,1.2,3.01.03.51.07,1.04.37,1.48-.22-.03-.45-.1-.68-.22-.43-.23-.83-.05-1.17.26-.32.29-.61.63-.98.83-1.14.61-2.25,1.21-2.99,2.36-.24.37-.85.5-1.28.75-.43.25-.92.47-1.14.95-.54,1.16-1.18,2.29-1.31,3.61-.03.29-.11.58.04.83.42.69.26,1.37.07,2.08-.24.93-.19,1.84.39,2.68.2.29.3.65.41.99.3.91.85,1.72,1.55,2.28.76.6,1.24,1.37,1.81,2.1.35.44.91.86.98,1.35.11.79-.9.78-1.3,1.25-.5.6-.92,1.29-1.46,1.86-.48.49-.75,1.01-.83,1.69-.14,1.24-.6,2.36-1.38,3.35-.26.33-.48.74-.57,1.14-.16.72-.37,1.38-.87,1.94-.24.28-.31.64-.19,1.01.42,1.28.38,2.66.95,3.93.33.74.67,1.36,1.27,1.93.93.87,2.1,1.56,2.61,2.83.37.91,1.05,1.5,1.79,2.1.44.36,1.12.58,1.3,1.33-1.53-.16-1.52-.15-2.27,1.04-.34.54-.73,1.07-1.16,1.54-.45.48-.85.96-1.02,1.62-.09.34-.27.67-.49.94-1.29,1.61-1.86,3.55-2.49,5.46-.26.78-.25,1.54.14,2.3.22.44.27.98.52,1.41.58,1,1.2,1.99,1.45,3.12.25,1.11,1.1,2.03.95,3.27-.02.2.29.46.49.65.31.29.77.48.98.83.77,1.25,2,1.86,3.28,2.29,2.03.69,4.11,1.3,6.31.99.68-.09,1.27,0,1.88.28,1.02.47,2.1.42,3.18.24.69-.12,1.43-.72,2.06-.28.75.52.35,1.47.39,2.22.05,1.19.26,2.29,1.12,3.17.42.43.55.97.7,1.54.33,1.27.87,2.45,1.98,3.25,1.58,1.13,3.11,2.33,4.76,3.33.7.43,1.43,1.06,2.34.99,1.47-.11,2.64.57,3.82,1.27.62.37,1.24.73,1.89,1.03,1.36.63,2.72,1.33,4.31.76.25-.09.57,0,.85.01,1.21.09,2.41-.5,3.63-.05.11.04.31-.01.41-.09.76-.68,1.84-.85,2.58-1.5,1.79-1.54,3.34-3.34,5.22-4.79.16-.13.33-.32.38-.51.35-1.28,1.3-2.03,2.29-2.76.28-.21.52-.49.74-.78,1.29-1.72,2.57-3.45,3.86-5.16.23-.3.29-.63.37-.99.27-1.27.53-1.48,1.72-1.26,1.07.2,2.16.45,3.2.09,1.62-.57,3.29-.37,4.88-.23,1.97.18,3.52-.28,4.82-1.72.34-.38.67-.74,1.19-.89.51-.15.87-.49,1.14-.93.35-.57.88-.92,1.44-1.26.49-.29.93-.67,1.34-1.07.72-.7,1.41-1.44,2.11-2.15.92-.93,1.2-2.26,2-3.27.08-.1.11-.29.07-.42-.41-1.45.12-2.93-.47-4.45-.56-1.44-1.1-2.76-2.3-3.79-.37-.32-.64-.77-.89-1.2-1.06-1.81-3.45-3.62-5.56-4.06-.82-.17-1.48-.52-2.03-1.13-.44-.49-.36-.97.31-1.12,1.63-.38,2.93-1.09,3.53-2.78.14-.38.51-.69.81-.99.26-.27.5-.56.47-.93-.04-.77.43-1.36.59-2.05.16-.69.53-1.35.29-2.1-.25-.8-.08-1.53.22-2.3.28-.72.63-1.61.44-2.28-.43-1.49-.62-3.07-1.66-4.39-.89-1.13-2.04-1.95-3.11-3.12.27-.31.43-.57.65-.73,1.43-1.05,2.24-2.57,3.15-4.02.2-.31.41-.6.39-.98-.04-.76.29-1.24,1.02-1.44.57-.16.76-.57.83-1.13.07-.57.2-1.13.34-1.69.56-2.22.12-4.26-1.15-6.12-.41-.6-.8-1.18-1.05-1.87-.17-.46-.4-.85-.67-1.22.03-.04.04-.08.07-.12.84-1.3,1.66-2.67,1.43-4.38-.1-.7.22-1.37.77-1.89.26-.25.49-.56.39-.93-.19-.7.06-1.41-.08-2.09-.25-1.24.05-2.31.88-3.25.24-.27.51-.58.39-.93-.34-.94.26-1.69.44-2.52.07-.34.29-.66.14-1.01-.4-.92-.34-1.97-.76-2.85-.49-1.03-.39-1.96.2-2.81.67-.97.74-2.1.82-3.14.07-.93.32-1.61,1.01-2.07.57-.37.96-.81,1.23-1.42.12-.26.31-.5.52-.7.61-.58.88-1.31,1.16-2.1.3-.86.39-1.92,1.12-2.53.76-.64,1.2-1.37,1.46-2.3.11-.38.35-.74.57-1.08.54-.83,1.14-1.59,1.88-2.28.67-.63,1.12-1.46,1.33-2.42.2-.94,1.22-1.42,1.48-2.35.06-.23.16-.45.18-.68.12-.93.63-1.63,1.35-2.16.46-.33.72-.74.86-1.27.09-.34.18-.68.34-.99.5-.98.9-2.07,2.19-2.31.3-.06.46-.33.63-.58.19-.29.35-.65.61-.84,1.21-.88,1.65-2.22,2.2-3.5.09-.21.15-.44.25-.65.22-.48.45-.94.99-1.17.44-.19.55-.56.47-1.02-.07-.4-.11-.81-.12-1.22,0-.29.05-.64.33-.77.76-.34.91-.95,1.01-1.69.07-.52.44-.94.8-1.34.27-.3.52-.63.82-.9.6-.55.9-1.2.79-2.02-.05-.35-.08-.76.15-1.02.92-1,1.13-2.44,2.15-3.36.28-.25.44-.54.37-.92-.06-.36,0-.69.18-1.01.15-.27.22-.57.03-.83-.41-.57-.2-.95.28-1.34.49-.41.95-.87,1.42-1.3.76-.69,1.28-1.47,1.23-2.57-.04-.84.64-1.65.11-2.54-.09-.14.04-.47.15-.66.46-.83.61-1.76.93-2.63.31-.84.18-1.89,1.27-2.32.12-.05.14-.31.22-.46.64-1.06.91-2.24,1.12-3.44.09-.52.27-1.01.07-1.54-.24-.66-.1-1.32.33-1.82.93-1.09,1.18-2.39,1.3-3.74.05-.59.15-1.17.41-1.69.35-.7.54-1.38.38-2.18-.12-.58.11-1.18.5-1.63.54-.62.63-1.33.7-2.1.1-1.16.47-2.26.84-3.38.44-1.3.25-2.75.44-4.12,0-.05-.02-.12-.05-.17-.49-.93-.5-2.03-1.1-2.93-.41-.61-.42-1.3-.26-2.02.25-1.2.4-2.42.61-3.62.05-.28.09-.61.26-.83.97-1.31.21-2.87.64-4.26.05-.17-.17-.42-.25-.63-.34-.93-.99-1.72-1.33-2.63-.41-1.08-1.02-2.11-1.12-3.31-.04-.43-.35-.73-.64-1.02-.33-.33-.68-.7-.69-1.19-.03-1.04-.31-2.1.25-3.09.15-.26.2-.54.13-.84-.32-1.36-.79-2.66-1.5-3.86-.12-.2-.26-.43-.45-.52-.86-.42-1.22-1.23-1.62-2-.43-.82-.78-1.69-1.35-2.44-.34-.44-.4-.96-.32-1.5.07-.46.19-.93-.07-1.37-.31-.53-.37-1.1-.28-1.69.05-.3,0-.65-.24-.8-.65-.38-.86-1.09-1.35-1.59-1.4-1.41-2.64-2.93-3.51-4.73-.1-.2-.27-.41-.46-.51-.74-.39-.93-1.16-1.38-1.76-.46-.62-1.46-.42-1.97-1.05-.47-.59-1.1-.84-1.8-.98-.17-.03-.37-.07-.49-.17-1.21-1.1-2.63-1.97-3.64-3.26-.42-.53-.88-.86-1.44-1.19-1.07-.64-2.34-1.08-2.86-2.4-.04-.1-.13-.23-.22-.26-.87-.22-1.46-1.07-2.3-1.19-1.17-.16-1.89-1.13-2.98-1.4-.2-.05-.4-.26-.52-.45-.44-.67-1.07-1.04-1.81-1.31-.43-.16-.86-.39-1.23-.66-.89-.63-1.86-.97-2.94-1.01-.78-.03-1.48-.3-2.13-.72-.54-.35-1.09-.68-1.65-.98-1.04-.57-2.11-.99-3.34-.78-.64.11-1.15-.09-1.41-.75-.27-.7-.85-1.22-1.5-1.37-1.19-.27-2.31-.84-3.56-.81-.72.02-1.4-.12-1.96-.62-.34-.3-.72-.36-1.14-.19-.76.3-1.61.23-2.18-.2-.78-.59-1.71-1.04-2.3-1.87-.34-.48-.78-.71-1.31-.78-.65-.08-1.25-.23-1.79-.63-.61-.46-1.21.45-1.84.06-.05-.03-.11-.04-.17-.05-.4-.12-.62.05-.85.39-.52.78-1.3.97-2.14.64-.87-.34-1.86-.28-2.64-.89-.15-.12-.46-.13-.66-.07-.42.13-.79.01-1.2-.05-.57-.09-1.18-.18-1.74-.08-1.18.22-2.32,0-3.48-.09-.91-.06-1.81-.25-2.76-.1-.65.11-1.5.01-2.03-.35-.92-.63-1.94-.76-2.96-.96-.98-.2-1.97-.2-2.92.22-.59.27-1.22.38-1.88.38-1.27,0-2.4.47-3.45,1.09-.58.34-1.14.55-1.81.54-.82-.02-1.63,0-2.45-.02-.35-.01-.69-.09-1.02.1-1.01.56-2.29.38-3.23,1.15-.08.06-.23.08-.34.06-1.15-.2-2.1.63-3.22.64-.21,0-.46.15-.62.3-.59.56-1.3.77-2.08.76-.38,0-.64.13-.92.38-1.12.97-2.27,1.84-3.92,1.31-.58-.19-1.13.14-1.63.49-.57.4-1.15.79-1.75,1.16-.55.33-1.11.64-1.46,1.22-.37.61-1.05.94-1.64.82-1.02-.22-1.66.24-2.34.81-.22.18-.5.31-.77.42-.66.26-1.27.57-1.65,1.23-.18.32-.54.49-.91.41-1.22-.27-2.16.47-3.02,1.04-.85.56-1.87.96-2.46,1.91-.16.26-.58.37-.89.53-.52.26-1.06.49-1.58.76-.2.1-.48.24-.52.42-.26.94-1.27,1.19-1.71,1.95-.1.17-.38.3-.59.31-1.39.1-2.6.52-3.49,1.67-.13.17-.41.22-.61.32,0,0-1.41,2.09-1.41,2.1.02.11.03.24.08.34.36.68.18,1.23-.38,1.71-.22.19-.49.4-.57.65-.44,1.34-1.67,2.08-2.43,3.18-.57.82-1.6,1.32-2.42,1.97-1.19.06-1.29,1.43-2.2,1.84-.08.04-.12.34-.06.48.34.91-.07,1.56-.65,2.2Z"/>
        <path class="cls-2" d="m367.22,56.96c.16.14.38.29.41.44.13.74,1.45,1.19,1.1,2.04-.27.67.15,1.4-.26,2.07-.17.28-.25.6-.07.9.4.66-.17,1.39.43,2.04.11.12-.02.34-.06.51-.24,1.02-.5,2.04-.73,3.06-.19.87-.03,1.71.35,2.57.66,1.49.94,3.01-.22,4.45-.21.26-.36.55-.5.84-.31.63-.48,1.26.08,1.89.36.42.26.95.77,1.34.39.3.4.64.06.96-.24.23-.19.48-.15.75.14.96.16,1.92-.02,2.87-.08.42.01.87.04,1.3.01.17.18.38.1.51-.47.76.04,1.46.29,2.17.15.43.18.84.08,1.29-.19.86-.14,1.76.28,2.58.41.8.38,1.54.14,2.32-.29.95-.3,1.88.6,2.73.24.23.29.47.24.75-.2,1.02.17,2.1-.43,3.09-.09.14-.03.35.03.52.19.55.02,1.05-.41,1.5-.33.35-.42.71-.38,1.12.02.26.14.57-.01.77-.43.6.36,1.09.3,1.65,0,.08.21.24.36.27.8.16.89.62.89,1.05,0,.52-.05,1.05-.25,1.54-.22.56-.22,1.1-.21,1.67.03,1.09.19,2.18.23,3.27,0,.06.01.12.01.18.14,0,.27.01.41.02-.16,2.36-.29,4.72-.42,7.09.12-.02.25-.04.37-.07.82-.19,1.58-.22,2.38.09.69.27,1.46.32,2.25.27.76-.05,1.53-.04,2.3-.08.54-.03,1.12-.04,1.61-.17,1.83-.46,3.73-.48,5.66-.41,1.05.04,2.11.09,3.16.09-.01-.42-.02-.85-.01-1.27.03-1.57.2-3.14.36-4.71.28.02.55.03.83.04.31-.9.36-1.84-.15-2.78-.16-.29-.29-.59-.38-.89.01-.34.03-.68.03-1.02-.08,0-.16,0-.24,0-.07-.69.03-1.39.27-2.09.3-.85.49-1.69.22-2.57-.08-.25-.08-.55.05-.78.31-.56.12-1.13.05-1.68-.07-.6-.16-1.2-.15-1.81,0-.52.15-1.14-.65-1.57-.15-.08-.18-.33-.18-.49-.01-.99-.33-2.02.43-2.94.06-.07.09-.17.08-.25-.14-1.12-.19-2.27-1.26-3.24-.31-.28-.38-.57-.15-.86.56-.68.43-1.42.34-2.15-.05-.35-.2-.72-.08-1.04.37-.96.09-1.91-.17-2.85-.22-.77-.67-1.52-.11-2.3.07-.1,0-.26-.03-.39-.19-1.13-.35-2.26-.57-3.39-.08-.4-.06-.77.03-1.16.2-.9.79-1.73.79-2.66,0-.83.5-1.63.25-2.46-.49-1.62-.31-3.32-1.26-4.9-.16-.26-.35-.64-.01-.88.47-.33.33-.67.36-1.06.05-.69-.26-1.4.11-2.08.08-.15.02-.34-.04-.51-.45-1.33-.58-2.67-.39-4.02.03-.26.03-.52,0-.78-.18-1.13-.16-2.27-.62-3.38-.07-.16-.11-.36-.04-.52.2-.44,0-.86-.03-1.29-.02-.33-.1-.66-.15-.99.2-2.3.52-4.61.54-6.91-.31,0-.63,0-.94,0-1.78,0-3.6.28-5.37-.22-.14-.04-.34-.03-.49,0-.72.15-1.52.05-2.23.31-.46.17-1.05.2-1.61.15-.5-.05-.98-.04-1.46.07-.25.06-.55.09-.81.05-.88-.13-1.75-.04-2.63-.07-.73-.02-1.45-.06-2.17-.12-.17,2.04-.31,4.08-.43,6.12-.58.72-1.14,2.12-1.09,2.81.02.3.06.61.05.91,0,.27.07.52.32.74Z"/>
        <path class="cls-2" d="m248.99,111.63c.2.23.42.45.59.7.16.22.37.37.71.39.21.01.49,0,.6.1.56.51,1.92.05,2.14.95.18.71.96,1.02,1.02,1.81.03.32.16.64.48.76.73.28.69,1.22,1.58,1.37.16.03.19.28.26.44.41.97.8,1.94,1.23,2.9.36.82,1,1.38,1.83,1.84,1.44.79,2.59,1.82,2.49,3.7-.02.34.04.67.09.98.12.69.36,1.3,1.2,1.47.55.11.78.6,1.44.59.5,0,.71.26.63.73-.06.33.13.5.32.69.7.68,1.29,1.43,1.71,2.31.19.39.53.69.82,1.02.11.13.38.19.39.35.06.9.9,1.14,1.54,1.56.38.25.65.56.84.98.36.8.94,1.49,1.78,1.89.82.39,1.24,1,1.51,1.76.33.94.88,1.69,2.13,1.81.34.03.53.2.64.45.45.94,1.4,1.57,1.5,2.74.01.17.19.3.33.4.48.32.65.83.56,1.45-.07.48.08.83.35,1.13.17.19.45.37.45.63,0,.75.96.65,1.24,1.14.04.07.32.07.46,0,.76-.37,1.11-.06,1.37.29.31.42.59.87.72,1.39.15.58.48,1.02.83,1.47.68.85,1.47,1.62,2.16,2.47.04.05.08.09.12.14.12-.08.23-.16.35-.24,1.29,1.99,2.6,3.96,3.9,5.93.09-.1.18-.19.27-.29.57-.66,1.18-1.16,2.03-1.4.74-.21,1.4-.65,2.03-1.18.6-.51,1.25-.98,1.86-1.49.43-.36.9-.73,1.24-1.14,1.24-1.51,2.81-2.7,4.45-3.83.9-.62,1.8-1.24,2.68-1.88-.27-.33-.53-.67-.77-1.01-.92-1.27-1.72-2.63-2.53-3.99.24-.16.47-.32.71-.48-.28-.91-.8-1.7-1.79-2.13-.31-.14-.59-.3-.85-.47-.19-.28-.39-.56-.59-.83-.07.05-.13.1-.2.15-.47-.51-.82-1.13-1.03-1.83-.27-.86-.6-1.65-1.36-2.19-.21-.15-.39-.39-.43-.65-.08-.64-.58-.98-.97-1.38-.42-.44-.85-.86-1.22-1.35-.31-.42-.56-1.01-1.48-.85-.18.03-.34-.15-.44-.28-.61-.79-1.48-1.41-1.41-2.62,0-.09-.02-.19-.08-.25-.8-.81-1.52-1.7-2.98-1.81-.42-.03-.66-.22-.64-.59.05-.89-.49-1.4-1.01-1.93-.25-.25-.6-.45-.69-.78-.27-1-1.07-1.58-1.85-2.17-.64-.48-1.47-.8-1.47-1.77,0-.12-.16-.2-.26-.29-.83-.79-1.65-1.59-2.51-2.35-.3-.27-.52-.58-.68-.95-.37-.84-.39-1.88-.94-2.61-.5-.66-.56-1.61-1.26-2.12-1.38-1-2.25-2.46-3.98-3.14-.29-.11-.68-.3-.54-.69.19-.55-.13-.74-.34-1.07-.37-.58-1.05-.96-1.16-1.73-.02-.16-.19-.28-.34-.38-1.17-.78-2.08-1.78-2.74-2.97-.13-.23-.29-.44-.47-.62-.83-.79-1.5-1.72-2.54-2.32-.15-.09-.31-.22-.34-.39-.1-.47-.51-.69-.8-1.01-.22-.25-.48-.47-.72-.7-1.22-1.96-2.33-4.01-3.7-5.86-.26.19-.52.39-.78.58-1.49,1.1-2.82,2.45-4.59,3.15-.14.06-.3.19-.4.3-.51.57-1.23.98-1.67,1.63-.28.42-.75.81-1.25,1.11-.44.27-.84.57-1.17.96-.17.2-.4.42-.64.54-.81.44-1.48,1.06-2.22,1.58-.62.43-1.23.85-1.87,1.25,1.08,1.74,2.19,3.45,3.32,5.16-.05.94.32,2.4.78,2.92Z"/>
        <path class="cls-2" d="m222.02,241.69c.69-.36,1.37.3,2.08-.27.13-.1.34.05.5.1.99.34,1.98.7,2.98,1.02.85.28,1.7.18,2.59-.14,1.55-.55,3.08-.71,4.41.61.24.24.52.42.79.59.6.37,1.21.6,1.89.08.45-.34.97-.19,1.4-.68.33-.37.67-.36.96.02.21.27.46.24.73.22.97-.07,1.92,0,2.86.27.42.12.87.06,1.3.07.17,0,.39-.15.52-.05.71.55,1.45.09,2.19-.11.44-.12.85-.11,1.29.03.84.27,1.74.29,2.6-.07.83-.35,1.57-.26,2.32.05.92.38,1.85.48,2.77-.38.25-.23.5-.26.77-.18,1,.3,2.1,0,3.04.71.14.1.35.06.52.02.56-.14,1.05.07,1.45.55.31.37.67.49,1.08.49.26,0,.58-.09.77.08.56.49,1.12-.28,1.67-.17.08.02.26-.19.31-.35.24-.81.7-.86,1.13-.82.52.05,1.04.14,1.52.39.54.27,1.07.32,1.65.36,1.09.06,2.19-.01,3.28.04.06,0,.12,0,.18,0,.02-.14.04-.28.06-.42,2.34.37,4.68.7,7.02,1.04-.01-.13-.02-.26-.04-.39-.11-.86-.07-1.65.31-2.45.33-.69.45-1.48.48-2.29.02-.79.1-1.59.13-2.38.02-.56.06-1.15-.02-1.68-.3-1.93-.14-3.89.11-5.87.14-1.08.28-2.17.38-3.25-.42-.02-.85-.05-1.27-.1-1.56-.17-3.11-.47-4.66-.77.04-.28.08-.57.12-.85-.87-.4-1.8-.53-2.78-.08-.31.14-.62.25-.92.32-.34-.04-.67-.08-1.01-.12,0,.08-.02.17-.02.25-.7,0-1.38-.15-2.05-.45-.82-.38-1.63-.65-2.54-.45-.26.06-.55.03-.77-.12-.53-.37-1.11-.22-1.67-.2-.61.02-1.21.06-1.82,0-.52-.05-1.12-.25-1.62.54-.1.15-.34.15-.51.14-.99-.07-2.04.16-2.89-.7-.07-.07-.16-.11-.24-.11-1.13.05-2.28,0-3.34,1.02-.3.29-.6.35-.87.08-.63-.63-1.37-.57-2.11-.53-.35.02-.74.14-1.04-.01-.93-.46-1.89-.26-2.85-.07-.79.16-1.58.56-2.3-.09-.09-.08-.26-.01-.39,0-1.14.09-2.28.17-3.43.3-.4.05-.77,0-1.16-.13-.87-.29-1.66-.96-2.58-1.04-.82-.07-1.58-.66-2.43-.47-1.66.36-3.33.04-4.99.87-.27.14-.67.31-.88-.06-.28-.51-.64-.4-1.03-.46-.68-.11-1.42.14-2.06-.29-.14-.09-.34-.05-.51,0-1.37.35-2.71.36-4.04.06-.25-.06-.52-.08-.78-.06-1.14.09-2.28-.03-3.42.35-.17.06-.37.08-.52,0-.42-.24-.85-.08-1.29-.08-.33,0-.67.05-1,.07-2.27-.4-4.54-.94-6.84-1.15-.03.32-.06.65-.09.97-.17,1.84-.05,3.74-.71,5.52-.05.14-.06.35-.04.5.09.76-.09,1.57.1,2.33.13.49.1,1.1,0,1.67-.09.51-.13,1.01-.07,1.51.03.26.04.58-.02.84-.21.9-.2,1.81-.31,2.71-.09.75-.19,1.49-.32,2.22,2.01.35,4.04.67,6.06.97.66.66,2,1.36,2.7,1.36.31,0,.61-.01.92.02.27.03.52-.03.76-.27.15-.15.32-.36.48-.38.75-.07,1.32-1.39,2.13-.96.65.34,1.4-.03,2.03.44.26.2.58.31.89.15Z"/>
        <path class="cls-2" d="m451.24,156.61c.34.41.81.77,1.24,1.14.61.51,1.25.98,1.86,1.49.62.53,1.29.96,2.03,1.18.85.24,1.46.74,2.03,1.4.08.1.18.19.27.29,1.31-1.97,2.62-3.94,3.9-5.93.12.08.23.16.35.24.04-.05.08-.09.12-.14.69-.84,1.48-1.61,2.16-2.47.36-.45.68-.88.83-1.47.14-.51.41-.97.72-1.39.26-.35.6-.66,1.37-.29.14.07.42.08.46,0,.28-.49,1.23-.39,1.24-1.14,0-.26.28-.43.45-.63.27-.3.42-.65.35-1.13-.09-.62.08-1.12.56-1.45.15-.1.32-.23.33-.4.1-1.17,1.05-1.8,1.5-2.74.12-.25.31-.42.64-.45,1.26-.12,1.8-.87,2.13-1.81.27-.77.69-1.38,1.51-1.76.84-.4,1.43-1.09,1.78-1.89.19-.42.46-.73.84-.98.64-.42,1.48-.66,1.54-1.56.01-.16.27-.22.39-.35.29-.33.63-.63.82-1.02.42-.88,1.01-1.63,1.71-2.31.19-.19.39-.36.32-.69-.08-.47.13-.73.63-.73.66,0,.89-.49,1.44-.59.84-.16,1.08-.77,1.2-1.47.06-.32.11-.64.09-.98-.1-1.87,1.04-2.91,2.49-3.7.83-.45,1.47-1.02,1.83-1.84.42-.96.82-1.94,1.23-2.9.07-.16.1-.42.26-.44.89-.15.85-1.09,1.58-1.37.33-.12.46-.43.48-.76.06-.79.85-1.11,1.02-1.81.22-.89,1.59-.44,2.14-.95.12-.11.39-.09.6-.1.34-.02.55-.17.71-.39.18-.25.39-.47.59-.7.46-.52.84-1.99.78-2.92,1.12-1.71,2.24-3.42,3.32-5.16-.63-.39-1.25-.82-1.87-1.25-.74-.52-1.41-1.14-2.22-1.58-.23-.13-.46-.34-.64-.54-.33-.39-.73-.69-1.17-.96-.49-.3-.96-.69-1.25-1.11-.43-.65-1.16-1.06-1.67-1.63-.1-.12-.26-.25-.4-.3-1.77-.69-3.1-2.05-4.59-3.15-.26-.19-.52-.39-.78-.58-1.37,1.85-2.48,3.9-3.7,5.86-.24.24-.5.45-.72.7-.29.33-.7.54-.8,1.01-.03.17-.19.3-.34.39-1.04.61-1.72,1.53-2.54,2.32-.19.18-.35.39-.47.62-.66,1.19-1.56,2.19-2.74,2.97-.14.1-.31.22-.34.38-.11.77-.78,1.15-1.16,1.73-.21.33-.54.52-.34,1.07.14.4-.25.58-.54.69-1.73.68-2.6,2.14-3.98,3.14-.7.51-.76,1.46-1.26,2.12-.56.74-.57,1.77-.94,2.61-.16.37-.37.68-.68.95-.86.76-1.68,1.57-2.51,2.35-.1.09-.26.17-.26.29,0,.97-.82,1.29-1.47,1.77-.78.59-1.58,1.17-1.85,2.17-.09.33-.44.53-.69.78-.52.53-1.06,1.04-1.01,1.93.02.37-.22.56-.64.59-1.47.11-2.19,1-2.99,1.81-.06.06-.09.16-.08.25.07,1.21-.8,1.83-1.41,2.62-.1.13-.27.31-.44.28-.92-.16-1.18.43-1.48.85-.36.49-.79.92-1.22,1.35-.39.41-.88.74-.97,1.38-.03.26-.21.5-.43.65-.75.54-1.09,1.32-1.36,2.19-.22.7-.56,1.32-1.03,1.83-.07-.05-.13-.1-.2-.15-.2.27-.4.55-.59.83-.26.18-.54.34-.85.47-.99.43-1.51,1.22-1.79,2.13.24.16.47.32.71.48-.81,1.36-1.62,2.72-2.53,3.99-.25.34-.51.68-.77,1.01.88.64,1.78,1.26,2.68,1.88,1.64,1.14,3.21,2.33,4.45,3.83Z"/>
        <path class="cls-2" d="m502.87,224.28c-.96-.19-1.93-.39-2.85.07-.3.15-.69.03-1.04.01-.74-.04-1.49-.1-2.11.53-.26.27-.56.21-.87-.08-1.06-1.02-2.21-.96-3.34-1.02-.08,0-.17.04-.24.11-.86.86-1.9.62-2.89.7-.17.01-.41.01-.51-.14-.5-.79-1.11-.59-1.62-.54-.61.06-1.21.02-1.82,0-.56-.02-1.14-.17-1.67.2-.22.15-.51.17-.77.12-.9-.21-1.72.07-2.54.45-.67.31-1.36.46-2.05.45,0-.08-.01-.17-.02-.25-.34.03-.67.07-1.01.12-.31-.08-.61-.18-.92-.32-.98-.45-1.91-.31-2.78.08.04.28.08.56.12.85-1.55.3-3.1.61-4.66.77-.42.04-.84.07-1.27.1.11,1.08.25,2.17.38,3.25.25,1.98.4,3.94.11,5.87-.08.53-.04,1.12-.02,1.68.03.79.11,1.59.13,2.38.02.82.14,1.6.48,2.29.38.8.42,1.59.31,2.45-.02.13-.02.26-.04.39,2.34-.34,4.68-.68,7.02-1.04.02.14.04.28.05.42.06,0,.12,0,.19,0,1.09-.05,2.19.02,3.28-.04.57-.03,1.11-.08,1.65-.36.47-.24,1-.34,1.52-.39.43-.04.89.01,1.13.82.04.15.22.36.31.35.55-.12,1.11.66,1.67.17.19-.17.51-.08.77-.08.41,0,.76-.12,1.08-.49.41-.48.89-.69,1.45-.55.17.04.38.09.52-.02.94-.71,2.04-.42,3.04-.71.27-.08.52-.05.77.18.93.86,1.85.77,2.77.38.75-.31,1.49-.4,2.32-.05.86.36,1.76.34,2.6.07.44-.14.85-.15,1.29-.03.73.2,1.48.66,2.19.11.13-.1.35.06.52.05.44,0,.89.05,1.3-.07.94-.27,1.89-.33,2.86-.27.27.02.53.05.73-.22.29-.38.63-.39.96-.02.43.49.96.34,1.4.68.68.52,1.29.29,1.89-.08.27-.17.55-.35.79-.59,1.33-1.32,2.86-1.16,4.41-.61.89.32,1.74.42,2.59.14,1-.32,1.99-.68,2.98-1.02.17-.06.38-.2.5-.1.7.56,1.38-.1,2.08.27.31.16.63.05.89-.15.63-.48,1.39-.11,2.03-.44.81-.43,1.38.89,2.13.96.16.02.33.23.48.38.24.24.49.3.76.27.3-.03.61-.02.92-.02.7,0,2.04-.7,2.7-1.36,2.02-.3,4.04-.61,6.06-.97-.13-.74-.23-1.48-.32-2.22-.11-.9-.09-1.81-.31-2.71-.06-.26-.05-.57-.02-.84.07-.51.03-1-.07-1.51-.1-.57-.13-1.18,0-1.67.2-.76.02-1.57.1-2.33.02-.16.01-.36-.04-.5-.66-1.78-.54-3.68-.71-5.52-.03-.33-.06-.65-.09-.97-2.29.21-4.56.75-6.84,1.15-.33-.02-.67-.07-1-.07-.43,0-.87-.16-1.29.08-.15.09-.35.06-.52,0-1.15-.37-2.28-.26-3.42-.35-.26-.02-.53,0-.78.06-1.33.3-2.67.29-4.04-.06-.17-.04-.37-.09-.51,0-.65.43-1.38.18-2.06.29-.39.06-.74-.05-1.03.46-.2.37-.6.2-.88.06-1.66-.84-3.33-.51-4.99-.87-.85-.19-1.6.41-2.42.47-.92.08-1.7.75-2.58,1.04-.38.13-.75.17-1.16.13-1.14-.13-2.29-.21-3.43-.3-.13-.01-.3-.08-.39,0-.72.65-1.51.24-2.3.09Z"/>
      </g>
    </g>
  </g>
</svg>