<?xml version="1.0" encoding="UTF-8"?>
<svg xmlns="http://www.w3.org/2000/svg" viewBox="0 0 750 500">
  <defs>
    <style>
      .cls-1, .cls-2 {
        fill: #fff;
      }

      .cls-3 {
        fill: #61b1eb;
      }

      .cls-4 {
        fill: #de6acc;
      }

      .cls-4, .cls-5, .cls-2 {
        mix-blend-mode: multiply;
      }

      .cls-5 {
        fill: #ffd731;
      }

      .cls-6 {
        isolation: isolate;
      }
    </style>
  </defs>
  <g class="cls-6">
    <g id="BACKGROUND">
      <rect class="cls-1" y="-.18" width="750" height="500.36"/>
    </g>
    <g id="OBJECTS">
      <g>
        <g>
          <path class="cls-3" d="m398.39,68.39c.25.18.49.49.76.53,1.13.19,2.21.6,3.37.58,1.14-.01,2.24.42,3.41.28.45-.05.98.25,1.41.5,2.09,1.24,4.4,1.59,6.76,1.69,1.57.07,3.16.22,4.7-.28.41-.13.74.12,1.02.39,1.04.99,2.37.71,3.61.81.65.05.78-.86,1.44-.8.48.04.82.65,1.41.35.45-.23.84-.06,1.25.18,1.05.62,2.17,1.04,3.4,1.16.8.08,1.5.71,2.39.43.19-.06.48.13.69.26,1.4.9,2.94,1.48,4.53,1.95,1.02.3,2.03.71,2.98,1.19.64.33,1.25.61,1.98.51.48-.06.85.19,1.19.5.37.35.73.71,1.13,1.02.79.61,1.5,1.3,2.72,1.09.61-.11,1.3.37,2.02.08.18-.07.48.1.7.2.34.16.66.5,1,.52,1.41.11,2.02,1.17,2.72,2.14.26.36.48.75.7,1.13.33.57.75.95,1.4,1.2.96.37,1.7,1.12,2.36,1.89.93,1.09,2.02,1.93,3.31,2.51.49.22.86.51,1.09,1,.5,1.08,1.42,1.96,1.54,3.24.05.51.5.89.91,1.19,1.43,1.04,2.61,2.39,4.17,3.27.45.25.81.57,1.08,1.03.67,1.12,1.57,1.98,2.85,2.42.41.14.8.39,1.18.62.97.61,1.91,1.23,2.32,2.41.16.46.51.88.85,1.25,1.04,1.1,1.88,2.37,3.2,3.23.94.61,1.64,1.52,2.28,2.49.47.71.76,1.64,1.68,2.01.1.04.17.19.2.31.33,1.27,1.33,1.97,2.28,2.7.61.47,1.26.88,1.25,1.79,0,.21.21.46.38.64.56.58.85,1.26.87,2.06.01.45.12.89.35,1.27.34.55.55,1.14.64,1.78.04.32.21.65.56.7.52.08.8.34.88.85.1.64.94.68,1.04,1.3.08.5-.02,1.01.27,1.48.46.73.63,1.44.26,2.33-.31.76.17,1.49.64,2.1.42.55.86,1.15,1.73.88.28-.08.54.07.58.34.08.59.18,1.12.8,1.4.14.06.28.32.26.47-.1.91.49,1.55.8,2.3.46,1.14.66,2.35.32,3.55-.29,1.01-.07,1.88.4,2.75.57,1.06,1.17,2.1,1.74,3.16.24.44.61.83.64,1.37.02.54.25.97.59,1.37.31.36.41.78.28,1.25-.16.57-.17,1.14.14,1.66.42.68.24,1.36.02,2.03-.33.97-.51,1.97-.68,2.97-.17.98-.07,1.89.36,2.79.19.4.3.85.53,1.23.92,1.58,1.01,3.37,1.31,5.1.09.5.02,1.02.27,1.49.23.44.15.86-.11,1.26-.46.7-.35,1.51-.23,2.23.11.67.24,1.37.44,1.99.24.74.5,1.37.23,2.15-.1.3.09.63.34.85.82.73.82,1.74.71,2.66-.19,1.58.05,3.03.76,4.43.17.33.28.73.29,1.09.06,1.4.07,2.8.08,4.19,0,.25-.08.5-.18.73-.29.67-.31,1.36-.23,2.06.07.63.11,1.26,0,1.9-.11.67.06,1.36.65,1.69,1.14.63.5,1.86,1.03,2.67-.55.97-.34,2.13-.73,3.12-.18.45-.63.78-.92,1.2-.26.38-.45.8.05,1.17.28.21.45.48.33.82-.17.47-.14.86.29,1.18.22.16.37.4.32.65-.11.61-.01,1.12.42,1.58.23.25.13.59.1.91-.1,1.07-.18,2.15-.25,3.23-.02.31-.05.65.05.94.28.82.2,1.62.06,2.45-.21,1.21.17,1.8,1.41,2.29.24.09.63.14.6.36-.14,1.04.81,1.82.57,2.92-.21.98-.83,3.71-1.26,4.78-.38.95-.44,2.02-.29,2.98.16,1.03.35,2.15,1.11,3,.34.38.39.78.17,1.23-.23.47-.37.98-.21,1.48.29.88-.02,1.63-.4,2.37-.2.4-.5.79-.42,1.25.2,1.09.12,2.14-.26,3.17-.09.25.03.49.17.71.89,1.41,1.43,2.94,1.56,4.61.02.25.11.5.18.74.11.39.08.77-.19,1.08-.87.98-.86,2.23-.98,3.41-.1,1.07-.17,2.13-.45,3.18-.25.97-.21,1.93.14,2.97.53,1.6,1,3.25.61,5.04-.18.82.02,1.79.3,2.61.3.9.29,1.7.05,2.6-.25.92-.29,1.85-.06,2.83.19.78.13,1.63.13,2.45,0,.23-.12.52-.28.68-1.17,1.12-1.16,2.64-1.37,4.06-.11.75-.02,1.51-.52,2.18-.17.23-.23.62-.17.91.15.75-.19,1.36-.44,2.01-.15.39-.37.58-.78.71-1.39.44-2.81.56-4.25.65-1.26.08-2.51.34-3.77.5-1.82.24-3.62.61-5.48.18-.74-.17-1.52.04-2.25.28-1.18.4-2.3.37-3.54.01-1.32-.38-2.73-.6-4.15-.42-.25.03-.54.13-.76.05-1.18-.44-2.25,0-3.31.41-.75.3-1.5.29-2.25.2-1-.12-2-.19-3.02-.2-1.1-.01-2.23-.04-3.36-.38-1.71-.51-3.53-.43-5.27.1-1.41.42-2.85.62-4.33.58-.38-.01-.79,0-1.12-.14-.92-.4-1.87-.37-2.82-.32-1.02.05-2.03.17-2.89-.59-.17-.15-.49-.19-.73-.17-1.26.12-2.54-.19-3.79.2-.67.21-1.42.22-2.08,0-.78-.27-1.47-.24-2.2.11-.22.11-.5.12-.75.12-.28,0-.49-.18-.51-.46-.03-.51-.13-1.05.02-1.52.46-1.52.31-3.17.99-4.64.2-.45.14-.81-.12-1.24-.82-1.34-1.49-3.62-1.67-5.2-.06-.5.23-.83.43-1.22.81-1.63.85-3.37.08-4.94-.59-1.2-.44-2.32-.31-3.5.03-.31.16-.61.26-.92q.78-2.46.02-5.12c-.05-.18-.15-.39-.11-.55.34-1.36.07-2.8.54-4.15.21-.61.26-1.23.19-1.87-.13-1.21-.13-2.41.4-3.56.25-.53.13-1-.46-1.26-.41-.18-.55-.49-.45-.93.06-.25.12-.53-.07-.73-.47-.49-.38-.96-.17-1.57.38-1.08-.41-2.37.74-3.39.9-.8.58-2.18,1.1-3.2.33-.64.24-1.22-.07-1.82-.23-.45-.44-.91-.67-1.36-.9-1.75-.78-3.69-1.05-5.56-.08-.56-.02-1.14-.23-1.68-.34-.9-.25-1.76.21-2.57.48-.85.73-1.71.72-2.71-.01-.74.23-1.5.43-2.24.26-.95.19-1.91,0-2.84-.32-1.68-.76-3.34-1.15-5-.12-.5-.21-1-.6-1.38-.36-.35-.48-.77-.23-1.21.46-.84.17-1.67-.14-2.4-.85-2-1.27-4.1-1.61-6.23-.26-1.62-.23-3.17.57-4.64.19-.34.41-.73.24-1.08-.58-1.24-.36-2.63-.85-3.89-.23-.59-.32-1.22-.61-1.8-.23-.44-.4-.96-.42-1.45-.06-1.34-.38-2.64-.57-3.95-.29-1.92-.67-3.89-1.77-5.59-.24-.38-.44-.78-.8-1.05-1.3-.97-1.65-2.39-1.67-3.88-.01-.91-.14-1.76-.5-2.6-.32-.77-.47-1.55-.37-2.42.15-1.37-.32-2.64-.89-3.86-.4-.86-.92-1.66-1.36-2.51-.21-.41-.42-.8-.81-1.04-1.35-.81-1.54-2.45-2.53-3.53-.23-.25-.04-.61.08-.9.31-.75.17-1.37-.56-1.8-.9-.53-1-1.59-1.51-2.37-.31-.48-.48-.98-1.05-1.27-.84-.43-1.33-1.22-1.53-2.1-.31-1.33-1.17-2.39-1.54-3.69-.23-.8-.96-1.25-1.77-1.23-1.84.05-3.17-1.16-4.74-1.76-.42-.16-.75-.46-1.05-.8-.24-.28-.55-.56-.89-.68-.86-.31-1.59-.75-2.21-1.43-.36-.4-.92-.44-1.41-.49-.71-.07-1.34-.22-1.88-.76-.55-.55-1.29-.78-2.08-.85-2.28-.22-4.55-.46-6.8-.92-.74-.15-1.52-.08-2.26.19-.24.09-.47.21-.72.24-1.15.16-2.29.15-3.26-.6-1.09-.84-2.31-.82-3.6-.85-1.07-.02-1.82.4-2.57,1-.26.21-.42.47-.51.78-.08.26-.27.48-.55.44-1.02-.15-1.84.45-2.72.74-2.56.83-4.91,2.06-6.5,4.38-.14.2-.34.4-.56.5-.67.28-1.13.82-1.62,1.31-.41.41-.83.74-1.47.79-.55.05-.95.37-.82,1.04.07.36-.06.62-.42.74-.36.12-.76.18-.95.56-.26.51-.65.66-1.21.76-.97.18-1.22.69-.84,1.66.2.5.18.84-.21,1.17-.05.04-.13.08-.14.13-.18.94-.54,1.68-1.38,2.31-.73.55-1.24,1.4-1.92,2.07-.88.88-1.58,1.97-2.23,3.04-.88,1.45-1.61,2.99-2.63,4.36-.29.39-.57.99-.48,1.41.29,1.35-.65,2.43-.63,3.7,0,.38-.25.7-.56.97-.43.37-.79.86-1.27,1.14-1.2.71-1.73,1.8-2.06,3.07-.24.92-.55,1.82-.85,2.73-.12.38-.14.76.05,1.11.65,1.19.38,2.39-.15,3.47-.94,1.93-1.59,4.01-2.78,5.82-.32.5-.49.99-.29,1.61.31.99.24,1.97-.03,3-.24.9-.19,1.88-.27,2.82-.03.38.03.79-.11,1.13-.34.85-.35,1.74-.42,2.62-.07.75-.07,1.5-.67,2.13-.4.41-.35,1.06-.39,1.63-.04.76-.08,1.52-.1,2.28-.01.71-.12,1.39-.42,2.04-.33.72-.36,1.46-.2,2.24.28,1.39.32,2.76-.29,4.11-.41.92-.33,1.86.12,2.77.2.4.31.84.51,1.24.32.66.5,1.28.09,1.99-.26.45-.21.99-.17,1.5.05.63.14,1.27-.07,1.89-.1.32-.08.63.1.91.25.42.25.84.05,1.27-.37.8-.32,1.65-.09,2.43.33,1.09.23,2.29.92,3.28.24.34.11.73-.03,1.1-.15.41-.43.87-.36,1.26.2,1.15-.39,1.93-1.02,2.75-.7.91-.84,2.58-.22,3.58.36.59.47,1.15.41,1.8-.08.95-.1,1.91-.16,2.86-.02.31-.03.66-.17.93-.57,1.1-.53,2.35-.91,3.5-.28.82-.09,1.64.17,2.43.1.3.34.64.16.9-.79,1.16-.37,2.79-1.55,3.8-.24.21-.29.69-.35,1.06-.22,1.38-.41,2.77-.63,4.15-.1.64-.04,1.26.11,1.89.25,1.05.43,2.12.22,3.21-.11.57,0,1.13.13,1.7.15.62.23,1.25.33,1.88.17,1.03.08,2.01-.36,2.97-.29.63-.49,1.24-.16,2.01.27.61.18,1.39-.15,2.03-.42.84-.48,1.71-.37,2.6.15,1.15.07,2.27-.25,3.4-.34,1.22-.24,2.53-.64,3.75.56,1.73.02,3.34-.43,5.01-.51,1.9-1.05,2.55-3.02,2.87-1.32.21-2.61.37-3.97.21-.99-.12-2.02,0-3.03-.12-.19-.02-.39,0-.57.04-1.42.35-2.85.66-4.23,1.1-.61.19-1.23.29-1.85.42-.53.1-.99.03-1.46-.24-1.62-.9-3.44-.81-5.19-.92-.67-.04-1.38.24-2.02.49-.67.26-1.33.38-2.04.38-.89,0-1.75.16-2.63.32-1.31.23-2.65.31-3.97.46-.46.05-.89-.04-1.28-.28-1.05-.63-2.18-.64-3.33-.43-1.07.2-2.15.22-3.23.1-1.1-.12-2.15,0-3.1.66-.3.21-.69.4-1.04.42-1.54.05-2.99.57-4.51.76-.19.02-.38.11-.56.08-1.63-.26-3.3-.24-4.88-.77-.23-.08-.53-.24-.59-.43-.23-.72-.75-1.37-.68-2.16.08-.89.17-1.77.09-2.66-.02-.26.04-.56.28-.67.82-.4.59-.94.33-1.58-.24-.58-.26-1.23-.54-1.82-.18-.38-.24-.88-.19-1.3.27-2.24,0-4.44-.32-6.64-.02-.13-.09-.26-.06-.37.44-1.63-.35-3.09-.62-4.62-.07-.4-.11-.74.09-1.1.5-.9.38-1.84.16-2.79-.16-.68-.29-1.37-.44-2.05-.04-.19-.14-.39-.11-.56.33-1.45.03-2.9.02-4.35,0-.76-.01-1.5-.09-2.26-.07-.69-.08-1.4-.1-2.1,0-.25.11-.54.04-.76-.57-1.65-.25-3.41-.59-5.09-.07-.37-.04-.76-.03-1.13.02-.82.14-1.65.06-2.47-.15-1.56,0-3.22-1.17-4.52-.52-1.8-.86-3.58.04-5.38.23-.45.43-.93.54-1.42.11-.51.27-.97.67-1.33.74-.66.75-1.49.31-2.26-.5-.86-.78-1.7-.61-2.71.06-.35-.05-.77-.21-1.1-.23-.47-.29-.93-.3-1.46-.01-.75-.36-1.52-.28-2.25.07-.73.56-1.41.73-2.15.15-.67.09-1.39.17-2.08.14-1.19.16-2.39.43-3.58.17-.76-.07-1.64-.25-2.44-.18-.82-.28-1.64-.14-2.46.18-1.02.18-2.06-.06-3.03-.4-1.65.01-3.18.55-4.66.42-1.16.57-2.35.78-3.53.14-.8.09-1.66-.35-2.41-.31-.54-.33-1.08-.24-1.66.04-.25.06-.51.06-.76,0-.63-.15-1.29,0-1.88.15-.64.99-.7,1.38-1.24.34-.48.68-.89.61-1.53-.05-.44.1-.93-.04-1.32-.4-1.13.03-2.11.4-3.12.15-.42.33-.82.48-1.24.35-1,.48-1.98-.19-2.91-.31-.43-.32-.95-.4-1.45-.11-.62-.22-1.27-.48-1.83-.31-.67-.44-1.2.33-1.6.05-.03.12-.08.13-.13.46-1.58,1.2-3.1,1.26-4.77.02-.55.05-1.15-.03-1.67-.28-1.79.36-3.37.87-5,.11-.36.21-.86.47-1.02.92-.55.72-1.56,1.09-2.33.1-.21.17-.54.08-.73-.66-1.34.09-2.75-.25-4.12-.15-.62.1-1.26.43-1.82.23-.38.44-.79.74-1.11,1.29-1.41,1.78-3.09,1.5-4.94-.16-1.04.28-2.01.12-3.03-.05-.32.19-.6.45-.8.53-.41.77-.97,1.01-1.58.42-1.07,1.07-2.01,1.92-2.82.51-.48.96-1.02,1.41-1.55,1.18-1.39,1.46-3.03,1.38-4.81-.05-1.07-.08-2.19.2-3.2.27-1.01.87-1.97,1.45-2.87.45-.69.6-1.55,1.22-2.14.12-.12.18-.35.17-.53-.05-1.12.6-1.9,1.26-2.67,1.1-1.28,1.97-2.65,2.04-4.41.03-.66.52-1.15.8-1.72.43-.89.65-1.88,1.64-2.46.42-.24.71-.9.76-1.49.05-.57.33-.95.87-1.13.91-.31,1.21-1.09,1.41-1.9.47-1.82,1.46-3.31,2.73-4.65.51-.55.94-1.1,1.67-1.47.9-.46,1.44-1.41,1.81-2.38.17-.45.37-.8.88-.89.47-.08.81-.35,1.09-.72.08-.1.15-.23.26-.28,1.17-.54,2.12-1.24,2.77-2.46.55-1.04,1.57-1.83,2.23-2.83.67-1.02,1.49-1.91,2.25-2.84.55-.66,1.36-1.12,2.09-1.62.38-.26.65-.57.84-1,.8-1.83,2.39-2.45,4.2-2.33,1.09.07,1.69-.31,2.16-1.14.39-.67.91-1.22,1.49-1.73.28-.25.6-.53.94-.62,1.03-.27,1.76-.96,2.58-1.58.86-.64,1.82-1.15,2.75-1.69.66-.38,1.41-.64,1.98-1.12.58-.48,1.1-.83,1.87-.56.37.13.75.02,1.11-.12,1.01-.38,2.03-.74,3.04-1.09.36-.12.76-.33,1.1-.27,1.26.21,2.52-.5,3.78.03.16.07.39.02.56-.04,1.74-.57,3.6-.86,5.1-2.04.2-.15.43-.28.66-.37.66-.27,1.54.23,2.05-.69.37-.68,1.44-.53,1.81-1.3.05-.1.21-.21.31-.2,1.47.11,2.73-1.08,4.27-.68.77.2,1.5-.2,2.16-.59.54-.32.99-.41,1.58-.05,1.42.87,2.88.88,4.33,0,.84-.51,1.84-.45,2.76-.67.52-.13,1.07.08,1.45.36,1.17.88,2.35.37,3.46.03.65-.2,1.3-.46,1.94-.73.67-.28,1.49-.4,1.82-1.25.12-.31.49-.37.79-.49.89-.35,1.69-.87,2.45-1.45h1.91Z"/>
          <path class="cls-4" d="m283.15,247.52c1.25.16,2.55-.01,3.85-.24.73-.13,1.4-.05,2.12.2,1.58.55,3.2,1.01,4.89.38.13-.05.29-.1.43-.08,2.28.24,4.47-.52,6.72-.56.43,0,.86-.12,1.29-.21,2.49-.52,5.03-.36,7.55-.5,1.24.72,2.85.23,4.01,1.35.63.61,1.6.62,2.5.37,1.62-.45,3.28-.63,4.96-.78,1.1-.1,2.16-.12,3.26,0,1.22.12,2.46-.31,3.69-.03.14.03.29-.02.44-.03,1.13-.06,2.06.9,3.37.36.94-.39,2.14-.16,3.23-.15.5,0,1.01.12,1.5.23.73.16,1.46.2,2.14-.13,1.12-.54,2.28-.47,3.43-.22,1.22.27,2.4.59,3.62-.08.28-.15.71-.08,1.06-.03.54.09,1-.04,1.46-.3,1.37-.77,2.76-.8,4.18-.07.31.16.7.28,1.04.26,1.23-.11,1.98.83,2.95,1.28.43.2.42.76.31,1.19-.26.98-.43,2.03-.91,2.9-.73,1.32-.69,2.81-1.19,4.17-.12.34-.07.76-.25,1.06-1.08,1.75-.77,3.6-.07,5.26,1.04,2.46.71,4.88.15,7.27-.36,1.53-.29,3.04-.18,4.53.09,1.17.15,2.33-.04,3.47-.24,1.42-.15,2.77.43,4.07.43.98.45,1.92.25,2.98-.43,2.29-.74,4.61-.07,6.92.1.33.02.72,0,1.08-.05,1.16-.27,2.35-.12,3.49.16,1.26-.16,2.36-.77,3.32-.57.89-.68,1.75-.49,2.69.36,1.73.08,3.49.37,5.23.16.97-.13,2.02-.26,3.02-.05.37-.29.67-.6.88-.99.7-2.05,1.21-3.26.65-1.39-.65-2.88-.27-4.31-.52-.46-.08-.81.26-1.21.43-1.3.55-2.57.82-4.02.35-1.23-.4-2.59-.31-3.88-.15-1.38.17-2.75.29-4.13.37-1.06.07-1.94-.08-2.89-.66-1.18-.71-2.62-.83-3.98-1.08-.83-.15-1.61-.37-2.4.36-.56.51-1.43.69-2.15,1.03-.35.16-.7.21-1.06.14-1.47-.3-2.9-.11-4.31.33-.85.26-1.73.19-2.6.23-1.57.06-3.13-.71-4.7-.08-.06.02-.16.03-.21,0-1.21-.83-2.36-.23-3.52.14-.93.3-1.87.2-2.82.06-1.51-.23-3.03-.45-4.54-.65-.36-.05-.75-.12-1.09-.03-2.07.57-4.14.34-6.21.03-.21-.03-.45-.05-.65.01-1.72.59-3.47.17-5.2.19-.99.01-1.54-.75-2.26-1.19-.26-.16-.22-.53-.16-.82.15-.71.3-1.43.48-2.13.37-1.39.31-2.74-.28-4.06-.61-1.36-.82-2.68-.39-4.22.62-2.19.32-4.27-.21-7.1-.21-1.12-.28-2.35-.05-3.46.23-1.13.15-2.16-.08-3.23-.24-1.14-.56-2.24-.01-3.42.23-.49.08-1.14.11-1.72.14-2.46.33-4.91.4-7.37.03-1.25-.5-2.4-.96-3.56-.98-2.46-1.59-4.98-.78-7.64.37-1.2.5-2.45.38-3.68-.16-1.69.12-3.33.27-4.99.09-1,.59-1.99.21-3.02-.34-.9.19-1.81-.15-2.78-.37-1.04.34-1.63,1.45-1.5.14.02.29.06.43.09.14.03.29.05.5.1Z"/>
          <path class="cls-4" d="m442.89,247.52c1.25.16,2.55-.01,3.85-.24.73-.13,1.4-.05,2.12.2,1.58.55,3.2,1.01,4.89.38.13-.05.29-.1.43-.08,2.28.24,4.47-.52,6.72-.56.43,0,.86-.12,1.29-.21,2.49-.52,5.03-.36,7.55-.5,1.24.72,2.85.23,4.01,1.35.63.61,1.6.62,2.5.37,1.62-.45,3.28-.63,4.96-.78,1.1-.1,2.16-.12,3.26,0,1.22.12,2.46-.31,3.69-.03.14.03.29-.02.44-.03,1.13-.06,2.06.9,3.37.36.94-.39,2.14-.16,3.23-.15.5,0,1.01.12,1.5.23.73.16,1.46.2,2.14-.13,1.12-.54,2.28-.47,3.43-.22,1.22.27,2.4.59,3.62-.08.28-.15.72-.08,1.06-.03.54.09,1-.04,1.46-.3,1.37-.77,2.76-.8,4.18-.07.31.16.7.28,1.04.26,1.23-.11,1.98.83,2.95,1.28.43.2.42.76.31,1.19-.26.98-.43,2.03-.91,2.9-.73,1.32-.69,2.81-1.18,4.17-.12.34-.07.76-.25,1.06-1.08,1.75-.77,3.6-.07,5.26,1.04,2.46.71,4.88.15,7.27-.36,1.53-.29,3.04-.18,4.53.09,1.17.15,2.33-.04,3.47-.24,1.42-.15,2.77.43,4.07.43.98.45,1.92.25,2.98-.43,2.29-.74,4.61-.07,6.92.1.33.02.72,0,1.08-.05,1.16-.27,2.35-.12,3.49.16,1.26-.16,2.36-.77,3.32-.57.89-.68,1.75-.49,2.69.36,1.73.08,3.49.37,5.23.16.97-.13,2.02-.26,3.02-.05.37-.29.67-.6.88-.99.7-2.05,1.21-3.26.65-1.39-.65-2.88-.27-4.31-.52-.46-.08-.81.26-1.21.43-1.3.55-2.57.82-4.02.35-1.23-.4-2.59-.31-3.88-.15-1.38.17-2.75.29-4.13.37-1.06.07-1.94-.08-2.89-.66-1.18-.71-2.62-.83-3.98-1.08-.83-.15-1.61-.37-2.4.36-.56.51-1.43.69-2.15,1.03-.35.16-.7.21-1.06.14-1.47-.3-2.9-.11-4.31.33-.85.26-1.73.19-2.6.23-1.57.06-3.13-.71-4.7-.08-.06.02-.16.03-.21,0-1.21-.83-2.36-.23-3.52.14-.93.3-1.87.2-2.82.06-1.51-.23-3.03-.45-4.54-.65-.36-.05-.75-.12-1.09-.03-2.07.57-4.14.34-6.21.03-.21-.03-.45-.05-.65.01-1.72.59-3.47.17-5.2.19-.99.01-1.54-.75-2.26-1.19-.26-.16-.22-.53-.16-.82.15-.71.3-1.43.48-2.13.37-1.39.31-2.74-.28-4.06-.61-1.36-.82-2.68-.39-4.22.62-2.19.32-4.27-.21-7.1-.21-1.12-.28-2.35-.05-3.46.23-1.13.15-2.16-.08-3.23-.24-1.14-.56-2.24-.01-3.42.23-.49.08-1.14.11-1.72.14-2.46.33-4.91.4-7.37.03-1.25-.5-2.4-.96-3.56-.98-2.46-1.59-4.98-.78-7.64.37-1.2.5-2.45.38-3.68-.16-1.69.12-3.33.27-4.99.09-1,.59-1.99.2-3.02-.34-.9.19-1.81-.15-2.78-.37-1.04.34-1.63,1.45-1.5.14.02.29.06.43.09.14.03.29.05.5.1Z"/>
          <path class="cls-5" d="m333.42,372.35c.3-.07.56-.3.79-.57.21-.25.47-.41.78-.51.74-.25,1.41-.62,1.97-1.17.07-.07.16-.17.25-.18.7-.1,1.29-.55,1.97-.7.71-.16,1.32-.48,1.8-1.02.32-.35.71-.52,1.15-.68.91-.34,1.8-.75,2.67-1.19.47-.24.94-.47,1.43-.66.59-.22,1.19-.43,1.67-.87.23-.21.52-.34.85-.39.43-.06.8-.23,1.09-.58.25-.32.6-.47,1-.52.57-.07,1.08-.26,1.56-.58.39-.26.83-.37,1.3-.34.53.04,1.05-.01,1.56-.16.13-.04.28-.03.41,0,.15.03.28.19.19.31-.44.57-.4,1.25-.52,1.9-.09.52-.28,1.01-.43,1.51-.37,1.23-.92,2.41-.99,3.73-.04.8-.23,1.59-.23,2.4,0,.56-.41,1.03-.59,1.56-.05.13-.2.24-.2.36-.04.79-.59,1.33-.95,1.96-.25.43-.43.87-.54,1.36-.15.65-.31,1.29-.71,1.85-.21.29-.29.65-.27,1,.03.59-.19,1.07-.44,1.59-.58,1.21-.96,2.48-1.01,3.84,0,.18-.04.35-.04.52,0,1.16-.45,2.11-1.32,2.86-.21.19-.4.4-.43.7-.06.47-.29.85-.54,1.24-.26.42-.45.87-.67,1.31-.12.23-.1.48-.11.72-.01.35-.07.71-.03,1.05.06.48-.05.88-.33,1.28-.33.46-.51.98-.63,1.54-.16.71-.29,1.45-.76,2.06-.2.26-.19.6-.2.91-.02.61-.22,1.16-.53,1.68-.4.67-.69,1.38-.66,2.18.02.43-.15.81-.26,1.22-.25.87-.64,1.7-.62,2.63,0,.17-.02.36-.09.51-.33.75-.41,1.56-.65,2.33-.07.23-.11.49-.23.7-.41.69-.48,1.45-.54,2.23-.08.95-.26,1.87-.84,2.67-.22.31-.39.67-.42,1.07-.09,1.24-.57,2.38-.93,3.55-.29.93-.6,1.86-.76,2.83-.1.65-.4,1.27-.3,1.96.02.12-.05.29-.13.39-.53.64-.72,1.44-.97,2.2-.32.96-.78,1.88-.96,2.89-.05.28-.13.55-.15.83-.03.47-.13.9-.49,1.24-.24.23-.33.54-.3.87.05.52-.19.93-.37,1.39-.29.74-.83,1.4-.76,2.26-.37.68-.34,1.51-.69,2.17-.54,1.01-.92,2.04-1.08,3.17-.02.17-.09.34-.18.49-.27.47-.39.97-.42,1.51-.03.42-.15.82-.4,1.18-.59.85-.85,1.84-1.07,2.83-.19.86-.44,1.7-.83,2.49-.21.41-.36.84-.41,1.3-.03.35-.21.67-.3,1-.16.64-.46,1.25-.5,1.93-.02.32-.14.61-.28.9-.09.19-.22.39-.23.58-.02.56-.23,1.02-.58,1.43-.19.22-.24.51-.26.79-.06.9-.65,1.46-1.3,1.95-.49.37-1.05.36-1.59.07-.48-.26-.64-.72-.66-1.24,0-.07,0-.14.01-.21.38-1.94.39-3.91.5-5.87.05-.91.35-1.8.16-2.72.22-.64.17-1.31.26-1.97.16-1.15.11-2.32.05-3.46-.06-1.16,0-2.3.05-3.45.04-.94.16-1.88.14-2.83-.02-.91-.02-1.82-.02-2.74,0-.14.04-.3,0-.42-.29-.74-.23-1.51-.22-2.28,0-.38-.08-.76-.21-1.13-.16-.43-.27-.87-.4-1.31-.11-.38-.15-.77,0-1.14.34-.86.2-1.74.07-2.6-.09-.61-.06-1.19.13-1.76.24-.72.25-1.43.19-2.18-.11-1.15-.14-2.31-.18-3.47-.01-.28,0-.57.1-.83.38-1,.48-2.02.37-3.09-.06-.62-.05-1.26-.23-1.87-.09-.31-.05-.62.04-.93.23-.81.39-1.64.23-2.49.22-1.43-.29-2.86.04-4.3.09-.4,0-.84-.14-1.24-.22-.69-.27-1.37.15-2.03.09-.14.09-.33.11-.5.02-.14-.2-.27-.3-.18-.69.55-1.47.95-2.2,1.44-.16.11-.28.31-.38.49-.25.41-.56.71-1.04.83-.53.13-.94.45-1.29.86-.3.36-.67.57-1.11.75-.78.32-1.46.85-2.07,1.42-.57.54-1.2.96-1.87,1.35-.39.23-.82.43-1.14.74-.65.64-1.45.96-2.29,1.23-.3.09-.59.22-.86.38-.27.16-.54.33-.85.4-.32.07-.57.25-.79.49-.37.4-.84.63-1.39.66-.7.05-1.28.33-1.74.87-.14.16-.29.3-.45.44-.28.25-.6.38-.97.28-.42-.11-.81-.09-1.22.13-.56.3-1.08.18-1.55-.25-.23-.21-.48-.42-.71-.62-.5-.43-.65-.94-.5-1.6.23-1,.59-1.94,1.03-2.86.11-.22.27-.46.25-.68-.07-.74.22-1.36.52-2,.19-.42.25-.87.14-1.34-.21-.87-.03-1.67.46-2.41.1-.14.24-.26.24-.45,0-.62.29-1.15.46-1.72.17-.57.34-1.14.47-1.72.17-.78.28-1.58.68-2.31.21-.39.26-.87.24-1.34-.01-.28-.01-.58.16-.81.58-.79.67-1.76.94-2.66.1-.33.17-.68.26-1.02.25-.98.49-1.97.75-2.95.05-.2.09-.43.22-.58.62-.73.7-1.63.63-2.49-.1-1.2.24-2.29.52-3.41.09-.37.19-.74.24-1.13.08-.77.18-1.53.67-2.18.22-.29.22-.66.24-1.01.02-.53.07-1.05.11-1.57.02-.28.07-.58.26-.79.55-.6.57-1.35.58-2.08,0-.48.06-.9.38-1.27.28-.31.31-.72.29-1.1-.05-.82.08-1.59.3-2.38.15-.53.12-1.11.3-1.64.16-.46.25-.95.44-1.4.43-1.05.55-2.17.84-3.25.18-.66.04-1.33.17-1.99.05-.27.02-.58.12-.83.28-.71.25-1.45.33-2.18.03-.26-.16-.39-.4-.32-.31.09-.58.24-.8.48-.22.24-.46.45-.8.48-.6.06-1.05.39-1.45.79-.31.32-.66.5-1.09.57-.21.03-.43.07-.6.18-.73.49-1.61.7-2.3,1.27-.13.11-.29.2-.46.25-.32.09-.58.24-.78.51-.25.34-.6.5-1,.49-.87-.02-1.54.42-2.17.92-.26.2-.51.35-.83.43-.2.05-.42.12-.57.24-.42.34-.92.51-1.38.76-.09.05-.21.06-.29.13-.7.65-1.58,1-2.39,1.46-.66.37-1.27.88-2.04,1.04-.28.06-.5.24-.73.41-1.27.94-2.84.62-3.84-.79-.24-.34-.25-.75-.12-1.11.21-.59.24-1.16.1-1.76-.07-.32,0-.64.14-.92.38-.84.51-1.75.63-2.65.06-.4.17-.75.46-1.03.29-.29.4-.64.43-1.04.04-.61.23-1.16.61-1.65.24-.31.36-.67.38-1.07,0-.21.05-.43.13-.62.35-.84.71-1.67,1.1-2.5.21-.44.54-.82.65-1.32.02-.1.08-.2.15-.27.68-.63.81-1.54,1.15-2.34.04-.1.1-.2.09-.3-.08-1.08.57-1.93.93-2.87.14-.36.31-.71.42-1.08.1-.34.25-.66.44-.95.59-.92,1.07-1.89,1.42-2.93.06-.16.14-.32.24-.46.3-.42.42-.88.35-1.39-.07-.53.12-.95.49-1.33.24-.25.46-.53.67-.81.1-.14.25-.31.23-.46-.05-.62.33-1.05.59-1.54.25-.47.38-.98.45-1.51.03-.24.01-.5.15-.71.36-.57.58-1.19.75-1.84.1-.4.31-.77.63-1.08.35-.33.52-.75.54-1.22.03-.54.15-1.04.53-1.45.02-.03.05-.05.06-.09.47-1.42,1.26-2.74,1.42-4.27.07-.6.26-1.17.82-1.52.26-.16.34-.44.39-.72.1-.53.29-1.01.62-1.44.26-.35.4-.74.42-1.17.02-.47.14-.89.45-1.26.19-.22.27-.48.17-.78-.1-.27-.04-.55,0-.83.1-.56.4-.96.9-1.22.43-.22.76-.51.68-1.07-.01-.1.03-.21.08-.3.38-.73.49-1.52.55-2.34.04-.52.23-1.02.69-1.37.46-.35.73-.83.91-1.38.23-.7.6-1.35.76-2.07.04-.2.16-.4.29-.55.61-.7.94-1.55,1.27-2.39.08-.19.2-.37.32-.54.21-.3.36-.6.25-.98-.1-.36,0-.7.12-1.03.37-.91.7-1.84,1.27-2.66.38-.55.67-1.12.73-1.83.04-.5.34-.98.28-1.52.57-.88.61-1.98,1.33-2.82.61-.72.91-1.65,1.18-2.57.11-.38.29-.71.54-1.01.76-.91,1.24-1.95,1.4-3.12.05-.36.18-.68.34-.99.32-.62.65-1.25.8-1.94.03-.14.08-.28.16-.39.33-.44.48-.93.46-1.48,0-.25.1-.48.27-.67.34-.37.54-.83.69-1.29.36-1.09,1.04-1.98,1.68-2.9.26-.37.59-.58,1.07-.55.24.01.49-.05.73-.06.49-.02.8.23.86.72.03.28.02.56,0,.84-.15,1.54-.49,3.04-.96,4.52-.2.64-.3,1.3-.38,1.96-.07.52-.13,1.05-.26,1.56-.28,1.09-.47,2.19-.62,3.31-.05.35-.07.71-.2,1.03-.27.72-.28,1.44-.18,2.18.09.68.06,1.31-.29,1.93-.27.49-.29,1.07-.34,1.63-.06.63,0,1.26-.24,1.87-.04.09-.04.21-.02.31.21,1.19-.1,2.37-.08,3.55.01.45.07.91.11,1.36.06.63.05,1.23-.34,1.8-.3.43-.49.93-.7,1.41-.1.22-.21.48-.18.7.08.71-.08,1.38-.21,2.07-.12.65-.13,1.32-.18,1.98-.02.33-.15.57-.35.84-.47.65-.67,1.39-.28,2.17.11.23.16.46.2.7.18,1.21.04,2.37-.53,3.46-.11.22-.23.43-.24.69-.05,1.55-.4,3.05-.8,4.53-.1.37-.18.75-.22,1.14-.03.32-.04.62-.22.91-.13.22-.13.46-.13.71,0,.49-.07.98-.05,1.47.03,1.11-.18,2.16-.65,3.16-.24.5-.21,1.02-.18,1.55,0,.11.07.2.18.22.12.02.21-.06.24-.16.17-.57.62-.82,1.12-1.03.26-.11.5-.26.77-.33.5-.13.88-.38,1.18-.81.22-.32.51-.55.94-.61.43-.06.77-.31,1.07-.62.29-.3.6-.57,1.03-.7.42-.13.66-.51.92-.84.2-.26.41-.44.76-.5.72-.1,1.34-.38,1.68-1.1.11-.23.3-.4.55-.47.98-.28,1.72-.93,2.5-1.52.28-.22.58-.39.9-.53.19-.08.42-.14.56-.28.61-.61,1.47-.81,2.15-1.32.22-.16.5-.24.77-.32.24-.07.46-.16.65-.33.24-.22.53-.32.84-.4.65-.16,1.17-.63,1.78-.88.16-.06.3-.18.46-.25.47-.18.91-.07,1.22.34.34.46.54.98.55,1.56,0,.31,0,.63.04.94.07.43.05.84-.19,1.22-.07.12-.17.26-.16.38.07.7-.17,1.31-.45,1.92-.07.15-.08.34-.08.51-.02.99-.22,1.95-.45,2.9-.16.68-.37,1.33-.64,1.99-.31.76-.42,1.63-.5,2.46-.07.82-.27,1.59-.62,2.32-.29.59-.41,1.19-.36,1.83.05.6.1,1.2-.25,1.74-.13,1.15-.69,2.2-.84,3.35-.09.65-.32,1.29-.3,1.96,0,.17-.06.35-.13.51-.19.46-.3.93-.33,1.43-.01.24-.06.5-.17.71-.3.59-.33,1.22-.3,1.85.03.46.03.91-.06,1.36-.07.35-.08.69-.03,1.05.09.67.02,1.33-.23,1.97-.07.2-.2.41-.18.6.11.7-.12,1.31-.43,1.91-.27.53-.18,1.11-.09,1.66.1.58.11,1.11-.21,1.62-.12.19-.13.39-.09.6.04.24.05.49.09.73.11.64.04,1.24-.21,1.85-.44,1.08-.63,2.21-.75,3.37-.04.45-.11.88-.05,1.34.05.4-.02.84-.15,1.25-.09.28-.22.5-.46.67-.34.24-.48.62-.42,1.02.11.75-.05,1.47-.23,2.19-.16.66-.19,1.32-.2,1.99,0,.34.16.45.47.34.1-.03.2-.07.36-.14Z"/>
          <path class="cls-5" d="m490.9,372.35c.3-.07.56-.3.79-.57.21-.25.47-.41.78-.51.74-.25,1.41-.62,1.97-1.17.07-.07.16-.17.25-.18.7-.1,1.29-.55,1.97-.7.71-.16,1.32-.48,1.8-1.02.32-.35.71-.52,1.15-.68.91-.34,1.8-.75,2.67-1.19.47-.24.94-.47,1.43-.66.59-.22,1.19-.43,1.67-.87.23-.21.52-.34.85-.39.43-.06.8-.23,1.09-.58.25-.32.6-.47,1-.52.57-.07,1.08-.26,1.56-.58.39-.26.83-.37,1.3-.34.53.04,1.05-.01,1.56-.16.13-.04.28-.03.41,0,.15.03.28.19.19.31-.44.57-.4,1.25-.52,1.9-.09.52-.28,1.01-.43,1.51-.37,1.23-.92,2.41-.99,3.73-.04.8-.23,1.59-.23,2.4,0,.56-.41,1.03-.59,1.56-.05.13-.2.24-.2.36-.04.79-.59,1.33-.95,1.96-.25.43-.43.87-.54,1.36-.15.65-.31,1.29-.71,1.85-.21.29-.29.65-.27,1,.03.59-.19,1.07-.44,1.59-.58,1.21-.96,2.48-1.01,3.84,0,.18-.04.35-.04.52,0,1.16-.45,2.11-1.32,2.86-.21.19-.4.4-.43.7-.06.47-.29.85-.54,1.24-.26.42-.45.87-.67,1.31-.12.23-.1.48-.11.72-.01.35-.07.71-.03,1.05.06.48-.05.88-.33,1.28-.33.46-.51.98-.63,1.54-.16.71-.29,1.45-.76,2.06-.2.26-.19.6-.2.91-.02.61-.22,1.16-.53,1.68-.4.67-.69,1.38-.66,2.18.02.43-.15.81-.26,1.22-.25.87-.64,1.7-.62,2.63,0,.17-.02.36-.09.51-.33.75-.41,1.56-.65,2.33-.07.23-.11.49-.23.7-.41.69-.48,1.45-.54,2.23-.08.95-.26,1.87-.84,2.67-.22.31-.39.67-.42,1.07-.09,1.24-.57,2.38-.93,3.55-.29.93-.6,1.86-.76,2.83-.1.65-.4,1.27-.3,1.96.02.12-.05.29-.13.39-.53.64-.72,1.44-.97,2.2-.32.96-.78,1.88-.96,2.89-.05.28-.13.55-.15.83-.03.47-.13.9-.49,1.24-.24.23-.33.54-.3.87.05.52-.19.93-.37,1.39-.29.74-.83,1.4-.76,2.26-.37.68-.34,1.51-.69,2.17-.54,1.01-.92,2.04-1.08,3.17-.02.17-.09.34-.18.49-.27.47-.39.97-.42,1.51-.03.42-.15.82-.4,1.18-.59.85-.85,1.84-1.07,2.83-.19.86-.44,1.7-.83,2.49-.21.41-.36.84-.41,1.3-.03.35-.21.67-.3,1-.16.64-.46,1.25-.5,1.93-.02.32-.14.61-.28.9-.09.19-.22.39-.23.58-.02.56-.23,1.02-.58,1.43-.19.22-.24.51-.26.79-.06.9-.65,1.46-1.3,1.95-.49.37-1.05.36-1.59.07-.48-.26-.64-.72-.66-1.24,0-.07,0-.14.01-.21.38-1.94.39-3.91.5-5.87.05-.91.35-1.8.16-2.72.22-.64.17-1.31.26-1.97.16-1.15.11-2.32.05-3.46-.06-1.16,0-2.3.05-3.45.04-.94.16-1.88.14-2.83-.02-.91-.02-1.82-.02-2.74,0-.14.04-.3,0-.42-.29-.74-.23-1.51-.22-2.28,0-.38-.08-.76-.21-1.13-.16-.43-.27-.87-.4-1.31-.11-.38-.15-.77,0-1.14.34-.86.2-1.74.07-2.6-.09-.61-.06-1.19.13-1.76.24-.72.25-1.43.19-2.18-.11-1.15-.14-2.31-.18-3.47-.01-.28,0-.57.1-.83.38-1,.48-2.02.37-3.09-.06-.62-.05-1.26-.23-1.87-.09-.31-.05-.62.04-.93.23-.81.39-1.64.23-2.49.22-1.43-.29-2.86.04-4.3.09-.4,0-.84-.14-1.24-.22-.69-.27-1.37.15-2.03.09-.14.09-.33.11-.5.02-.14-.2-.27-.3-.18-.69.55-1.47.95-2.2,1.44-.16.11-.28.31-.38.49-.25.41-.56.71-1.04.83-.53.13-.94.45-1.29.86-.3.36-.67.57-1.11.75-.78.32-1.46.85-2.07,1.42-.57.54-1.2.96-1.87,1.35-.39.23-.82.43-1.14.74-.65.64-1.45.96-2.29,1.23-.3.09-.59.22-.86.38-.27.16-.54.33-.85.4-.32.07-.57.25-.79.49-.37.4-.84.63-1.39.66-.7.05-1.28.33-1.74.87-.14.16-.29.3-.45.44-.28.25-.6.38-.97.28-.42-.11-.81-.09-1.22.13-.56.3-1.08.18-1.55-.25-.23-.21-.48-.42-.71-.62-.5-.43-.65-.94-.5-1.6.23-1,.59-1.94,1.03-2.86.11-.22.27-.46.25-.68-.07-.74.22-1.36.52-2,.19-.42.25-.87.14-1.34-.21-.87-.03-1.67.46-2.41.1-.14.24-.26.24-.45,0-.62.29-1.15.46-1.72.17-.57.34-1.14.47-1.72.17-.78.28-1.58.68-2.31.21-.39.26-.87.24-1.34-.01-.28-.01-.58.16-.81.58-.79.67-1.76.94-2.66.1-.33.17-.68.26-1.02.25-.98.49-1.97.75-2.95.05-.2.09-.43.22-.58.62-.73.7-1.63.63-2.49-.1-1.2.24-2.29.52-3.41.09-.37.19-.74.24-1.13.08-.77.18-1.53.67-2.18.22-.29.22-.66.24-1.01.02-.53.07-1.05.11-1.57.02-.28.07-.58.26-.79.55-.6.57-1.35.58-2.08,0-.48.06-.9.38-1.27.28-.31.31-.72.29-1.1-.05-.82.08-1.59.3-2.38.15-.53.12-1.11.3-1.64.16-.46.25-.95.44-1.4.43-1.05.55-2.17.84-3.25.18-.66.04-1.33.17-1.99.05-.27.02-.58.12-.83.28-.71.25-1.45.33-2.18.03-.26-.16-.39-.4-.32-.31.09-.58.24-.8.48-.22.24-.46.45-.8.48-.6.06-1.05.39-1.45.79-.31.32-.66.5-1.09.57-.21.03-.43.07-.6.18-.73.49-1.61.7-2.3,1.27-.13.11-.29.2-.46.25-.32.09-.58.24-.78.51-.25.34-.6.5-1,.49-.87-.02-1.54.42-2.17.92-.26.2-.51.35-.83.43-.2.05-.42.12-.57.24-.42.34-.92.51-1.38.76-.09.05-.21.06-.29.13-.7.65-1.58,1-2.39,1.46-.66.37-1.27.88-2.04,1.04-.28.06-.5.24-.73.41-1.27.94-2.84.62-3.84-.79-.24-.34-.25-.75-.12-1.11.21-.59.24-1.16.1-1.76-.07-.32,0-.64.14-.92.38-.84.51-1.75.63-2.65.06-.4.17-.75.46-1.03.29-.29.4-.64.43-1.04.04-.61.23-1.16.61-1.65.24-.31.36-.67.38-1.07,0-.21.04-.43.12-.62.35-.84.71-1.67,1.1-2.5.21-.44.54-.82.65-1.32.02-.1.08-.2.15-.27.68-.63.81-1.54,1.15-2.34.04-.1.1-.2.09-.3-.08-1.08.57-1.93.93-2.87.14-.36.31-.71.42-1.08.1-.34.25-.66.44-.95.59-.92,1.07-1.89,1.42-2.93.06-.16.14-.32.24-.46.3-.42.42-.88.35-1.39-.07-.53.12-.95.49-1.33.25-.25.46-.53.67-.81.1-.14.25-.31.23-.46-.05-.62.33-1.05.59-1.54.25-.47.38-.98.45-1.51.03-.24.01-.5.15-.71.36-.57.58-1.19.75-1.84.1-.4.31-.77.63-1.08.35-.33.52-.75.54-1.22.03-.54.15-1.04.53-1.45.02-.03.05-.05.06-.09.47-1.42,1.26-2.74,1.42-4.27.07-.6.26-1.17.82-1.52.26-.16.34-.44.39-.72.1-.53.29-1.01.62-1.44.26-.35.4-.74.42-1.17.02-.47.14-.89.45-1.26.19-.22.27-.48.17-.78-.1-.27-.04-.55,0-.83.1-.56.4-.96.9-1.22.43-.22.76-.51.68-1.07-.01-.1.03-.21.08-.3.38-.73.49-1.52.55-2.34.04-.52.23-1.02.69-1.37.46-.35.73-.83.91-1.38.23-.7.6-1.35.76-2.07.04-.2.16-.4.29-.55.61-.7.94-1.55,1.27-2.39.08-.19.2-.37.32-.54.21-.3.36-.6.25-.98-.1-.36,0-.7.12-1.03.37-.91.7-1.84,1.27-2.66.38-.55.67-1.12.73-1.83.04-.5.34-.98.28-1.52.57-.88.61-1.98,1.33-2.82.61-.72.91-1.65,1.18-2.57.11-.38.29-.71.54-1.01.76-.91,1.24-1.95,1.4-3.12.05-.36.18-.68.34-.99.32-.62.65-1.25.8-1.94.03-.14.08-.28.16-.39.33-.44.48-.93.46-1.48,0-.25.1-.48.27-.67.34-.37.54-.83.69-1.29.36-1.09,1.04-1.98,1.68-2.9.26-.37.59-.58,1.07-.55.24.01.49-.05.73-.06.49-.02.8.23.86.72.03.28.02.56,0,.84-.15,1.54-.49,3.04-.96,4.52-.2.64-.3,1.3-.38,1.96-.07.52-.13,1.05-.26,1.56-.28,1.09-.47,2.19-.62,3.31-.05.35-.07.71-.2,1.03-.27.72-.28,1.44-.18,2.18.09.68.06,1.31-.29,1.93-.27.49-.29,1.07-.34,1.63-.06.63,0,1.26-.24,1.87-.04.09-.04.21-.02.31.21,1.19-.1,2.37-.08,3.55.01.45.07.91.11,1.36.06.63.05,1.23-.34,1.8-.3.43-.49.93-.7,1.41-.1.22-.21.48-.18.7.08.71-.08,1.38-.21,2.07-.12.65-.13,1.32-.18,1.98-.02.33-.15.57-.35.84-.47.65-.67,1.39-.28,2.17.11.23.16.46.2.7.18,1.21.04,2.37-.53,3.46-.11.22-.23.43-.24.69-.05,1.55-.4,3.05-.8,4.53-.1.37-.18.75-.22,1.14-.03.32-.04.62-.22.91-.13.22-.13.46-.13.71,0,.49-.07.98-.05,1.47.03,1.11-.18,2.16-.65,3.16-.24.5-.21,1.02-.18,1.55,0,.11.07.2.18.22.12.02.21-.06.24-.16.17-.57.62-.82,1.12-1.03.26-.11.5-.26.77-.33.5-.13.88-.38,1.18-.81.22-.32.51-.55.94-.61.43-.06.77-.31,1.07-.62.29-.3.6-.57,1.03-.7.42-.13.66-.51.92-.84.2-.26.41-.44.76-.5.72-.1,1.34-.38,1.68-1.1.11-.23.3-.4.55-.47.98-.28,1.72-.93,2.5-1.52.28-.22.58-.39.9-.53.19-.08.42-.14.56-.28.61-.61,1.47-.81,2.15-1.32.22-.16.5-.24.77-.32.24-.07.46-.16.65-.33.24-.22.53-.32.84-.4.65-.16,1.17-.63,1.78-.88.16-.06.3-.18.46-.25.47-.18.91-.07,1.22.34.34.46.54.98.55,1.56,0,.31,0,.63.04.94.07.43.05.84-.19,1.22-.07.12-.17.26-.16.38.07.7-.17,1.31-.45,1.92-.07.15-.08.34-.08.51-.02.99-.22,1.95-.45,2.9-.16.68-.37,1.33-.64,1.99-.31.76-.42,1.63-.5,2.46-.07.82-.27,1.59-.62,2.32-.29.59-.41,1.19-.36,1.83.05.6.1,1.2-.25,1.74-.13,1.15-.69,2.2-.84,3.35-.09.65-.32,1.29-.3,1.96,0,.17-.06.35-.13.51-.19.46-.3.93-.33,1.43-.01.24-.06.5-.17.71-.3.59-.33,1.22-.3,1.85.03.46.03.91-.06,1.36-.07.35-.08.69-.03,1.05.09.67.01,1.33-.23,1.97-.07.2-.2.41-.18.6.11.7-.12,1.31-.43,1.91-.27.53-.18,1.11-.09,1.66.1.58.11,1.11-.21,1.62-.12.19-.13.39-.09.6.04.24.05.49.09.73.11.64.04,1.24-.21,1.85-.44,1.08-.63,2.21-.75,3.37-.04.45-.11.88-.05,1.34.05.4-.02.84-.15,1.25-.09.28-.22.5-.46.67-.34.24-.48.62-.42,1.02.11.75-.05,1.47-.23,2.19-.16.66-.19,1.32-.2,1.99,0,.34.16.45.47.34.1-.03.2-.07.36-.14Z"/>
        </g>
        <path class="cls-2" d="m516.56,248.55c-.97-.45-1.72-1.39-2.95-1.28-.34.03-.73-.09-1.04-.26-.33-.17-.66-.29-.99-.38-.27-1.02-.68-1.99-1.26-2.9-.14-.23-.26-.47-.17-.71.38-1.04.46-2.08.26-3.17-.09-.45.22-.85.42-1.25.37-.75.68-1.5.4-2.37-.16-.5-.03-1.01.21-1.48.22-.45.17-.86-.17-1.23-.77-.85-.95-1.96-1.11-3-.15-.96-.09-2.03.29-2.99.42-1.08,1.05-3.8,1.26-4.78.24-1.1-.71-1.88-.57-2.92.03-.23-.36-.27-.6-.36-1.24-.49-1.62-1.08-1.41-2.29.14-.83.22-1.63-.06-2.45-.1-.29-.07-.63-.05-.94.07-1.08.15-2.15.25-3.23.03-.32.13-.67-.1-.91-.43-.46-.53-.97-.42-1.58.05-.25-.11-.5-.32-.65-.43-.31-.46-.71-.29-1.18.12-.34-.05-.61-.33-.82-.5-.37-.31-.79-.05-1.17.29-.42.74-.75.92-1.2.4-.99.18-2.15.73-3.12-.54-.81.1-2.04-1.03-2.67-.59-.33-.76-1.02-.65-1.69.1-.64.06-1.27,0-1.9-.08-.7-.05-1.39.23-2.06.1-.23.18-.49.18-.73,0-1.4-.02-2.8-.08-4.19-.01-.37-.13-.76-.29-1.09-.71-1.41-.95-2.85-.76-4.43.11-.92.11-1.92-.71-2.66-.24-.22-.44-.55-.34-.85.27-.78.01-1.41-.23-2.15-.2-.62-.32-1.32-.44-1.99-.12-.72-.22-1.53.23-2.23.26-.4.34-.82.11-1.26-.24-.47-.18-.99-.27-1.49-.3-1.73-.4-3.52-1.31-5.1-.22-.38-.33-.83-.53-1.23-.43-.89-.53-1.81-.36-2.79.17-1.01.35-2,.68-2.97.22-.66.4-1.35-.02-2.03-.32-.52-.3-1.09-.14-1.66.13-.47.02-.88-.28-1.25-.34-.4-.57-.83-.59-1.37-.02-.54-.4-.93-.64-1.37-.57-1.06-1.17-2.1-1.74-3.16-.47-.86-.69-1.74-.4-2.75.34-1.2.13-2.41-.32-3.55-.3-.76-.9-1.4-.8-2.3.02-.15-.12-.41-.26-.47-.63-.28-.72-.81-.8-1.4-.04-.27-.3-.43-.58-.34-.87.26-1.31-.33-1.73-.88-.47-.61-.96-1.34-.64-2.1.37-.89.2-1.6-.26-2.33-.29-.47-.19-.98-.27-1.48-.1-.62-.94-.66-1.04-1.3-.07-.5-.36-.77-.88-.85-.35-.05-.52-.38-.56-.7-.09-.64-.3-1.23-.64-1.78-.24-.39-.34-.82-.35-1.27-.02-.8-.31-1.48-.87-2.06-.17-.18-.38-.42-.38-.64.01-.92-.64-1.33-1.25-1.79-.95-.73-1.95-1.43-2.28-2.7-.03-.12-.11-.27-.2-.31-.92-.37-1.21-1.3-1.68-2.01-.64-.97-1.34-1.88-2.28-2.49-1.32-.86-2.16-2.13-3.2-3.23-.34-.36-.69-.79-.85-1.25-.41-1.18-1.35-1.8-2.32-2.41-.38-.23-.76-.48-1.18-.62-1.27-.43-2.18-1.3-2.85-2.42-.28-.46-.63-.78-1.08-1.03-1.55-.88-2.74-2.23-4.17-3.27-.41-.3-.86-.68-.91-1.19-.12-1.29-1.04-2.16-1.54-3.24-.23-.49-.59-.78-1.09-1-1.29-.58-2.38-1.42-3.31-2.51-.65-.77-1.4-1.52-2.36-1.89-.65-.25-1.08-.63-1.4-1.2-.22-.39-.45-.77-.7-1.13-.7-.97-1.3-2.04-2.72-2.14-.34-.03-.66-.36-1-.52-.22-.1-.52-.27-.7-.2-.72.29-1.41-.19-2.02-.08-1.22.21-1.92-.48-2.72-1.09-.4-.31-.76-.68-1.13-1.02-.34-.31-.71-.56-1.19-.5-.74.09-1.34-.18-1.98-.51-.95-.48-1.96-.89-2.98-1.19-1.6-.47-3.13-1.05-4.53-1.95-.21-.13-.5-.32-.69-.26-.89.28-1.59-.35-2.39-.43-1.23-.12-2.35-.54-3.4-1.16-.41-.24-.8-.41-1.25-.18-.59.3-.92-.3-1.41-.35-.66-.06-.79.85-1.44.8-1.24-.1-2.57.17-3.61-.81-.28-.27-.61-.52-1.02-.39-1.55.5-3.13.35-4.7.28-2.36-.1-4.67-.45-6.76-1.69-.43-.25-.96-.56-1.41-.5-1.17.14-2.27-.3-3.41-.28-1.16.01-2.25-.4-3.37-.58-.28-.05-.51-.35-.76-.53h-1.91c-.76.59-1.56,1.1-2.45,1.46-.3.12-.67.18-.79.49-.33.85-1.15.97-1.82,1.25-.64.26-1.29.53-1.94.73-1.11.34-2.29.85-3.46-.03-.38-.29-.93-.49-1.45-.36-.92.22-1.92.16-2.76.67-1.45.88-2.91.86-4.33,0-.59-.36-1.04-.26-1.58.05-.66.39-1.39.79-2.16.59-1.55-.41-2.8.78-4.27.68-.1,0-.26.1-.31.2-.38.77-1.44.61-1.81,1.3-.5.92-1.38.41-2.05.69-.23.1-.46.22-.66.37-1.5,1.18-3.36,1.47-5.1,2.04-.17.06-.41.1-.56.04-1.26-.53-2.51.18-3.78-.03-.34-.06-.74.15-1.1.27-1.02.35-2.04.71-3.04,1.09-.37.14-.74.25-1.11.12-.78-.26-1.29.08-1.87.56-.58.48-1.33.74-1.98,1.12-.93.54-1.9,1.05-2.75,1.69-.82.61-1.55,1.31-2.58,1.58-.35.09-.66.38-.94.62-.58.5-1.1,1.05-1.49,1.73-.47.83-1.07,1.21-2.16,1.14-1.81-.12-3.4.5-4.2,2.33-.19.43-.46.73-.84,1-.73.5-1.54.96-2.09,1.62-.76.93-1.58,1.81-2.25,2.84-.65,1-1.68,1.79-2.23,2.83-.65,1.22-1.59,1.92-2.77,2.46-.11.05-.18.18-.26.28-.28.36-.62.64-1.09.72-.51.08-.7.43-.88.89-.37.96-.91,1.92-1.81,2.38-.73.37-1.16.93-1.67,1.47-1.27,1.35-2.27,2.84-2.73,4.65-.21.81-.51,1.59-1.41,1.9-.54.18-.82.56-.87,1.13-.05.6-.34,1.25-.76,1.49-1,.58-1.21,1.58-1.64,2.46-.28.57-.77,1.05-.8,1.72-.07,1.76-.94,3.13-2.04,4.41-.66.77-1.32,1.55-1.26,2.67,0,.18-.05.42-.17.53-.62.6-.77,1.45-1.22,2.14-.58.9-1.18,1.85-1.45,2.87-.27,1.01-.24,2.13-.2,3.2.08,1.78-.2,3.42-1.38,4.81-.45.53-.91,1.07-1.41,1.55-.85.8-1.5,1.74-1.92,2.82-.24.61-.49,1.17-1.01,1.58-.26.2-.5.48-.45.8.16,1.02-.28,1.99-.12,3.03.28,1.84-.21,3.52-1.5,4.94-.3.32-.51.73-.74,1.11-.33.56-.58,1.21-.43,1.82.34,1.36-.41,2.78.25,4.12.09.19.02.52-.08.73-.36.77-.17,1.78-1.09,2.33-.27.16-.36.66-.47,1.02-.51,1.62-1.15,3.2-.87,5,.08.52.05,1.12.03,1.67-.05,1.67-.8,3.18-1.26,4.77-.02.05-.08.1-.13.13-.77.4-.64.93-.33,1.6.26.57.37,1.21.48,1.83.09.5.1,1.02.4,1.45.67.94.54,1.92.19,2.91-.15.42-.33.83-.48,1.24-.37,1.01-.8,1.99-.4,3.12.14.4-.01.89.04,1.32.07.64-.27,1.05-.61,1.53-.39.54-1.23.61-1.38,1.24-.14.59,0,1.25,0,1.88,0,.25-.02.51-.06.76-.09.58-.07,1.12.24,1.66.43.74.49,1.61.35,2.41-.21,1.18-.36,2.37-.78,3.53-.53,1.48-.95,3.01-.55,4.66.24.97.24,2.01.06,3.03-.14.82-.04,1.64.14,2.46.18.8.42,1.68.25,2.44-.27,1.19-.29,2.39-.43,3.58-.08.69-.02,1.41-.17,2.08-.17.73-.65,1.41-.73,2.15-.07.73.27,1.5.28,2.25.01.53.07.98.3,1.46.16.33.27.75.21,1.1-.17,1.01.11,1.85.61,2.71.44.77.43,1.6-.31,2.26-.4.36-.56.82-.67,1.33-.11.49-.31.97-.54,1.42-.9,1.79-.56,3.58-.04,5.38,1.03,1.16,1.04,2.59,1.13,3.98-1.02.15-2.03.23-3.01.1-.21-.04-.36-.07-.5-.1-.14-.03-.28-.07-.43-.09-1.11-.14-1.82.46-1.45,1.5.35.97-.19,1.88.15,2.78.39,1.03-.11,2.01-.2,3.02-.15,1.66-.43,3.3-.27,4.99.12,1.23-.01,2.48-.38,3.68-.82,2.66-.2,5.17.78,7.64.46,1.16.99,2.31.96,3.56-.07,2.46-.26,4.91-.4,7.37-.03.58.12,1.24-.11,1.72-.55,1.18-.23,2.28.01,3.42.22,1.07.31,2.1.08,3.23-.23,1.11-.16,2.33.05,3.46.53,2.83.82,4.91.21,7.1-.43,1.54-.22,2.86.39,4.22.59,1.32.64,2.67.28,4.06-.19.7-.34,1.42-.48,2.13-.06.29-.09.66.16.82.72.44,1.27,1.2,2.26,1.19,1.74-.02,3.48.4,5.2-.19.2-.07.44-.04.65-.01,2.07.31,4.14.54,6.21-.03.33-.09.73-.02,1.09.03,1.52.21,3.03.43,4.54.65.94.14,1.89.24,2.82-.06,1.13-.36,2.25-.93,3.43-.19-.07.05-.14.09-.22.14-.5.26-.81.66-.9,1.22-.05.28-.1.56,0,.83.11.3.02.56-.17.78-.31.37-.43.79-.45,1.26-.01.43-.15.83-.42,1.17-.33.43-.52.91-.62,1.44-.05.28-.13.55-.39.72-.56.35-.75.92-.82,1.52-.16,1.53-.95,2.84-1.42,4.27-.01.03-.03.06-.06.09-.38.41-.51.91-.53,1.45-.02.48-.2.9-.54,1.22-.32.3-.53.67-.63,1.08-.17.65-.39,1.27-.75,1.84-.14.22-.11.47-.15.71-.07.52-.2,1.04-.45,1.51-.26.49-.64.92-.59,1.54.01.15-.13.32-.23.46-.21.28-.43.56-.67.81-.37.37-.56.8-.49,1.33.07.51-.05.97-.35,1.39-.1.14-.19.3-.24.46-.35,1.03-.83,2.01-1.42,2.93-.19.29-.34.61-.44.95-.11.37-.29.72-.42,1.08-.36.94-1.01,1.78-.93,2.87,0,.1-.05.2-.09.3-.34.8-.47,1.7-1.15,2.34-.07.07-.13.17-.15.27-.11.49-.44.87-.65,1.32-.39.82-.75,1.66-1.1,2.5-.08.19-.12.41-.13.62-.02.4-.14.76-.38,1.07-.38.49-.57,1.05-.61,1.65-.03.4-.13.76-.43,1.04-.29.28-.41.62-.46,1.03-.13.9-.25,1.8-.63,2.65-.13.29-.21.61-.14.92.14.6.1,1.17-.1,1.76-.13.37-.12.77.12,1.11,1,1.41,2.57,1.73,3.84.79.23-.17.45-.35.73-.41.78-.16,1.38-.67,2.04-1.04.81-.45,1.69-.81,2.39-1.46.07-.07.2-.08.29-.13.46-.25.96-.43,1.38-.76.16-.13.37-.2.57-.24.32-.07.57-.23.83-.43.63-.5,1.3-.95,2.17-.92.41.01.76-.14,1-.49.19-.27.46-.42.78-.51.16-.05.32-.14.46-.25.68-.57,1.57-.78,2.3-1.27.17-.11.39-.15.6-.18.43-.06.78-.25,1.09-.57.39-.4.85-.73,1.45-.79.33-.03.58-.24.8-.48.22-.24.49-.39.8-.48.24-.07.43.06.4.32-.08.73-.04,1.47-.33,2.18-.1.25-.07.55-.12.83-.12.66.01,1.33-.17,1.99-.3,1.08-.41,2.2-.84,3.25-.19.45-.28.94-.44,1.4-.18.54-.16,1.12-.3,1.64-.22.79-.35,1.56-.3,2.38.02.38-.01.78-.29,1.1-.33.37-.38.78-.38,1.27,0,.73-.03,1.48-.58,2.08-.19.21-.24.5-.26.79-.04.52-.08,1.05-.11,1.57-.02.35-.02.72-.24,1.01-.49.65-.59,1.42-.67,2.18-.04.39-.14.75-.24,1.13-.28,1.12-.62,2.21-.52,3.41.07.86-.01,1.76-.63,2.49-.13.15-.17.38-.22.58-.25.98-.5,1.97-.75,2.95-.09.34-.15.68-.26,1.02-.27.9-.36,1.87-.94,2.66-.17.24-.17.53-.16.81.02.46-.03.95-.24,1.34-.4.73-.51,1.53-.68,2.31-.12.59-.3,1.15-.47,1.72-.17.57-.47,1.1-.46,1.72,0,.19-.15.31-.24.45-.49.74-.67,1.54-.46,2.41.11.47.05.92-.14,1.34-.29.64-.59,1.26-.52,2.01.02.22-.15.46-.25.68-.44.92-.81,1.86-1.03,2.86-.15.66,0,1.17.5,1.6.24.21.48.41.71.62.46.42.99.55,1.55.25.4-.22.79-.24,1.22-.13.37.1.69-.03.97-.28.16-.14.31-.28.45-.44.46-.53,1.04-.82,1.74-.87.55-.04,1.02-.26,1.39-.66.22-.24.47-.41.79-.49.31-.07.58-.24.85-.4.27-.16.56-.29.86-.38.84-.27,1.64-.59,2.29-1.23.32-.31.75-.51,1.14-.74.66-.39,1.29-.81,1.87-1.35.6-.57,1.29-1.1,2.07-1.42.44-.18.82-.4,1.11-.75.35-.42.76-.73,1.29-.86.48-.12.79-.42,1.04-.83.11-.18.22-.38.38-.49.73-.48,1.51-.89,2.2-1.44.11-.09.32.05.3.18-.02.17-.03.36-.11.5-.42.66-.37,1.34-.15,2.03.13.41.23.84.14,1.24-.33,1.44.18,2.87-.04,4.3.17.85,0,1.67-.23,2.49-.09.31-.13.62-.04.93.18.61.16,1.24.23,1.87.11,1.07.01,2.09-.37,3.09-.1.25-.11.55-.1.83.04,1.16.07,2.32.18,3.47.07.75.05,1.46-.19,2.18-.19.57-.22,1.15-.13,1.76.13.86.27,1.74-.07,2.6-.15.37-.1.76,0,1.14.12.44.24.88.4,1.31.14.37.22.75.21,1.13-.02.77-.07,1.54.22,2.28.05.12,0,.28,0,.42,0,.91,0,1.82.02,2.74.02.95-.1,1.89-.14,2.83-.05,1.15-.11,2.29-.05,3.45.06,1.14.11,2.31-.05,3.46-.09.66-.04,1.33-.26,1.97.19.92-.11,1.81-.16,2.72-.11,1.96-.12,3.93-.5,5.87-.01.07-.02.14-.01.21.02.52.18.97.66,1.24.54.29,1.1.31,1.59-.07.65-.49,1.24-1.05,1.3-1.95.02-.28.07-.57.26-.79.35-.42.55-.88.58-1.43,0-.2.14-.39.23-.58.14-.29.26-.58.28-.9.03-.68.34-1.29.5-1.93.08-.33.26-.65.3-1,.04-.46.2-.88.41-1.3.39-.79.64-1.63.83-2.49.22-.99.49-1.98,1.07-2.83.25-.36.37-.76.4-1.18.03-.54.15-1.04.42-1.51.09-.15.15-.32.18-.49.16-1.12.54-2.16,1.08-3.17.35-.66.32-1.49.69-2.17-.07-.86.47-1.53.76-2.26.18-.46.42-.87.37-1.39-.03-.32.06-.64.3-.87.36-.34.46-.77.49-1.24.02-.28.1-.55.15-.82.18-1.01.64-1.93.96-2.89.25-.76.43-1.56.97-2.2.08-.1.15-.27.13-.39-.1-.69.19-1.31.3-1.96.15-.98.47-1.9.76-2.83.36-1.17.84-2.31.93-3.55.03-.4.19-.76.42-1.07.58-.8.76-1.72.84-2.67.06-.77.13-1.54.54-2.23.12-.21.15-.46.23-.7.24-.77.32-1.58.65-2.33.07-.16.09-.34.09-.51-.02-.93.38-1.77.62-2.63.12-.41.28-.79.26-1.22-.04-.81.26-1.52.66-2.18.31-.53.51-1.07.53-1.69.01-.32,0-.65.2-.91.46-.61.6-1.34.76-2.06.12-.56.3-1.09.63-1.54.29-.4.39-.79.33-1.28-.04-.34.02-.7.03-1.05,0-.25,0-.49.11-.72.22-.44.41-.9.67-1.31.24-.39.48-.77.54-1.24.04-.3.22-.52.43-.7.87-.76,1.33-1.7,1.32-2.86,0-.17.04-.35.04-.52.05-1.36.43-2.63,1.01-3.84.25-.52.47-1,.44-1.59-.02-.35.07-.71.27-1,.41-.56.56-1.2.71-1.85.11-.48.29-.93.54-1.36.36-.63.91-1.17.95-1.96,0-.12.16-.23.2-.36.19-.53.59-1,.59-1.56,0-.81.19-1.6.23-2.4.07-1.32.62-2.5.99-3.73.15-.5.33-.99.43-1.51.11-.65.08-1.33.52-1.9.09-.12-.04-.28-.19-.31-.13-.03-.28-.03-.41,0-.51.15-1.03.2-1.56.16-.47-.03-.91.08-1.3.34-.48.32-1,.51-1.56.58-.4.05-.75.2-1,.52-.28.35-.66.52-1.09.58-.33.04-.61.17-.85.39-.48.44-1.08.65-1.67.87-.49.19-.96.42-1.43.66-.87.44-1.76.85-2.67,1.19-.44.16-.83.33-1.15.68-.48.54-1.09.86-1.8,1.02-.68.15-1.26.6-1.97.7-.09.01-.18.11-.25.18-.56.55-1.24.91-1.97,1.17-.31.11-.57.26-.78.51-.23.27-.49.5-.79.57-.16.06-.26.1-.36.14-.31.1-.47,0-.47-.34.01-.67.04-1.33.2-1.99.17-.72.33-1.43.23-2.19-.06-.4.08-.78.42-1.02.25-.18.38-.39.46-.67.13-.41.2-.84.15-1.25-.06-.46,0-.89.05-1.34.12-1.16.3-2.29.75-3.37.25-.61.32-1.21.21-1.85-.04-.24-.04-.49-.09-.73-.04-.22-.03-.41.09-.6.32-.51.31-1.04.21-1.62-.09-.54-.18-1.12.09-1.66.3-.6.54-1.21.43-1.91-.03-.19.1-.4.18-.6.24-.64.32-1.29.23-1.97-.05-.36-.03-.7.03-1.05.09-.45.09-.9.06-1.36-.04-.63,0-1.26.3-1.85.11-.21.15-.47.17-.71.03-.5.13-.97.33-1.43.07-.16.13-.34.13-.51-.02-.68.21-1.31.3-1.96.15-1.16.71-2.2.84-3.35.35-.54.3-1.14.25-1.74-.05-.64.07-1.24.36-1.83.35-.73.55-1.5.62-2.32.08-.83.18-1.7.5-2.46.27-.65.48-1.31.64-1.99.23-.96.43-1.92.45-2.9,0-.17.01-.36.08-.51.28-.61.52-1.22.45-1.92-.01-.12.09-.26.16-.38.24-.38.26-.78.19-1.22-.05-.31-.04-.63-.04-.94,0-.59-.21-1.1-.55-1.56-.3-.41-.74-.53-1.22-.34-.16.06-.3.18-.46.25-.62.25-1.13.72-1.78.88-.32.08-.6.18-.84.4-.19.17-.41.25-.65.33-.27.08-.55.16-.77.32-.68.51-1.53.71-2.15,1.32-.14.14-.37.19-.56.28-.32.14-.62.32-.9.53-.78.59-1.53,1.24-2.5,1.52-.24.07-.44.24-.55.47-.34.72-.96.99-1.68,1.1-.35.05-.55.24-.76.5-.26.33-.5.71-.92.84-.43.13-.73.4-1.03.7-.3.31-.65.56-1.07.62-.42.06-.72.29-.94.61-.29.43-.68.69-1.18.81-.27.07-.51.22-.77.33-.5.21-.95.46-1.12,1.03-.03.1-.13.18-.24.16-.11-.02-.18-.11-.18-.22-.02-.53-.05-1.05.18-1.55.47-1,.68-2.05.65-3.16-.01-.49.05-.98.05-1.47,0-.25,0-.5.13-.71.17-.28.18-.59.22-.91.04-.38.12-.76.22-1.14.4-1.49.75-2.98.8-4.53,0-.25.13-.47.24-.69.53-1.02.68-2.1.55-3.22.41-.16.8-.34,1.1-.61.8-.73,1.57-.51,2.4-.36,1.36.25,2.8.36,3.98,1.08.95.57,1.83.72,2.89.66,1.38-.09,2.75-.21,4.13-.37,1.29-.16,2.65-.26,3.88.15,1.45.47,2.72.2,4.02-.35.4-.17.75-.51,1.21-.43,1.42.25,2.91-.13,4.31.52,1.21.57,2.27.05,3.26-.65.31-.22.55-.51.6-.88.13-1.01.42-2.06.26-3.02-.29-1.74-.02-3.5-.37-5.23-.2-.95-.08-1.8.49-2.69.61-.96.93-2.06.77-3.32-.15-1.14.07-2.32.12-3.49.02-.36.09-.75,0-1.08-.67-2.32-.36-4.63.07-6.92.2-1.05.18-2-.25-2.98-.58-1.3-.67-2.65-.43-4.07.2-1.14.13-2.3.04-3.47-.11-1.49-.17-3,.18-4.53.56-2.4.89-4.81-.15-7.27-.7-1.66-1.02-3.51.07-5.26.18-.29.12-.72.25-1.06.49-1.36.45-2.85,1.19-4.17.48-.87.65-1.92.91-2.9.12-.43.13-.98-.31-1.19-.97-.45-1.72-1.39-2.95-1.28-.34.03-.73-.09-1.04-.26-1.26-.65-2.5-.66-3.73-.12.02-.12.03-.24.07-.36.39-1.14.34-2.4.91-3.5.14-.27.15-.62.17-.93.06-.95.09-1.91.16-2.86.05-.65-.05-1.21-.41-1.8-.61-1-.48-2.67.22-3.58.63-.82,1.21-1.6,1.02-2.75-.07-.39.21-.85.36-1.26.14-.37.27-.76.03-1.1-.7-.99-.59-2.19-.92-3.28-.24-.78-.28-1.64.09-2.43.2-.44.2-.86-.05-1.27-.17-.29-.2-.59-.1-.91.2-.62.11-1.26.07-1.89-.04-.51-.09-1.05.17-1.5.41-.71.23-1.33-.09-1.99-.19-.4-.31-.84-.51-1.24-.45-.91-.53-1.85-.12-2.77.61-1.35.57-2.72.29-4.11-.16-.78-.13-1.52.2-2.24.3-.65.41-1.33.42-2.04.01-.76.05-1.52.1-2.28.03-.57-.01-1.22.39-1.63.6-.63.6-1.38.67-2.13.08-.89.09-1.77.42-2.62.13-.34.08-.75.11-1.13.08-.94.03-1.92.27-2.82.27-1.03.34-2.01.03-3-.19-.63-.03-1.12.29-1.61,1.18-1.82,1.83-3.89,2.78-5.82.53-1.09.81-2.28.15-3.47-.19-.35-.18-.73-.05-1.11.29-.91.61-1.81.85-2.73.33-1.27.86-2.37,2.06-3.07.48-.28.84-.77,1.27-1.14.3-.26.56-.59.56-.97-.02-1.27.92-2.35.63-3.7-.09-.42.19-1.02.48-1.41,1.03-1.37,1.75-2.91,2.63-4.36.65-1.07,1.35-2.17,2.23-3.04.68-.67,1.19-1.53,1.92-2.07.84-.63,1.19-1.37,1.38-2.31,0-.05.09-.09.14-.13.39-.34.4-.67.21-1.17-.38-.97-.13-1.48.84-1.66.55-.1.95-.25,1.21-.76.19-.38.59-.45.95-.56.36-.12.49-.38.42-.74-.13-.67.27-.99.82-1.04.64-.05,1.05-.38,1.47-.79.5-.49.95-1.02,1.62-1.31.22-.09.42-.3.56-.5,1.59-2.32,3.94-3.55,6.5-4.38.88-.28,1.71-.89,2.72-.74.27.04.47-.18.55-.44.09-.31.25-.57.51-.78.76-.6,1.5-1.02,2.57-1,1.29.03,2.51,0,3.6.85.96.74,2.11.76,3.26.6.25-.04.48-.16.72-.24.74-.26,1.52-.34,2.26-.19,2.25.47,4.52.7,6.8.92.79.08,1.52.3,2.08.85.54.54,1.17.69,1.88.76.5.05,1.05.09,1.41.49.61.68,1.35,1.13,2.21,1.43.34.12.65.4.89.68.3.35.63.64,1.05.8,1.57.61,2.9,1.81,4.74,1.76.81-.02,1.54.43,1.77,1.23.37,1.29,1.24,2.36,1.54,3.69.2.87.69,1.67,1.53,2.1.57.29.74.8,1.05,1.27.51.79.61,1.84,1.51,2.37.73.43.87,1.05.56,1.8-.12.3-.31.65-.08.9.99,1.07,1.18,2.71,2.53,3.53.39.24.6.63.81,1.04.43.85.96,1.65,1.36,2.51.56,1.22,1.04,2.49.89,3.86-.09.86.05,1.65.37,2.42.35.83.48,1.68.5,2.6.02,1.5.37,2.91,1.67,3.88.37.27.56.68.8,1.05,1.09,1.71,1.48,3.67,1.77,5.59.19,1.31.51,2.61.57,3.95.02.49.19,1.01.42,1.45.3.58.39,1.21.61,1.8.49,1.26.26,2.65.85,3.89.17.35-.05.74-.24,1.08-.8,1.47-.83,3.01-.57,4.64.34,2.13.76,4.22,1.61,6.23.31.73.6,1.56.14,2.4-.24.44-.12.86.23,1.21.39.38.49.88.6,1.38.39,1.67.83,3.32,1.15,5,.18.93.25,1.88,0,2.84-.2.73-.44,1.49-.43,2.24.01,1-.24,1.86-.72,2.71-.46.81-.55,1.68-.21,2.57.21.54.15,1.12.23,1.68.27,1.86.15,3.81,1.05,5.56.23.45.44.92.67,1.36.31.6.4,1.18.07,1.82-.52,1.02-.2,2.4-1.1,3.2-1.15,1.02-.35,2.31-.74,3.39-.21.6-.31,1.07.17,1.57.19.2.13.48.07.73-.1.43.04.74.45.93.29.13.46.3.53.51-1.13.18-2.25.29-3.34.16-.21-.04-.36-.07-.5-.1-.14-.03-.28-.07-.43-.09-1.11-.14-1.82.46-1.45,1.5.35.97-.19,1.88.15,2.78.39,1.03-.11,2.01-.2,3.02-.15,1.66-.43,3.3-.27,4.99.12,1.23-.01,2.48-.38,3.68-.82,2.66-.2,5.17.78,7.64.46,1.16.99,2.31.96,3.56-.07,2.46-.26,4.91-.4,7.37-.03.58.12,1.24-.11,1.72-.55,1.18-.23,2.28.01,3.42.22,1.07.31,2.1.08,3.23-.23,1.11-.16,2.33.05,3.46.53,2.83.82,4.91.21,7.1-.43,1.54-.22,2.86.39,4.22.59,1.32.64,2.67.28,4.06-.19.7-.34,1.42-.48,2.13-.06.29-.09.66.16.82.72.44,1.27,1.2,2.26,1.19,1.74-.02,3.48.4,5.2-.19.2-.07.44-.04.65-.01,2.07.31,4.14.54,6.21-.03.33-.09.73-.02,1.08.03,1.52.21,3.03.43,4.54.65.94.14,1.89.24,2.82-.06.49-.16.98-.35,1.48-.47-.13.17-.32.3-.53.41-.5.26-.81.66-.9,1.22-.05.28-.1.56,0,.83.11.3.02.56-.17.78-.31.37-.43.79-.45,1.26-.01.43-.15.83-.42,1.17-.33.43-.52.91-.62,1.44-.05.28-.13.55-.39.72-.56.35-.75.92-.82,1.52-.16,1.53-.95,2.84-1.42,4.27-.01.03-.03.06-.06.09-.38.41-.51.91-.53,1.45-.02.48-.2.9-.54,1.22-.32.3-.53.67-.63,1.08-.17.65-.39,1.27-.75,1.84-.14.22-.11.47-.15.71-.07.52-.2,1.04-.45,1.51-.26.49-.64.92-.59,1.54.01.15-.13.32-.23.46-.21.28-.43.56-.67.81-.37.37-.56.8-.49,1.33.07.51-.05.97-.35,1.39-.1.14-.19.3-.24.46-.35,1.03-.83,2.01-1.42,2.93-.19.29-.34.61-.44.95-.11.37-.29.72-.42,1.08-.36.94-1.01,1.78-.93,2.87,0,.1-.05.2-.09.3-.34.8-.47,1.7-1.15,2.34-.07.07-.13.17-.15.27-.11.49-.44.87-.65,1.32-.39.82-.75,1.66-1.1,2.5-.08.19-.12.41-.12.62-.02.4-.14.76-.38,1.07-.38.49-.57,1.05-.61,1.65-.03.4-.13.76-.43,1.04-.29.28-.41.62-.46,1.03-.13.9-.25,1.8-.63,2.65-.13.29-.21.61-.14.92.14.6.1,1.17-.1,1.76-.13.37-.12.77.12,1.11,1,1.41,2.57,1.73,3.84.79.23-.17.45-.35.73-.41.78-.16,1.38-.67,2.04-1.04.81-.45,1.69-.81,2.39-1.46.07-.07.19-.08.29-.13.46-.25.96-.43,1.38-.76.16-.13.37-.2.57-.24.32-.07.57-.23.83-.43.63-.5,1.3-.95,2.17-.92.41.01.76-.14,1-.49.19-.27.46-.42.78-.51.16-.05.32-.14.46-.25.68-.57,1.57-.78,2.3-1.27.17-.11.39-.15.6-.18.43-.06.78-.25,1.09-.57.39-.4.85-.73,1.45-.79.33-.03.58-.24.8-.48.22-.24.49-.39.8-.48.24-.07.43.06.4.32-.08.73-.04,1.47-.33,2.18-.1.25-.07.55-.12.83-.12.66.01,1.33-.17,1.99-.3,1.08-.41,2.2-.84,3.25-.19.45-.28.94-.44,1.4-.18.54-.16,1.12-.3,1.64-.22.79-.35,1.56-.3,2.38.02.38-.01.78-.29,1.1-.33.37-.38.78-.38,1.27,0,.73-.03,1.48-.58,2.08-.19.21-.24.5-.26.79-.04.52-.08,1.05-.11,1.57-.02.35-.02.72-.24,1.01-.49.65-.59,1.42-.67,2.18-.04.39-.14.75-.24,1.13-.28,1.12-.62,2.21-.52,3.41.07.86-.01,1.76-.63,2.49-.13.15-.17.38-.22.58-.25.98-.5,1.97-.75,2.95-.09.34-.15.68-.26,1.02-.27.9-.36,1.87-.94,2.66-.17.24-.17.53-.16.81.02.46-.03.95-.24,1.34-.4.73-.51,1.53-.68,2.31-.12.59-.3,1.15-.47,1.72-.17.57-.47,1.1-.46,1.72,0,.19-.15.31-.24.45-.49.74-.67,1.54-.46,2.41.11.47.05.92-.14,1.34-.29.64-.59,1.26-.52,2.01.02.22-.15.46-.25.68-.44.92-.81,1.86-1.03,2.86-.15.66,0,1.17.5,1.6.24.21.48.41.71.62.46.42.99.55,1.55.25.4-.22.79-.24,1.22-.13.37.1.69-.03.97-.28.16-.14.31-.28.45-.44.46-.53,1.04-.82,1.74-.87.55-.04,1.02-.26,1.39-.66.22-.24.47-.41.79-.49.31-.07.58-.24.85-.4.27-.16.56-.29.86-.38.84-.27,1.64-.59,2.29-1.23.32-.31.75-.51,1.14-.74.66-.39,1.29-.81,1.87-1.35.6-.57,1.29-1.1,2.07-1.42.44-.18.82-.4,1.11-.75.35-.42.76-.73,1.29-.86.48-.12.79-.42,1.04-.83.11-.18.22-.38.38-.49.73-.48,1.51-.89,2.2-1.44.11-.09.32.05.3.18-.02.17-.03.36-.11.5-.42.66-.37,1.34-.15,2.03.13.41.23.84.14,1.24-.33,1.44.18,2.87-.04,4.3.17.85,0,1.67-.23,2.49-.09.31-.13.62-.04.93.18.61.16,1.24.23,1.87.11,1.07.01,2.09-.37,3.09-.1.25-.11.55-.1.83.04,1.16.07,2.32.18,3.47.07.75.05,1.46-.19,2.18-.19.57-.22,1.15-.13,1.76.13.86.27,1.74-.07,2.6-.15.37-.11.76,0,1.14.12.44.24.88.4,1.31.14.37.22.75.21,1.13-.02.77-.07,1.54.22,2.28.05.12,0,.28,0,.42,0,.91,0,1.82.02,2.74.02.95-.1,1.89-.14,2.83-.05,1.15-.11,2.29-.05,3.45.06,1.14.11,2.31-.05,3.46-.09.66-.04,1.33-.26,1.97.19.92-.11,1.81-.16,2.72-.11,1.96-.12,3.93-.5,5.87-.01.07-.02.14-.01.21.02.52.18.97.66,1.24.54.29,1.1.31,1.59-.07.65-.49,1.24-1.05,1.3-1.95.02-.28.07-.57.26-.79.35-.42.55-.88.58-1.43,0-.2.14-.39.23-.58.14-.29.26-.58.28-.9.03-.68.34-1.29.5-1.93.08-.33.26-.65.3-1,.04-.46.2-.88.41-1.3.39-.79.64-1.63.83-2.49.22-.99.49-1.98,1.07-2.83.25-.36.37-.76.4-1.18.03-.54.15-1.04.42-1.51.09-.15.15-.32.18-.49.16-1.12.54-2.16,1.08-3.17.35-.66.32-1.49.69-2.17-.07-.86.47-1.53.76-2.26.18-.46.42-.87.37-1.39-.03-.32.06-.64.3-.87.36-.34.46-.77.49-1.24.02-.28.1-.55.15-.82.18-1.01.64-1.93.96-2.89.25-.76.43-1.56.97-2.2.08-.1.15-.27.13-.39-.1-.69.19-1.31.3-1.96.15-.98.47-1.9.76-2.83.36-1.17.84-2.31.93-3.55.03-.4.19-.76.42-1.07.58-.8.76-1.72.84-2.67.06-.77.13-1.54.54-2.23.12-.21.15-.46.23-.7.24-.77.32-1.58.65-2.33.07-.16.09-.34.09-.51-.02-.93.38-1.77.62-2.63.12-.41.28-.79.26-1.22-.04-.81.26-1.52.66-2.18.31-.53.51-1.07.53-1.69.01-.32,0-.65.2-.91.46-.61.6-1.34.76-2.06.12-.56.3-1.09.63-1.54.29-.4.39-.79.33-1.28-.04-.34.02-.7.03-1.05,0-.25,0-.49.11-.72.22-.44.41-.9.67-1.31.24-.39.48-.77.54-1.24.04-.3.22-.52.43-.7.87-.76,1.33-1.7,1.32-2.86,0-.17.04-.35.04-.52.05-1.36.43-2.63,1.01-3.84.25-.52.47-1,.44-1.59-.02-.35.07-.71.27-1,.41-.56.56-1.2.71-1.85.11-.48.29-.93.54-1.36.36-.63.91-1.17.95-1.96,0-.12.16-.23.2-.36.19-.53.59-1,.59-1.56,0-.81.19-1.6.23-2.4.07-1.32.62-2.5.99-3.73.15-.5.33-.99.43-1.51.11-.65.08-1.33.52-1.9.09-.12-.04-.28-.19-.31-.13-.03-.28-.03-.41,0-.51.15-1.03.2-1.56.16-.47-.03-.91.08-1.3.34-.48.32-.99.51-1.56.58-.4.05-.75.2-1,.52-.28.35-.66.52-1.09.58-.33.04-.61.17-.85.39-.48.44-1.08.65-1.67.87-.49.19-.96.42-1.43.66-.87.44-1.76.85-2.67,1.19-.44.16-.83.33-1.15.68-.48.54-1.09.86-1.8,1.02-.68.15-1.26.6-1.97.7-.09.01-.18.11-.25.18-.56.55-1.24.91-1.97,1.17-.31.11-.57.26-.78.51-.23.27-.49.5-.79.57-.16.06-.26.1-.36.14-.31.1-.47,0-.47-.34.01-.67.04-1.33.2-1.99.17-.72.33-1.43.23-2.19-.06-.4.08-.78.42-1.02.25-.18.38-.39.46-.67.13-.41.2-.84.15-1.25-.06-.46,0-.89.05-1.34.12-1.16.3-2.29.75-3.37.25-.61.32-1.21.21-1.85-.04-.24-.04-.49-.09-.73-.04-.22-.03-.41.09-.6.32-.51.31-1.04.21-1.62-.1-.54-.18-1.12.09-1.66.3-.6.54-1.21.43-1.91-.03-.19.1-.4.17-.6.24-.64.32-1.29.23-1.97-.05-.36-.03-.7.03-1.05.09-.45.09-.9.06-1.36-.04-.63,0-1.26.3-1.85.11-.21.15-.47.17-.71.03-.5.13-.97.33-1.43.07-.16.13-.34.13-.51-.02-.68.21-1.31.3-1.96.15-1.16.71-2.2.84-3.35.35-.54.3-1.14.25-1.74-.05-.64.07-1.24.36-1.83.35-.73.55-1.5.62-2.32.08-.83.18-1.7.5-2.46.27-.65.48-1.31.64-1.99.23-.96.43-1.92.45-2.9,0-.17.01-.36.08-.51.28-.61.52-1.22.45-1.92-.01-.12.09-.26.16-.38.24-.38.26-.78.19-1.22-.05-.31-.04-.63-.04-.94,0-.59-.21-1.1-.55-1.56-.3-.41-.74-.53-1.22-.34-.16.06-.3.18-.46.25-.62.25-1.13.72-1.78.88-.32.08-.6.18-.84.4-.19.17-.41.25-.65.33-.27.08-.55.16-.77.32-.68.51-1.53.71-2.15,1.32-.14.14-.37.19-.56.28-.33.14-.62.32-.9.53-.78.59-1.53,1.24-2.5,1.52-.24.07-.44.24-.55.47-.34.72-.96.99-1.68,1.1-.35.05-.55.24-.76.5-.26.33-.5.71-.92.84-.43.13-.73.4-1.03.7-.3.31-.65.56-1.07.62-.42.06-.72.29-.94.61-.29.43-.68.69-1.18.81-.27.07-.51.22-.77.33-.5.21-.95.46-1.12,1.03-.03.1-.13.18-.24.16-.11-.02-.18-.11-.18-.22-.02-.53-.05-1.05.18-1.55.47-1,.68-2.05.65-3.16-.01-.49.05-.98.05-1.47,0-.25,0-.5.13-.71.17-.28.18-.59.22-.91.04-.38.12-.76.22-1.14.4-1.49.75-2.98.8-4.53,0-.25.13-.47.24-.69.44-.85.62-1.74.59-2.67.04,0,.07,0,.11.01.37.07.72.02,1.06-.14.72-.34,1.59-.52,2.15-1.03.8-.73,1.57-.51,2.4-.36,1.36.25,2.8.36,3.98,1.08.95.57,1.83.72,2.89.66,1.38-.09,2.75-.21,4.13-.37,1.29-.16,2.65-.26,3.88.15,1.45.47,2.72.2,4.02-.35.4-.17.75-.51,1.21-.43,1.43.25,2.91-.13,4.31.52,1.21.57,2.27.05,3.26-.65.31-.22.55-.51.6-.88.13-1.01.42-2.06.26-3.02-.29-1.74-.02-3.5-.37-5.23-.2-.95-.08-1.8.49-2.69.61-.96.93-2.06.77-3.32-.15-1.14.07-2.32.12-3.49.02-.36.09-.75,0-1.08-.67-2.32-.36-4.63.07-6.92.2-1.05.18-2-.25-2.98-.58-1.3-.67-2.65-.43-4.07.2-1.14.13-2.3.04-3.47-.11-1.49-.17-3,.18-4.53.56-2.4.89-4.81-.15-7.27-.7-1.66-1.02-3.51.07-5.26.18-.29.12-.72.25-1.06.49-1.36.45-2.85,1.18-4.17.48-.87.65-1.92.91-2.9.12-.43.13-.98-.31-1.19Z"/>
      </g>
    </g>
  </g>
</svg>