<?xml version="1.0" encoding="UTF-8"?>
<svg xmlns="http://www.w3.org/2000/svg" viewBox="0 0 750 500">
  <defs>
    <style>
      .cls-1, .cls-2 {
        fill: #fff;
      }

      .cls-3 {
        fill: #61b1eb;
      }

      .cls-4 {
        fill: #de6acc;
      }

      .cls-4, .cls-5, .cls-2 {
        mix-blend-mode: multiply;
      }

      .cls-5 {
        fill: #ffd731;
      }

      .cls-6 {
        isolation: isolate;
      }
    </style>
  </defs>
  <g class="cls-6">
    <g id="BACKGROUND">
      <rect class="cls-1" y="-.18" width="750" height="500.36"/>
    </g>
    <g id="OBJECTS">
      <g>
        <g>
          <path class="cls-5" d="m279.63,66.76c1.2.2,2.26-.18,3.36-.67,1.61-.72,3.2-1.58,5.08-1.52.82.03,1.52-.48,2.13-1.04,2.22-2.03,4.88-2.95,7.84-2.8,1.07.05,1.94-.05,2.64-.91.36-.45.9-.54,1.43-.65.61-.13,1.27-.22,1.78-.53,1.33-.8,2.84-.16,4.2-.61.14-.05.39.03.5.14,1.59,1.61,3.22.29,4.76-.04.93-.2,1.84-.6,2.83-.69.62-.06,1.24-.22,1.83-.43,3.28-1.14,5.55-1.49,9.37-1.76,1.18-.08,2.27-.2,3.37.31.31.14.73.18,1.06.09,2.01-.54,3.86.31,5.76.64,1.33.23,2.65.4,4,.38.45,0,.93.07,1.34-.07,2.6-.94,5.24-.74,7.9-.39.34.04.78.07,1.04-.11,1.86-1.29,3.83-.3,5.72-.24.97.03,1.92.88,2.68,1.67.38.4.84.78,1.39.71,1.59-.19,3.24.37,4.78-.33,1.28-.59,2.44-.4,3.54.41,1.1.82,2.21,1.07,3.49.35.53-.29,1.25-.24,1.79-.53.81-.43,1.39-.44,2.19.14,1.06.75,2.5.71,3.61,1.54.47.36,1.22.04,1.82-.17.77-.26,1.34-.03,1.93.52,2.16,2.02,4.88,2.71,7.68,2.57,1.75-.09,3.14.49,4.55,1.2.95.48,1.82,1.14,2.69,1.77,1.17.86,2.31,1.71,3.91,1.3.44-.11.87.15,1.23.44.72.59,1.5.94,2.46.93.57,0,1.02.36,1.34.8,1.22,1.68,3,2.82,4.32,4.41.55.66,1.23,1.05,2.08,1.1.81.05,1.58.16,2.3.63.94.61,1.99.79,3.1.53.75-.18,1.38.07,2.03.44,1.78,1.02,3.49,2.15,5.07,3.46.33.28.67.62.85,1,.32.7.77,1.18,1.51,1.42.54.17.95.53,1.15,1.06.39,1.04,1.26,1.47,2.22,1.78,1.03.32,2.04.72,3.1.9,1.98.35,3.38,1.48,4.6,2.96,1.08,1.31,2.21,2.58,3.28,3.9.46.57.98,1.04,1.6,1.42.4.24.81.42,1.26.17.79-.44,1.54-.32,2.31.07.4.2.84.37,1.27.42,1.4.17,2.47.89,3.49,1.82,2.47,2.25,4.44,4.87,5.96,7.83.28.55.53,1.16.6,1.77.16,1.46.95,2.52,2.08,3.32,1.79,1.25,3.25,2.76,4.5,4.56.91,1.31,2.23,2.29,3.06,3.72.45.78,1.48,1.24,2.28,1.81.66.47,1.34.91,2.04,1.3.98.54,1.65,1.29,2.15,2.31.97,1.97,2.52,3.4,4.58,4.23.24.1.65.24.66.38.04,1.44,1.61,2.18,1.62,3.58.02,1.32.66,2.15,1.8,2.76.54.29.97.79,1.42,1.22.6.57,1.1,1.2,1.05,2.09-.06,1.06.42,1.93,1.07,2.69.72.84,1.08,1.84,1.5,2.83.84,1.98,1.64,4,3.66,5.18.35.2.69.65.78,1.05.39,1.65,1.46,3.1,1.4,4.88-.02.73.33,1.41.71,2.01.89,1.42,1.18,3.23,2.74,4.21,1.05,2.54,2.82,4.73,3.31,7.56.44,2.56,1.36,4.96,3.21,6.95,1.44,1.55,1.89,3.6,2.4,5.59.07.26-.04.6.1.79,1.24,1.72,1.21,3.91,2.12,5.7.69,1.36.87,2.73.97,4.11.12,1.63.47,3.19.73,4.78.26,1.59.61,3.16.87,4.75.08.52.05,1.08-.05,1.59-.44,2.3.63,4.07,2.19,5.45.77.67,1.02,1.11.64,1.98-.04.08-.09.2-.05.26,1.09,1.9-.47,3.6-.44,5.42,0,.34-.08.78-.29,1.02-1.29,1.39-.92,2.99-.62,4.57.19.99.1,1.87-.18,2.87-.36,1.26-.39,2.67.75,3.75.77.73.58,2.12,1.77,2.6.15.06.19.48.24.73.04.26-.05.57.05.8.91,2.02.41,4-.07,6.01-.38,1.57-.64,3.16-.98,4.73-.21.98-.23,1.95-.13,2.94.08.8.1,1.6.15,2.4.02.27.03.54.07.8.12.79,1.29,1.14.93,2.1-.25.68-.54,1.31-.33,2.07.13.44-.01.9-.31,1.26-1.46,1.81-1.34,4.01-1.46,6.13-.11,1.96.01,3.89.44,5.85.44,2.04-.31,4.07-.96,6.02-.16.48-.63.86-.98,1.26-.86.95-1.4,2.08-1.89,3.24-.26.6-.27,1.18-.09,1.82.53,2.01.7,4.01-.25,5.98-.31.63-.47,1.37-.54,2.07-.09.8-.39,1.35-1.16,1.64-.64.24-1.06.73-1.12,1.4-.11,1.19-.75,2.02-1.72,2.59-1.45.86-1.9,2.15-1.55,3.68.49,2.14.19,4.29.08,6.41-.1,1.9-.05,3.95-1.44,5.6-.33.4-.56.94-.67,1.46-.3,1.35-.8,2.27-2.46,2.24-.94-.01-1.55.9-1.81,1.79-.3,1.02-.63,2.03-.58,3.15.1,1.94-.31,3.74-1.88,5.1-.62.54-.99,1.28-1.28,2.03-.77,1.98-1.94,3.59-3.85,4.65-.77.43-1.38,1.14-2.06,1.71-.35.3-.65.65-.71,1.11-.13,1.12-.88,1.95-1.29,2.94-.45,1.09-1,2.08-1.86,2.92-.93.91-1.42,2.1-1.4,3.4.05,2.46-1.2,4.46-2.19,6.55-.24.5-.59.9-1.07,1.17-1.13.62-1.93,1.58-2.69,2.59-.37.49-.81.97-1.32,1.32-.98.66-1.85,1.43-2.61,2.31-.43.5-.92.88-1.6.83-.73-.05-1.15.29-1.51.88-.51.84-1.21,1.58-1.64,2.45-.77,1.54-2,2.52-3.52,3.14-.96.39-1.55,1.03-2.16,1.87-1.26,1.7-2.59,3.39-4.36,4.65-.58.41-1.12.9-1.57,1.45-2.14,2.57-4.7,4.65-7.38,6.6-.73.53-1.44,1.12-1.68,2.04-.25.96-1.02,1.36-1.67,1.97-1.59,1.5-3.22,2.82-5.47,3.1-1.74,1.35-3.82,2.14-5.23,4.09-1.32,1.81-3.04,3.53-5.55,3.94-1.16.19-2.19.71-3.13,1.46-.62.49-1.42.75-2.1,1.17-1.06.64-2.09,1.28-3.06,2.11-1.79,1.53-3.5,3.39-6.1,3.62-2.62,1.47-5.49,2.07-8.44,2.43-2.41.29-4.33,1.74-6.16,3.15-2.2,1.69-4.48,2.91-7.28,3.11-.61.04-1.2.33-1.79.55-1.18.43-2.33.88-3.6,1.04-.86.11-1.74.49-2.49.95-1.34.82-2.78,1.19-4.3,1.27-1.01.05-2,.22-2.86.65-1.34.67-2.73.8-4.17.87-1.53.07-3.02.4-4.49.82-.86.25-1.73.53-2.4,1.16-1.14,1.07-2.53,1.27-4,1.16-1.07-.08-2.17-.06-3.19-.34-1.91-.52-3.72-.27-5.51.36-.54.19-1.06.31-1.54-.02-1.82-1.22-3.89-.84-5.74-.48-2.72.53-5.49.68-8.19,1.25-.64.13-1.27.09-1.85-.15-1.61-.65-3.36-.54-5.02-.91-.45-.1-.92-.14-1.31.12-.67.45-1.31.18-2.02.14-2.16-.11-4.43-.98-6.43.63-.31.25-.69.27-1.01.1-.66-.35-1.31-.51-2.07-.35-.46.1-.86-.15-1.22-.45-1.12-.93-2.48-1.44-3.75-2.08-2.28-1.15-4.68-1.57-7.24-1.72-2.83-.17-5.73-.12-8.46-1.19-1.02-.4-2.12-.4-3.19-.32-1.2.09-2.31-.16-3.41-.59-.67-.26-1.34-.52-2.04-.68-1.63-.37-3.07-.96-3.83-2.62-.23-.5-.74-.76-1.3-.86-.79-.14-1.58-.3-2.38-.43-.26-.04-.55.04-.8,0-1.31-.27-2.37-1.32-3.79-1.25-1.4.06-2.62-.46-3.83-1.09-.55-.28-1.18-.45-1.79-.54-1.01-.16-1.9-.61-2.68-1.18-.71-.51-1.23-1.25-2.22-1.32-.46-.03-.72-.5-.97-.87-.73-1.08-1.72-1.8-2.97-2.19-.42-.13-.86-.33-1.16-.63-.62-.61-1.37-.83-2.17-.98-1.75-.33-3.46-.93-5.3-.79-1.28.1-2.38-.72-3.62-.92-.23-.04-.51-.25-.63-.46-1.56-2.69-4.21-3.75-6.94-4.67-.82-.27-1.31-.89-1.94-1.39-2.02-1.59-3.69-3.66-6.18-4.63-.44-.17-.74-.5-.9-.94-.64-1.78-2.04-2.92-3.48-3.98-1.09-.8-2.09-1.66-3.03-2.63-1.43-1.49-3.06-2.75-4.97-3.6-.32-.14-.67-.3-.92-.55-1.37-1.36-3.06-2.15-4.83-2.79-.52-.19-1-.41-1.36-.83-.42-.48-.9-.89-1.51-1.09-1.58-.53-2.49-1.68-3.09-3.16-.4-.98-.86-1.78-1.9-2.43-1.05-.66-1.67-2.02-2.42-3.11-1.17-1.69-2.33-3.37-4.14-4.46-.51-.31-.79-.76-.57-1.35.31-.82-.01-1.28-.69-1.78-2.33-1.76-3.82-4.21-5.21-6.71-.48-.86-.84-1.79-1.36-2.62-.74-1.16-1.25-2.37-1.35-3.75-.09-1.15-.59-2.05-1.65-2.6-.56-.29-1.04-.7-1.35-1.27-.52-.99-1.32-1.69-2.3-2.19-1.16-.6-1.85-1.71-2.62-2.67-1.06-1.31-2.12-2.66-2.8-4.25-.28-.66-.6-1.28-.68-2.01-.25-2.3-1.18-4.32-2.74-6.01-1.3-1.41-2-3.18-3.02-4.75-.43-.66-.68-1.44-1.17-2.1-.26-.35-.48-.8-.52-1.22-.13-1.45-.45-2.83-1.14-4.12-.22-.41-.23-.91.08-1.28.68-.8.36-1.46-.13-2.18-.75-1.11-1.41-2.26-2.03-3.46-.99-1.93-.71-4-1.01-6-.22-1.53-.4-2.95-1.53-4.19-.85-.94-.71-2.35-.92-3.55-.36-2.02-.44-4.08-1.28-6.02-.42-.98-.29-2.1-.66-3.14-.54-1.51-.81-3.09-1.84-4.43-.72-.94-.87-2.15-.63-3.35.29-1.44.12-2.74-.4-4.18-.59-1.64-.95-3.46-.62-5.28.17-.92.04-1.77-.31-2.63-.81-1.97-.93-3.95-.28-6.03.66-2.1.75-4.24-.7-6.16-.34-.45-.31-1.02-.26-1.56.33-3.06-.15-6.07-.51-9.09-.08-.63-.12-1.25.08-1.86.57-1.79,1.08-3.6,1.75-5.35.49-1.28.72-2.4-.49-3.4-.17-.14-.31-.57-.22-.71.58-.9.54-1.79.33-2.79-.09-.44.24-1.05.53-1.48.83-1.24.79-2.52.38-3.87-.39-1.29-.56-2.62-.62-3.98-.05-1.02.05-2.01.53-2.87,1.58-2.83,2.31-6,3.61-8.94.97-2.21,1.92-4.44,1.8-6.94.69-1.47.57-3.14,1.23-4.63.64-1.43.55-3,.17-4.5-.24-.95-.24-1.75.58-2.42.46-.38.63-.95.42-1.46-.62-1.51.24-3.02-.11-4.53-.13-.57.28-1,.65-1.41,1.42-1.59,2.1-3.49,2.23-5.59.03-.47.08-.94.48-1.2,1.02-.65,1.71-1.55,2.22-2.63.14-.3.45-.57.74-.76.67-.42.89-1.07,1.08-1.78.48-1.81,1.44-3.49,1.22-5.47-.06-.57.28-1.05.87-1.2,1.52-.38,2.34-1.43,3.1-2.74,1.12-1.93,2.66-3.6,3.53-5.7.15-.37.6-.69.98-.86.98-.44,1.29-1.06,1.06-2.14-.39-1.78.41-3.53.33-5.32-.01-.23.18-.5.35-.7,1.05-1.21,2.01-2.53,3.2-3.58,1.4-1.23,2.31-2.74,3.03-4.37.38-.86.8-1.55,1.57-2.09.66-.46,1.34-.97,1.79-1.62.63-.89,1.25-1.43,2.42-1.2.58.11.98-.44,1.2-.93,1.39-3.12,3.8-5.57,5.57-8.45.9-1.45,1.92-3.04,3.9-3.48.81-.18,1.35-.89,1.71-1.63.45-.94,1.02-1.64,2.1-1.89.93-.21,1.52-.91,1.92-1.75.23-.49.45-.98.71-1.45.83-1.48,1.57-3.03,3.32-3.72.66-.26,1.2-.83,1.52-1.48.64-1.28,1.8-2,2.9-2.74,1.18-.8,2.48-1.41,3.46-2.51.49-.55,1.25-.76,1.98-.71,2.43.17,4.05-1.14,5.4-2.91.36-.47.71-.84,1.3-.73.78.14,1.35-.39,2.01-.55,1.5-.35,2.18-1.38,2.84-2.61,1.38-2.56,3.61-4.16,6.29-5.11,1.02-.37,2.01-.7,2.88-1.38.56-.43,1.2-.79,1.86-1.06,3.22-1.35,6.43-2.7,9.43-4.5.93-.56,1.87-1.06,2.98-1.14.93-.06,1.75-.36,2.3-1.19.26-.39.68-.57,1.15-.59.54-.03,1.1-.06,1.48-.51.57-.66,1.31-.87,2.15-.94.52-.05,1.08-.17,1.53-.43.84-.47,1.69-.57,2.6-.36Zm153.53,282.59c1.75.14,2.5-.28,3.19-1.78.37-.81.67-1.66,1.06-2.47.96-2.02,2.27-3.59,4.65-4.05,1.71-.33,3.02-1.52,3.42-3.12.41-1.6,1.18-2.72,2.42-3.68.34-.26.55-.7.81-1.07.32-.45.72-.83,1.24-1,1.39-.45,2.72-.93,3.29-2.48.08-.21.38-.42.61-.48,1.29-.37,1.75-1.45,2.25-2.51.34-.73.77-1.4,1.24-2.07,1.11-1.61,2.14-3.28,3.12-4.97.77-1.31,1.11-2.83,2.02-4.09.38-.52.48-1.2.17-1.8-.48-.92-.21-1.52.64-1.99.33-.18.45-.55.44-.92-.02-.83.44-1.3,1.13-1.68,1.5-.81,2.4-2.43,4.07-3.04.22-.08.44-.35.53-.59.87-2.2,2.54-3.89,3.7-5.9.54-.95,1.15-1.8.5-2.98-.17-.31.03-.87.15-1.29.28-.94.59-1.88.96-2.8.34-.85.48-1.69.4-2.62-.18-2.08.29-4.09.87-6.07.38-1.28.77-2.55,1.89-3.48.88-.73,1.14-1.83.91-2.95-.19-.92-.03-1.71.33-2.59.65-1.56,1.26-3.18.38-4.91-.17-.34-.02-.87.06-1.3.16-.88.39-1.75.56-2.62.1-.53.22-1.04.62-1.45,1.67-1.72,2.16-3.91,2.19-6.18.02-1.56.34-3,.84-4.44.26-.76.38-1.56.57-2.34.21-.83.11-1.56-.39-2.3-.87-1.29-.77-2.72-.45-4.15.24-1.07.74-2,1.36-2.9.81-1.16,1.02-2.51.66-3.85-.5-1.86-1.17-3.68-.46-5.64.08-.23,0-.53-.02-.8-.2-2.3,0-4.62-.51-6.91-.28-1.25.38-2.7-.78-3.8-.1-.09-.11-.37-.05-.52.5-1.28.13-2.39-.44-3.58-.32-.67,0-1.62-.21-2.37-.34-1.21-.9-2.42-.64-3.66.28-1.32-.56-2.37-.55-3.66.02-1.59-.1-3.22-.25-4.82-.18-1.89-.43-3.77-2.26-4.93-.56-.35-.78-.95-.94-1.58-.18-.69-.52-1.35-.66-2.04-.4-2.06-1.18-4.11.23-6.17.76-1.11.22-2.25-.62-3.18-.3-.33-.7-.56-1.03-.85-1.48-1.3-2.78-2.62-3.46-4.63-.65-1.93-1.73-3.72-2.33-5.7-.12-.4-.51-.73-.82-1.05-.78-.81-1.16-1.77-1.3-2.88-.24-1.94-.38-3.92-1.96-5.4-.29-.28-.32-.83-.51-1.23-.58-1.24-1.23-2.4-2.86-2.46-.57-.02-.91-.5-1.24-.94-.43-.57-.82-1.21-1.37-1.64-1.18-.92-1.47-2.2-1.66-3.54-.06-.44.05-.9-.02-1.34-.22-1.41-.22-2.93-1.26-4.04-1.25-1.33-2.16-2.84-2.89-4.49-.26-.58-.67-1.1-1.3-1.3-2.33-.77-3.85-2.47-5.17-4.41-.2-.29-.41-.59-.68-.82-1.57-1.32-2.93-2.84-4.77-3.89-2.19-1.24-3.76-3.2-3.7-5.87.04-1.81-.81-2.8-2.17-3.69-.92-.6-1.88-1.03-2.95-1.25-.97-.21-1.85-.5-2.49-1.41-.72-1.02-1.82-1.42-3.08-1.24-.67.09-1.21-.11-1.71-.58-.38-.36-.91-.57-1.31-.92-1.83-1.58-3.8-3.04-5.39-4.83-1.59-1.8-2.98-3.76-4.98-5.16-.2-.14-.24-.49-.42-.68-.48-.53-.94-1.1-1.51-1.52-.86-.64-1.84-1.1-2.7-1.74-.91-.67-1.91-1.05-3-1.02-1.56.03-3-.48-4.49-.77-1.02-.19-1.83-.69-2.5-1.45-.41-.47-.84-.93-1.23-1.42-.75-.95-1.65-1.63-2.87-1.86-.7-.13-1.39-.36-2.1-.44-.84-.09-1.53-.4-2.14-.99-1.12-1.09-2.52-1.61-3.96-2.17-1.71-.66-3.2-1.85-5.03-2.29-.23-.06-.46-.3-.61-.51-.69-.95-1.65-.98-2.66-.81-.62.1-1.21.25-1.85.01-1.9-.71-3.77-.71-5.75-.05-1.98.66-4.2.77-6.07-.08-1.79-.81-3.64-1.47-5.43-2.27-1.91-.87-4.03-.77-5.98-1.45-.54-.19-1.28-.07-1.85.14-2.74,1-5.47-.61-8.19,0-.15.03-.34-.1-.5-.17-2.65-1.02-5.29-.62-7.82.33-1.28.48-2.53.96-3.88.91-3.45-.12-6.94-.73-10.19,1.09-.34.19-.88-.03-1.32.04-2.02.3-4.08-.21-6.08.39-1.62.49-3.26.66-4.97.37-1.08-.18-2.16-.02-2.8,1.12-.27.49-.75.77-1.28.92-.7.2-1.35.52-1.87,1.02-.61.59-1.29.93-2.16.9-.34-.01-.76.08-1,.29-.85.72-1.8.6-2.8.56-1.27-.05-2.49-.32-3.72-.57-.52-.11-1.18-.38-1.57-.18-1.68.89-4.03.49-5.11,2.59-.11.21-.41.42-.64.44-1.65.16-2.76,1.17-3.8,2.32-.38.42-.85.65-1.43.57-2.4-.36-4.19.82-5.69,2.43-1.11,1.2-2.44,1.76-3.94,2.09-.79.17-1.58.41-2.37.46-1.54.09-2.7.81-3.78,1.83-1.39,1.31-3.02,2.37-4.8,2.91-1.7.52-2.47,1.64-3.1,3.07-.22.49-.27,1.19-.64,1.44-1.32.9-2.38,2.17-3.93,2.75-1.8.68-3.36,1.65-4.16,3.53-.13.32-.35.73-.63.83-1.21.44-2,1.65-3.12,2-2.13.66-2.97,2.77-4.76,3.73-1.34,1.98-3.33,3.14-5.35,4.27-1.09.61-2.27,1.21-2.77,2.45-.5,1.24-1.36,2.08-2.46,2.75-.7.43-1.42.94-1.61,1.74-.43,1.82-1.75,3.09-2.63,4.63-.55.95-1.19,1.75-2.2,2.28-.62.32-1.34.79-1.6,1.38-.57,1.33-1.67,2.07-2.68,2.93-1.15.97-1.94,2.1-1.76,3.7.21,1.81.02,3.52-1.25,4.97-.23,1.5-1.21,2.55-2.09,3.69-.83,1.06-1.51,2.22-2.26,3.34-.35.52-.63,1.11-1.07,1.54-1.88,1.82-2.73,4.37-4.49,6.27-.12.13-.22.3-.26.47-.49,2.21-2.13,3.87-2.81,6.01-1.05,3.32-2.36,6.52-1.9,10.17.23,1.84-.2,3.74-1.63,5.2-.57.58-1.07,1.28-1.18,2.08-.17,1.24-.73,2.43-.54,3.7.12.8-.16,1.38-.74,1.9-.65.57-.92,1.3-.86,2.17.06.96-.27,1.96.39,2.87.33.45.16,1.03.12,1.57-.05.53-.16,1.15.06,1.58.7,1.36.35,2.58-.15,3.87-1.01,2.63-1.42,5.36-.99,8.18.07.45.27.95-.02,1.3-.95,1.14-1.06,2.68-1.87,3.83-1.1,1.57-.78,3.01,0,4.47.61,1.13,1.14,2.38.95,3.59-.29,1.81-.13,3.55-.05,5.34.05,1.13.16,2.34-.38,3.44-.41.83-.19,1.55.44,2.2,1.23,1.27,1.37,2.85,1.27,4.51-.06,1-.35,1.94-.69,2.87-.26.7-.37,1.39.11,2.05,1.35,1.88,2.05,3.9,1.81,6.27-.13,1.3.44,2.63-.03,3.98-.29.82.31,1.52.66,2.25.45.95,1.6,1.23,1.99,2.13.43.97.1,2.16.76,3.09.63.9.59,1.86.28,2.83-.31.97-.41,1.91.06,2.87.15.3.2.71.15,1.05-.17,1.13.39,1.88,1.2,2.53,2.11,1.73,3.76,3.77,4.77,6.35.44,1.12.83,2.15.47,3.35-.12.42-.04.89-.13,1.33-.2,1.03.05,1.88.64,2.77,2.1,3.21,3.43,6.85,5.44,10.12.09.15.17.34.17.5-.03,1.34.97,2.29,1.29,3.5.24.92,1.26,1.23,1.55,2.15.47,1.55,1.63,2.52,3.08,3.14.42.18.85.34,1.07.76.47.9,1.23,1.53,1.93,2.23.59.59.89,1.28,1,2.13.21,1.5.58,2.97.87,4.46.15.75.54,1.29,1.18,1.71,1.06.69,1.78,1.77,2.71,2.59,1.02.89,2.11,1.65,2.1,3.18,0,.07.09.16.15.21,1.03.87,1.63,2.15,2.8,2.89.76.49,1.28,1.22,1.89,1.87,1.17,1.25,1.78,3.15,3.78,3.52.08.01.14.11.21.16,2.13,1.77,3.68,4.14,6,5.71.07.05.14.13.16.21.42,1.62,1.43,2.36,3.12,2.24.29-.02.6.36.91.53.39.21.8.52,1.21.54,1.58.09,2.61,1.03,3.61,2.1.55.59,1.15,1.14,1.8,1.61.89.65,1.58,1.4,2.01,2.45.41.99.91,2,1.85,2.6,1.35.85,2.49,2.08,4.17,2.38.42.08.88.29,1.2.58,1.11,1,2.47,1.44,3.84,1.85.7.21,1.34.5,1.87,1.01,1.99,1.91,4.42,3,7.03,3.77.42.12.92.28,1.16.6.73.96,1.76,1.18,2.82,1.39,2.02.41,4.06.73,6.05,1.24,1.81.46,3.58,1.1,5.35,1.73.39.14.72.53.99.87.59.77,1.35,1.14,2.3,1.2.71.05,1.44.06,2.13.21,1.66.36,3.45-.03,5.01.8.85.45,1.69.55,2.6.41.72-.12,1.42-.04,2.14.07,1.15.18,2.3.38,3.48.2.7-.11,1.25.15,1.48.86.43,1.34,1.5,1.71,2.74,1.72.89,0,1.8-.05,2.67-.21.75-.13,1.43-.21,1.94.47.47.63,1.16.8,1.87.95,1.68.35,3.37.36,5.08.31,2.01-.06,3.96-.01,5.8,1.28,1.47,1.03,3.31,1.31,5.06.12.73-.5,1.59-.8,2.23-1.46.79-.82,1.78-1.03,2.94-1.03,1.53,0,3.04.09,4.55.23,3.82.34,7.65,1.07,11.47-.05.17-.05.36-.02.54-.03,2.57-.22,5.14-.43,7.7-.68.52-.05,1.06-.2,1.54-.42.67-.3,1.36-.39,2.06-.54,1.74-.38,3.57-.48,5.19-1.31,1.12-.57,2.24-1.12,3.47-1.42.59-.15,1.24-.41,1.67-.82,1.23-1.15,2.73-1.21,4.25-1.27.98-.04,1.97.02,2.96.1,1.08.09,1.8-.3,2.54-1.13,1.16-1.3,2.52-2.35,4.29-2.93,2.18-.72,4.48-1.21,6.43-2.51,1.47-.98,2.89-2,4.16-3.29,1.9-1.92,4.17-3.39,7.09-3.05.84.1,1.65.18,2.35-.24,1.91-1.17,3.84-2.37,4.72-4.59.34-.86.83-1.59,1.48-2.21,1.87-1.8,3.76-3.59,5.67-5.34,1.32-1.2,2.9-1.72,4.68-1.56Z"/>
          <path class="cls-3" d="m533.91,168.55c-1.18-.68-2.07-.73-2.97-.82-1.7-.17-3.37-.48-4.97-1.11-1.09-.43-2.19-.78-3.39-.73-.73.03-1.4-.2-2.04-.57-1.87-1.09-3.92-1.76-5.92-2.53-.33-.13-.7-.31-1.03-.27-1.62.19-2.99-.38-4.31-1.23-.88-.56-1.71-.46-2.77-.17-1.9.51-3.28,1.81-4.86,2.77-.71.43-1.28,1.17-2.15,1.41-.13,1.16-1.26,1.05-1.89,1.56-.96.78-1.95,1.15-3.13,1.28-.51.06-1.03.32-1.48.6-.9.54-1.6,1.27-2.85,1.3-.87.02-1.7.79-2.73.92-1.6.19-2.95,1.17-3.54,2.61-1.07,2.6-3.35,3.88-5.33,5.52-.43.35-.94.55-1.48.57-1.56.04-2.95.74-4.43,1.07-1.4.31-2.58,1.01-3.33,2.12-1.39,2.03-3.41,3.11-5.52,4.1-1.71.8-3.19,1.8-4.54,3.21-1.31,1.37-3.04,2.46-4.85,3.28-1.47.67-2.95,1.31-4.24,2.33-.5.4-1.1.62-1.74.65-1.24.06-2.34.62-3.11,1.43-1.34,1.4-3.06,1.89-4.78,2.27-1.26.28-2.31.94-3.49,1.37-.39.14-.75.49-1.03.82-.82.95-1.7,1.87-2.36,2.93-.98,1.57-7.49,5.24-9.14,5.73-1.46.43-2.95.73-4.42,1.1-2.18.54-13.33,7.17-14.56,9.07-.64.99-1.51,1.68-2.63,2.18-1.45.65-2.76,1.59-4.37,1.89-.25.05-.61.21-.67.39-.52,1.67-10.61,7.06-11.71,8.06-1.19,1.07-2.63,1.88-4.3,2.09-2.03.26-3.47,1.42-4.46,3.12-.48.82-1,1.43-1.98,1.64-.5.11-.94.49-1.42.72-1.61.79-3.27,1.34-5.09.92-.48-.11-.91-.06-1.27.23-1.57,1.26-3.46,1.77-5.32,2.39-1.53.52-8.14,5.02-9.6,5.7-1.39.64-2.74,1.31-4.32,1.39-.51.03-1.05.27-1.5.54-1.78,1.07-3.69,1.24-5.7.95-1.68-.24-3.4-.28-5.06-.63-2.16-.45-4-1.65-5.36-3.35-.76-.96-.95-2.33-.94-3.58,0-1.87-.05-3.77,1.31-5.36.59-.68.87-1.6.77-2.52-.17-1.7.73-2.91,1.75-4.06,1.13-1.28,2.3-2.51,3.43-3.78.77-.87,1.5-1.77,2.19-2.72.72-.99,1.71-1.8,2.66-2.6.3-.25.84-.27,1.27-.29.96-.04,1.75-.46,2.38-1.12,1.28-1.34,2.77-2.49,3.31-4.47.32-1.18,1.75-1.72,2.31-2.88.09-.18.47-.31.71-.3,1.14.05,2.09-.37,2.99-1.02.45-.33,6.13-4.18,6.67-4.18.72,0,1.44.05,2.15-.04,1.17-.14,2.26-.48,3.09-1.44,1.08-1.23,2.51-1.9,3.95-2.67,1.96-1.04,4.13-1.65,5.95-3.06,1.17-.91,2.74-1.31,4.14-1.89,1.46-.6,2.58-1.53,3.46-2.86.73-1.11,1.68-2.09,2.54-3.11.7-.82,10.02-6.16,11.02-6.18,1.26-.03,2.21-.4,2.87-1.59.46-.84,1.44-1.34,1.72-2.36.06-.2.37-.45.59-.47,1.57-.17,12.24-6.7,13.71-7.1,1.54-.41,2.72-1.34,3.74-2.51.47-.54,1-1.04,1.42-1.62,1.36-1.87,3.22-2.76,5.47-2.96.62-.05,6.29-3.1,6.91-3.19.64-.09,1.25-.32,1.67-.8.79-.9,1.79-1.45,2.83-1.99.7-.37,1.29-.95,1.9-1.47,1.23-1.06,2.5-1.91,4.16-2.3,2.32-.54,4.12-2.12,5.8-3.74.61-.59,1.16-.97,2.02-1.13,1.67-.33,3.21-1.05,4.52-2.19,2.93-2.53,6.23-4.49,9.56-6.42,1.02-.59,1.97-1.25,2.55-2.32.29-.53.75-.77,1.35-.65,3.12.64,5.02-1.28,6.88-3.27.85-2.3,3.07-2.95,4.97-3.75,1.44-.61,2.88-1.38,4.52-1.63.99-.15,1.81-1.13,2.39-2.02.25-.39.2-1.05.13-1.57-.27-1.95-.92-3.84-.85-5.84-1.38-2.09-.57-4.34-.47-6.53.06-1.17.16-2.31-.42-3.41-.53-.99-.57-2.07-.33-3.15.27-1.18.25-2.32-.31-3.41-.53-1.01-.6-2.05-.29-3.13.41-1.42.11-2.86.04-4.28-.08-1.53.53-2.61,1.65-3.46.78-.59,1.64-1.12,2.52-1.54,1.39-.66,2.62-1.52,3.81-2.49,1.87-1.52,3.67-3.17,6.06-3.89.17-.05.34-.14.47-.26,1.98-1.83,4.5-2.95,6.42-4.88,2.03-2.04,4.37-3.7,6.65-5.44,1.64-1.25,3.4-2.33,4.83-3.86.36-.38.83-.7,1.31-.91,1.17-.51,2.15-1.28,3.12-2.08.55-.45,1.16-.86,1.8-1.16,1.95-.9,3.74-2.12,5.79-2.83,1.4-.48,2.53-1.4,3.04-2.86.53-1.51,1.67-2.27,3.08-2.76,1.19-.41,2.36-.88,3.56-1.24,1.25-.38,2.31-1.04,3.11-2.02,1.33-1.63,3.09-2.72,4.77-3.9.66-.46,1.36-.85,1.83-1.55.87-1.32,2.16-2.16,3.58-2.73.87-.35,1.53-.86,2.08-1.61.93-1.26,2.1-2.21,3.72-2.46,1.03-.16,1.76-.82,2.52-1.46,1.53-1.27,3.14-2.39,5.24-2.53.87-.06,1.49-.62,1.94-1.31.7-1.07,1.75-1.49,2.94-1.68.35-.06.74-.03,1.06-.16,2.25-.86,4.04.19,5.73,1.42,2.05,1.48,2.9,4.81,1.71,7.02-.57,1.07-.88,2.16-1.03,3.31-.31,2.33-.8,4.59-1.86,6.71-.12.24-.27.5-.28.75-.14,3.11-1.57,6.03-1.31,9.23.14,1.68-.08,3.42-1.55,4.68-.5.42-.64,1.05-.7,1.7-.09,1.07-.35,2.14-.33,3.21.08,3.94-1.03,7.6-2.46,11.2-.3.77-.52,1.52-.48,2.34.05.91.43,1.36,1.3,1.37,1.34.02,2.68.01,4.02-.03,1.48-.05,2.79.15,3.92,1.29,1.19,1.2,2.82,1.88,4.02,3.12.91.93,2.19.96,3.3.8,1.78-.26,3.36.23,5,.7.9.26,1.7.57,2.22,1.38.63.99,1.53,1.49,2.69,1.53,1.02.03,1.91.39,2.76.94.83.53,1.72,1.01,2.72,1.11,1.26.12,2.21.76,2.96,1.68,1.09,1.33,2.6,2.03,4.13,2.37,1.42.31,2.53.9,3.41,1.94,1.19,1.41,2.67,2.12,4.47,2.1,3.45-.02,5.76,3.4,4.96,7.1-.35,1.59-1.28,2.75-2.71,3.49-.72.37-1.46.7-2.17,1.07-1.03.54-2.11.98-2.81,2.02-.23.35-.66.62-1.06.79-1.75.76-3.23,1.9-4.68,3.12-1.88,1.57-3.94,2.87-6.42,3.19-2.71.35-4.86,1.75-6.93,3.35-.57.44-1.07.94-1.8,1.13-.9.24-1.62.74-2.15,1.51-.54.77-1.31,1.25-2.17,1.52-1.31.42-2.41,1.18-3.49,1.98-2.11,1.56-4.6,2.39-6.93,3.5-1.62.77-3.25,1.43-4.64,2.64-.8.69-1.8,1.25-2.8,1.56-1.75.55-3.25,1.48-4.77,2.43-.99.62-2,1.15-3.23,1.23-1.29.08-2.36.88-3.41,1.52-1.63.99-3.37,1.69-5.15,2.27-1.16.37-2.12.94-2.94,1.79-1.64,1.7-3.5,3.01-5.75,3.87-1.32.5-2.47,1.44-3.69,2.19-.69.42-1.39.83-2.04,1.3-2.53,1.83-5.19,1.54-7.53.74Z"/>
          <path class="cls-5" d="m240.32,290.34c-.3-.94.06-2,.13-3.07.11-1.64-.29-3.09-1-4.63-1.33-2.91-3.06-5.64-4.07-8.71-.41-1.24-.75-2.61-1.87-3.52-.2-.16-.32-.43-.43-.67-.08-.16-.14-.35-.11-.52.24-1.52-.84-2.73-.98-4.13-.11-1.06.36-2.11.2-3.21-.05-.32.12-.71.28-1.01.89-1.68.53-3.51.66-5.28.03-.4-.18-1-.48-1.2-1.15-.77-.92-1.67-.7-2.81.23-1.2.14-2.44-.43-3.67-.56-1.21-.91-2.52-1.35-3.79-.44-1.24-.65-2.6-.67-3.92-.01-.91-.32-1.77-.32-2.6,0-2.11.35-4.22.56-6.33,1.14-.91.39-2.42,1.1-3.49.74-1.12.47-2.42.53-3.67.04-.98.34-1.95.35-2.93.04-2.4-.03-4.8,1.38-6.94.22-.33.15-.87.16-1.31.1-2.54.48-4.99,2.01-7.13.15-.21.22-.49.3-.74.8-2.56,1.62-5.11,2.38-7.68.41-1.38.75-2.77,1.71-3.91.23-.27.49-.63.48-.95-.05-1.6.87-2.86,1.34-4.28.28-.84.59-1.71.37-2.63-.2-.85.06-1.57.49-2.29.6-1,1.06-2.09,1.71-3.05.62-.92,1.18-1.76.93-2.96-.12-.57.31-1.01.81-1.28.72-.39,1.47-.82,1.66-1.67.39-1.72,1.58-2.88,2.93-3.71,1.78-1.1,2.64-2.75,2.92-4.58.28-1.8,1.62-2.97,2.13-4.58.05-.16.2-.31.34-.4,2.64-1.72,3.74-4.45,4.78-7.23.09-.25.19-.6.38-.69,1.68-.77,2.28-2.75,3.97-3.52.59-.27.95-.77,1.3-1.31,1.22-1.92,2.85-3.32,4.88-4.44,1.76-.97,3.81-1.58,5.16-3.24.11-.13.29-.29.44-.29,1.64,0,2.73-1.19,4.07-1.82,2.63-1.24,4.93-2.9,6.94-4.97.53-.55,1.13-.84,1.86-.99,1.37-.28,2.43-.98,3.32-2.1,1.05-1.31,2.61-2.15,3.51-3.65.16-.26.58-.41.91-.5,1.89-.5,3.79-.94,5.76-1.1,2.3-.2,4.65-.33,6.77-1.52.6-.33,1.38-.44,2.08-.46,2.83-.06,5.4-.94,7.86-2.25.38-.21.82-.38,1.25-.43,1.33-.16,2.67-.29,4.01-.37,1.16-.07,2.39.09,3.03-1.23,1.43-.37,2.59-1.42,4.26-1.26,1.76.17,3.56-.14,5.33.28.42.1.91.03,1.33-.08,1.08-.3,2.12-.62,2.75.76.08.17.45.24.7.31,2.07.53,4.13,1.37,6.22,1.48,2.07.11,4.28.72,6.31-.4.42-.23.88-.18,1.29.02.59.29,1.18.35,1.83.28.34-.03.79,0,1.02.2,1.39,1.18,3.19,1.61,4.67,2.64,1.56,1.09,3.35,1.74,5.28,1.82,1.3.05,2.45.46,3.51,1.2,1.7,1.21,3.65,1.45,5.64,1.26.95-.09,1.7.11,2.55.5,3.26,1.5,6.34,3.33,9.49,5.02.97.52,1.92.96,3.05.88.82-.06,1.35.26,1.61,1.09.45,1.43,1.44,2.39,2.69,3.22,1.58,1.04,3.12,2.1,5.06,2.36.83.11,1.67.44,1.98,1.23.73,1.83,2.3,2.71,3.84,3.6.89.51,1.66,1.03,1.92,2.09.14.56.63.85,1.09,1.13,1.17.71,2.14,1.66,2.9,2.77,1.16,1.69,2.82,2.41,4.73,2.68.71.1,1.19.29,1.4,1,.05.17.07.41.19.49,1.14.79,1.8,1.76,1.94,3.24.11,1.19,1.14,2.22.98,3.57-.08.7.4,1.2.89,1.58,1.12.87,1.74,1.94,2.03,3.35.33,1.64,1.46,2.88,2.76,3.84.69.51,1.2,1.02,1.47,1.81.17.51.37,1.1.94,1.23,1.11.26,1.59,1.03,1.96,2,.19.49.59.89.9,1.33.58.81.94,1.63.88,2.72-.1,1.86.78,3.5,1.85,4.94,1.08,1.45,1.38,3.29,2.63,4.65.36.39.32,1.19.4,1.8.1.8.05,1.63.23,2.41.28,1.19.36,2.29-.46,3.32-.29.36-.4.82-.27,1.27.62,2.14.76,4.43,2.05,6.35.2.3.44.62.49.95.3,2.36,1.31,4.46,2.32,6.57.15.32.29.67.32,1.02.19,2.03,1.22,3.73,2.16,5.44.6,1.08.93,2.13.62,3.33-.29,1.12-.11,2.29-.61,3.41-.49,1.09-.06,2.36.3,3.42.97,2.87.78,5.81.92,8.74.02.45-.09.93.04,1.34.66,1.95-.01,3.67-.8,5.39-.86,1.89-1.64,3.8-1.24,5.96.06.32,0,.79-.2,1.02-1.06,1.25-.83,2.91-1.47,4.29-.14.3-.13.7-.08,1.05.52,3.58.07,7.14-.17,10.7-.04.52-.25,1.04-.43,1.54-.54,1.52-1.36,2.93-1.68,4.53-.02.09-.07.17-.09.25-.32,1.04-1.69,1.51-1.61,2.7.07,1-.03,1.95-.26,2.92-.21.87-.3,1.76-.91,2.49-.36.44-.35.99-.4,1.53-.15,1.6-.84,3.03-2.14,3.89-1.8,1.19-2.31,2.91-2.48,4.82-.12,1.36-.43,2.61-.99,3.87-.47,1.05-.64,2.24-.92,3.37-.15.61-.12,1.32-.43,1.81-.59.94-.52,2.22-1.23,2.94-1.05,1.06-2.37,1.85-3.46,2.92-.47.46-1.3.55-1.98.78-1.66.56-2.8,1.54-2.96,3.43-.04.51-.22,1.1-.54,1.49-1.36,1.66-2.38,3.59-4.03,5.02-.47.41-.92.88-1.47,1.16-1.73.91-2.9,2.36-3.98,3.92-.26.37-.45.82-.8,1.07-1.83,1.28-3.62,2.63-5.57,3.7-1.02.56-1.76,1.15-2.17,2.21-.1.25-.3.46-.38.71-.45,1.35-1.31,2.14-2.64,2.8-1.82.91-3.39,2.3-4.68,3.94-1.43,1.81-3.2,3.08-5.56,3.32-1.13.12-2.06.63-2.78,1.47-.61.72-1.32.92-2.27,1.12-1.72.35-3.35,1.16-5,1.83-1.9.78-3.59,2.02-5.59,2.61-.17.05-.33.14-.5.21-.7.27-.59,1.37-1.47,1.45-.61.06-1.27-.15-1.83.26-.73.53-1.47.39-2.3.19-1.7-.43-3.4-.29-4.93.65-.94.58-1.92.9-3.01,1.03-.61.07-1.26.26-1.77.59-1.39.89-2.96,1.17-4.48,1.66-1.67.55-3.39.23-5.01.73-.34.1-.73.03-1.06.15-.72.28-.96,1.37-1.97,1.2-.73-.12-1.43-.03-2.09.3-1.41.7-2.79.41-4.14-.19-.49-.22-.94-.54-1.45-.7-.94-.29-1.89-.55-2.88-.09-1.77.81-3.45.34-5.22-.19-2.02-.6-4.02-1.39-6.23-1.2-.86.07-1.77-.21-2.64-.41-1.41-.33-2.82-.54-4.26-.29-.77.13-1.4.01-1.84-.73-1.08-1.83-2.66-2.71-4.82-2.93-1.76-.18-3.38-1.12-5.17-1.39-1.06-.16-2.1-.42-3.18-.44-1.37-.03-2.65-.44-3.84-1.11-1.16-.66-2.18-1.58-3.57-1.83-.24-.04-.5-.24-.66-.44-1.26-1.54-3-2.16-4.86-2.54-.09-.02-.18-.02-.26-.05-.17-.06-.42-.08-.49-.2-.88-1.55-2.96-1.23-3.97-2.58-.54-.73-1.28-1.27-2.07-1.69-.81-.43-1.4-.99-1.94-1.76-.64-.92-1.82-1.38-2.39-2.45-.13-.25-.61-.34-.95-.44-2.1-.61-3.92-1.69-5.67-2.98-1.58-1.16-3.15-2.35-4.97-3.16-1.87-.83-3.01-2.54-4.24-4.03-1.11-1.33-2.35-2.6-3-4.36-.47-1.29-1.43-2.5-2.64-3.34-.77-.53-1.41-1.06-1.43-2.1-.01-.48-.42-.76-.79-1.04-1.08-.81-2-1.77-2.89-2.79-.82-.94-1.84-1.7-2.99-2.26-.4-.19-1.01-.33-1.14-.65-.69-1.66-2.19-2.87-2.58-4.65-.25-1.13-.69-2.02-1.77-2.51-.52-.24-.81-.69-1.06-1.17-.21-.4-.38-.85-.7-1.14-1.63-1.47-1.95-3.32-1.64-5.37.03-.18,0-.36,0-.68Zm157.36-110.6c-2.18-.74-3.66-2.37-4.85-4.33-.43-.7-1.02-1.29-1.8-1.57-1.19-.43-1.89-1.28-2.39-2.39-.34-.76-.9-1.29-1.75-1.55-2.47-.77-4.86-1.73-7.06-3.13-.57-.36-.93-.7-1.12-1.38-.68-2.4-2.32-3.74-4.7-3.38-2.19.34-3.77-.49-5.31-1.77-.41-.34-.88-.62-1.27-.98-1.7-1.6-3.42-3.15-5.75-3.8-.24-.07-.45-.29-.66-.45-.44-.34-.92-.62-1.47-.61-1.16.02-2.09-.52-2.91-1.22-1.85-1.56-3.86-1.69-6.04-.88-.49.18-1.13.45-1.55.29-1.67-.63-3.59-.38-5.11-1.51-.88-.66-1.84-.63-2.79-.13-.48.25-.98.61-1.51.35-.9-.44-1.72-.04-2.59.02-1.6.11-3.2.12-4.77.57-.39.11-.92.02-1.31-.15-1.35-.58-2.74-.38-3.92.18-1.13.54-2.19.64-3.35.55-.96-.07-1.78.23-2.39.98-.94,1.16-2.26,1.77-3.56,2.34-1.05.46-2.21.7-3.34.95-.64.14-1.16.37-1.63.84-1.15,1.15-2.78,1.53-4.07,2.47-1.95.02-3.59,1.02-5.35,1.67-2.69.99-4.85,2.63-6.57,4.92-1.65,2.2-3.79,3.79-6.49,4.44-1.01.24-1.66.61-1.76,1.67-.07.74-.42,1.36-.81,1.97-.92,1.43-1.9,2.82-2.74,4.3-.91,1.61-2.32,2.44-4.01,2.86-.52.13-1.04.23-1.51.51-.84.49-1.46,1.18-1.35,2.16.15,1.29-.53,2.11-1.15,3.12-.61,1-1.14,1.98-2.12,2.68-.28.2-.53.53-.63.85-.33,1.09-1.1,1.82-1.88,2.58-.46.44-.76.98-.97,1.59-.36,1.01-.8,1.99-1.15,3-.19.53-.47.96-.92,1.28-2.2,1.57-2.74,3.83-2.58,6.35.04.64.09,1.24-.16,1.84-1.1,2.59-.9,5.46-1.79,8.1-.1.31-.05.75.1,1.04.46.93.26,1.73-.29,2.52-.05.07-.11.16-.11.24-.1,1.85-1.65,3.37-1.21,5.35.06.27-.27.63-.43.94-1,1.91-.77,4.85.8,6.2.81.69,1.23,1.19.84,2.18.6,1.52.09,2.92-.41,4.34-.3.84-.37,1.75-.58,2.62-.13.55-.21,1.14.21,1.53.89.83.89,1.87.97,2.96.06.88.3,1.77.6,2.6.27.73.42,1.38-.16,1.99-.77.81-.79,1.79-.63,2.78.18,1.08.24,2.12-.29,3.14-.4.77-.26,1.59.04,2.35.23.58.53,1.14.84,1.67.99,1.68,1.52,3.53,1.26,5.41-.25,1.75.28,3.22,1.05,4.61.78,1.41,1.77,2.69,1.66,4.43-.02.32.21.68.39.98.38.63.6,1.29.71,2.01.27,1.77,1.24,3.1,2.62,4.21,1.54,1.24,2.98,2.56,3.51,4.59.11.41.42.79.69,1.14,1.2,1.56,2.55,2.98,4.26,3.99,1.2.71,2.11,1.66,2.65,2.94.32.76.73,1.41,1.46,1.86.44.27.8.71,1.13,1.13.77.99,1.51,2,2.68,2.6.42.22.81.65.64,1.07-.41,1.06.42,1.39.92,1.98,1.41,1.67,3.11,3.01,5,4.01,1.25.66,2.33,1.42,2.96,2.62.9,1.71,2.49,2.1,4.12,2.5.26.06.54.07.8.06.96-.05,1.72.4,2.48.9,1.87,1.24,3.78,2.41,5.61,3.7.92.64,1.87,1.11,2.97,1.06,1.05-.05,1.65.31,2.03,1.32.44,1.14,1.34,1.62,2.59,1.37.55-.11,1.09,0,1.55.31,1.57,1.03,3.4,1.14,5.15,1.38,1.66.23,3.45.6,4.99-.4,1.4-.91,2.85-.6,4.12-.12,1.59.6,3.04.77,4.68.37.68-.16,1.39-.15,2.03-.52.57-.32,1.22-.29,1.84-.2,1.24.18,2.53.26,3.69.67,1.79.64,3.56-.18,5.34.15.74.14,1.17-.76,1.82-1.04.32-.14.68-.26,1.03-.28,1.68-.1,2.83-1.01,3.75-2.32.31-.45.63-.94,1.17-1.07,1.72-.43,3.22-1.54,5.14-1.4,1.1.08,2.2-.74,3.38-.09.24.13.74-.02,1.02-.19,1.37-.87,2.81-1.55,4.39-1.96.32-.08.64-.35.87-.61.76-.9,1.68-1.6,2.57-2.36.74-.64,1.48-1.31,1.67-2.37.1-.56.51-.91.97-1.23.43-.31.93-.63,1.17-1.07.9-1.61,2.45-1.94,4.04-2.25.44-.08.9-.02,1.33-.13.72-.19,1.47-.59,1.58-1.32.26-1.65,1.46-2.58,2.43-3.73.75-.88,1.34-1.9,1.93-2.9.32-.55.56-1.17,1.17-1.42,1.94-.81,2.76-3.09,4.87-3.67.14-.04.23-.26.35-.4,2.12-2.53,4.33-4.99,6.24-7.7.74-1.05,1.55-1.98,1-3.4-.17-.44.11-.87.33-1.26.23-.4.36-.83.23-1.28-.23-.77.17-1.36.47-2.02.64-1.37,1.54-2.66,1.53-4.26,0-.99.38-1.7,1.31-2.14.8-.38,1.18-1.05,1.02-1.99-.06-.34-.05-.77.11-1.04.99-1.58.7-3.23.56-4.95-.14-1.78,0-3.59,1.56-4.92.39-.33.66-.85.88-1.33,1.65-3.51,2.13-7.2,1.34-10.98-.29-1.39-.38-2.61.42-3.86.56-.88.7-1.86-.02-2.76-.61-.76-.61-1.62-.62-2.54-.01-1.18.23-2.31.42-3.46.09-.53.3-1.09.19-1.58-.51-2.25-.56-4.59-1.56-6.74-.86-1.85-1.04-3.87-.27-5.75.69-1.7.11-3.18-.32-4.7-.19-.66-.75-1.21-1.1-1.84-1.03-1.85-2.36-3.54-2.43-5.85-.04-1.2-.94-2.3-.79-3.62.03-.28-.3-.62-.48-.92-.23-.38-.62-.72-.68-1.13-.23-1.39-1.04-2.47-1.75-3.6-.75-1.21-1.66-2.32-2.08-3.72-.22-.73-.81-1.23-1.61-1.22-.82,0-1.38-.29-1.71-1.03-.24-.55-.73-.75-1.23-.98-.42-.19-.68-.55-.9-.95-1.83-3.3-1.86-3.39-1.71-7.48Z"/>
          <path class="cls-5" d="m383.14,223.28c-.29.99.08,1.64.49,2.39,1.04,1.86,2.17,3.72,1.89,6.02-.06.52.06,1.08.22,1.59.29.95.25,1.76-.63,2.39-.49.36-.56.89-.52,1.45.1,1.38-.32,2.65-.8,3.92-1.07,2.86-2.01,5.76-2.2,8.84-.04.64-.25,1.22-.52,1.79-1.14,2.43-2.25,4.84-4.28,6.75-1.03.97-1.99,2.04-3,3.04-1,.99-1.85,2.15-2.95,3.07-.69.57-1.33,1.19-2.25,1.42-.9.22-1.71.72-2.19,1.48-.73,1.16-2.2.79-3,1.62-.73.77-1.21,1.76-2.36,2.09-.59.17-1.21.48-1.63.91-1.21,1.22-2.49,2-4.3,1.51-.52-.14-1.06.17-1.5.48-.81.57-1.69.52-2.58.3-.87-.22-1.74-.4-2.65-.39-.99.01-1.93.1-2.85.59-1.61.84-3.32,1.26-5.19,1.08-1.51-.14-3.03-.08-4.55-.14-1.83-.07-3.46-.86-5.13-1.46-.79-.29-1.26-.99-1.79-1.59-1.07-1.22-2.39-1.87-4.02-1.83-2.24.05-4.1-.82-6.03-1.93-3-1.74-5.79-3.93-9.27-4.74-1.24-.98-2.85-1.47-3.64-3.02-.32-.62-.92-1.09-1.35-1.67-.69-.93-1.41-1.83-1.43-3.12,0-.59-.29-1.23-.59-1.77-.68-1.25-1.3-2.58-2.21-3.66-.9-1.07-1.13-2.43-1.87-3.53-.39-.58-.14-1.22-.18-1.84-.08-1.17-.35-2.21-1.17-3.19-1.45-1.73-1.92-4.03-3.03-5.98-.37-.65-.28-1.45.08-2.09,1.21-2.16.19-4.01-.83-5.79-.43-.76-.94-1.28-.22-2.1.16-.18.29-.54.21-.73-.42-1.1-.07-1.87.84-2.55.33-.25.53-.72.69-1.13.45-1.1,1.08-1.94,2.15-2.61,1.49-.94,2.24-2.6,2.62-4.26.67-2.93,2.45-5.32,3.6-8.01.18-.43.62-.6,1.03-.81,2.3-1.17,4-2.99,5.19-5.23.55-1.02,1.19-1.75,2.23-2.18.5-.2,1.1-.33,1.44-.7,1.3-1.41,3.17-1.57,4.75-2.34,2.47-1.2,5.11-1.52,7.73-2.01,1.6-.3,3.17-.7,4.57-1.52,1.44-.85,3.11-.8,4.63-1.33.38-.13.89.02,1.31.15,1.52.47,3,.34,4.5-.09.59-.17,1.23-.37,1.83-.33,1.72.12,3.59-.22,4.99,1.22,2.43.89,4.72,2.13,7.33,2.61,1.83.34,3.48,1.22,4.75,2.81,1.04,1.31,2.47,2.22,4.07,2.93,1.36.6,2.57,1.58,3.78,2.47.73.54,1.49.98,2.34,1.3,1.86.7,3.57,1.69,5.24,2.74,1.45.91,2.8,1.95,3.32,3.73.12.41.4.82.7,1.14,1.07,1.16,1.77,2.44,1.87,4.06.03.5.37,1,.62,1.47.92,1.68.84,3.67,1.65,5.38.14.29.02.7.02.92Zm-56,12.99c-.55.91.28,1.64,1.16,2.36.14.11.29.24.36.4.68,1.5,2.02,1.89,3.47,2.11.62.09,1.24.15,1.85.26.7.13,1.44.2,2.08.47.9.38,1.72.94,2.59,1.4.91.48,1.97-.18,2.89.35,1.66.95,3.13.27,4.51-.64.97-.64,1.88-1.37,2.8-2.09.28-.22.62-.46.73-.76.45-1.27,1.45-1.99,2.47-2.73,1.18-.86,1.66-2.08,1.56-3.52-.1-1.45-.33-2.72-1.77-3.67-1.17-.77-2.02-1.99-3.64-1.96-.46,0-.77-.43-.99-.83-.34-.59-.85-.93-1.51-.99-1.11-.1-2.03-.58-2.91-1.26-1.14-.87-2.44-1.11-3.8-.5-.91.41-1.81.63-2.84.55-.87-.07-1.81.11-2.55.69-.91.71-1.72,1.57-3,1.64-.39.02-.46.51-.69.74-1.14,1.13-1.53,2.83-2.94,3.76-.42.28-.4.78-.21,1.21.37.84.59,1.69.38,3.01Z"/>
          <g>
            <path class="cls-4" d="m288.92,77.31c1.2.2,2.26-.18,3.36-.67,1.61-.72,3.2-1.58,5.08-1.52.82.03,1.52-.48,2.13-1.04,2.22-2.03,4.88-2.95,7.84-2.81,1.07.05,1.94-.05,2.64-.91.36-.45.9-.54,1.43-.65.61-.13,1.27-.22,1.78-.53,1.33-.8,2.84-.16,4.2-.61.14-.05.39.03.5.14,1.59,1.61,3.22.29,4.76-.04.93-.2,1.84-.6,2.83-.69.62-.06,1.24-.22,1.83-.43,3.28-1.14,5.55-1.49,9.37-1.76,1.18-.08,2.27-.2,3.37.31.31.14.73.18,1.06.09,2.01-.54,3.86.31,5.76.64,1.33.23,2.66.4,4,.38.45,0,.93.07,1.34-.07,2.6-.94,5.24-.75,7.9-.39.34.04.78.07,1.03-.11,1.86-1.29,3.83-.3,5.72-.24.97.03,1.92.88,2.68,1.67.39.4.84.78,1.39.71,1.59-.19,3.24.37,4.78-.33,1.28-.59,2.44-.4,3.54.41,1.1.82,2.21,1.07,3.49.35.53-.3,1.25-.24,1.79-.53.81-.43,1.39-.44,2.19.14,1.06.75,2.5.71,3.61,1.54.47.36,1.22.04,1.82-.17.77-.26,1.34-.03,1.93.52,2.16,2.02,4.88,2.71,7.68,2.57,1.75-.09,3.14.49,4.55,1.2.95.48,1.82,1.14,2.69,1.77,1.17.86,2.31,1.71,3.91,1.3.44-.11.87.15,1.23.44.72.59,1.5.94,2.46.93.57,0,1.02.36,1.34.8,1.22,1.68,3,2.82,4.32,4.41.55.66,1.23,1.05,2.08,1.1.81.05,1.58.16,2.3.63.94.61,1.99.79,3.1.53.75-.18,1.38.07,2.03.44,1.78,1.02,3.49,2.15,5.07,3.46.33.28.67.62.85,1,.32.7.77,1.18,1.51,1.42.54.17.95.53,1.15,1.06.39,1.04,1.26,1.47,2.22,1.78,1.03.32,2.04.72,3.1.9,1.98.35,3.38,1.48,4.6,2.96,1.08,1.31,2.21,2.58,3.28,3.9.46.57.98,1.04,1.6,1.42.4.24.81.42,1.26.17.79-.44,1.54-.32,2.31.07.4.2.84.37,1.27.42,1.4.17,2.47.89,3.49,1.82,2.47,2.25,4.44,4.87,5.96,7.83.28.55.53,1.16.6,1.77.16,1.46.95,2.52,2.08,3.32,1.79,1.25,3.25,2.76,4.5,4.56.91,1.31,2.23,2.29,3.06,3.72.45.78,1.48,1.24,2.28,1.81.66.47,1.34.91,2.04,1.3.98.54,1.65,1.29,2.16,2.31.98,1.97,2.52,3.39,4.58,4.23.24.1.65.24.66.38.04,1.44,1.61,2.18,1.62,3.58.02,1.32.66,2.15,1.8,2.76.54.29.97.79,1.42,1.22.6.57,1.1,1.2,1.05,2.09-.06,1.06.42,1.92,1.07,2.69.72.84,1.08,1.84,1.5,2.83.84,1.98,1.64,4,3.66,5.18.35.2.69.65.78,1.05.39,1.65,1.46,3.1,1.4,4.88-.02.73.33,1.41.71,2.01.89,1.42,1.18,3.23,2.74,4.21,1.05,2.54,2.82,4.73,3.31,7.56.44,2.56,1.36,4.96,3.21,6.95,1.44,1.55,1.89,3.6,2.4,5.59.07.26-.04.6.1.79,1.24,1.72,1.21,3.91,2.12,5.7.69,1.35.87,2.73.97,4.11.12,1.63.47,3.19.73,4.78.26,1.59.61,3.16.87,4.75.08.52.05,1.08-.05,1.59-.44,2.3.63,4.07,2.19,5.45.77.67,1.02,1.11.64,1.98-.04.08-.09.2-.05.26,1.09,1.9-.47,3.6-.44,5.42,0,.34-.08.78-.29,1.02-1.29,1.39-.92,2.99-.62,4.57.19.99.1,1.87-.18,2.87-.36,1.26-.39,2.67.75,3.75.77.73.58,2.12,1.77,2.6.15.06.19.48.24.73.04.26-.05.57.05.8.91,2.02.41,4-.07,6.01-.38,1.57-.64,3.16-.98,4.73-.21.98-.23,1.95-.13,2.94.08.8.1,1.6.15,2.4.02.27.03.54.07.8.12.79,1.29,1.14.93,2.1-.25.68-.54,1.31-.33,2.07.13.44-.01.9-.31,1.26-1.46,1.81-1.34,4.01-1.46,6.13-.11,1.96.01,3.89.44,5.85.44,2.04-.31,4.07-.96,6.02-.16.48-.63.86-.98,1.26-.86.95-1.4,2.08-1.89,3.24-.26.6-.27,1.18-.09,1.82.53,2.01.7,4.01-.25,5.98-.31.63-.47,1.37-.54,2.07-.09.8-.39,1.35-1.16,1.64-.64.24-1.06.73-1.12,1.39-.11,1.19-.75,2.02-1.72,2.59-1.45.86-1.9,2.15-1.55,3.68.49,2.14.19,4.29.08,6.41-.1,1.9-.05,3.95-1.44,5.6-.33.4-.56.94-.67,1.46-.3,1.35-.8,2.27-2.46,2.24-.94-.01-1.55.9-1.81,1.79-.3,1.02-.63,2.03-.57,3.15.1,1.94-.31,3.74-1.88,5.1-.62.54-.99,1.28-1.28,2.03-.77,1.98-1.94,3.59-3.85,4.65-.77.43-1.38,1.14-2.06,1.71-.35.3-.65.65-.71,1.11-.13,1.12-.88,1.95-1.29,2.94-.45,1.09-1,2.08-1.86,2.92-.93.91-1.42,2.1-1.4,3.4.05,2.46-1.2,4.46-2.19,6.55-.24.5-.59.9-1.07,1.17-1.13.62-1.93,1.58-2.69,2.59-.37.49-.81.97-1.32,1.32-.98.66-1.85,1.43-2.61,2.31-.43.5-.92.88-1.6.83-.73-.05-1.15.29-1.51.88-.51.84-1.21,1.58-1.64,2.45-.77,1.54-2,2.52-3.52,3.14-.96.39-1.55,1.03-2.16,1.87-1.26,1.7-2.59,3.39-4.36,4.65-.58.41-1.12.9-1.57,1.45-2.14,2.57-4.7,4.65-7.38,6.6-.73.53-1.44,1.12-1.68,2.04-.25.96-1.02,1.36-1.67,1.97-1.59,1.5-3.22,2.82-5.47,3.1-1.74,1.35-3.82,2.14-5.23,4.09-1.32,1.81-3.04,3.53-5.55,3.94-1.16.19-2.19.71-3.13,1.46-.62.49-1.42.75-2.1,1.17-1.06.64-2.09,1.28-3.06,2.11-1.79,1.53-3.5,3.39-6.1,3.62-2.62,1.47-5.49,2.07-8.44,2.43-2.41.29-4.33,1.74-6.16,3.15-2.2,1.69-4.48,2.91-7.28,3.11-.61.04-1.2.33-1.79.55-1.18.43-2.33.88-3.6,1.04-.86.11-1.74.49-2.49.95-1.34.82-2.78,1.19-4.3,1.27-1.01.05-2,.22-2.86.65-1.34.67-2.73.8-4.17.87-1.53.07-3.02.4-4.49.82-.86.25-1.73.53-2.4,1.16-1.14,1.07-2.53,1.27-4,1.16-1.07-.08-2.17-.06-3.19-.34-1.91-.52-3.72-.27-5.51.36-.54.19-1.06.31-1.54-.02-1.82-1.22-3.89-.84-5.74-.48-2.72.53-5.49.68-8.19,1.25-.64.13-1.27.09-1.85-.15-1.61-.65-3.36-.54-5.02-.91-.45-.1-.92-.14-1.31.12-.67.45-1.31.18-2.02.15-2.16-.11-4.43-.98-6.43.63-.31.25-.69.27-1.01.1-.66-.35-1.31-.51-2.07-.35-.46.1-.86-.15-1.22-.45-1.12-.93-2.48-1.44-3.75-2.09-2.28-1.15-4.68-1.57-7.24-1.72-2.83-.17-5.73-.12-8.46-1.19-1.02-.4-2.12-.4-3.19-.32-1.2.09-2.31-.16-3.41-.59-.67-.26-1.34-.52-2.04-.68-1.63-.37-3.07-.96-3.83-2.62-.23-.5-.74-.76-1.3-.86-.79-.14-1.58-.3-2.38-.43-.26-.04-.55.04-.8,0-1.31-.27-2.37-1.32-3.79-1.25-1.4.06-2.62-.46-3.83-1.09-.55-.28-1.18-.45-1.79-.54-1.01-.16-1.9-.61-2.68-1.17-.71-.51-1.23-1.25-2.22-1.32-.46-.03-.72-.5-.97-.87-.73-1.08-1.72-1.8-2.97-2.19-.42-.13-.86-.33-1.16-.63-.62-.61-1.37-.83-2.17-.98-1.75-.33-3.46-.93-5.3-.79-1.28.1-2.38-.72-3.62-.92-.23-.04-.51-.25-.63-.46-1.56-2.69-4.21-3.75-6.94-4.67-.82-.27-1.31-.89-1.94-1.39-2.02-1.59-3.69-3.66-6.18-4.63-.44-.17-.74-.5-.9-.94-.64-1.78-2.04-2.92-3.48-3.98-1.09-.8-2.09-1.66-3.03-2.63-1.43-1.48-3.06-2.75-4.97-3.6-.32-.14-.67-.3-.92-.55-1.37-1.36-3.06-2.15-4.83-2.79-.52-.19-1-.41-1.36-.83-.42-.48-.9-.89-1.51-1.09-1.58-.53-2.49-1.68-3.09-3.16-.4-.98-.86-1.78-1.9-2.43-1.05-.66-1.67-2.02-2.42-3.11-1.17-1.69-2.33-3.37-4.14-4.46-.51-.31-.79-.76-.57-1.35.31-.82-.01-1.28-.69-1.78-2.33-1.76-3.82-4.21-5.21-6.71-.48-.86-.84-1.79-1.36-2.62-.73-1.16-1.25-2.37-1.35-3.75-.09-1.15-.59-2.05-1.65-2.6-.56-.29-1.04-.7-1.35-1.28-.52-.99-1.32-1.69-2.3-2.19-1.16-.6-1.85-1.71-2.62-2.67-1.06-1.31-2.12-2.66-2.8-4.25-.28-.66-.6-1.28-.68-2.01-.25-2.3-1.18-4.32-2.74-6.01-1.3-1.41-2-3.18-3.02-4.75-.43-.66-.68-1.44-1.17-2.1-.26-.35-.48-.8-.52-1.22-.13-1.45-.45-2.83-1.14-4.12-.22-.41-.23-.91.08-1.28.68-.8.36-1.46-.13-2.18-.75-1.11-1.41-2.26-2.03-3.46-.99-1.93-.71-4-1.01-6-.22-1.53-.4-2.95-1.53-4.19-.85-.94-.71-2.35-.92-3.55-.36-2.02-.44-4.08-1.28-6.02-.42-.98-.29-2.1-.66-3.14-.54-1.51-.81-3.09-1.84-4.43-.72-.94-.87-2.15-.63-3.35.29-1.44.12-2.74-.4-4.18-.59-1.64-.95-3.46-.62-5.28.17-.92.04-1.77-.31-2.63-.81-1.97-.93-3.95-.28-6.03.66-2.1.75-4.24-.7-6.16-.34-.45-.31-1.02-.26-1.56.33-3.06-.15-6.07-.51-9.09-.08-.63-.12-1.25.08-1.86.57-1.79,1.08-3.6,1.75-5.35.49-1.28.72-2.4-.49-3.4-.17-.14-.31-.57-.22-.71.58-.89.54-1.79.33-2.79-.09-.44.24-1.05.53-1.48.83-1.24.79-2.52.38-3.87-.39-1.29-.56-2.62-.62-3.98-.05-1.02.05-2.01.53-2.87,1.58-2.83,2.31-6,3.61-8.94.97-2.21,1.92-4.44,1.8-6.94.69-1.47.57-3.14,1.23-4.63.64-1.43.55-3,.17-4.5-.24-.95-.24-1.75.58-2.42.46-.38.63-.95.42-1.46-.62-1.51.24-3.02-.11-4.53-.13-.57.28-1,.65-1.41,1.42-1.59,2.1-3.49,2.23-5.59.03-.47.08-.94.48-1.2,1.02-.65,1.71-1.55,2.22-2.63.14-.3.45-.57.74-.76.67-.42.89-1.07,1.08-1.78.48-1.81,1.44-3.49,1.22-5.47-.06-.57.28-1.05.87-1.2,1.52-.38,2.34-1.43,3.1-2.74,1.12-1.93,2.66-3.6,3.53-5.7.15-.37.6-.69.98-.86.98-.44,1.29-1.06,1.06-2.14-.39-1.78.41-3.53.33-5.32-.01-.23.18-.5.35-.7,1.05-1.21,2.01-2.53,3.2-3.58,1.4-1.23,2.31-2.74,3.03-4.37.38-.86.8-1.55,1.57-2.09.66-.46,1.34-.97,1.79-1.62.63-.89,1.25-1.43,2.42-1.2.58.11.98-.44,1.19-.93,1.39-3.12,3.8-5.57,5.57-8.45.9-1.45,1.92-3.04,3.9-3.48.81-.18,1.35-.89,1.71-1.63.45-.94,1.02-1.64,2.1-1.89.93-.21,1.52-.91,1.92-1.75.23-.49.45-.98.71-1.45.83-1.48,1.57-3.03,3.32-3.72.66-.26,1.2-.83,1.52-1.48.64-1.28,1.8-2,2.9-2.74,1.18-.8,2.48-1.41,3.46-2.51.49-.55,1.25-.76,1.98-.71,2.43.17,4.05-1.14,5.4-2.91.36-.47.71-.84,1.3-.73.78.14,1.35-.39,2.01-.55,1.5-.35,2.18-1.38,2.84-2.61,1.38-2.56,3.61-4.16,6.29-5.11,1.02-.37,2.01-.7,2.88-1.38.56-.43,1.2-.79,1.86-1.06,3.22-1.35,6.43-2.7,9.43-4.5.93-.56,1.87-1.06,2.98-1.14.93-.06,1.75-.36,2.3-1.19.26-.39.68-.57,1.15-.59.54-.03,1.1-.06,1.48-.51.57-.66,1.31-.87,2.15-.94.52-.05,1.08-.17,1.53-.43.84-.47,1.69-.57,2.6-.36Zm153.53,282.59c1.75.14,2.5-.28,3.19-1.78.37-.81.67-1.66,1.06-2.47.96-2.02,2.27-3.59,4.65-4.05,1.71-.33,3.02-1.52,3.42-3.12.41-1.6,1.18-2.72,2.42-3.68.34-.26.55-.7.81-1.07.32-.45.72-.83,1.24-1,1.39-.45,2.72-.93,3.29-2.48.08-.21.38-.42.61-.48,1.29-.37,1.75-1.45,2.25-2.51.34-.73.77-1.4,1.24-2.07,1.11-1.61,2.14-3.28,3.12-4.97.77-1.31,1.11-2.83,2.02-4.09.38-.52.48-1.2.17-1.8-.48-.92-.21-1.52.64-1.99.33-.18.45-.55.44-.92-.02-.83.44-1.3,1.13-1.68,1.5-.81,2.4-2.43,4.07-3.04.22-.08.44-.35.53-.59.87-2.2,2.55-3.89,3.7-5.9.54-.95,1.14-1.8.5-2.98-.17-.31.03-.87.15-1.29.28-.94.59-1.88.96-2.8.34-.85.48-1.69.4-2.62-.18-2.08.29-4.09.87-6.07.38-1.28.77-2.55,1.89-3.48.88-.73,1.14-1.83.91-2.95-.19-.92-.03-1.71.33-2.59.65-1.56,1.26-3.18.38-4.91-.17-.34-.02-.87.06-1.3.16-.88.39-1.75.56-2.62.1-.53.22-1.04.62-1.45,1.67-1.72,2.16-3.91,2.19-6.18.02-1.56.34-3,.84-4.44.26-.76.38-1.56.57-2.34.21-.83.11-1.56-.39-2.3-.87-1.29-.77-2.72-.45-4.16.24-1.07.74-2,1.36-2.9.81-1.16,1.02-2.51.66-3.85-.5-1.86-1.17-3.68-.46-5.64.08-.23,0-.53-.02-.8-.2-2.3,0-4.62-.51-6.91-.28-1.25.38-2.7-.78-3.8-.1-.09-.11-.37-.05-.52.5-1.28.13-2.39-.44-3.58-.32-.67,0-1.62-.21-2.37-.34-1.21-.9-2.42-.64-3.66.28-1.32-.56-2.37-.55-3.66.02-1.59-.1-3.22-.25-4.82-.18-1.89-.43-3.77-2.26-4.93-.56-.35-.78-.95-.94-1.58-.18-.69-.52-1.35-.66-2.04-.4-2.06-1.18-4.11.23-6.17.76-1.11.22-2.25-.62-3.18-.3-.33-.7-.56-1.03-.85-1.48-1.3-2.78-2.62-3.46-4.63-.65-1.93-1.73-3.72-2.33-5.7-.12-.4-.51-.73-.82-1.05-.78-.81-1.16-1.77-1.3-2.88-.24-1.94-.38-3.92-1.96-5.4-.29-.28-.32-.83-.51-1.23-.58-1.24-1.23-2.4-2.86-2.46-.57-.02-.91-.5-1.24-.94-.43-.57-.82-1.21-1.37-1.64-1.18-.92-1.47-2.2-1.66-3.54-.06-.44.05-.9-.02-1.34-.22-1.41-.22-2.93-1.26-4.04-1.25-1.33-2.16-2.84-2.89-4.49-.26-.58-.67-1.1-1.3-1.3-2.33-.77-3.85-2.47-5.17-4.41-.2-.29-.41-.59-.68-.82-1.57-1.32-2.93-2.84-4.77-3.89-2.19-1.24-3.76-3.2-3.7-5.87.04-1.81-.81-2.8-2.17-3.69-.92-.6-1.88-1.03-2.95-1.25-.97-.21-1.85-.5-2.5-1.41-.72-1.02-1.82-1.42-3.08-1.24-.67.09-1.21-.11-1.71-.58-.38-.36-.91-.57-1.31-.92-1.83-1.58-3.8-3.04-5.39-4.83-1.59-1.8-2.98-3.76-4.98-5.16-.2-.14-.24-.49-.42-.68-.48-.53-.94-1.1-1.51-1.52-.86-.64-1.84-1.1-2.7-1.74-.91-.67-1.91-1.05-3-1.02-1.56.03-3-.48-4.49-.77-1.02-.19-1.83-.69-2.5-1.45-.41-.47-.84-.93-1.23-1.42-.75-.95-1.65-1.63-2.87-1.86-.7-.13-1.39-.36-2.1-.44-.84-.09-1.53-.4-2.14-.99-1.12-1.09-2.52-1.61-3.96-2.17-1.71-.66-3.2-1.85-5.03-2.29-.23-.06-.46-.3-.61-.51-.69-.95-1.65-.98-2.67-.81-.62.1-1.21.25-1.85.01-1.9-.71-3.77-.71-5.75-.05-1.98.66-4.2.77-6.07-.08-1.79-.81-3.64-1.47-5.43-2.27-1.91-.87-4.03-.77-5.98-1.45-.54-.19-1.28-.07-1.85.14-2.74,1-5.47-.61-8.19,0-.15.03-.34-.1-.5-.17-2.65-1.02-5.29-.62-7.82.33-1.28.48-2.53.96-3.88.91-3.45-.12-6.94-.73-10.19,1.09-.34.19-.88-.03-1.32.04-2.02.3-4.08-.21-6.08.39-1.62.49-3.26.66-4.97.37-1.08-.18-2.16-.02-2.8,1.12-.27.49-.75.77-1.28.92-.7.2-1.35.52-1.87,1.02-.61.59-1.29.93-2.16.9-.34-.01-.76.08-1,.29-.85.72-1.8.6-2.8.56-1.27-.05-2.49-.32-3.72-.57-.52-.11-1.18-.38-1.57-.18-1.68.89-4.03.49-5.11,2.59-.11.21-.41.42-.64.44-1.65.16-2.76,1.17-3.8,2.32-.38.42-.85.65-1.43.57-2.4-.36-4.19.82-5.69,2.43-1.11,1.2-2.44,1.76-3.94,2.09-.79.17-1.58.41-2.37.46-1.54.09-2.7.81-3.78,1.83-1.39,1.31-3.02,2.37-4.8,2.91-1.7.52-2.47,1.64-3.1,3.07-.22.49-.27,1.19-.64,1.44-1.32.9-2.38,2.17-3.93,2.75-1.8.68-3.36,1.65-4.16,3.53-.13.32-.35.73-.63.83-1.21.44-2,1.65-3.12,2-2.13.66-2.97,2.77-4.76,3.73-1.34,1.98-3.33,3.14-5.35,4.27-1.09.61-2.27,1.21-2.77,2.45-.5,1.24-1.36,2.08-2.46,2.75-.7.43-1.42.94-1.61,1.74-.43,1.82-1.75,3.09-2.63,4.63-.55.95-1.19,1.75-2.2,2.28-.62.32-1.34.79-1.6,1.38-.57,1.33-1.67,2.07-2.68,2.93-1.15.97-1.94,2.1-1.76,3.7.21,1.81.02,3.52-1.25,4.97-.23,1.5-1.21,2.55-2.09,3.69-.83,1.06-1.51,2.22-2.26,3.34-.35.52-.63,1.11-1.07,1.54-1.88,1.82-2.73,4.37-4.49,6.27-.12.13-.23.3-.26.47-.49,2.21-2.13,3.87-2.81,6.01-1.05,3.32-2.36,6.52-1.9,10.17.23,1.84-.2,3.74-1.63,5.2-.57.58-1.07,1.28-1.18,2.08-.17,1.24-.73,2.43-.54,3.7.12.8-.16,1.38-.74,1.9-.65.57-.92,1.3-.86,2.17.06.96-.27,1.96.39,2.87.33.45.16,1.03.11,1.57-.05.53-.16,1.15.06,1.58.7,1.36.35,2.58-.15,3.87-1.01,2.63-1.42,5.36-.99,8.18.07.45.27.95-.02,1.3-.95,1.14-1.06,2.68-1.87,3.83-1.1,1.57-.78,3.01,0,4.47.61,1.13,1.14,2.38.95,3.59-.29,1.81-.13,3.55-.05,5.34.05,1.13.16,2.34-.38,3.44-.41.83-.19,1.55.44,2.2,1.23,1.27,1.37,2.85,1.28,4.51-.06,1-.35,1.94-.69,2.86-.26.7-.37,1.39.11,2.05,1.35,1.88,2.05,3.9,1.81,6.28-.13,1.3.43,2.63-.03,3.98-.28.82.31,1.52.66,2.25.45.95,1.6,1.23,1.99,2.13.43.97.1,2.16.76,3.09.63.9.59,1.86.28,2.83-.31.97-.41,1.91.06,2.87.15.3.2.71.15,1.05-.17,1.13.39,1.88,1.2,2.53,2.11,1.73,3.76,3.77,4.77,6.35.44,1.12.83,2.15.47,3.35-.12.42-.04.89-.13,1.33-.2,1.03.05,1.88.64,2.77,2.11,3.21,3.43,6.85,5.44,10.12.09.15.17.34.17.5-.03,1.34.97,2.29,1.29,3.5.24.92,1.26,1.23,1.55,2.15.47,1.55,1.63,2.52,3.08,3.14.42.18.85.34,1.07.76.47.9,1.23,1.53,1.93,2.23.59.59.89,1.28,1,2.13.21,1.5.58,2.97.87,4.46.15.75.54,1.29,1.18,1.71,1.06.69,1.78,1.77,2.71,2.59,1.02.89,2.11,1.65,2.1,3.18,0,.07.09.16.15.21,1.03.87,1.63,2.15,2.8,2.89.76.49,1.28,1.22,1.89,1.87,1.17,1.25,1.78,3.15,3.78,3.52.08.01.14.11.21.16,2.13,1.77,3.68,4.14,6,5.71.07.05.14.13.16.21.42,1.62,1.43,2.36,3.12,2.24.29-.02.6.36.91.53.39.21.8.52,1.21.54,1.58.08,2.61,1.03,3.61,2.1.55.59,1.15,1.13,1.8,1.61.89.65,1.58,1.4,2.01,2.45.41.99.91,2,1.85,2.6,1.35.85,2.49,2.08,4.17,2.38.42.08.88.29,1.2.58,1.11,1,2.47,1.44,3.84,1.85.7.21,1.34.5,1.87,1.01,1.99,1.91,4.42,3,7.03,3.77.42.12.92.28,1.16.6.73.96,1.76,1.18,2.82,1.39,2.02.41,4.06.73,6.05,1.24,1.81.46,3.58,1.1,5.35,1.73.39.14.72.53.99.87.59.77,1.35,1.14,2.3,1.2.71.05,1.44.06,2.14.21,1.66.36,3.45-.03,5.01.8.85.45,1.69.55,2.6.41.72-.12,1.42-.04,2.14.07,1.15.18,2.3.38,3.48.2.7-.11,1.25.15,1.48.86.43,1.34,1.5,1.71,2.74,1.72.89,0,1.8-.05,2.67-.21.75-.13,1.43-.21,1.94.47.47.63,1.16.8,1.87.95,1.68.35,3.37.36,5.08.31,2.01-.06,3.96-.01,5.79,1.28,1.47,1.03,3.31,1.31,5.06.12.73-.5,1.59-.8,2.23-1.46.79-.82,1.78-1.03,2.94-1.03,1.53,0,3.04.09,4.55.23,3.82.34,7.65,1.07,11.47-.05.17-.05.36-.02.54-.03,2.57-.22,5.14-.43,7.7-.68.52-.05,1.06-.2,1.54-.42.67-.3,1.36-.39,2.06-.54,1.74-.38,3.57-.48,5.19-1.31,1.12-.58,2.24-1.12,3.47-1.42.59-.15,1.24-.41,1.67-.82,1.23-1.15,2.73-1.22,4.25-1.27.98-.04,1.97.02,2.96.1,1.08.09,1.8-.3,2.54-1.13,1.16-1.3,2.52-2.35,4.29-2.93,2.18-.72,4.48-1.21,6.43-2.51,1.47-.98,2.89-2,4.16-3.29,1.9-1.92,4.17-3.39,7.09-3.05.84.1,1.65.18,2.35-.24,1.91-1.17,3.84-2.38,4.72-4.59.34-.86.83-1.59,1.48-2.22,1.87-1.8,3.76-3.59,5.67-5.34,1.32-1.2,2.9-1.72,4.68-1.56Z"/>
            <path class="cls-4" d="m249.61,300.89c-.3-.94.06-2,.13-3.07.11-1.64-.29-3.09-1-4.63-1.33-2.91-3.06-5.64-4.07-8.71-.41-1.24-.75-2.61-1.87-3.52-.2-.16-.32-.43-.43-.67-.08-.16-.14-.35-.11-.52.24-1.52-.84-2.73-.98-4.13-.11-1.06.36-2.11.2-3.21-.05-.32.12-.71.28-1.01.89-1.68.53-3.51.66-5.28.03-.4-.18-1-.48-1.2-1.15-.77-.92-1.67-.7-2.81.23-1.2.14-2.44-.43-3.67-.56-1.21-.91-2.52-1.35-3.79-.44-1.24-.65-2.6-.67-3.92-.01-.91-.32-1.77-.32-2.6,0-2.11.35-4.22.56-6.33,1.14-.91.39-2.42,1.1-3.49.74-1.12.47-2.42.53-3.67.04-.98.34-1.95.35-2.93.04-2.4-.03-4.8,1.38-6.94.22-.33.15-.87.16-1.31.1-2.54.48-4.99,2.01-7.13.15-.21.22-.49.3-.74.8-2.56,1.62-5.11,2.38-7.68.41-1.38.75-2.77,1.71-3.91.23-.27.49-.63.48-.95-.05-1.6.87-2.86,1.34-4.28.28-.84.59-1.71.37-2.63-.2-.85.06-1.57.49-2.29.6-1,1.06-2.09,1.71-3.05.62-.92,1.18-1.76.93-2.96-.12-.57.31-1.01.81-1.28.72-.39,1.47-.82,1.66-1.67.39-1.72,1.58-2.88,2.93-3.71,1.78-1.1,2.64-2.75,2.92-4.58.28-1.8,1.62-2.97,2.13-4.58.05-.16.2-.31.34-.4,2.64-1.72,3.74-4.45,4.78-7.23.09-.25.19-.6.38-.69,1.68-.77,2.28-2.75,3.97-3.52.59-.27.95-.77,1.3-1.31,1.22-1.92,2.85-3.32,4.88-4.44,1.76-.97,3.81-1.58,5.16-3.24.11-.13.29-.29.44-.29,1.64,0,2.73-1.19,4.07-1.82,2.63-1.24,4.93-2.9,6.94-4.97.53-.55,1.13-.84,1.86-.99,1.37-.28,2.43-.98,3.32-2.1,1.05-1.31,2.61-2.15,3.51-3.65.16-.26.58-.41.91-.5,1.89-.5,3.79-.94,5.76-1.1,2.3-.2,4.65-.33,6.77-1.52.6-.33,1.38-.44,2.08-.46,2.83-.06,5.4-.94,7.87-2.25.38-.21.82-.38,1.25-.43,1.33-.16,2.67-.29,4.01-.37,1.16-.07,2.39.09,3.03-1.23,1.43-.37,2.59-1.42,4.26-1.26,1.76.17,3.56-.14,5.33.28.42.1.91.03,1.33-.08,1.08-.3,2.12-.62,2.75.76.08.17.45.24.7.31,2.07.53,4.13,1.37,6.22,1.48,2.07.11,4.28.72,6.31-.4.42-.23.88-.18,1.29.02.59.29,1.18.35,1.83.28.34-.03.79,0,1.02.2,1.39,1.18,3.19,1.61,4.67,2.64,1.56,1.09,3.35,1.74,5.28,1.82,1.3.05,2.45.46,3.51,1.2,1.7,1.21,3.65,1.45,5.64,1.26.95-.09,1.7.11,2.55.5,3.26,1.5,6.34,3.33,9.49,5.02.97.52,1.92.96,3.05.88.82-.06,1.35.26,1.61,1.09.45,1.43,1.44,2.39,2.69,3.22,1.58,1.04,3.12,2.1,5.06,2.36.84.11,1.67.44,1.98,1.23.73,1.83,2.3,2.71,3.84,3.6.89.51,1.66,1.03,1.92,2.09.14.56.63.85,1.09,1.13,1.17.71,2.14,1.66,2.9,2.77,1.16,1.69,2.82,2.41,4.73,2.68.71.1,1.19.29,1.4,1,.05.17.07.41.19.49,1.14.79,1.8,1.76,1.94,3.24.11,1.19,1.14,2.22.98,3.57-.08.7.4,1.2.89,1.58,1.12.87,1.74,1.94,2.03,3.35.33,1.64,1.46,2.88,2.76,3.84.69.51,1.2,1.02,1.47,1.81.17.51.37,1.1.94,1.23,1.11.26,1.59,1.03,1.96,2,.19.49.59.89.9,1.33.58.81.94,1.63.88,2.72-.1,1.86.78,3.5,1.85,4.94,1.08,1.45,1.38,3.29,2.63,4.65.36.39.32,1.19.4,1.8.1.8.05,1.63.23,2.41.28,1.19.36,2.29-.46,3.32-.29.36-.4.82-.27,1.27.62,2.14.76,4.43,2.05,6.35.2.3.44.62.49.95.3,2.36,1.31,4.46,2.32,6.57.15.32.29.67.32,1.02.19,2.03,1.22,3.73,2.16,5.44.6,1.08.93,2.13.62,3.33-.29,1.12-.11,2.29-.61,3.41-.49,1.09-.06,2.36.3,3.42.97,2.87.78,5.81.92,8.74.02.45-.09.93.04,1.34.66,1.95-.01,3.67-.8,5.39-.86,1.89-1.64,3.8-1.24,5.96.06.32,0,.79-.2,1.02-1.06,1.25-.83,2.91-1.47,4.29-.14.3-.13.7-.08,1.05.52,3.58.07,7.14-.17,10.7-.04.52-.25,1.04-.43,1.54-.54,1.52-1.36,2.93-1.68,4.53-.02.09-.07.17-.09.25-.32,1.04-1.69,1.51-1.61,2.7.07,1-.03,1.95-.26,2.92-.21.87-.3,1.76-.91,2.49-.36.44-.35.99-.4,1.53-.15,1.6-.84,3.03-2.14,3.89-1.8,1.19-2.31,2.91-2.48,4.82-.12,1.36-.43,2.61-.99,3.87-.47,1.05-.64,2.24-.92,3.37-.15.61-.12,1.32-.43,1.81-.59.94-.52,2.22-1.23,2.94-1.05,1.06-2.37,1.85-3.46,2.92-.47.46-1.3.55-1.98.78-1.66.56-2.8,1.54-2.96,3.43-.04.51-.22,1.1-.54,1.49-1.36,1.66-2.38,3.59-4.03,5.02-.47.41-.92.88-1.47,1.16-1.73.91-2.9,2.36-3.98,3.92-.26.37-.45.82-.8,1.07-1.83,1.28-3.62,2.63-5.57,3.7-1.02.56-1.76,1.15-2.17,2.21-.1.25-.3.46-.38.71-.45,1.35-1.31,2.14-2.64,2.8-1.82.91-3.39,2.3-4.68,3.94-1.43,1.81-3.2,3.08-5.56,3.32-1.13.12-2.06.63-2.78,1.47-.61.72-1.32.93-2.27,1.12-1.72.35-3.35,1.16-5,1.83-1.9.78-3.59,2.02-5.59,2.61-.17.05-.33.14-.5.21-.7.27-.59,1.37-1.47,1.45-.61.06-1.27-.15-1.83.26-.73.53-1.47.39-2.3.19-1.7-.43-3.4-.29-4.93.65-.94.58-1.92.9-3.01,1.03-.61.07-1.26.26-1.77.59-1.39.89-2.96,1.17-4.48,1.66-1.67.55-3.39.23-5.01.73-.34.1-.73.03-1.06.15-.72.28-.96,1.37-1.97,1.2-.73-.12-1.43-.03-2.09.3-1.41.7-2.79.41-4.14-.19-.49-.22-.94-.54-1.45-.7-.94-.29-1.89-.55-2.88-.09-1.77.81-3.45.34-5.22-.19-2.02-.6-4.02-1.39-6.23-1.2-.86.07-1.77-.21-2.64-.41-1.41-.33-2.82-.54-4.26-.29-.77.13-1.4.01-1.84-.73-1.08-1.83-2.66-2.71-4.82-2.93-1.76-.18-3.38-1.12-5.17-1.39-1.06-.16-2.1-.42-3.18-.44-1.37-.03-2.65-.44-3.84-1.11-1.16-.66-2.18-1.58-3.57-1.83-.24-.04-.5-.24-.66-.44-1.26-1.54-3-2.16-4.86-2.54-.09-.02-.18-.02-.26-.05-.17-.06-.42-.08-.49-.2-.88-1.55-2.96-1.23-3.97-2.58-.54-.73-1.28-1.27-2.07-1.69-.81-.43-1.4-.99-1.94-1.76-.64-.92-1.82-1.38-2.39-2.45-.13-.25-.61-.34-.95-.44-2.1-.61-3.92-1.69-5.67-2.98-1.58-1.16-3.15-2.35-4.97-3.16-1.87-.83-3.01-2.54-4.24-4.03-1.11-1.33-2.35-2.59-3-4.36-.47-1.29-1.43-2.5-2.64-3.34-.77-.53-1.41-1.06-1.43-2.1-.01-.48-.42-.76-.79-1.04-1.08-.81-2-1.77-2.89-2.79-.82-.94-1.84-1.7-2.99-2.26-.4-.19-1.01-.33-1.14-.65-.69-1.66-2.19-2.87-2.58-4.65-.25-1.13-.69-2.02-1.77-2.51-.52-.24-.81-.69-1.06-1.17-.21-.4-.38-.85-.7-1.14-1.63-1.47-1.95-3.32-1.64-5.37.03-.18,0-.36,0-.68Zm157.36-110.6c-2.18-.74-3.66-2.37-4.85-4.33-.43-.7-1.02-1.29-1.8-1.57-1.19-.43-1.89-1.28-2.39-2.39-.34-.76-.9-1.29-1.75-1.55-2.47-.77-4.86-1.73-7.06-3.13-.57-.36-.93-.7-1.12-1.38-.68-2.41-2.32-3.74-4.7-3.38-2.19.34-3.77-.49-5.31-1.77-.41-.34-.88-.62-1.27-.98-1.7-1.6-3.42-3.15-5.75-3.8-.24-.07-.45-.29-.66-.45-.44-.34-.92-.62-1.47-.61-1.16.02-2.09-.52-2.91-1.22-1.85-1.56-3.86-1.69-6.04-.88-.49.18-1.12.45-1.55.29-1.67-.63-3.59-.38-5.11-1.51-.88-.66-1.84-.63-2.79-.13-.48.25-.98.61-1.51.35-.9-.45-1.72-.04-2.59.02-1.6.11-3.2.12-4.77.57-.39.11-.92.02-1.31-.15-1.35-.58-2.74-.38-3.92.18-1.13.54-2.19.64-3.35.55-.96-.08-1.78.23-2.39.98-.94,1.16-2.26,1.77-3.56,2.34-1.05.46-2.21.7-3.34.95-.64.14-1.16.37-1.63.84-1.15,1.15-2.78,1.53-4.07,2.47-1.95.02-3.59,1.02-5.35,1.67-2.69.99-4.85,2.63-6.57,4.92-1.65,2.2-3.79,3.79-6.49,4.44-1.01.24-1.66.61-1.76,1.67-.07.74-.42,1.36-.81,1.97-.92,1.43-1.9,2.82-2.74,4.3-.91,1.61-2.32,2.44-4.01,2.86-.53.13-1.04.23-1.51.51-.84.49-1.46,1.18-1.35,2.16.15,1.29-.53,2.11-1.15,3.12-.61,1-1.14,1.98-2.12,2.68-.28.2-.53.53-.63.85-.33,1.09-1.1,1.82-1.88,2.58-.46.44-.76.98-.97,1.59-.36,1.01-.8,1.99-1.15,3-.19.53-.47.96-.92,1.28-2.2,1.57-2.74,3.83-2.58,6.35.04.64.09,1.24-.16,1.84-1.1,2.59-.9,5.46-1.79,8.1-.1.31-.05.75.1,1.04.46.93.26,1.73-.29,2.52-.05.07-.11.16-.11.24-.1,1.85-1.65,3.37-1.21,5.36.06.27-.27.63-.43.94-1,1.91-.77,4.85.8,6.2.81.69,1.23,1.19.84,2.18.6,1.52.09,2.92-.41,4.34-.3.84-.37,1.75-.58,2.62-.13.55-.21,1.14.21,1.52.89.83.89,1.87.97,2.96.06.88.3,1.77.6,2.6.27.73.42,1.38-.16,1.99-.77.81-.79,1.79-.63,2.78.18,1.08.24,2.12-.29,3.14-.4.77-.26,1.59.04,2.35.23.58.53,1.14.84,1.67.99,1.68,1.52,3.53,1.26,5.41-.25,1.75.28,3.22,1.05,4.61.78,1.41,1.77,2.69,1.66,4.43-.02.32.21.68.39.98.38.63.6,1.29.71,2.01.27,1.77,1.24,3.1,2.62,4.21,1.54,1.24,2.98,2.56,3.51,4.59.11.41.42.79.69,1.14,1.2,1.56,2.55,2.98,4.26,3.99,1.2.71,2.11,1.66,2.65,2.94.32.76.73,1.41,1.46,1.86.44.27.8.71,1.13,1.13.77.99,1.51,2,2.68,2.6.42.22.81.65.64,1.07-.41,1.06.42,1.39.92,1.98,1.41,1.67,3.11,3.01,5,4.01,1.25.66,2.33,1.42,2.96,2.62.9,1.71,2.49,2.1,4.12,2.5.26.06.54.07.8.06.96-.05,1.72.4,2.48.9,1.87,1.24,3.78,2.41,5.61,3.7.92.64,1.87,1.11,2.97,1.06,1.05-.05,1.65.31,2.03,1.32.44,1.14,1.34,1.62,2.59,1.37.55-.11,1.09,0,1.55.31,1.57,1.03,3.4,1.14,5.15,1.38,1.66.23,3.45.6,4.99-.4,1.4-.92,2.85-.6,4.12-.12,1.59.6,3.04.77,4.68.37.68-.16,1.39-.15,2.03-.52.57-.32,1.22-.29,1.84-.2,1.24.18,2.53.26,3.69.67,1.79.64,3.56-.18,5.34.15.74.14,1.17-.76,1.82-1.04.32-.14.68-.26,1.03-.28,1.68-.1,2.83-1.01,3.75-2.32.31-.45.63-.94,1.17-1.07,1.72-.43,3.22-1.54,5.14-1.4,1.1.08,2.2-.74,3.38-.09.24.13.74-.02,1.02-.19,1.37-.87,2.81-1.55,4.39-1.96.32-.08.64-.35.87-.61.76-.9,1.69-1.6,2.57-2.36.74-.64,1.48-1.31,1.67-2.37.1-.56.51-.91.97-1.23.43-.31.93-.63,1.17-1.07.9-1.61,2.45-1.94,4.04-2.25.44-.08.9-.02,1.33-.13.72-.19,1.47-.59,1.58-1.32.26-1.65,1.46-2.58,2.43-3.73.75-.88,1.34-1.9,1.92-2.9.32-.55.56-1.17,1.17-1.42,1.94-.81,2.76-3.09,4.87-3.67.14-.04.24-.26.35-.4,2.12-2.53,4.33-4.99,6.24-7.7.74-1.05,1.55-1.98,1-3.4-.17-.44.11-.87.33-1.26.23-.4.36-.83.23-1.28-.23-.77.17-1.36.47-2.02.64-1.37,1.54-2.66,1.53-4.26,0-.99.38-1.7,1.31-2.14.8-.38,1.18-1.05,1.02-1.99-.06-.34-.05-.77.11-1.04.99-1.58.7-3.23.56-4.95-.14-1.78,0-3.59,1.56-4.91.39-.33.66-.85.88-1.33,1.65-3.51,2.13-7.2,1.34-10.98-.29-1.39-.38-2.61.42-3.86.56-.88.7-1.86-.02-2.76-.61-.76-.61-1.62-.62-2.54-.01-1.18.23-2.31.42-3.46.09-.53.3-1.09.19-1.58-.51-2.25-.56-4.59-1.56-6.74-.86-1.85-1.04-3.87-.27-5.75.69-1.7.11-3.18-.32-4.7-.19-.66-.75-1.21-1.1-1.84-1.03-1.85-2.36-3.54-2.43-5.85-.04-1.2-.94-2.3-.79-3.62.03-.28-.3-.62-.48-.92-.23-.38-.61-.72-.68-1.13-.23-1.39-1.04-2.47-1.75-3.6-.75-1.21-1.66-2.32-2.08-3.72-.22-.73-.81-1.23-1.61-1.22-.82,0-1.38-.29-1.71-1.03-.24-.55-.73-.75-1.23-.98-.42-.19-.68-.55-.9-.95-1.83-3.3-1.86-3.39-1.71-7.48Z"/>
            <path class="cls-4" d="m392.43,233.83c-.29,1,.08,1.64.49,2.39,1.04,1.86,2.17,3.72,1.89,6.02-.06.52.06,1.08.22,1.59.29.95.25,1.76-.63,2.39-.49.36-.56.89-.52,1.45.1,1.38-.32,2.65-.8,3.92-1.07,2.86-2.01,5.76-2.2,8.84-.04.64-.25,1.22-.52,1.79-1.14,2.43-2.25,4.84-4.28,6.75-1.03.97-1.99,2.04-3,3.04-1,.99-1.85,2.15-2.95,3.07-.69.57-1.33,1.19-2.25,1.42-.9.22-1.71.72-2.19,1.48-.73,1.16-2.2.79-3,1.62-.73.77-1.21,1.76-2.36,2.09-.59.17-1.21.48-1.63.91-1.21,1.22-2.49,2-4.3,1.51-.52-.14-1.06.17-1.5.48-.81.57-1.69.52-2.58.3-.87-.22-1.74-.4-2.65-.39-.99.01-1.93.1-2.85.59-1.61.84-3.32,1.26-5.19,1.08-1.51-.14-3.03-.08-4.55-.14-1.83-.07-3.46-.86-5.13-1.46-.79-.29-1.26-.99-1.79-1.59-1.07-1.22-2.39-1.87-4.02-1.83-2.24.05-4.1-.82-6.03-1.93-3-1.74-5.79-3.93-9.27-4.74-1.24-.98-2.85-1.47-3.64-3.02-.32-.62-.92-1.09-1.35-1.67-.69-.93-1.41-1.83-1.43-3.12,0-.59-.29-1.23-.59-1.77-.68-1.25-1.3-2.58-2.21-3.66-.9-1.08-1.13-2.42-1.87-3.53-.39-.58-.14-1.22-.18-1.84-.08-1.17-.35-2.21-1.17-3.19-1.45-1.73-1.92-4.03-3.03-5.98-.37-.65-.28-1.45.08-2.09,1.21-2.16.19-4.01-.83-5.79-.43-.76-.94-1.28-.22-2.1.16-.18.29-.54.21-.73-.42-1.1-.07-1.87.84-2.55.33-.25.53-.72.69-1.13.45-1.1,1.08-1.94,2.16-2.61,1.49-.94,2.24-2.6,2.62-4.26.67-2.93,2.45-5.32,3.6-8.01.18-.43.62-.6,1.03-.81,2.3-1.17,4-2.99,5.19-5.22.55-1.02,1.19-1.75,2.23-2.18.5-.2,1.1-.33,1.44-.7,1.3-1.41,3.17-1.57,4.75-2.34,2.47-1.2,5.11-1.52,7.73-2.01,1.6-.3,3.17-.7,4.57-1.52,1.44-.85,3.11-.8,4.63-1.33.38-.13.89.02,1.31.15,1.52.47,3,.34,4.5-.09.59-.17,1.23-.37,1.83-.33,1.72.12,3.59-.22,4.99,1.22,2.43.89,4.72,2.13,7.33,2.61,1.83.34,3.48,1.22,4.75,2.81,1.04,1.31,2.47,2.22,4.07,2.93,1.36.61,2.57,1.58,3.78,2.47.73.54,1.49.98,2.34,1.29,1.86.7,3.57,1.69,5.24,2.74,1.45.91,2.8,1.95,3.32,3.73.12.42.4.82.7,1.14,1.07,1.16,1.77,2.44,1.87,4.06.03.5.37,1,.62,1.47.92,1.68.84,3.67,1.66,5.38.14.29.02.7.02.92Zm-56,12.99c-.55.91.28,1.64,1.16,2.36.14.11.29.24.36.4.68,1.5,2.02,1.89,3.47,2.11.62.09,1.24.15,1.85.26.7.13,1.44.2,2.08.47.9.38,1.72.94,2.59,1.4.91.48,1.97-.18,2.89.35,1.66.95,3.13.27,4.51-.64.97-.64,1.88-1.37,2.8-2.09.28-.22.62-.46.73-.76.45-1.27,1.45-1.99,2.47-2.73,1.18-.86,1.66-2.08,1.56-3.52-.1-1.45-.33-2.72-1.77-3.67-1.17-.77-2.02-1.99-3.64-1.96-.46,0-.77-.43-.99-.83-.34-.59-.85-.93-1.51-.99-1.11-.1-2.03-.58-2.91-1.26-1.14-.87-2.44-1.11-3.8-.5-.91.41-1.81.64-2.84.55-.87-.07-1.81.11-2.55.69-.91.71-1.72,1.57-3,1.64-.39.02-.46.51-.7.74-1.14,1.13-1.53,2.83-2.94,3.76-.42.28-.4.78-.21,1.21.37.84.59,1.69.38,3.01Z"/>
          </g>
        </g>
        <path class="cls-2" d="m618.24,113.22c-1.8.01-3.28-.7-4.47-2.1-.88-1.04-1.99-1.63-3.41-1.94-1.53-.34-3.04-1.05-4.13-2.37-.75-.92-1.71-1.56-2.96-1.68-1-.1-1.89-.58-2.72-1.11-.85-.55-1.74-.9-2.76-.94-1.16-.04-2.06-.53-2.69-1.53-.51-.81-1.32-1.12-2.22-1.38-1.64-.48-3.22-.96-5-.7-1.11.16-2.39.13-3.3-.8-1.2-1.23-2.83-1.92-4.02-3.12-1.14-1.14-2.45-1.35-3.92-1.29-1.34.05-2.68.05-4.02.03-.87-.01-1.25-.46-1.3-1.37-.05-.83.17-1.58.48-2.34,1.43-3.6,2.54-7.26,2.46-11.2-.02-1.07.23-2.14.33-3.21.06-.65.2-1.28.7-1.7,1.47-1.26,1.68-3,1.55-4.68-.26-3.2,1.17-6.11,1.31-9.23.01-.26.16-.51.28-.75,1.06-2.11,1.55-4.38,1.86-6.71.15-1.15.46-2.24,1.03-3.31,1.18-2.21.34-5.53-1.71-7.02-1.69-1.23-3.48-2.28-5.73-1.42-.33.13-.71.1-1.06.16-1.19.19-2.24.61-2.94,1.68-.46.7-1.07,1.25-1.94,1.31-2.1.14-3.71,1.26-5.24,2.53-.76.63-1.49,1.29-2.52,1.46-1.61.26-2.79,1.2-3.72,2.46-.55.75-1.21,1.26-2.08,1.61-1.43.58-2.71,1.41-3.58,2.73-.46.7-1.16,1.09-1.83,1.55-1.69,1.18-3.44,2.26-4.77,3.9-.8.99-1.87,1.65-3.11,2.02-1.2.36-2.37.83-3.56,1.24-1.41.49-2.56,1.25-3.08,2.76-.51,1.46-1.64,2.38-3.04,2.86-2.05.71-3.84,1.93-5.79,2.83-.64.3-1.25.7-1.8,1.16-.97.81-1.95,1.57-3.12,2.08-.48.21-.96.53-1.31.91-1.42,1.53-3.19,2.61-4.83,3.86-2.28,1.74-4.62,3.4-6.65,5.44-1.92,1.93-4.43,3.05-6.42,4.88-.13.12-.3.21-.47.26-2.39.72-4.19,2.37-6.06,3.89-1.19.97-2.42,1.82-3.81,2.49-.88.42-1.74.95-2.52,1.54-1.13.85-1.74,1.92-1.65,3.46.08,1.41.37,2.86-.04,4.28-.31,1.08-.24,2.12.29,3.13.57,1.09.58,2.23.31,3.41-.24,1.08-.2,2.16.33,3.15.58,1.1.48,2.25.42,3.41-.11,2.19-.91,4.44.47,6.53-.07,2,.58,3.89.85,5.84.07.52.13,1.18-.13,1.57-.51.78-1.22,1.6-2.05,1.9-.47-.55-.9-1.14-1.24-1.82-.5-1.02-1.17-1.77-2.16-2.31-.1-.05-.19-.13-.29-.18-.11-1.33-1.57-2.07-1.61-3.46,0-.13-.42-.28-.66-.38-2.06-.83-3.61-2.26-4.58-4.23-.5-1.02-1.17-1.77-2.16-2.31-.71-.39-1.39-.83-2.04-1.3-.8-.57-1.83-1.03-2.28-1.81-.05-.08-.11-.15-.16-.23-.08-.26-.15-.52-.19-.81-.07-.61-.32-1.22-.6-1.77-1.52-2.96-3.49-5.58-5.96-7.83-.87-.79-1.79-1.41-2.9-1.69-.11-.36-.26-.71-.42-1.04-1.52-2.96-3.49-5.58-5.96-7.83-1.03-.93-2.09-1.65-3.49-1.82-.44-.05-.88-.22-1.27-.42-.77-.39-1.52-.51-2.31-.07-.45.25-.86.07-1.26-.17-.62-.37-1.14-.85-1.6-1.42-1.07-1.32-2.19-2.59-3.28-3.9-1.22-1.48-2.63-2.62-4.6-2.96-1.05-.18-2.07-.58-3.1-.9-.97-.3-1.83-.73-2.22-1.78-.2-.53-.62-.89-1.15-1.06-.74-.24-1.19-.72-1.51-1.42-.18-.38-.52-.72-.85-1-1.58-1.31-3.29-2.43-5.07-3.46-.65-.37-1.28-.62-2.03-.44-1.11.26-2.16.08-3.1-.53-.72-.47-1.48-.58-2.3-.63-.84-.06-1.53-.45-2.08-1.1-1.32-1.59-3.1-2.72-4.32-4.41-.32-.45-.77-.81-1.34-.8-.96.01-1.74-.33-2.46-.93-.35-.29-.78-.56-1.23-.44-1.6.41-2.74-.45-3.91-1.3-.87-.63-1.74-1.29-2.69-1.77-1.41-.72-2.8-1.29-4.55-1.2-2.8.14-5.53-.55-7.68-2.57-.59-.55-1.17-.79-1.93-.52-.6.21-1.35.53-1.82.17-1.1-.84-2.55-.79-3.61-1.54-.8-.57-1.39-.56-2.19-.14-.54.29-1.26.23-1.79.53-1.28.71-2.39.46-3.49-.35-1.1-.82-2.25-1-3.54-.42-1.54.71-3.19.14-4.78.33-.55.07-1.01-.31-1.39-.71-.76-.79-1.7-1.64-2.68-1.67-1.89-.06-3.87-1.05-5.72.24-.25.17-.7.15-1.03.11-2.66-.35-5.3-.54-7.9.39-.4.15-.89.07-1.34.07-1.35.02-2.67-.15-4-.38-1.9-.33-3.75-1.18-5.76-.64-.33.09-.75.05-1.06-.09-1.1-.51-2.19-.4-3.37-.31-3.81.27-6.08.62-9.37,1.76-.59.21-1.21.37-1.83.43-.99.09-1.9.49-2.83.69-1.54.33-3.17,1.65-4.76.04-.11-.11-.36-.19-.5-.14-1.36.45-2.87-.19-4.2.61-.52.31-1.18.4-1.78.53-.53.12-1.07.21-1.43.65-.69.87-1.56.96-2.64.91-2.97-.14-5.62.77-7.84,2.81-.61.56-1.32,1.06-2.13,1.04-1.88-.06-3.47.8-5.08,1.52-1.1.49-2.16.87-3.36.67-.91-.21-1.76-.11-2.6.36-.45.25-1.01.38-1.53.43-.84.07-1.58.28-2.15.94-.39.45-.94.48-1.48.51-.47.02-.89.2-1.15.59-.55.83-1.37,1.13-2.3,1.19-1.11.08-2.05.58-2.98,1.14-3,1.8-6.21,3.15-9.43,4.5-.65.27-1.3.63-1.86,1.06-.87.68-1.86,1.01-2.88,1.38-2.67.96-4.91,2.56-6.29,5.11-.66,1.23-1.34,2.25-2.84,2.61-.66.16-1.22.69-2.01.55-.59-.1-.94.26-1.3.73-1.35,1.77-2.97,3.08-5.4,2.91-.73-.05-1.49.16-1.98.71-.98,1.1-2.28,1.71-3.46,2.51-1.1.75-2.26,1.47-2.9,2.74-.32.65-.86,1.22-1.52,1.48-1.76.69-2.49,2.24-3.32,3.72-.26.47-.48.96-.71,1.45-.4.85-.99,1.54-1.92,1.75-1.09.25-1.65.95-2.1,1.89-.35.74-.9,1.45-1.71,1.63-1.97.44-3,2.03-3.9,3.48-1.77,2.87-4.18,5.33-5.57,8.45-.22.49-.62,1.05-1.2.93-1.18-.23-1.8.3-2.42,1.2-.45.64-1.13,1.16-1.79,1.62-.77.54-1.19,1.23-1.57,2.09-.72,1.63-1.64,3.14-3.03,4.37-1.19,1.05-2.15,2.37-3.2,3.58-.17.19-.36.47-.35.7.09,1.79-.72,3.54-.33,5.32.23,1.08-.08,1.7-1.06,2.14-.39.17-.83.5-.98.86-.87,2.1-2.41,3.77-3.53,5.7-.76,1.31-1.58,2.36-3.1,2.74-.6.15-.94.63-.87,1.2.22,1.97-.74,3.66-1.22,5.47-.19.71-.41,1.36-1.08,1.78-.29.18-.6.45-.74.76-.51,1.08-1.2,1.97-2.22,2.63-.4.25-.45.73-.48,1.2-.13,2.1-.81,4-2.23,5.59-.37.41-.79.84-.65,1.41.35,1.5-.51,3.02.11,4.53.21.51.05,1.08-.42,1.46-.83.67-.82,1.47-.58,2.42.37,1.5.47,3.07-.17,4.5-.67,1.49-.55,3.16-1.23,4.63.12,2.5-.83,4.73-1.8,6.94-1.29,2.94-2.03,6.11-3.61,8.94-.48.87-.58,1.85-.53,2.87.06,1.35.24,2.68.62,3.98.4,1.35.45,2.63-.38,3.87-.29.43-.62,1.04-.53,1.48.21,1,.26,1.9-.33,2.79-.09.14.05.57.22.71,1.21,1,.97,2.12.49,3.4-.67,1.75-1.18,3.56-1.75,5.35-.2.61-.16,1.23-.08,1.86.37,3.02.84,6.03.52,9.09-.06.54-.08,1.11.26,1.56,1.45,1.92,1.36,4.05.7,6.16-.65,2.09-.52,4.06.28,6.03.35.86.48,1.71.31,2.63-.33,1.82.03,3.64.62,5.28.52,1.44.69,2.74.4,4.18-.24,1.2-.09,2.41.63,3.35,1.03,1.34,1.3,2.92,1.84,4.43.37,1.04.24,2.17.66,3.14.84,1.93.92,4,1.28,6.02.21,1.2.07,2.61.92,3.55,1.13,1.24,1.3,2.66,1.53,4.19.29,2,.01,4.06,1.01,6,.62,1.2,1.28,2.36,2.03,3.46.49.72.81,1.38.13,2.18-.31.36-.3.86-.08,1.28.7,1.29,1.01,2.67,1.14,4.12.04.42.26.87.52,1.22.48.66.74,1.44,1.17,2.1,1.02,1.58,1.72,3.34,3.02,4.75,1.56,1.69,2.48,3.71,2.74,6.01.08.74.4,1.35.68,2.01.68,1.6,1.74,2.94,2.8,4.25.77.96,1.46,2.07,2.62,2.67.98.5,1.78,1.21,2.3,2.19.31.58.79.98,1.35,1.28.08.04.13.1.21.14,0,0,0,.02.01.02.38.9.89,1.71,1.44,2.49.12,1.35.62,2.55,1.34,3.69.52.83.88,1.76,1.36,2.62,1.4,2.5,2.88,4.95,5.21,6.71.67.51.99.96.68,1.78-.22.59.06,1.05.57,1.35,1.81,1.09,2.97,2.77,4.14,4.46.76,1.09,1.38,2.45,2.42,3.11,1.03.65,1.49,1.45,1.9,2.43.6,1.47,1.52,2.63,3.1,3.16.37.13.69.34.98.59.3.41.6.84.89,1.26.76,1.09,1.38,2.45,2.42,3.11,1.03.65,1.49,1.45,1.9,2.43.6,1.47,1.52,2.63,3.1,3.16.61.2,1.09.61,1.51,1.09.36.42.84.64,1.36.83,1.77.64,3.47,1.43,4.83,2.79.24.24.59.4.92.55,1.91.85,3.54,2.11,4.97,3.6.94.98,1.94,1.83,3.03,2.63,1.44,1.06,2.84,2.2,3.48,3.98.16.44.46.77.9.94,2.49.97,4.15,3.04,6.18,4.63.63.49,1.12,1.11,1.94,1.39,2.73.92,5.38,1.98,6.94,4.67.12.21.4.42.63.46,1.24.2,2.34,1.02,3.62.92,1.84-.15,3.54.46,5.3.78.8.15,1.55.37,2.17.98.3.3.75.5,1.16.63,1.25.39,2.24,1.11,2.97,2.19.25.38.51.84.97.87,1,.07,1.51.81,2.22,1.32.78.56,1.68,1.01,2.68,1.17.61.1,1.24.26,1.79.54,1.21.62,2.43,1.15,3.83,1.09,1.42-.06,2.48.98,3.79,1.25.26.05.54-.03.8,0,.8.13,1.58.29,2.38.43.56.1,1.07.35,1.3.86.76,1.66,2.2,2.25,3.83,2.62.7.16,1.37.41,2.04.68,1.1.43,2.21.69,3.41.59,1.07-.08,2.18-.08,3.19.32,2.73,1.08,5.63,1.03,8.46,1.19,2.56.15,4.97.57,7.24,1.72,1.28.65,2.63,1.16,3.75,2.08.36.3.76.55,1.22.45.75-.16,1.41,0,2.07.35.32.17.71.15,1.01-.1,2-1.61,4.28-.74,6.43-.63.71.04,1.34.31,2.02-.14.38-.26.85-.22,1.31-.12,1.66.37,3.4.26,5.02.91.59.24,1.22.28,1.85.15,2.7-.57,5.47-.72,8.19-1.25,1.84-.36,3.91-.74,5.74.48.48.32,1,.2,1.54.02,1.8-.62,3.61-.88,5.51-.36,1.02.28,2.13.26,3.19.34,1.47.11,2.86-.08,4-1.16.67-.63,1.54-.91,2.4-1.16,1.47-.43,2.96-.75,4.49-.82,1.44-.07,2.83-.2,4.17-.87.86-.43,1.85-.6,2.86-.65,1.52-.07,2.96-.45,4.3-1.27.75-.46,1.63-.84,2.49-.95,1.28-.16,2.42-.61,3.6-1.04.59-.21,1.18-.5,1.79-.55,2.8-.2,5.08-1.42,7.28-3.11,1.82-1.41,3.75-2.86,6.16-3.15,2.96-.36,5.82-.96,8.44-2.43,2.6-.24,4.31-2.09,6.1-3.62.97-.83,2-1.47,3.06-2.11.69-.41,1.49-.67,2.1-1.17.94-.75,1.98-1.27,3.13-1.46,2.51-.41,4.23-2.13,5.55-3.94,1.42-1.95,3.5-2.73,5.23-4.09,2.25-.29,3.88-1.6,5.47-3.1.65-.61,1.42-1.01,1.67-1.97.24-.91.94-1.5,1.68-2.04,2.68-1.95,5.25-4.03,7.38-6.6.45-.54,1-1.04,1.57-1.45,1.77-1.26,3.1-2.94,4.36-4.65.62-.83,1.2-1.47,2.16-1.87,1.52-.62,2.76-1.59,3.52-3.14.43-.87,1.13-1.62,1.64-2.45.36-.59.79-.93,1.51-.88.69.05,1.17-.33,1.6-.83.76-.89,1.63-1.66,2.61-2.31.51-.34.95-.82,1.32-1.32.76-1.01,1.56-1.97,2.69-2.59.49-.27.84-.67,1.07-1.17.99-2.1,2.24-4.09,2.19-6.55-.03-1.31.46-2.49,1.4-3.4.86-.84,1.4-1.84,1.86-2.92.41-.99,1.16-1.82,1.29-2.94.05-.46.36-.81.71-1.11.69-.58,1.29-1.29,2.06-1.71,1.91-1.06,3.08-2.67,3.85-4.65.29-.76.66-1.49,1.28-2.03,1.57-1.36,1.98-3.16,1.88-5.1-.06-1.12.27-2.13.57-3.15.26-.88.87-1.8,1.81-1.79,1.66.02,2.16-.89,2.46-2.24.11-.51.34-1.06.67-1.46,1.38-1.64,1.34-3.7,1.44-5.6.11-2.12.41-4.27-.08-6.41-.35-1.53.1-2.82,1.55-3.68.96-.57,1.61-1.39,1.72-2.59.06-.67.48-1.15,1.12-1.39.77-.29,1.07-.83,1.16-1.64.08-.7.24-1.44.54-2.07.95-1.97.78-3.97.25-5.98-.17-.65-.16-1.22.09-1.82.5-1.16,1.04-2.29,1.89-3.24.36-.4.83-.78.98-1.26.64-1.95,1.4-3.98.96-6.02-.43-1.96-.55-3.88-.44-5.85.12-2.12,0-4.32,1.46-6.13.29-.37.43-.82.31-1.26-.21-.76.07-1.39.33-2.07.36-.96-.81-1.31-.93-2.1-.04-.26-.05-.53-.07-.8-.05-.8-.07-1.61-.15-2.4-.1-.99-.08-1.97.13-2.94.34-1.57.6-3.17.98-4.73.48-2,.99-3.99.07-6.01-.1-.23,0-.54-.05-.8-.04-.26-.08-.67-.24-.73-1.19-.48-.99-1.87-1.77-2.6-1.14-1.08-1.11-2.49-.75-3.75.28-1,.37-1.88.18-2.87-.3-1.58-.68-3.18.62-4.57.22-.23.3-.68.29-1.02-.04-1.82,1.53-3.52.44-5.42-.03-.06.02-.18.05-.26.39-.86.13-1.3-.64-1.98-1.57-1.38-2.64-3.15-2.19-5.45.1-.52.13-1.08.05-1.59-.25-1.59-.61-3.16-.87-4.75-.26-1.59-.61-3.15-.73-4.78-.1-1.38-.28-2.76-.97-4.11-.91-1.79-.88-3.98-2.12-5.7-.14-.19-.03-.53-.1-.79-.51-1.99-.97-4.04-2.4-5.59-1.85-1.99-2.77-4.39-3.21-6.95-.48-2.83-2.26-5.02-3.31-7.56-1.55-.99-1.84-2.8-2.74-4.21-.38-.6-.73-1.28-.71-2.01.04-1.07-.33-2.02-.72-2.97.48-.25.97-.47,1.52-.62,1.06-.29,1.9-.39,2.77.17,1.32.84,2.69,1.41,4.31,1.23.33-.04.69.14,1.03.27,2.01.76,4.06,1.43,5.92,2.53.64.38,1.31.6,2.04.57,1.2-.05,2.31.3,3.39.73,1.6.63,3.27.94,4.97,1.11.9.09,1.79.14,2.97.82,2.34.8,5,1.1,7.53-.74.65-.47,1.35-.88,2.04-1.3,1.22-.75,2.37-1.69,3.69-2.19,2.24-.86,4.1-2.18,5.75-3.87.82-.85,1.79-1.42,2.94-1.79,1.78-.58,3.52-1.28,5.15-2.27,1.05-.64,2.12-1.44,3.41-1.52,1.23-.08,2.23-.61,3.23-1.23,1.52-.95,3.03-1.89,4.77-2.43,1.01-.31,2.01-.87,2.8-1.56,1.39-1.2,3.02-1.86,4.64-2.64,2.33-1.12,4.82-1.95,6.93-3.5,1.08-.8,2.18-1.56,3.49-1.98.86-.27,1.63-.76,2.17-1.52.54-.77,1.25-1.28,2.15-1.51.72-.19,1.23-.69,1.8-1.13,2.06-1.61,4.22-3,6.93-3.35,2.48-.32,4.54-1.61,6.42-3.19,1.45-1.22,2.93-2.35,4.68-3.12.4-.17.83-.44,1.06-.79.7-1.03,1.78-1.48,2.81-2.02.71-.37,1.46-.7,2.17-1.07,1.44-.75,2.37-1.91,2.71-3.49.81-3.7-1.51-7.12-4.96-7.1Zm-382.5,226.19c-.44-.47-.86-.95-1.33-1.39-.07-.17-.18-.32-.21-.52-.29-1.49-.67-2.96-.87-4.46-.12-.85-.42-1.54-1-2.13-.69-.7-1.46-1.33-1.93-2.23-.22-.41-.65-.58-1.07-.76-1.45-.62-2.61-1.59-3.08-3.14-.28-.93-1.3-1.23-1.54-2.15-.32-1.2-1.32-2.16-1.29-3.5,0-.17-.08-.36-.17-.5-2.01-3.27-3.34-6.91-5.44-10.12-.59-.9-.84-1.74-.64-2.77.08-.44,0-.91.13-1.33.36-1.21-.04-2.23-.47-3.35-1.01-2.58-2.66-4.62-4.77-6.35-.8-.66-1.37-1.4-1.2-2.53.05-.34,0-.74-.15-1.05-.48-.96-.37-1.9-.06-2.87.31-.97.36-1.93-.28-2.83-.65-.93-.33-2.13-.76-3.09-.4-.89-1.54-1.18-1.99-2.13-.35-.73-.95-1.43-.66-2.25.47-1.35-.1-2.68.03-3.98.24-2.38-.46-4.4-1.81-6.27-.48-.66-.37-1.34-.11-2.05.34-.93.63-1.86.69-2.86.1-1.66-.04-3.24-1.27-4.51-.63-.65-.85-1.37-.44-2.2.54-1.11.43-2.31.38-3.44-.09-1.79-.24-3.53.05-5.34.19-1.21-.34-2.45-.95-3.59-.79-1.47-1.1-2.9,0-4.47.8-1.15.92-2.69,1.87-3.83.29-.35.08-.86.02-1.3-.43-2.82-.02-5.54.99-8.18.5-1.29.85-2.52.15-3.87-.22-.43-.11-1.05-.06-1.58.05-.54.21-1.12-.11-1.57-.66-.91-.33-1.9-.39-2.87-.06-.87.22-1.6.86-2.17.58-.51.86-1.09.74-1.9-.19-1.28.37-2.46.54-3.7.11-.8.61-1.5,1.18-2.08,1.43-1.46,1.86-3.35,1.63-5.2-.46-3.64.85-6.85,1.9-10.17.68-2.14,2.32-3.8,2.81-6.01.04-.17.14-.34.26-.47,1.75-1.91,2.61-4.45,4.49-6.27.44-.43.72-1.02,1.07-1.54.75-1.12,1.44-2.28,2.26-3.34.89-1.13,1.86-2.19,2.09-3.69,1.27-1.44,1.46-3.15,1.25-4.97-.18-1.6.6-2.73,1.76-3.7,1.02-.86,2.11-1.6,2.69-2.93.25-.59.98-1.06,1.6-1.38,1.01-.53,1.66-1.33,2.2-2.28.88-1.54,2.21-2.81,2.63-4.63.19-.8.9-1.31,1.61-1.74,1.1-.67,1.95-1.52,2.46-2.75.5-1.23,1.68-1.84,2.77-2.45,2.03-1.13,4.01-2.29,5.35-4.27,1.79-.96,2.63-3.07,4.76-3.73,1.12-.35,1.91-1.56,3.12-2,.28-.1.5-.51.63-.83.8-1.88,2.37-2.85,4.16-3.53,1.55-.58,2.61-1.85,3.93-2.75.37-.25.43-.95.64-1.44.63-1.42,1.4-2.55,3.1-3.07,1.78-.55,3.41-1.61,4.8-2.91,1.08-1.02,2.24-1.75,3.78-1.83.8-.04,1.59-.28,2.37-.46,1.51-.33,2.83-.9,3.94-2.09,1.5-1.61,3.29-2.79,5.69-2.43.59.09,1.05-.15,1.43-.57,1.04-1.15,2.15-2.16,3.8-2.32.23-.02.54-.23.64-.44,1.07-2.1,3.42-1.69,5.11-2.59.38-.2,1.04.07,1.57.18,1.23.25,2.45.52,3.72.57,1,.04,1.95.16,2.8-.56.25-.21.67-.3,1-.29.88.03,1.55-.31,2.16-.9.53-.5,1.17-.82,1.87-1.02.53-.15,1.01-.44,1.28-.92.64-1.15,1.72-1.31,2.8-1.12,1.71.29,3.34.12,4.97-.37,2-.6,4.07-.09,6.08-.39.44-.07.98.15,1.32-.04,3.25-1.82,6.74-1.22,10.19-1.09,1.35.05,2.6-.43,3.88-.91,2.53-.96,5.17-1.35,7.82-.33.17.06.36.2.5.17,2.73-.62,5.45.99,8.19,0,.57-.21,1.31-.33,1.85-.14,1.95.69,4.06.59,5.98,1.45,1.78.81,3.63,1.46,5.43,2.28,1.87.85,4.09.74,6.07.08,1.98-.66,3.85-.66,5.75.05.64.24,1.23.09,1.85-.01,1.02-.17,1.97-.13,2.67.81.15.21.38.46.61.51,1.83.44,3.33,1.63,5.03,2.29,1.44.56,2.84,1.09,3.96,2.17.61.59,1.3.9,2.14.99.71.08,1.4.31,2.1.44,1.22.23,2.12.91,2.87,1.86.39.49.82.95,1.23,1.42.67.77,1.49,1.26,2.5,1.45,1.49.28,2.93.8,4.49.77,1.09-.02,2.09.35,3,1.02.86.64,1.84,1.1,2.7,1.74.57.42,1.03.99,1.51,1.52.18.19.22.54.42.68,2,1.4,3.39,3.37,4.98,5.16,1.59,1.79,3.57,3.25,5.39,4.83.4.35.93.56,1.31.92.5.47,1.04.68,1.71.58.96-.13,1.83.07,2.51.63.65.92,1.55,1.68,2.6,2.27,1.85,1.04,3.21,2.57,4.77,3.89.27.23.48.53.68.82.05.07.1.13.14.19.03,2.56,1.56,4.46,3.69,5.66,1.85,1.04,3.21,2.57,4.77,3.89.27.23.48.53.68.82.29.42.59.82.9,1.21.18.61.28,1.26.36,1.9-.54.41-1.08.83-1.6,1.27-1.31,1.13-2.85,1.86-4.52,2.19-.86.17-1.41.55-2.02,1.13-1.68,1.62-3.49,3.19-5.8,3.74-1.66.39-2.93,1.24-4.16,2.3-.61.52-1.2,1.1-1.9,1.47-1.04.55-2.04,1.1-2.83,1.99-.42.48-1.03.7-1.67.8-.25.04-1.31.55-2.53,1.15-.28-1.03-.86-1.79-1.78-2.42-.12-.08-.14-.32-.19-.49-.21-.7-.7-.9-1.4-1-1.9-.27-3.57-.99-4.73-2.68-.03-.04-.07-.07-.1-.11-.11-1.09-.84-2-.94-3.03-.14-1.49-.8-2.45-1.94-3.24-.12-.08-.14-.32-.19-.49-.21-.7-.7-.9-1.4-1-1.9-.27-3.57-.99-4.73-2.68-.76-1.11-1.73-2.06-2.9-2.77-.46-.28-.96-.57-1.09-1.13-.26-1.07-1.03-1.58-1.92-2.09-1.55-.89-3.12-1.76-3.84-3.6-.31-.79-1.14-1.12-1.98-1.23-1.94-.26-3.48-1.32-5.06-2.36-1.25-.82-2.23-1.79-2.69-3.22-.26-.83-.8-1.15-1.61-1.09-1.13.08-2.08-.36-3.05-.88-3.15-1.69-6.23-3.53-9.49-5.02-.85-.39-1.6-.59-2.55-.5-1.99.19-3.94-.06-5.64-1.26-1.05-.75-2.21-1.15-3.51-1.2-1.93-.08-3.72-.73-5.28-1.82-1.48-1.03-3.28-1.46-4.67-2.64-.23-.2-.69-.23-1.02-.2-.65.07-1.24,0-1.83-.28-.42-.2-.87-.26-1.29-.02-2.03,1.12-4.24.51-6.31.4-2.09-.11-4.15-.95-6.22-1.48-.25-.06-.62-.13-.7-.31-.63-1.37-1.67-1.05-2.75-.76-.42.12-.92.18-1.33.08-1.77-.42-3.57-.11-5.33-.28-1.68-.16-2.83.89-4.26,1.26-.64,1.32-1.87,1.16-3.03,1.23-1.34.08-2.68.21-4.01.37-.43.05-.86.22-1.25.43-2.46,1.32-5.04,2.19-7.87,2.25-.7.01-1.48.12-2.08.46-2.12,1.18-4.47,1.32-6.77,1.52-1.98.17-3.87.6-5.76,1.1-.33.09-.75.24-.91.5-.9,1.49-2.46,2.33-3.51,3.65-.89,1.12-1.95,1.82-3.32,2.1-.72.15-1.33.44-1.86.99-2.01,2.07-4.31,3.73-6.94,4.97-1.35.64-2.44,1.81-4.07,1.82-.15,0-.33.16-.44.29-1.35,1.66-3.4,2.27-5.16,3.24-2.03,1.12-3.66,2.52-4.88,4.44-.35.55-.71,1.05-1.3,1.31-1.69.76-2.29,2.74-3.97,3.52-.19.09-.29.44-.38.69-1.03,2.78-2.14,5.51-4.78,7.23-.14.09-.29.25-.34.4-.51,1.61-1.85,2.78-2.13,4.58-.29,1.83-1.15,3.48-2.92,4.58-1.34.84-2.53,1.99-2.93,3.71-.19.84-.94,1.27-1.66,1.67-.5.27-.93.71-.81,1.28.25,1.19-.32,2.04-.93,2.96-.65.96-1.11,2.05-1.71,3.05-.43.72-.69,1.44-.49,2.29.22.92-.09,1.79-.37,2.63-.47,1.42-1.39,2.68-1.34,4.28.01.31-.25.68-.48.95-.96,1.14-1.3,2.53-1.71,3.91-.76,2.57-1.58,5.12-2.38,7.68-.08.26-.15.53-.3.74-1.53,2.14-1.9,4.59-2.01,7.13-.02.44.05.98-.16,1.31-1.41,2.14-1.34,4.54-1.38,6.94-.02.98-.31,1.95-.35,2.93-.06,1.25.21,2.55-.53,3.67-.71,1.07.04,2.57-1.1,3.49-.21,2.11-.56,4.22-.56,6.33,0,.83.3,1.69.32,2.6.02,1.31.23,2.68.67,3.92.45,1.26.8,2.58,1.35,3.79.57,1.23.66,2.47.43,3.67-.22,1.14-.45,2.05.7,2.81.3.2.51.8.48,1.2-.13,1.77.23,3.6-.66,5.28-.16.31-.33.7-.28,1.01.16,1.1-.31,2.15-.2,3.21.15,1.41,1.22,2.61.98,4.13-.03.16.03.36.11.52.12.24.24.51.43.67,1.12.91,1.46,2.28,1.87,3.52,1.02,3.07,2.75,5.79,4.07,8.71.7,1.54,1.1,2.99,1,4.63-.07,1.07-.43,2.12-.13,3.07,0,.32.02.5,0,.68-.31,2.05.01,3.89,1.64,5.37.32.29.49.74.7,1.14.25.49.54.94,1.06,1.17,1.09.5,1.52,1.38,1.77,2.51.39,1.78,1.89,2.99,2.58,4.65.13.32.74.45,1.14.65,1.15.56,2.17,1.32,2.99,2.26.74.85,1.53,1.64,2.39,2.36.07.2.13.41.18.64.39,1.78,1.89,2.99,2.58,4.65.13.32.74.45,1.14.65.5.24.95.54,1.4.85.02.04.04.08.06.12.64,1.77,1.88,3.03,3,4.36,1.24,1.48,2.37,3.19,4.24,4.03.41.18.8.39,1.19.61.36.5.66,1.02.86,1.56.64,1.77,1.88,3.03,3,4.36,1.24,1.48,2.37,3.19,4.24,4.03,1.82.81,3.39,2.01,4.97,3.16,1.76,1.29,3.58,2.37,5.67,2.98.34.1.82.19.95.44.57,1.07,1.75,1.53,2.39,2.45.54.77,1.13,1.33,1.94,1.76.79.42,1.53.96,2.07,1.69,1,1.35,3.09,1.04,3.97,2.58.07.12.32.14.49.2.08.03.18.03.26.05,1.86.38,3.59,1,4.86,2.54.16.2.42.39.66.44,1.38.24,2.4,1.17,3.57,1.83,1.19.68,2.47,1.09,3.84,1.11,1.09.02,2.12.28,3.18.44,1.79.27,3.42,1.21,5.17,1.39,2.16.22,3.74,1.1,4.82,2.93.44.75,1.07.87,1.84.73,1.44-.25,2.85-.04,4.26.29.87.2,1.78.48,2.64.41,2.21-.19,4.21.6,6.23,1.2,1.77.52,3.45,1,5.22.19.99-.46,1.94-.2,2.88.09.51.15.96.48,1.45.7,1.35.6,2.73.9,4.14.19.67-.33,1.37-.42,2.09-.3,1.02.17,1.25-.92,1.97-1.2.32-.12.72-.05,1.06-.15,1.63-.51,3.34-.19,5.01-.73,1.52-.5,3.09-.77,4.48-1.66.51-.33,1.16-.52,1.77-.59,1.09-.13,2.07-.45,3.01-1.03,1.52-.94,3.23-1.07,4.93-.65.83.21,1.56.35,2.3-.19.56-.41,1.22-.2,1.83-.26.89-.08.77-1.18,1.47-1.45.17-.06.32-.16.49-.21,2-.58,3.69-1.83,5.59-2.61,1.65-.68,3.28-1.48,5-1.83.94-.19,1.65-.4,2.27-1.12.72-.85,1.64-1.36,2.78-1.47,2.37-.24,4.14-1.52,5.56-3.32,1.3-1.64,2.86-3.03,4.68-3.94,1.33-.66,2.19-1.45,2.64-2.8.08-.25.28-.46.38-.71.41-1.06,1.15-1.65,2.17-2.21,1.95-1.06,3.74-2.42,5.57-3.7.35-.24.54-.7.8-1.07,1.08-1.55,2.25-3,3.98-3.92.54-.29.99-.75,1.47-1.16,1.65-1.42,2.66-3.36,4.03-5.02.32-.39.49-.97.54-1.49.16-1.88,1.29-2.86,2.96-3.43.68-.23,1.51-.32,1.98-.78,1.09-1.07,2.41-1.86,3.46-2.92.71-.71.64-2,1.23-2.94.31-.5.28-1.21.43-1.81.28-1.13.45-2.32.92-3.37.56-1.25.87-2.51.99-3.87.17-1.91.68-3.64,2.48-4.82,1.31-.86,1.99-2.29,2.14-3.89.05-.54.04-1.1.4-1.53.61-.73.7-1.62.91-2.49.23-.97.33-1.91.26-2.92-.08-1.2,1.29-1.67,1.61-2.7.03-.09.08-.17.09-.25.32-1.6,1.13-3.02,1.68-4.53.18-.5.39-1.02.43-1.54.24-3.56.7-7.12.17-10.7-.05-.34-.06-.75.08-1.05.65-1.38.42-3.04,1.47-4.29.2-.23.26-.7.2-1.02-.4-2.16.38-4.07,1.24-5.96.79-1.73,1.46-3.44.8-5.39-.14-.4-.02-.89-.04-1.34-.15-2.93.04-5.87-.92-8.74-.36-1.06-.78-2.33-.3-3.42.5-1.13.32-2.29.61-3.41.31-1.2-.02-2.24-.62-3.33-.94-1.71-1.97-3.41-2.16-5.44-.03-.35-.17-.7-.32-1.02-1.01-2.1-2.02-4.21-2.32-6.57-.04-.33-.29-.65-.49-.95-1.28-1.93-1.42-4.22-2.05-6.35-.13-.45-.02-.91.27-1.27.81-1.02.73-2.13.46-3.32-.18-.78-.13-1.61-.23-2.41-.08-.62-.04-1.41-.4-1.8-1.01-1.09-1.41-2.49-2.09-3.75.4-.14.82-.24,1.27-.27.64-.03,1.24-.25,1.74-.65,1.28-1.02,2.77-1.66,4.24-2.33,1.81-.83,3.54-1.91,4.85-3.28,1.35-1.42,2.83-2.41,4.54-3.21,2.11-.99,4.13-2.07,5.52-4.1.76-1.11,1.94-1.8,3.33-2.12.29-.07.58-.15.86-.24.73,1.37,1.76,2.42,2.93,3.44.34.29.73.53,1.03.85.85.92,1.39,2.06.62,3.18-1.41,2.06-.63,4.1-.23,6.17.14.7.48,1.35.66,2.04.16.63.39,1.22.94,1.58,1.83,1.16,2.08,3.04,2.26,4.93.15,1.6.27,3.24.25,4.82-.01,1.29.83,2.33.55,3.66-.27,1.24.3,2.45.64,3.66.21.75-.11,1.7.21,2.37.57,1.19.95,2.3.44,3.58-.06.15-.05.42.05.52,1.16,1.1.5,2.54.78,3.8.51,2.29.3,4.61.51,6.91.02.27.1.56.02.8-.71,1.96-.04,3.77.46,5.64.36,1.34.15,2.68-.66,3.85-.62.9-1.12,1.83-1.36,2.9-.32,1.44-.42,2.87.45,4.16.5.73.6,1.47.39,2.3-.2.78-.31,1.59-.57,2.34-.5,1.45-.82,2.89-.84,4.44-.04,2.27-.52,4.46-2.19,6.18-.4.41-.52.92-.62,1.45-.17.88-.4,1.74-.56,2.62-.08.43-.23.96-.06,1.3.88,1.74.26,3.35-.38,4.91-.36.88-.52,1.66-.33,2.59.23,1.12-.04,2.23-.91,2.96-1.13.94-1.52,2.2-1.89,3.48-.58,1.97-1.05,3.99-.87,6.07.08.93-.06,1.77-.4,2.62-.37.91-.67,1.85-.96,2.8-.13.42-.32.98-.15,1.29.64,1.18.04,2.03-.5,2.98-1.16,2.01-2.84,3.7-3.7,5.9-.09.23-.31.51-.53.59-1.67.61-2.57,2.23-4.07,3.04-.68.37-1.15.85-1.13,1.68,0,.38-.11.74-.44.92-.86.47-1.12,1.07-.64,1.99.31.6.21,1.28-.17,1.8-.91,1.26-1.25,2.78-2.02,4.09-.99,1.69-2.01,3.36-3.12,4.97-.46.67-.89,1.33-1.24,2.07-.5,1.06-.96,2.14-2.25,2.51-.24.07-.54.27-.61.48-.57,1.55-1.91,2.03-3.29,2.48-.52.17-.92.54-1.24,1-.26.37-.47.8-.81,1.07-1.24.95-2.02,2.07-2.42,3.68-.4,1.6-1.71,2.79-3.42,3.12-2.37.46-3.69,2.04-4.65,4.05-.38.81-.68,1.65-1.06,2.47-.69,1.5-1.44,1.91-3.19,1.78-1.78-.15-3.37.36-4.68,1.56-1.92,1.75-3.8,3.54-5.67,5.34-.65.62-1.14,1.35-1.48,2.21-.88,2.22-2.81,3.42-4.72,4.59-.7.43-1.51.34-2.35.24-2.92-.35-5.19,1.13-7.09,3.05-1.28,1.29-2.69,2.3-4.16,3.29-1.95,1.3-4.25,1.8-6.43,2.51-1.77.58-3.13,1.62-4.29,2.93-.74.83-1.46,1.22-2.54,1.13-.98-.09-1.97-.14-2.96-.1-1.51.06-3.02.13-4.25,1.27-.44.41-1.08.67-1.67.82-1.24.31-2.35.85-3.47,1.42-1.62.83-3.45.93-5.19,1.31-.7.15-1.4.25-2.06.54-.48.21-1.02.36-1.54.42-2.56.25-5.13.46-7.7.68-.18.02-.37-.02-.54.03-3.82,1.12-7.64.39-11.47.05-1.52-.14-3.03-.22-4.55-.23-1.15,0-2.14.21-2.94,1.03-.65.66-1.5.96-2.23,1.46-1.75,1.19-3.59.91-5.06-.12-1.84-1.29-3.79-1.35-5.79-1.28-1.71.05-3.4.04-5.08-.31-.71-.15-1.4-.32-1.87-.95-.51-.68-1.19-.61-1.94-.47-.88.16-1.78.21-2.67.21-1.24,0-2.3-.38-2.74-1.72-.23-.71-.78-.97-1.48-.86-1.18.18-2.33-.03-3.48-.2-.72-.11-1.42-.19-2.14-.07-.91.15-1.75.04-2.6-.41-1.56-.83-3.35-.44-5.01-.8-.69-.15-1.42-.16-2.14-.21-.95-.06-1.71-.43-2.3-1.2-.27-.35-.6-.74-.99-.87-1.76-.63-3.53-1.27-5.35-1.73-1.99-.51-4.03-.83-6.05-1.24-1.06-.21-2.09-.43-2.82-1.39-.24-.31-.74-.48-1.16-.6-2.61-.77-5.04-1.86-7.03-3.77-.53-.51-1.17-.81-1.87-1.01-1.38-.41-2.74-.85-3.84-1.85-.32-.29-.77-.51-1.2-.58-1.68-.3-2.82-1.53-4.17-2.38-.94-.59-1.44-1.61-1.85-2.6-.43-1.05-1.12-1.8-2.01-2.45-.65-.47-1.25-1.02-1.8-1.61-1-1.07-2.03-2.01-3.61-2.1-.41-.02-.82-.33-1.21-.54-.32-.16-.62-.55-.91-.53-1.69.12-2.7-.62-3.12-2.24-.02-.08-.09-.17-.16-.21-2.31-1.57-3.87-3.95-6-5.71-.07-.06-.13-.15-.21-.16-.12-.02-.21-.06-.32-.09-.35-.35-.73-.68-1.12-1.03-.75-.66-1.36-1.47-2.12-2.13-.07-.09-.15-.18-.23-.27Zm57.43-34.11c-.54-1.29-1.45-2.24-2.65-2.94-.28-.16-.53-.36-.8-.54.01-.13,0-.25.06-.41.17-.43-.22-.86-.64-1.07-1.16-.6-1.9-1.61-2.68-2.6-.33-.42-.69-.85-1.13-1.13-.01,0-.02-.02-.03-.03-.43-1.1-1.11-2-1.94-2.79-.54-.82-1.26-1.47-2.14-1.99-.07-.04-.13-.09-.2-.14-.82-.91-1.39-1.96-1.59-3.24-.11-.72-.32-1.39-.71-2.01-.18-.3-.41-.66-.39-.98.11-1.74-.88-3.02-1.66-4.43-.77-1.39-1.3-2.87-1.05-4.61.27-1.89-.27-3.74-1.26-5.41-.32-.54-.62-1.1-.84-1.67-.3-.77-.44-1.58-.04-2.35.53-1.02.46-2.06.29-3.14-.16-.99-.14-1.97.63-2.78.58-.61.44-1.25.16-1.99-.31-.83-.54-1.72-.6-2.6-.08-1.09-.08-2.13-.97-2.96-.42-.39-.34-.97-.21-1.52.21-.87.28-1.78.58-2.62.51-1.43,1.01-2.82.41-4.34.39-.99-.03-1.49-.84-2.18-1.57-1.35-1.8-4.29-.8-6.2.16-.31.49-.67.43-.94-.43-1.99,1.11-3.51,1.21-5.35,0-.08.06-.17.11-.24.55-.79.75-1.59.29-2.52-.15-.3-.2-.74-.1-1.04.89-2.64.69-5.52,1.79-8.1.26-.6.2-1.2.16-1.84-.16-2.52.38-4.78,2.58-6.35.45-.32.73-.75.92-1.28.36-1.01.79-1.99,1.15-3,.22-.61.52-1.15.97-1.59.78-.75,1.55-1.49,1.88-2.57.1-.32.35-.65.63-.85.97-.7,1.5-1.68,2.12-2.68.62-1.01,1.3-1.83,1.15-3.12-.11-.97.51-1.67,1.35-2.16.47-.28.99-.38,1.51-.51,1.7-.42,3.11-1.25,4.01-2.86.83-1.48,1.82-2.87,2.74-4.3.39-.61.74-1.23.81-1.97.1-1.07.75-1.43,1.76-1.67,2.7-.65,4.84-2.24,6.49-4.44,1.72-2.29,3.88-3.93,6.57-4.92,1.76-.65,3.4-1.64,5.35-1.67,1.29-.94,2.92-1.32,4.07-2.47.47-.47.99-.7,1.63-.84,1.13-.25,2.28-.49,3.34-.95,1.3-.56,2.62-1.18,3.56-2.34.61-.75,1.42-1.05,2.39-.98,1.16.09,2.23-.01,3.35-.55,1.18-.57,2.57-.77,3.92-.18.39.17.91.26,1.31.15,1.57-.45,3.16-.46,4.77-.57.87-.06,1.69-.47,2.59-.02.53.26,1.03-.1,1.51-.35.95-.5,1.91-.53,2.79.13,1.52,1.14,3.44.88,5.11,1.51.42.16,1.05-.11,1.55-.29,2.18-.81,4.2-.69,6.04.87.82.7,1.75,1.23,2.91,1.22.54,0,1.03.27,1.47.61.21.16.42.38.66.45,2.33.65,4.05,2.21,5.75,3.8.39.36.86.64,1.27.98,1.54,1.28,3.12,2.1,5.31,1.77,2.37-.37,4.02.97,4.7,3.38.19.68.55,1.01,1.12,1.38,2.2,1.41,4.59,2.36,7.06,3.13.66.21,1.11.62,1.45,1.14-.03,2.35.26,2.93,1.75,5.63.23.41.48.76.9.95.02,0,.03.02.05.03-.63.72-1.43,1-2.45,1.02-1,.02-10.33,5.35-11.02,6.18-.87,1.02-1.81,2-2.54,3.11-.88,1.33-2,2.26-3.46,2.86-1.41.58-2.98.98-4.15,1.89-1.19.92-2.53,1.5-3.87,2.08-1.01-.56-2.04-1.09-3.13-1.5-.85-.32-1.61-.76-2.34-1.3-1.21-.89-2.42-1.87-3.78-2.47-1.59-.71-3.03-1.62-4.07-2.93-1.26-1.59-2.91-2.47-4.75-2.81-2.61-.49-4.9-1.72-7.33-2.61-1.41-1.44-3.27-1.1-4.99-1.22-.6-.04-1.24.15-1.83.33-1.5.44-2.98.57-4.5.09-.42-.13-.93-.28-1.31-.15-1.52.52-3.19.48-4.63,1.33-1.4.83-2.97,1.22-4.57,1.52-2.62.5-5.26.81-7.73,2.01-1.58.77-3.45.93-4.75,2.34-.34.36-.94.49-1.44.7-1.04.43-1.69,1.15-2.23,2.18-1.19,2.23-2.89,4.06-5.19,5.23-.41.21-.85.38-1.03.81-1.15,2.69-2.93,5.08-3.6,8.01-.38,1.67-1.13,3.33-2.62,4.26-1.08.68-1.71,1.51-2.15,2.61-.17.41-.36.88-.69,1.13-.91.68-1.25,1.45-.84,2.55.07.19-.06.56-.21.73-.73.81-.22,1.34.22,2.1,1.01,1.78,2.04,3.63.83,5.79-.36.63-.44,1.44-.08,2.09,1.11,1.95,1.58,4.24,3.03,5.98.82.99,1.09,2.02,1.17,3.19.04.61-.21,1.25.18,1.84.74,1.11.97,2.46,1.87,3.53.91,1.08,1.53,2.41,2.21,3.66.29.54.58,1.17.59,1.77.02,1.28.73,2.18,1.43,3.12.43.57,1.03,1.05,1.35,1.67.79,1.55,2.4,2.05,3.64,3.02.75.18,1.46.44,2.15.72.05.09.09.17.14.26.29.54.58,1.17.59,1.77.02,1.28.74,2.18,1.43,3.12.43.57,1.03,1.05,1.35,1.67.79,1.55,2.4,2.05,3.64,3.02,3.48.81,6.28,3,9.27,4.74,1.92,1.12,3.79,1.99,6.03,1.93,1.63-.04,2.95.6,4.02,1.83.53.6,1,1.31,1.79,1.59,1.68.61,3.31,1.4,5.13,1.46,1.52.06,3.04,0,4.55.14,1.86.18,3.58-.23,5.19-1.08.93-.49,1.86-.57,2.85-.59.91-.01,1.78.16,2.65.39.89.23,1.77.28,2.58-.3.45-.31.98-.62,1.5-.48,1.81.49,3.09-.29,4.3-1.51.42-.43,1.04-.74,1.63-.91,1.15-.34,1.63-1.33,2.36-2.09.8-.83,2.27-.46,3-1.62.48-.76,1.29-1.26,2.19-1.48.92-.22,1.55-.84,2.25-1.42,1.11-.92,1.95-2.08,2.95-3.07,1.01-1.01,1.97-2.07,3-3.04,2.03-1.91,3.13-4.32,4.28-6.75.27-.58.48-1.15.52-1.79.19-3.08,1.14-5.98,2.2-8.83.47-1.27.9-2.54.8-3.92-.04-.56.03-1.09.52-1.45.87-.63.92-1.44.63-2.39-.16-.51-.28-1.07-.22-1.59.27-2.3-.86-4.16-1.89-6.02-.42-.74-.78-1.39-.49-2.39,0-.22.12-.63-.02-.92-.41-.85-.59-1.77-.78-2.68,2.92-1.79,5.96-3.75,6.24-4.65.06-.19.42-.35.67-.39,1.61-.3,2.92-1.25,4.37-1.89,1.12-.5,1.99-1.19,2.63-2.18.76-1.17,5.32-4.16,9.2-6.4.06.66.02,1.34-.27,2.06-.77,1.88-.59,3.9.27,5.75,1,2.15,1.05,4.49,1.56,6.74.11.49-.11,1.05-.19,1.58-.19,1.15-.43,2.28-.42,3.46.01.92,0,1.78.62,2.54.72.9.59,1.88.02,2.76-.8,1.24-.71,2.47-.42,3.86.79,3.79.31,7.47-1.34,10.98-.22.48-.49,1-.88,1.33-1.56,1.33-1.7,3.14-1.56,4.92.14,1.72.43,3.37-.56,4.95-.17.27-.17.7-.11,1.04.16.94-.22,1.61-1.02,1.99-.94.44-1.32,1.15-1.31,2.14,0,1.6-.89,2.89-1.53,4.26-.31.66-.7,1.24-.47,2.02.13.45,0,.88-.23,1.28-.22.39-.5.83-.33,1.26.55,1.41-.26,2.35-1,3.4-1.91,2.71-4.12,5.17-6.24,7.7-.11.14-.21.36-.35.4-2.11.58-2.93,2.86-4.87,3.67-.61.25-.85.88-1.17,1.42-.59,1-1.18,2.02-1.92,2.9-.97,1.15-2.17,2.08-2.43,3.73-.11.72-.86,1.13-1.58,1.32-.42.11-.89.05-1.33.13-1.59.3-3.14.64-4.04,2.25-.25.44-.74.77-1.17,1.07-.46.32-.86.67-.97,1.23-.19,1.06-.94,1.73-1.67,2.37-.88.76-1.8,1.47-2.57,2.36-.22.26-.54.53-.87.61-1.58.4-3.02,1.09-4.39,1.96-.28.18-.78.33-1.02.19-1.18-.65-2.28.16-3.38.09-1.92-.13-3.42.97-5.14,1.4-.54.14-.85.63-1.17,1.07-.92,1.31-2.07,2.22-3.75,2.32-.35.02-.71.14-1.03.28-.65.28-1.08,1.18-1.82,1.04-1.78-.33-3.54.48-5.34-.15-1.16-.41-2.45-.49-3.69-.67-.62-.09-1.27-.12-1.84.2-.65.36-1.36.35-2.03.52-1.64.4-3.09.23-4.68-.37-1.27-.48-2.72-.79-4.12.12-1.54,1.01-3.33.63-4.99.4-1.75-.24-3.58-.35-5.15-1.38-.46-.3-1-.42-1.55-.31-1.25.25-2.15-.23-2.59-1.37-.38-1-.98-1.37-2.03-1.32-1.1.05-2.06-.42-2.97-1.06-1.83-1.29-3.75-2.46-5.61-3.7-.76-.51-1.52-.95-2.48-.9-.27.01-.55,0-.8-.06-1.63-.4-3.22-.79-4.12-2.5-.63-1.2-1.72-1.96-2.96-2.62-.77-.4-1.47-.9-2.17-1.42-.13-.22-.27-.43-.37-.68Z"/>
      </g>
    </g>
  </g>
</svg>