<?xml version="1.0" encoding="UTF-8"?>
<svg xmlns="http://www.w3.org/2000/svg" viewBox="0 0 750 500">
  <defs>
    <style>
      .cls-1, .cls-2 {
        fill: #fff;
      }

      .cls-3 {
        fill: #61b1eb;
      }

      .cls-3, .cls-4, .cls-5, .cls-2 {
        mix-blend-mode: multiply;
      }

      .cls-4 {
        fill: #de6acc;
      }

      .cls-5 {
        fill: #ffd731;
      }

      .cls-6 {
        isolation: isolate;
      }
    </style>
  </defs>
  <g class="cls-6">
    <g id="BACKGROUND">
      <rect class="cls-1" y="-.18" width="750" height="500.36"/>
    </g>
    <g id="OBJECTS">
      <g>
        <g>
          <path class="cls-4" d="m315.39,139.48c3.14-.48,6.99-.13,9.95-2.94.43-.41.97-.49,1.54-.59.77-.12,1.54-.31,2.28-.56,1.3-.46,2.53-.78,3.9-.09.92.46,2.01.33,2.98-.02,1.8-.64,3.66-1.05,5.42-1.85,4.03-1.84,8.3-2.78,12.75-2.76,1.06,0,1.98-.15,2.87-.73,1.71-1.11,3.58-1.21,5.53-.69,1.4.37,2.76.98,4.29.51.38-.12.88.08,1.3.22,3.28,1.08,6.66,1.03,10.01.73,1.65-.14,3.14-.11,4.48.84,1.77,1.27,3.57,1.62,5.71.97,1.38-.42,2.89-.27,4.3.33,1.63.69,3.32,1.08,4.82,2.22,1.27.97,3.1,1.26,4.72,1.69,2.16.58,4.35.99,6.28,2.26,1.51,1,3.29.8,4.93.48,1.32-.26,2.27.13,3.47.59,2.52.97,5.01,1.84,6.92,3.86.14.15.4.27.6.28,2.54.12,4.14,2.15,6.27,3.1,1.38.62,2.04,2.09,3.21,2.96,1.12.84,2.76.23,3.82,1.16,1.86,1.64,4.52,2.05,6.1,4.08.13.17.35.33.55.38,2.22.49,4.02,2,6.16,2.57,1.4.37,2.5.99,3.37,2.06,1.08,1.34,2.24,2.51,3.97,2.99.4.11.83.44,1.06.78,1.78,2.65,4.14,4.7,6.62,6.65.87.69,1.81,1.46,2.32,2.41,1.97,3.63,5.59,5.46,8.53,8.01,1.33,1.15,2.99,1.98,4.62,2.7,1.85.82,2.74,2.63,4.29,3.73.47.33.49.99.44,1.57-.07.94.13,1.85.66,2.58,1.27,1.76,1.93,3.73,2.44,5.82.48,1.99,1.6,3.7,3.11,5.14,1.48,1.41,2.79,2.92,2.9,5.16.03.62.39,1.35.83,1.8,1.4,1.46,1.89,3.31,2.36,5.16.49,1.9,1.34,3.55,2.98,4.7.59.42.74,1.08,1.08,1.66,1.76,3,2.04,6.08.76,9.33-.49,1.24-.22,2.29.55,3.46,1.25,1.89,2.04,3.98,1.55,6.38-.17.85-.01,1.81.17,2.68.27,1.33.46,2.65.46,4.02,0,1.39.52,2.63,1.29,3.79.41.62.46,1.34-.08,1.87-2.15,2.13-2.1,4.87-2.13,7.55-.04,3.94-.43,7.84-.91,11.74-.27,2.23-.25,4.5-.92,6.68-.19.61-.19,1.38,0,2,.34,1.09.27,1.93-.67,2.7-.72.58-.64,1.43-.23,2.17.56.98.57,1.91.02,2.88-.06.1-.11.2-.13.31-.86,5.78-3.22,11.19-4.22,16.93-.28,1.62-.89,3.06-1.96,4.22-2.58,2.8-3.17,6.16-2.75,9.73.21,1.74.21,3.31-.56,4.91-.49,1.01-.55,2.16-.52,3.31.01.72-.41,1.35-1.18,1.43-1.62.17-2.6,1.25-3.55,2.37-.94,1.11-1.86,2.25-2.75,3.41-.85,1.1-1.42,2.31-1.27,3.75.09.83-.19,1.53-.63,2.22-1.07,1.69-1.81,3.53-3.33,5.01-1.15,1.12-1.77,2.86-2.41,4.41-.63,1.52-1.56,2.69-2.88,3.64-2.38,1.72-4.53,3.64-6.03,6.27-.82,1.44-1.82,2.84-3.07,4.02-.47.45-.89,1.06-1.09,1.67-.64,1.97-2.17,3.41-3.06,5.23-.64,1.29-2.13,1.63-3.28,2.25-1.3.7-2.15,1.52-2.46,2.97-.38,1.76-1.52,2.98-3.05,3.86-1.37.78-2.72,1.59-4.13,2.3-3.62,1.83-7.02,3.96-10.14,6.6-2.22,1.88-4.68,3.48-6.81,5.49-1.43,1.35-3.4,1.72-4.95,2.85-.57.41-1.29.32-1.96.13-1.66-.47-3.12-.18-4.3,1.15-.63.71-1.47.98-2.34,1.26-.95.31-1.96.66-2.75,1.24-1.18.87-2.26,1.42-3.69.57-.33-.2-.92-.17-1.32-.03-2.81.99-5.96,1.12-8.3,3.29-.32.3-.74.69-1.12.69-2.62-.01-4.09,2.13-6.13,3.2-.39.2-.69.69-1.08.77-3.48.71-6.76,2.65-10.53,1.76-.74-.17-1.59-.1-2.34.07-2,.45-3.99.67-6.03.37-.82-.12-1.58.13-2.28.49-1.44.75-2.96,1-4.57,1-.77,0-1.61.11-2.3.43-3.36,1.54-6.65.71-9.88-.27-3.75-1.13-7.38-2.63-11.37-2.87-1.44-.09-2.84-.65-4.14-1.38-.88-.49-1.84-.84-2.75-1.27-1.04-.5-2.13-.89-3.26-.49-1.46.52-2.62-.76-3.92-.56-1.2.18-2.33,1.07-3.5,1.08-2.12.01-4.27-.22-6.34-.69-1.22-.28-2.43-.41-3.64-.57-3.06-.39-5.61-1.64-7.31-4.28-.72-1.11-1.71-1.45-2.9-1.24-1.27.22-2.45.16-3.6-.46-.28-.15-.65-.22-.98-.21-2.67.07-4.79-1.03-6.53-3-.45-.51-1.16-1.12-1.73-.9-2.29.9-3.34-1.46-5.14-1.8-.59-.11-.8-.74-.98-1.28-.58-1.74-1.94-2.9-3.48-3.48-1.76-.66-3.18-1.66-4.53-2.85-2.58-2.29-5.35-4.33-7.7-6.94-2.09-2.32-4.23-4.63-6.35-6.94-.64-.7-1.32-1.17-2.23-1.4-1.63-.42-2.81-1.86-4.57-2.07-.25-.03-.49-.43-.68-.69-.13-.18-.19-.41-.23-.63-.29-1.93-2.69-2.45-2.93-4.4-.23-1.83-.82-3.47-2.18-4.82-.44-.44-.5-1.23-.79-1.84-.19-.4-.37-.96-.71-1.11-2.34-1.02-3.28-3.36-4.79-5.12-2.04-2.38-3.89-4.95-5.62-7.57-1.1-1.68-1.94-3.55-2.72-5.41-1.05-2.49-2.3-4.86-3.56-7.25-1.35-2.57-2.25-5.38-3.28-8.12-.75-1.99-1.48-3.95-1.28-6.2.13-1.55-.58-3.09-1.29-4.51-.61-1.21-1.26-2.4-1.98-3.54-.56-.89-.8-1.76-.79-2.84.02-3.56-.61-6.96-3.16-9.7-1-1.07-.99-2.52-1.29-3.77-.7-2.94-.97-5.99-1.48-8.98-.33-1.9.3-3.65,1.09-5.21,1.37-2.71,1.39-5.39.66-8.19-.26-1-.37-1.92.03-2.96.49-1.26.51-2.67.3-4-.26-1.68-.22-3.3-.1-4.99.1-1.41.18-2.62,1.11-3.72.53-.63.45-1.48.47-2.27.08-2.95.64-5.77,1.62-8.58.7-1.98.86-4.18,1.07-6.3.19-1.95.73-3.69,1.77-5.38.99-1.6,1.68-3.4,2.42-5.15.2-.48.12-1.1.11-1.66-.02-.9-.14-1.79-.13-2.69.02-1.48.23-2.9,1.3-4.09.77-.85,1.21-1.93,1.27-3.08.08-1.67.87-2.97,1.79-4.28,1.43-2.02,2.88-4.04,3.34-6.57.08-.42.3-.95.62-1.16,1.81-1.17,2.83-3.24,4.8-4.2,1.02-.49,1.6-1.19,1.55-2.36-.04-.9.42-1.49,1.23-1.83,1.46-.61,2-1.74,1.81-3.26-.16-1.29.16-2.42.85-3.52.47-.75.76-1.63.99-2.5.38-1.46,1.08-2.68,2.09-3.8,1.27-1.41,2.4-2.82,4.5-3.22,1.54-.29,2.8-1.29,3.37-3,.69-2.06,2.7-3.27,3.67-5.19.17-.33.72-.48,1.11-.7,4.42-2.46,8.79-5,12.94-7.9.73-.51,1.3-1.23,1.96-1.84,1.79-1.69,3.47-3.55,6.17-3.79.54-.05,1.1-.31,1.55-.62,2.5-1.71,5.61-2.44,7.73-4.76.15-.16.36-.33.56-.36,1.78-.27,2.85-1.74,4.3-2.51,3.31-1.76,6.07-4.21,8.98-6.49,2.4-1.88,3.81-2.36,7.3-2.21Z"/>
          <path class="cls-3" d="m536.26,122.19c2.36-.5,4.65.65,6.77,2.26,1.18.89,2.26,1.94,3.93,1.37,1.96,1.09,4.32,1.24,6.15,2.62.82.62,1.68,1.24,2.69,1.34,1.7.17,2.84.86,3.67,2.45.42.8,1.51,1.32,2.39,1.79,2.12,1.14,3.44,2.8,3.93,5.18.44,2.14,1.53,4.09,2.96,5.6,1.81,1.92,2.47,4.21,3.08,6.57.32,1.24.91,2.6-.16,3.88-.38.46-.16,1.05.06,1.6.34.83.5,1.74.93,2.52.76,1.39.95,2.73.07,4.11.04,2.6-1.27,4.72-2.39,6.93-.45.89-.64,1.92-.99,2.87-.27.73-.47,1.56-.95,2.13-1.04,1.24-1.74,2.59-2.18,4.14-.41,1.45-1.48,2.52-2.52,3.53-2.66,2.6-4.36,5.64-4.75,9.4-.18,1.79-.95,3.4-1.72,5.05-1.33,2.86-3.31,5.34-4.49,8.27-.7,1.73-2.22,2.81-3.3,4.24-.93,1.25-2.26,2.18-2.86,3.71-.48,1.23-2.26,1.09-2.69,2.4-.34,1.07.27,2.26-.42,3.3-.24.37-.52.8-.55,1.22-.11,1.6-.72,2.78-2.32,3.36-.4.14-.82.49-1.02.85-.94,1.75-2.63,2.36-4.32,3.03-1.38.55-2.6,1.34-3.43,2.63-.18.28-.33.68-.6.81-3.44,1.67-4.5,5.48-7.11,7.89-2.05,1.89-3.33,4.46-5.6,6.19-.75.57-1.31,1.16-2.32,1.04-1.19-.14-1.87.54-2.35,1.54-.39.81-.94,1.55-1.23,2.39-.25.72-.65,1.05-1.33,1.34-1.86.77-3.13,2.09-3.41,4.19-.14,1.06-.71,1.81-1.57,2.48-1.48,1.17-3.18,2.19-3.85,4.13-1.89,1.15-2.88,3.31-5.17,4.14-1.64.59-3.08,1.72-4.87,2.14-.95.23-1.93.86-2.41,1.76-.79,1.49-2.37,2.04-3.43,3.18-.4.43-.88.72-1.47.74-1.72.05-3.03.99-4.05,2.19-1.5,1.77-3.7,2.51-5.35,4.04-.3.28-.81.41-1.23.45-1.8.17-2.73,1.38-3.45,2.83-.4.81-.77,1.64-1.06,2.49-.3.89-.92,1.48-1.53,2.15-2.12,2.34-4.18,4.7-7.44,5.45-1.03,1.56-2.88,1.59-4.32,2.38-1.38.76-2.64,1.73-4.26,1.95-.85.12-1.31.78-1.84,1.38-.97,1.09-2.01,2.13-3.06,3.14-.48.46-1.01.96-1.62,1.2-2.87,1.12-5.33,2.84-7.61,4.87-.25.22-.56.45-.87.5-2.06.34-2.97,1.82-3.69,3.56-.74,1.78-2.47,2.91-3.14,4.76-.2.54-.86.69-1.44.75-1.18.13-2.03.79-2.96,1.48-3.25,2.45-6.94,4.05-10.88,5-2.55.61-4.33,2.09-5.83,4.21-1.43,2.01-3.3,3.71-5.42,4.95-2.09,1.23-4.1,2.65-6.71,2.94-1.47.16-3,.98-3.85,2.46-.97,1.68-2.53,2.49-4.32,3-1.97.56-3.79,1.37-5.17,3-.41.48-1.12.73-1.71,1.04-1.11.57-2.21,1.17-3.03,2.11-.75.85-1.53,1.28-2.66.82-.58-.24-1.1-.02-1.53.42-1.04,1.08-2.15,1.87-3.79,1.93-1.14.04-2.05.88-2.78,1.77-1.71,2.1-4.08,3.13-6.54,3.89-1.85.57-3.71.96-4.78,2.82-.15.26-.52.49-.82.55-1.98.39-3.39,1.7-4.84,2.95-.7.6-1.49.96-2.38,1.23-2.47.74-5.05,1.26-6.99,3.19-.41.4-1.02.5-1.59.42-1.78-.27-3.12.7-4.15,1.84-1.37,1.54-3.08,2.62-4.58,3.97-.42.38-.98.62-1.31,1.06-1.62,2.12-4.25,2.82-6.19,4.47-.4.34-1.03.58-1.55.57-1.91-.04-3.71.69-5.68.58-1.96-.1-4.03.29-5.67,1.77-.74.66-1.71,1.05-2.54,1.61-1.18.79-2.71,1.32-2.51,3.22.03.25-.29.65-.55.8-1.26.72-1.74,2.03-2.51,3.13-.53.76-1.17,1.22-2.08,1.56-1.81.69-3.68,1.02-5.55,1.31-2.81.44-5.56.94-7.56,3.25-.64.74-1.55.91-2.48.79-1.07-.15-1.98.06-2.85.72-.43.32-1.02.61-1.54.6-1.86-.03-3.21,1.01-4.52,2.05-2.31,1.84-4.73,3.3-7.78,3.58-1.23.11-2.31.75-3.16,1.78-.71.85-1.82,1.4-2.43,2.3-1.17,1.7-2.83,2.33-4.67,2.97-2.08.73-4.01,1.89-5.97,2.92-.5.26-.99.78-1.51.55-1.34-.6-2.38-.3-3.29.77-.14.16-.38.27-.59.32-2.85.59-5.55,1.91-8.5,2-1.16.04-2.22.2-3.21.83-.37.24-.82.42-1.25.48-2.99.45-5.94,1.07-8.9,1.67-2.62.53-5.25.86-7.55,2.39-1.23.82-2.62,1.23-4.12,1.39-1.56.17-3.1.56-4.63.92-.42.1-1.05.34-1.14.63-.58,2.14-2.97,1.74-4.11,3.06-2.32.13-4.65.38-6.97.32-.79-.02-1.72-.67-2.32-1.29-1.87-1.91-4.33-1.61-6.62-2-1.38.7-2.9-.32-4.3.36-.54.26-1.07-.02-1.6-.27-.6-.29-1.25-.65-1.88-.66-2.04-.04-3.29-1.33-4.47-2.69-1.39-1.6-2.39-3.54-4.17-4.81-.44-1.42-1.48-2.45-2.32-3.61-.7-.96-1.55-1.65-2.68-1.91-.93-.21-1.6-.71-2.27-1.35-.74-.71-2.53-2.98-3.01-3.99-.24-.5-.53-1-.9-1.41-.65-.71-.9-1.51-.95-2.45-.1-1.73-.55-3.33-1.86-4.58-.69-.66-1.05-1.47-.85-2.44.16-.8.02-1.57-.26-2.32-.32-.89-.32-1.74.03-2.63.19-.49,1.85-4.44,2.09-4.94.82-1.72,1.77-3.41,1.53-5.44-.19-1.62-.05-3.15,1.08-4.44.15-.17.3-.37.34-.58.85-4.49,4.04-8,5.18-12.37.29-1.12,1.16-1.96,1.95-2.72,2.39-2.3,3.8-5.3,5.77-7.89.63-.83.85-1.85.92-2.86.09-1.29.58-2.41,1.37-3.39,1.59-1.99,2.85-4.24,5.53-5.17,1.95-.68,2.93-2.44,3.16-4.47.19-1.61.61-3.12,1.55-4.41,1.51-2.06,2.92-4.24,5.57-5.11.94-.31,1.86-.77,2.59-1.54.29-.31.74-.62,1.14-.65,2.61-.24,3.48-2.21,4.29-4.23.25-.62.35-1.3.44-1.97.11-.82.53-1.43,1.04-2.06,1.79-2.18,3.8-4.08,6.29-5.44.53-.29.93-.64,1.11-1.19.58-1.76,2.05-2.61,3.52-3.46.58-.34,1.34-.49,1.77-.95,1.57-1.68,3.26-3.01,5.71-3.07.48-.01,1-.49,1.42-.85.85-.74,1.62-1.56,2.15-2.58.5-.95.73-2.37,2.18-2.21,1.17.13,1.33,1.42,1.76,2.29.44.9.88,1.87,1,2.85.4,3.15,1.49,6.12,2.29,9.16.57,2.18,1.19,4.34,1.09,6.64-.04.76.27,1.54.43,2.31.14.66.46,1.32.43,1.97-.2,4.2,1.83,7.58,3.93,10.94.84,1.34.91,1.39-.14,2.54-.59.64-.95,1.28-.79,2.1.42,2.17-.73,3.7-2.1,5.06-1.59,1.59-3.26,3.09-4.97,4.55-1.28,1.09-2.59,2.08-4.22,2.74-1.75.7-3.32,1.87-4.96,2.84-.18.11-.46.4-.43.47.78,1.55-1.3,2.61-.69,4.13.3.74-.03,1.26-.6,1.76-.41.35-.9.83-.97,1.32-.31,2.05-1.65,3.32-3.04,4.66-1.21,1.17-2.2,2.56-3.33,3.81-.48.53-.68,1.13-.9,1.78-.82,2.35-1.95,4.52-3.75,6.32-.63.63-1.08,1.43-1.61,2.17-.85,1.19-1.69,2.39-3.08,3.04-1.8.85-1.05,2.59-1.14,3.91-.08,1.18,1.06,1.94,2.05,2.46.76.4,1.63.04,2.2-.48,1.27-1.13,2.8-1.85,4.13-2.82,2-1.46,4.26-2.39,6.27-3.72,1.94-1.28,3.75-1.87,6.09-1.95,2.3-.08,4.54-.93,6.96-.81,1.61.08,3.29-.45,4.39-2.08.67-1,1.72-1.76,2.61-2.61.24-.23.51-.54.8-.6,2.56-.48,4.55-2.39,7.2-2.74,2.11-.28,4.17-1,6.08-1.97,1.45-.73,2.94-1.13,4.53-1.18,1.98-.06,3.69-.93,5.4-1.77.81-.4,1.59-.92,1.99-1.77.99-2.07,2.91-2.64,4.88-3.18,1.3-.35,2.62-.66,3.88-1.12,1.15-.42,2.23-.91,2.96-2.09.87-1.41,2.32-2.09,3.97-2.27,1.12-.12,2.25-.16,3.35-.38,1.31-.26,2.74-.5,2.97-2.24,2.39-2.25,4.12-5.35,7.69-6.11.9-.19,1.75-.48,2.36-1.21,1.45-1.74,3.42-2.45,5.54-2.92,1.87-.41,3.73-.87,5.58-1.35,2.41-.62,4.79-1.27,6.34-3.49.52-.75,1.31-1.27,2.25-1.39,1.95-.25,2.94-2.01,4.5-2.86.26-.14.48-.5.57-.81.3-1.1.93-1.71,2.11-1.89.5-.08,1.04-.5,1.36-.91,1.42-1.84,3.52-2.24,5.45-1.85,3.96.81,7.29-.3,10.52-2.36.56-.36,1.26-.49,1.87-.78.5-.24,1.19-.45,1.4-.88,1.37-2.67,4.52-3.3,6.22-5.58.42-.56,1.12-.78,1.81-.79,1.47-.03,2.43-.86,3.48-1.79,1.33-1.18,2.93-2.06,4.44-3.03.61-.39,1.31-.17,1.98-.13.55.03,1.3.11,1.62-.19,1.94-1.8,4.61-2.27,6.66-3.89,1.14-.9,2.48-1.55,3.4-2.74.42-.55.95-.94,1.62-1.17.42-.14,1.01-.25,1.19-.57,1.25-2.23,3.86-2.59,5.58-4.15,2.29-2.08,5.07-3.6,6.93-6.15.36-.49.78-.87,1.39-.8,1.41.19,2.64-.2,3.86-.89.66-.38,1.49-.47,2.25-.66,3.65-.91,6.2-3.07,7.49-6.61.41-1.13,1.13-1.47,2.28-1.57,1.7-.15,3.26-.74,4.58-1.94.83-.75,1.82-1.32,2.75-1.96,1.5-1.05,2.79-2.29,3.36-4.1.48-1.51,1.6-2.33,2.92-3.07,2.36-1.34,4.91-2.25,7.43-3.15,3.68-1.31,6.85-3.35,9.77-5.86,1.22-1.06,2.66-1.67,4.09-2.34,2.72-1.29,4.72-3.22,6.21-5.89,1.46-2.62,3.45-4.91,5.61-7.01.53-.52,1.16-.65,1.85-.68.97-.05,1.76-.5,2.29-1.26.95-1.38,2.53-2.28,3.03-4.01.16-.57.62-.97,1.24-1,1.44-.07,2.56-.73,3.58-1.68.31-.29.81-.56,1.2-.55,2.11.09,3.2-1.36,4.26-2.77.77-1.03,1.85-1.62,2.76-2.44,3.26-2.94,6.32-6.09,8.92-9.63,1.58-2.15,3.64-3.4,6.22-3.57,1.86-.13,3.2-.93,4.33-2.27.28-.34.73-.75.71-1.1-.11-1.93,1.69-3.17,1.74-5.03,0-.11.03-.27.1-.31,1.7-1.07,2.51-3.19,4.43-3.94,2.99-1.17,5.35-3.31,8.01-4.97,1.33-.83,1.45-2.56,2.54-3.5,1.01-.86,2.4-1.26,3.11-2.51.6-1.05,1.61-1.99.79-3.37-.05-.09-.09-.22-.08-.32.05-.33.01-.76.2-.96,1.54-1.59.64-4.28,2.66-5.69,1.47-1.02,2.88-2.15,3.1-4.19.05-.46.66-.86,1.03-1.28.52-.58,1.14-1.1,1.58-1.73.59-.86,1.32-1.44,2.24-1.96,1.25-.71,2.36-1.69,3.48-2.61.32-.26.49-.73.67-1.13.14-.3.12-.68.27-.97.65-1.26,2.59-1.58,2.51-3.38-.07-1.57,1.11-2.68,1.45-4.1.2-.84.81-1.33,1.58-1.63,1.25-.48,1.96-1.49,2.5-2.62.48-1,.14-2.5-.83-3-1.47-.76-2.85-1.89-4.72-1.49-.42.09-.95.08-1.32-.1-1.69-.83-3.33-.32-4.94.15-3.02.9-6.06,1.59-9.21,1.98-2.59.32-5,1.44-6.65,3.64-1.27,1.69-2.91,2.74-4.9,3.4-3.23,1.07-6.13,2.81-8.85,4.84-.82.61-1.61,1.19-2.75,1.06-.52-.06-1.09.19-1.62.33-2.49.68-4.83,1.77-7.41,2.22-1.28.23-2.47,1.05-3.67,1.65-.6.3-1.11.77-1.71,1.08-4.03,2.11-6.73,1.64-9.47-1.86-1.57-2.01-3.56-3.42-5.63-4.78-2.16-1.42-4.34-2.83-6.48-4.28-.64-.44-1.24-.98-1.76-1.56-.4-.44-.51-1.08,0-1.52,1.08-.95,1.63-2.44,3.12-3.01,1.23-.47,1.81-1.68,2.49-2.69,1.22-1.81,2.71-3.16,4.67-4.22,2.76-1.5,5.12-3.66,7.27-5.95,2.1-2.23,4.52-4.05,6.83-6.02.99-.85,2.21-1.12,3.46-1.19,1.05-.06,2.01-.2,2.74-1.05.55-.65,1.34-.77,2.12-.92,1.58-.3,2.92-1.07,4.22-2.01,2.1-1.51,4.32-2.85,6.46-4.3.97-.66,2.04-.94,3.18-.98.9-.03,1.8.03,2.7-.02.78-.05,1.83.09,2.29-.35,1.28-1.22,3.08-1.28,4.41-2.3,2.11-1.63,4.55-2.39,7.15-2.74.89-.12,1.8-.16,2.51-.85.42-.41.95-.58,1.53-.61.34-.02.67-.05,1.01-.09,2.12-.24,3.61-2.23,6-1.94,2.14.26,4.22-.49,6.23-1.27,1.11-.43,2.23.05,3.78-.03Z"/>
          <path class="cls-5" d="m155.26,145.56c.23,0,.47,0,.7,0,.31-.01.62.02.86.22.59.49,1.3.49,2,.51.63.02,1.27.02,1.9.02.45,0,.83.25,1.23.41.16.06.34.19.47.09.55-.39,1.27-.1,1.83-.45.21-.13.46-.07.69,0,.88.22,1.77.33,2.68.21.23-.03.47,0,.7.05.24.04.45.09.65-.12.12-.14.31-.14.47-.06.35.19.65-.17.97-.09.32.08.57.35.93.34.2,0,.4.05.59.11.4.13.78.13,1.18.01.46-.14.9-.07,1.37.06.76.21,1.53.52,2.35.28.09-.03.22-.02.29.03.72.53,1.63.54,2.42.87.59.24,1.24.29,1.88.22.42-.05.78,0,1.13.26.45.32.93.33,1.37-.06.16-.14.34-.19.55-.2.2,0,.4-.04.6-.07.7-.14,1.33.04,1.9.42.65.44,1.39.63,2.11.9.26.09.54.15.78.02.36-.19.68-.17,1.05-.04.25.09.53.09.8.08.34-.02.66,0,.96.19.11.07.26.11.38.09.36-.06.65.08.94.27.71.46,1.48.56,2.31.38.49-.11.99-.12,1.49-.18.26-.03.44.12.61.29.26.25.56.34.92.27.29-.06.6-.1.89-.11.69-.03,1.09-.46,1.5-.91.21-.23.33-.52.28-.83-.06-.41.12-.71.33-1.02.23-.33.48-.65.67-1,.18-.32.35-.66.12-1.04-.1-.16-.07-.32.06-.46.02-.02.04-.05.07-.07.34-.3.12-.93.72-1.11.42-.13.56-.65.87-.95.44-.42.68-.91.55-1.53-.12-.56.21-.97.51-1.36.23-.3.44-.57.53-.95.1-.4.35-.72.63-1.01.45-.46.71-.97.77-1.67.05-.67.1-1.38.45-2.04.19-.36.29-.71.71-.89.32-.14.47-.48.54-.81.16-.72.57-1.28,1.09-1.76.15-.14.33-.27.33-.48.02-.64.51-1.08.65-1.66.04-.17.19-.26.32-.38.5-.47.89-1,.74-1.75.21-.54.07-1.2.59-1.63.1-.08.15-.22.21-.34.18-.34.41-.6.8-.71.68-.2.88-.78.97-1.38.13-.9.46-1.73.84-2.55.17-.36.38-.7.42-1.12.01-.13.05-.32.13-.36.45-.22.42-.66.5-1.03.16-.69.5-1.3.75-1.96.07-.19.2-.35.18-.56-.03-.34.08-.59.42-.71.03-.01.06-.03.09-.05.48-.49.77-1.17,1.48-1.43.07-.02.1-.17.14-.26.21-.61.53-1.14,1.02-1.58.34-.31.66-.69.55-1.23.34-.71.16-1.61.8-2.22.09-.08.11-.24.15-.37.15-.51.47-.88.95-1.11.67-.33,1.08-.86,1.25-1.59.09-.38.3-.7.59-.91.66-.47,1-1.15,1.35-1.84.11-.21.22-.41.41-.56.32-.26.58-.56.57-1.01,0-.19.14-.28.27-.39.44-.39.82-.87,1.48-.88.03,0,.06-.03.09-.05.62-.49,1.29-.41,1.99-.2,1.25.38,2.49.78,3.69,1.26.31.12.59.31.88.47.08.05.2.12.22.2.14.54.58.9.79,1.39.15.37.26.77.75.86.08.02.18.14.19.22.03.47.38.77.59,1.15.07.12.14.24.16.36.11.73.45,1.37.71,2.04.19.49.25,1.04.37,1.56.04.2.05.41.13.59.25.6.38,1.2.26,1.85-.05.29.05.59.15.88.09.25.18.51.22.77.08.47.24.91.56,1.27.61.72.6,1.55.35,2.37-.15.51-.19.95.02,1.45.21.49.33,1.01.47,1.53.11.43.22.84.57,1.15.13.12.22.27.17.44-.12.43.12.85,0,1.29-.08.33.11.65.21.97.11.36.16.72.03,1.08-.32.91-.11,1.8.21,2.65.28.73.47,1.46.45,2.24-.03,1.04.02,2.07.13,3.1.03.3.07.61.19.87.2.39.31.81.47,1.21.23.57.63,1.1.37,1.78.16.41.18.84.24,1.27.17,1.24,0,2.46-.11,3.69-.06.66-.02,1.33-.03,2,0,.06,0,.15.05.19.44.45.31,1.15.71,1.63.21.26.3.62.25.95-.12.79.26,1.42.61,2.06.08.15.25.29.18.44-.3.75.11,1.61-.35,2.34-.13.21-.03.45.14.64.48.54,1.02.98,1.76,1.08.36.05.64.15.75.55.07.27.34.33.57.34.44.02.85.16,1.27.23.65.12,1.33.13,1.93-.28.12-.08.26-.12.37-.03.25.19.51.29.84.26.11-.01.28.07.35.16.41.55,1.14.71,1.54,1.27.07.1.22.15.35.19,1.38.42,2.77.76,4.21.85.34.02.66-.07.98-.18.27-.1.52-.1.77.04.24.14.5.2.76.23.27.03.5.15.73.3.5.31,1.01.62,1.66.6.41,0,.77.24,1.09.45.41.27.8.45,1.31.34.38-.08.79.11,1.19-.02.1-.03.28.03.36.11.27.27.59.43.96.52.13.03.26.09.35.18.69.71,1.62.83,2.5,1.13.77.26,1.64.31,2.3.89.35.31.8.4,1.23.24.53-.2,1.06.03,1.59-.06.11-.02.26.08.35.16.78.76,1.82.92,2.8,1.24.15.05.35.07.49.01.55-.23,1.05.01,1.54.18.79.27,1.55.62,2.33.93.26.1.46.27.66.45.29.29.65.44,1.04.59.55.22,1.11.23,1.67.14.41-.06.75-.07,1.14.18.44.28.95.47,1.43.67.46.19,1.06.18,1.57.07.75-.16,1.3.13,1.86.52.79.56,1.63,1.04,2.51,1.44.24.11.36.25.43.5.13.5.42.89.85,1.19.43.31.88.63.96,1.23.73.82.72,1.76.4,2.73-.07.23-.03.46.03.69.24.99-.12,1.8-.85,2.42-.54.47-1,.98-1.31,1.62-.09.19-.23.34-.42.41-.39.13-.69.42-1.05.58-.71.32-1.35.72-1.99,1.15-.42.28-.85.53-1.13.97-.07.11-.18.21-.3.25-.97.33-1.93.75-3.01.55-.47-.08-.93,0-1.37.21-.57.27-1.19.44-1.67.89-.21.2-.52.29-.8.39-.57.21-1.13.42-1.56.88-.21.23-.49.3-.81.34-.54.07-1.07.07-1.6.05-.23,0-.47-.03-.7,0-.62.1-1.22.29-1.87.28-.36,0-.7.18-.97.46-.2.22-.44.41-.68.59-.31.24-2.09.81-2.45.75-.33-.05-.66-.12-.97-.25-.52-.22-.97-.07-1.25.34-.53.79-1.38,1.01-2.16,1.37-.2.09-.46.06-.69.08-.27.02-.54,0-.8.04-.4.06-.76.1-1.17-.08-.42-.17-.94-.19-1.38-.04-.45.15-.87.28-1.36.23-.24-.02-.46.12-.55.37-.11.31-.31.5-.62.61-.18.06-.39.18-.49.33-.33.5-.84.63-1.37.73-.26.05-.53.11-.78.19-.39.13-.76.23-1.18.1-.39-.12-.74,0-.97.35-.27.4-.7.52-1.1.65-.79.26-1.61.44-2.42.65-.19.05-.4.1-.59.09-.51-.03-1,.09-1.48.23-.54.16-.64.3-.52.85.09.43.33.83.6,1.14.3.34.5.7.64,1.11.14.43.34.8.72,1.06.24.16.36.38.45.64.06.19.14.4.28.52.41.36.49.83.59,1.34.19.94.31,1.9.78,2.78.28.52.43,1.12.55,1.71.08.36.13.72.29,1.05.32.69.43,1.41.24,2.15-.2.8.08,1.38.75,1.79.27.16.46.37.59.66.09.21.24.4.4.57.44.48.63,1.04.53,1.67-.17,1.03-.05,2,.44,2.92.15.28.13.58.06.88-.1.45-.04.86.29,1.21.13.14.2.34.27.53.11.29.25.56.48.76.36.3.48.6.22,1.04-.12.2-.09.46,0,.68.22.48.22,1.04.57,1.48.19.24.24.53.18.86-.08.47-.01.92.19,1.37.14.3.23.63.28.96.06.49.2.91.63,1.2.1.07.18.21.2.33.18.98.65,1.89.74,2.9,0,.1.02.21.07.29.41.54.33,1.15.19,1.73-.17.72.04,1.37.47,1.87.8.92,1.17,2,1.36,3.17.04.23.1.45.2.67.26.55.34,1.13.3,1.75-.04.58-.05,1.13-.42,1.61-.06.08-.1.18-.12.28-.09.42-.14.86-.25,1.27-.1.38-.51.61-.54,1.06-.03.38-.23.7-.49.97-.39.41-.67.89-1.09,1.29-.43.41-.97.58-1.4.96-.07.06-.2.1-.28.08-.7-.2-1.48.21-2.15-.25-.07-.05-.24-.05-.28,0-.26.31-.59.02-.84.11-.77.28-1.33-.31-2-.4-.13-.02-.26-.2-.36-.33-.25-.32-.53-.62-.7-.97-.33-.65-.89-.99-1.51-1.24-.26-.1-.47-.2-.62-.46-.24-.44-.66-.67-1.13-.75-.39-.07-.69-.24-.95-.52-.07-.07-.14-.14-.23-.2-.28-.19-.6-.32-.82-.56-.25-.26-.04-.64-.14-.97-.13-.44-.38-.78-.7-1.08-.26-.25-.57-.46-.86-.69-.14-.11-.29-.19-.46-.15-.33.08-.58-.05-.83-.24-.16-.12-.35-.2-.54-.25-.62-.13-.95-.59-1.21-1.1-.19-.36-.36-.72-.52-1.09-.14-.34-.35-.57-.71-.63-.29-.05-.46-.19-.54-.5-.13-.54-.45-.96-.92-1.26-.22-.15-.42-.34-.63-.5-.19-.15-.36-.31-.4-.56-.06-.43-.37-.7-.6-1.03-.25-.35-.57-.56-1.03-.49-.23.04-.39-.03-.51-.23-.03-.06-.05-.13-.1-.17-.35-.29-.79-.44-.88-1-.07-.45-.53-.77-.53-1.28,0-.15-.12-.23-.23-.3-.49-.35-.97-.71-1.47-1.04-.23-.15-.43-.3-.56-.55-.31-.59-.92-.97-1.16-1.63-.07-.19-.32-.34-.52-.44-.33-.17-.67-.36-1.02-.41-.85-.12-1.34-.7-1.81-1.31-.22-.29-.33-.67-.64-.89-.34-.23-.42-.49-.23-.85.1-.2.03-.41-.08-.57-.49-.76-.95-1.54-1.93-1.79-.39-.1-.73-.31-.91-.72-.06-.14-.23-.24-.37-.33-.29-.19-.5-.44-.63-.76-.18-.43-.6-.71-.7-1.2-.03-.13-.22-.24-.35-.34-.32-.25-.65-.47-.96-.72-.15-.11-.29-.16-.46-.08-.26.13-.45.04-.59-.19-.07-.12-.14-.25-.29-.25-.45.01-.66-.25-.81-.62-.05-.12-.13-.25-.24-.32-.56-.4-.59-1-.65-1.6-.01-.13.04-.27,0-.4-.12-.51-.18-1.01-.87-1.19-.47-.12-.87-.47-1.38-.55-.18-.03-.34-.2-.51-.3-.13-.07-.3-.06-.36.06-.47.82-1.46.91-2.09,1.51-.23.22-.57.17-.87.12-.39-.05-.63.1-.79.46-.19.41-.6.74-.45,1.27-.26.38-.44.85-.79,1.12-.34.27-.69.52-.99.83-.37.37-.86.36-1.32.36-.34,0-.66,0-.99.09-.27.07-.51.18-.61.47-.22.65-.88.73-1.35,1.06-.05.03-.13,0-.2.01-.18,0-.36.06-.45.2-.44.73-1.58.67-1.8,1.63-.1.47-.47.72-.82.98-.4.3-.85.53-1.27.8-.28.17-.53.37-.77.61-.36.36-.79.7-1.31.84-.76.2-1.3.68-1.7,1.32-.17.27-.35.48-.64.61-.15.07-.29.17-.41.28-.66.59-1.37,1.05-2.25,1.27-.5.12-.53.21-.54.78,0,.14,0,.28-.12.35-.27.14-.49.34-.64.61-.05.1-.21.18-.33.19-.38.03-.67.11-.55.6.02.07-.07.2-.14.24-.25.13-.41.33-.53.58-.08.16-.24.22-.41.26-.23.06-.43.17-.62.32-.29.23-.59.37-1.01.29-.37-.07-.68.12-.92.47-.34.51-.79.9-1.43,1.02-.31.06-.56.23-.69.53-.13.3-.35.47-.62.62-.53.29-1.02.64-1.43,1.09-.16.18-.35.3-.58.39-.22.09-.46.19-.55.41-.19.43-.57.54-.96.65-.33.09-.58.31-.86.5-.74.5-1.3,1.23-2.1,1.66-.46.24-.8.66-.96,1.13-.29.86-.93,1.28-1.68,1.6-.06.03-.12.06-.19.07-.63.17-1.02.5-.86,1.22.03.13-.03.27-.14.35-.22.17-.36.39-.49.63-.05.08-.14.18-.22.19-.51.03-.83.41-1.23.65-.18.11-.36.18-.57.14-.7-.12-1.23.13-1.63.72-.07.11-.2.18-.28.28-.18.23-.41.34-.7.33-.93-.05-1.77.25-2.62.59-1.04.41-2.05.28-2.91-.48-.5-.44-1.09-.65-1.7-.82-.35-.1-.57-.28-.8-.55-.46-.53-.89-1.07-1.23-1.69-.1-.19-.19-.36-.09-.56.15-.32.07-.65.08-.98,0-.73.02-1.48.21-2.18.26-.96.61-1.9.75-2.9.07-.47.29-.89.56-1.28.71-1.07,1.21-2.22,1.59-3.45.16-.51.31-.99.28-1.54-.03-.5.16-.99.45-1.41.44-.61.69-1.3.84-2.03.07-.32.19-.56.45-.75.48-.35.73-.94,1.32-1.21.31-.14.39-.56.42-.88.06-.56.28-1.01.63-1.44.14-.18.27-.4.32-.62.08-.35.24-.54.61-.53.16,0,.22-.11.25-.26.04-.26.14-.53.13-.79-.02-.59.18-1.11.43-1.63.19-.39.33-.8.46-1.22.13-.43.31-.81.72-1.05.48-.27.62-.69.47-1.2-.09-.3-.04-.52.2-.71.29-.22.08-.67.42-.88.26-.16.49-.35.73-.54.13-.1.28-.22.35-.36.33-.69.82-1.28,1.27-1.89.2-.28.33-.57.26-.93-.02-.13-.03-.28.02-.4.47-1.18.85-2.41,1.86-3.28.3-.26.44-.59.55-.94.11-.35.24-.61.64-.68.41-.07.66-.36.77-.72.19-.6.57-1.05.99-1.49.18-.19.37-.39.51-.62.31-.51.62-1.02,1.07-1.44.28-.27.51-.63.27-1.08-.03-.07,0-.22.06-.28.39-.37.37-.92.6-1.36.38-.74.7-1.48.92-2.3.23-.83.84-1.5,1.62-1.96.42-.25.71-.63.95-1.01.19-.29.37-.54.64-.75.27-.21.44-.48.49-.84.05-.44.25-.83.43-1.23.11-.24.34-.5.31-.71-.05-.33-.43-.52-.7-.65-.62-.31-1.2-.74-1.9-.88-.3-.06-.5-.17-.51-.5-.02-.56-.34-.92-.81-1.17-.35-.19-.71-.37-1.07-.54-.31-.15-.57-.32-.68-.68-.13-.45-.52-.69-.9-.9-.35-.2-.71-.37-1.08-.52-.26-.1-.47-.24-.68-.41-.35-.3-.71-.62-1.25-.49-.11.03-.26-.06-.36-.14-.25-.19-.52-.29-.83-.34-.42-.07-.74-.28-.92-.69-.09-.21-.25-.39-.36-.59-.13-.25-.3-.46-.55-.57-.71-.32-1.22-.91-1.85-1.34-.73-.51-1.43-1.08-2.27-1.44-.66-.29-1.34-.71-1.68-1.36-.42-.8-1.11-1.13-1.85-1.42-.32-.12-.63-.19-.82-.51-.06-.1-.2-.19-.32-.23-.61-.21-1.1-.6-1.55-1.05-.31-.31-.65-.55-1.07-.72-.55-.22-1.03-.58-1.56-.85-.33-.17-.73-.08-1.01-.38-.24-.25-.57-.33-.91-.36-.29-.03-.5-.21-.67-.42-.41-.49-.91-.77-1.56-.79-.1,0-.24,0-.29-.06-.49-.58-1.35-.79-1.61-1.58-.23-.7-.69-1.08-1.38-1.33-.51-.19-.97-.57-1.42-.9-.72-.53-1.52-.97-2.1-1.69-.19-.24-.52-.31-.81-.38-.48-.12-.88-.37-1.15-.77-.39-.58-.97-.92-1.55-1.22-.38-.19-.64-.44-.89-.77-.66-.86-.77-1.07-.84-2.2-.03-.45-.24-.83-.37-1.25-.11-.36-.21-.7-.01-1.07.07-.14.1-.33.07-.48-.1-.57.09-1.05.4-1.51.15-.23.29-.45.26-.74-.03-.28.07-.52.23-.75.09-.13.17-.29.21-.45.09-.41.27-.74.6-1.01.12-.1.18-.28.26-.42.1-.19.25-.32.47-.34.38-.03.72-.14,1.01-.39.22-.18.49-.21.76-.22.3,0,.6,0,.9,0v-.02Z"/>
        </g>
        <path class="cls-2" d="m571.74,156.84c-.23-.55-.44-1.14-.06-1.6,1.07-1.28.49-2.64.16-3.88-.61-2.35-1.27-4.65-3.08-6.57-1.43-1.51-2.52-3.46-2.96-5.6-.49-2.38-1.81-4.04-3.93-5.18-.88-.47-1.98-.99-2.39-1.79-.83-1.59-1.97-2.27-3.67-2.45-1.01-.1-1.87-.72-2.69-1.34-1.83-1.38-4.19-1.53-6.15-2.62-1.67.57-2.75-.48-3.93-1.37-2.13-1.6-4.41-2.75-6.77-2.26-1.55.08-2.67-.4-3.78.03-2.01.78-4.09,1.53-6.23,1.27-2.4-.29-3.88,1.69-6,1.94-.34.04-.67.07-1.01.09-.58.03-1.11.19-1.53.61-.7.69-1.61.73-2.51.85-2.6.35-5.05,1.11-7.15,2.74-1.32,1.03-3.13,1.08-4.41,2.3-.46.44-1.51.3-2.29.35-.9.05-1.8-.01-2.7.02-1.14.04-2.21.32-3.18.98-2.14,1.45-4.36,2.79-6.46,4.3-1.31.94-2.64,1.71-4.22,2.01-.78.15-1.57.27-2.12.92-.73.85-1.7.99-2.74,1.05-1.25.07-2.46.34-3.46,1.19-2.31,1.97-4.73,3.79-6.83,6.02-2.16,2.29-4.51,4.45-7.27,5.95-1.96,1.07-3.45,2.41-4.67,4.22-.68,1.01-1.26,2.22-2.49,2.69-.05.02-.09.06-.14.08-.39-.39-.77-.8-1.13-1.24-.86-1.06-1.96-1.68-3.37-2.06-2.14-.57-3.95-2.08-6.16-2.57-.2-.05-.42-.21-.55-.38-1.58-2.03-4.25-2.44-6.1-4.08-1.06-.94-2.7-.33-3.82-1.16-1.17-.87-1.82-2.34-3.21-2.96-2.13-.95-3.72-2.98-6.27-3.1-.21,0-.46-.13-.6-.28-1.91-2.02-4.4-2.89-6.92-3.86-1.2-.46-2.15-.84-3.47-.59-1.64.32-3.42.52-4.93-.48-1.93-1.28-4.12-1.68-6.28-2.26-1.62-.43-3.45-.73-4.72-1.69-1.51-1.14-3.2-1.53-4.82-2.22-1.41-.6-2.92-.75-4.3-.33-2.15.65-3.94.29-5.71-.97-1.34-.96-2.83-.99-4.48-.84-3.35.29-6.74.35-10.01-.73-.42-.14-.92-.34-1.3-.22-1.53.47-2.89-.13-4.29-.51-1.94-.52-3.81-.42-5.53.69-.9.58-1.81.74-2.87.73-4.44-.03-8.72.91-12.75,2.76-1.76.81-3.62,1.21-5.42,1.85-.97.34-2.06.48-2.98.02-1.37-.69-2.6-.37-3.9.09-.74.26-1.51.44-2.28.56-.57.09-1.11.18-1.54.59-2.97,2.8-6.81,2.45-9.95,2.94-3.5-.16-4.9.33-7.3,2.21-2.91,2.28-5.67,4.73-8.98,6.49-1.45.77-2.53,2.24-4.3,2.51-.2.03-.41.2-.56.36-2.13,2.32-5.23,3.05-7.73,4.76-.45.31-1.02.57-1.55.62-2.7.24-4.37,2.11-6.17,3.79-.17.16-.33.33-.49.49-.51.07-1.03-.13-1.55.06-.43.16-.88.07-1.23-.24-.66-.58-1.53-.63-2.3-.89-.88-.3-1.81-.42-2.5-1.13-.09-.09-.23-.15-.35-.18-.37-.09-.68-.26-.96-.52-.08-.08-.26-.14-.36-.11-.4.13-.81-.07-1.19.02-.51.11-.9-.06-1.31-.34-.32-.22-.69-.46-1.09-.45-.64.01-1.15-.29-1.66-.6-.23-.14-.46-.27-.73-.3-.27-.03-.53-.09-.76-.23-.25-.14-.51-.14-.77-.04-.31.12-.63.21-.98.18-1.44-.1-2.84-.43-4.21-.85-.12-.04-.28-.09-.35-.19-.4-.56-1.13-.72-1.54-1.27-.07-.09-.24-.17-.35-.16-.32.03-.58-.06-.84-.26-.11-.09-.25-.05-.37.03-.6.41-1.28.4-1.93.28-.42-.08-.83-.22-1.27-.23-.23,0-.49-.07-.57-.34-.11-.4-.39-.5-.75-.55-.74-.1-1.28-.53-1.76-1.08-.17-.19-.27-.43-.14-.64.47-.73.05-1.59.35-2.34.06-.16-.1-.3-.18-.44-.35-.64-.73-1.27-.61-2.06.05-.33-.04-.7-.25-.95-.4-.48-.27-1.18-.71-1.63-.04-.04-.05-.13-.05-.19,0-.67-.03-1.34.03-2,.1-1.23.28-2.45.11-3.69-.06-.43-.08-.86-.24-1.27.27-.67-.14-1.2-.37-1.78-.16-.4-.27-.82-.47-1.22-.13-.26-.16-.58-.19-.87-.11-1.03-.16-2.07-.13-3.1.02-.78-.17-1.51-.45-2.24-.32-.85-.53-1.73-.21-2.65.13-.37.08-.72-.03-1.08-.1-.32-.29-.64-.21-.97.11-.44-.13-.86,0-1.3.05-.17-.04-.33-.17-.44-.35-.3-.46-.72-.57-1.15-.13-.52-.26-1.04-.47-1.53-.21-.5-.17-.94-.02-1.45.24-.82.26-1.65-.35-2.37-.31-.37-.47-.8-.56-1.27-.05-.26-.14-.52-.22-.77-.1-.29-.21-.59-.15-.88.12-.65,0-1.26-.26-1.85-.08-.18-.08-.39-.13-.59-.12-.52-.17-1.06-.37-1.56-.26-.67-.6-1.32-.71-2.04-.02-.13-.1-.25-.16-.36-.21-.37-.56-.67-.59-1.15,0-.08-.11-.2-.19-.22-.48-.1-.59-.49-.75-.86-.21-.49-.65-.85-.79-1.39-.02-.08-.13-.15-.22-.2-.29-.17-.57-.35-.88-.47-1.21-.49-2.45-.88-3.69-1.26-.7-.21-1.37-.3-1.99.19-.03.02-.06.05-.09.05-.66,0-1.04.49-1.48.88-.13.11-.27.2-.27.39.01.45-.25.75-.57,1.01-.19.15-.3.35-.41.56-.35.68-.69,1.36-1.35,1.84-.29.21-.51.53-.59.91-.16.73-.58,1.26-1.25,1.59-.48.24-.8.6-.95,1.11-.04.13-.06.29-.15.37-.64.61-.46,1.51-.8,2.22.11.54-.21.92-.55,1.23-.49.44-.81.97-1.02,1.58-.03.09-.07.23-.14.26-.71.26-1,.94-1.48,1.43-.02.02-.06.04-.09.05-.33.12-.45.37-.42.71.02.21-.11.38-.18.56-.24.65-.59,1.27-.75,1.96-.09.37-.05.81-.5,1.03-.08.04-.12.23-.13.36-.04.41-.26.75-.42,1.12-.37.82-.71,1.65-.84,2.55-.09.6-.28,1.18-.97,1.38-.39.11-.62.37-.8.71-.06.12-.12.26-.21.34-.53.43-.38,1.09-.59,1.63.15.75-.24,1.28-.74,1.75-.12.11-.27.21-.32.38-.14.58-.64,1.02-.65,1.66,0,.21-.18.34-.33.48-.53.48-.94,1.04-1.09,1.76-.07.33-.22.67-.54.81-.42.18-.51.53-.71.89-.35.65-.4,1.36-.45,2.04-.06.7-.31,1.21-.77,1.67-.29.29-.53.61-.63,1.01-.09.37-.3.65-.53.95-.3.39-.63.8-.51,1.36.13.62-.12,1.11-.55,1.53-.32.3-.45.81-.87.95-.59.19-.37.82-.72,1.11-.03.02-.05.05-.07.07-.13.14-.15.3-.06.46.23.38.06.72-.12,1.04-.19.35-.44.67-.67,1-.21.31-.39.61-.33,1.02.05.31-.07.6-.28.83-.41.44-.81.88-1.5.91-.29.01-.59.06-.89.11-.36.07-.66-.02-.92-.27-.17-.17-.35-.32-.61-.29-.5.05-1,.07-1.49.18-.83.18-1.6.09-2.31-.38-.29-.19-.57-.33-.94-.27-.12.02-.27-.03-.38-.09-.3-.19-.62-.21-.96-.19-.26.01-.55,0-.8-.08-.37-.13-.7-.15-1.05.04-.24.13-.53.07-.78-.02-.72-.26-1.46-.46-2.11-.9-.57-.39-1.2-.56-1.9-.42-.2.04-.4.07-.6.07-.21,0-.39.06-.55.2-.44.38-.92.38-1.37.06-.36-.25-.71-.31-1.13-.26-.64.07-1.28.02-1.88-.22-.79-.33-1.7-.34-2.42-.87-.07-.05-.2-.05-.29-.03-.82.24-1.59-.07-2.35-.28-.47-.13-.91-.19-1.37-.06-.4.12-.79.12-1.18-.01-.19-.06-.39-.11-.59-.11-.36,0-.61-.26-.93-.34-.32-.08-.62.28-.97.09-.15-.08-.34-.07-.47.06-.19.21-.41.17-.65.12-.23-.04-.47-.08-.7-.05-.91.12-1.8.01-2.68-.21-.23-.06-.48-.12-.69,0-.56.35-1.27.06-1.83.45-.13.1-.32-.03-.47-.09-.4-.16-.77-.41-1.23-.41-.63,0-1.27,0-1.9-.02-.7-.02-1.41-.02-2-.51-.24-.2-.55-.23-.86-.22-.23,0-.47,0-.7,0v.02c-.3,0-.6,0-.9,0-.27,0-.54.03-.76.22-.29.25-.63.36-1.01.39-.22.02-.37.15-.47.34-.08.15-.14.33-.26.42-.33.27-.51.61-.6,1.01-.04.16-.11.32-.21.45-.16.23-.26.46-.23.75.03.29-.11.51-.26.74-.3.46-.5.94-.4,1.51.03.15,0,.35-.07.48-.2.37-.1.71.01,1.07.13.41.34.79.37,1.25.07,1.13.18,1.34.84,2.2.25.33.52.57.89.77.59.3,1.16.64,1.55,1.22.27.39.67.65,1.15.77.29.07.62.14.81.38.58.72,1.38,1.16,2.1,1.69.45.33.91.71,1.42.9.69.25,1.15.64,1.38,1.33.26.79,1.12,1,1.61,1.58.05.06.19.05.29.06.64.02,1.15.3,1.56.79.17.2.38.39.67.42.34.03.67.11.91.36.28.3.68.21,1.01.38.53.27,1.02.63,1.56.85.42.17.76.42,1.07.72.45.45.93.84,1.55,1.05.12.04.25.12.32.23.19.32.5.38.82.51.74.29,1.44.62,1.85,1.42.34.65,1.02,1.07,1.68,1.36.84.37,1.54.93,2.27,1.44.62.43,1.13,1.02,1.85,1.34.25.11.42.32.55.57.11.21.27.38.36.59.18.41.5.62.92.69.3.05.58.14.83.34.1.08.26.16.36.14.54-.13.9.19,1.25.49.21.18.42.31.68.41.37.14.74.32,1.08.52.38.22.77.45.9.9.1.37.37.54.68.68.36.17.72.35,1.07.54.47.25.79.61.81,1.17,0,.34.21.44.51.5.7.14,1.28.57,1.9.88.27.14.65.33.7.65.03.21-.2.47-.31.71-.18.4-.37.79-.43,1.23-.05.36-.21.63-.49.84-.27.21-.45.46-.64.75-.25.38-.53.76-.95,1.01-.77.45-1.39,1.13-1.62,1.96-.22.82-.54,1.56-.92,2.3-.23.44-.21.99-.6,1.36-.06.06-.09.21-.06.28.24.45,0,.81-.27,1.08-.44.43-.75.93-1.07,1.44-.14.23-.32.43-.51.62-.42.44-.8.89-.99,1.49-.11.36-.36.65-.77.72-.4.06-.53.33-.64.67-.11.35-.25.68-.55.94-1,.87-1.39,2.1-1.86,3.28-.05.12-.04.27-.02.4.07.36-.06.66-.26.93-.45.61-.93,1.19-1.27,1.89-.07.14-.22.25-.35.36-.23.19-.47.38-.73.54-.34.21-.13.66-.42.88-.24.19-.29.41-.2.71.15.51,0,.92-.47,1.2-.41.23-.59.62-.72,1.05-.13.41-.27.83-.46,1.22-.25.52-.46,1.03-.43,1.63,0,.26-.09.53-.13.79-.02.15-.09.26-.25.26-.37,0-.53.19-.61.53-.05.22-.17.44-.32.62-.35.42-.57.88-.63,1.44-.03.32-.11.74-.42.88-.59.26-.84.85-1.32,1.21-.26.19-.38.43-.45.75-.15.72-.4,1.41-.84,2.03-.3.42-.48.91-.45,1.41.03.55-.12,1.03-.28,1.54-.38,1.22-.89,2.38-1.59,3.45-.26.39-.49.81-.56,1.28-.14,1-.49,1.93-.75,2.9-.19.7-.2,1.45-.21,2.18,0,.33.07.66-.08.98-.09.2,0,.37.09.56.33.62.77,1.16,1.23,1.69.23.27.45.45.8.55.61.17,1.21.38,1.7.82.86.76,1.87.89,2.91.48.85-.34,1.69-.64,2.62-.59.28.01.52-.1.7-.33.08-.1.21-.18.28-.29.39-.59.92-.84,1.63-.72.21.04.39-.03.57-.14.39-.24.72-.61,1.23-.65.08,0,.17-.11.22-.19.14-.23.27-.46.49-.63.12-.09.17-.22.14-.35-.16-.72.23-1.05.86-1.22.06-.02.13-.05.19-.07.76-.32,1.4-.74,1.68-1.6.16-.46.5-.89.96-1.13.81-.42,1.36-1.15,2.1-1.66.28-.19.52-.4.86-.5.39-.11.77-.22.96-.65.1-.22.33-.32.55-.41.22-.09.41-.21.58-.39.41-.44.91-.79,1.43-1.09.27-.15.5-.32.62-.62.13-.3.39-.47.69-.53.64-.12,1.09-.51,1.43-1.02.23-.36.54-.54.92-.47.42.08.72-.06,1.01-.29.19-.15.38-.26.62-.32.17-.04.33-.1.41-.26.12-.25.28-.45.53-.58.07-.04.16-.17.14-.24-.12-.49.17-.57.55-.6.12-.01.27-.1.33-.19.15-.28.36-.47.64-.61.13-.07.12-.21.12-.35,0-.57.04-.66.54-.78.87-.22,1.59-.68,2.25-1.27.12-.11.26-.21.41-.28.29-.13.47-.34.64-.61.4-.64.94-1.12,1.7-1.32.52-.14.95-.48,1.31-.84.24-.24.49-.43.77-.61.43-.26.87-.5,1.27-.8.34-.25.71-.51.82-.98.21-.96,1.36-.9,1.8-1.63.08-.14.27-.19.45-.2.07,0,.15.02.2-.01.47-.33,1.14-.4,1.35-1.06.09-.29.33-.4.61-.47.33-.08.65-.09.99-.09.46,0,.95,0,1.31-.36.31-.31.66-.56.99-.83.34-.27.53-.74.79-1.12-.15-.53.27-.86.45-1.27.16-.36.41-.51.79-.46.3.04.64.09.87-.12.63-.6,1.62-.69,2.09-1.51.07-.12.23-.13.36-.06.17.09.33.27.51.3.52.08.92.43,1.38.55.69.18.75.67.87,1.19.03.13-.02.27,0,.4.06.59.09,1.2.65,1.6.1.07.19.2.24.32.15.37.36.63.81.62.15,0,.22.13.29.25.14.24.33.32.59.19.17-.08.32-.03.46.08.32.25.64.48.96.72.13.1.33.21.35.34.1.49.52.77.7,1.2.13.32.34.57.63.76.14.09.31.19.37.33.18.41.52.62.91.72.4.1.7.31.97.55-.19.37-.42.73-.71,1.05-1.07,1.18-1.28,2.61-1.3,4.09-.01.9.11,1.79.13,2.69.01.56.09,1.17-.11,1.66-.74,1.75-1.43,3.55-2.42,5.15-1.04,1.69-1.58,3.43-1.77,5.38-.21,2.12-.37,4.32-1.07,6.3-.99,2.81-1.55,5.63-1.62,8.58-.02.79.06,1.64-.47,2.27-.93,1.11-1.01,2.32-1.11,3.72-.12,1.69-.16,3.32.1,4.99.21,1.33.18,2.74-.3,4-.4,1.04-.29,1.96-.03,2.96.73,2.8.7,5.49-.66,8.19-.79,1.56-1.41,3.31-1.09,5.21.51,2.99.78,6.03,1.48,8.98.3,1.25.3,2.7,1.29,3.77,1.13,1.22,1.87,2.57,2.36,4-.08.18-.15.35-.24.51-.54,1.02-1.31,1.84-2.15,2.58-.42.36-.94.84-1.42.85-2.45.07-4.14,1.39-5.71,3.07-.43.46-1.19.61-1.77.95-1.47.85-2.94,1.7-3.52,3.46-.18.56-.58.91-1.11,1.19-2.49,1.35-4.5,3.26-6.29,5.44-.52.63-.93,1.24-1.04,2.06-.09.67-.19,1.35-.44,1.97-.81,2.02-1.68,3.99-4.29,4.23-.4.04-.85.34-1.14.65-.73.77-1.65,1.23-2.59,1.54-2.64.88-4.06,3.05-5.57,5.11-.94,1.29-1.36,2.8-1.55,4.41-.24,2.02-1.22,3.79-3.16,4.47-2.68.93-3.95,3.18-5.53,5.17-.79.98-1.28,2.1-1.37,3.39-.07,1.02-.29,2.04-.92,2.86-1.97,2.6-3.38,5.59-5.77,7.89-.8.77-1.66,1.6-1.95,2.72-1.14,4.37-4.33,7.88-5.18,12.37-.04.21-.2.41-.34.58-1.13,1.3-1.28,2.83-1.08,4.44.24,2.02-.7,3.72-1.53,5.44-.24.5-1.89,4.45-2.09,4.94-.35.89-.35,1.75-.03,2.63.27.75.42,1.52.26,2.32-.2.98.16,1.79.85,2.44,1.31,1.25,1.77,2.85,1.86,4.58.05.94.31,1.74.95,2.45.37.41.67.91.9,1.41.47,1.01,2.27,3.28,3.01,3.99.67.64,1.35,1.14,2.27,1.35,1.14.26,1.99.95,2.68,1.91.84,1.16,1.88,2.19,2.32,3.61,1.78,1.27,2.78,3.21,4.17,4.81,1.18,1.36,2.43,2.65,4.47,2.69.63.01,1.29.37,1.88.66.52.26,1.06.53,1.6.27,1.4-.68,2.92.34,4.3-.36,2.29.39,4.75.1,6.62,2,.6.62,1.53,1.27,2.32,1.29,2.32.06,4.65-.19,6.97-.32,1.14-1.31,3.53-.92,4.11-3.05.08-.3.72-.54,1.14-.63,1.53-.35,3.07-.74,4.63-.92,1.5-.17,2.89-.58,4.12-1.39,2.3-1.53,4.93-1.86,7.55-2.39,2.96-.6,5.91-1.22,8.9-1.67.43-.07.88-.25,1.25-.48.99-.63,2.05-.8,3.21-.83,2.96-.09,5.65-1.4,8.5-2,.21-.04.45-.16.59-.32.92-1.07,1.95-1.36,3.29-.77.53.23,1.02-.29,1.51-.55,1.96-1.03,3.89-2.19,5.97-2.92,1.84-.65,3.5-1.27,4.67-2.97.62-.9,1.72-1.45,2.43-2.3.86-1.03,1.94-1.67,3.16-1.78,3.05-.28,5.47-1.74,7.78-3.58,1.31-1.04,2.66-2.08,4.52-2.05.51,0,1.11-.28,1.54-.6.87-.65,1.79-.86,2.85-.72.92.13,1.84-.05,2.48-.79.52-.6,1.1-1.08,1.71-1.46.86.62,1.75,1.14,3.03.64.57-.23,1.29.39,1.73.9,1.74,1.97,3.85,3.07,6.53,3,.33,0,.7.06.98.21,1.15.62,2.33.68,3.6.46,1.18-.21,2.18.13,2.9,1.24,1.7,2.65,4.25,3.9,7.31,4.28,1.22.15,2.43.29,3.64.57,2.06.47,4.22.71,6.34.69,1.17,0,2.3-.9,3.5-1.08,1.31-.2,2.47,1.08,3.92.56,1.13-.4,2.22-.01,3.26.49.91.44,1.87.78,2.75,1.27,1.3.73,2.7,1.29,4.14,1.38,3.99.24,7.62,1.74,11.37,2.87,3.23.98,6.53,1.81,9.88.27.69-.32,1.53-.43,2.3-.43,1.61,0,3.13-.25,4.57-1,.7-.36,1.46-.61,2.28-.49,2.03.3,4.03.08,6.03-.37.75-.17,1.61-.25,2.34-.07,3.77.89,7.04-1.05,10.53-1.76.4-.08.69-.57,1.08-.77,2.04-1.07,3.5-3.21,6.13-3.2.37,0,.8-.4,1.12-.69,2.34-2.17,5.49-2.3,8.3-3.29.4-.14.98-.17,1.32.03,1.43.85,2.51.3,3.69-.57.79-.58,1.8-.93,2.75-1.24.87-.29,1.71-.56,2.34-1.26,1.18-1.34,2.64-1.62,4.3-1.15.67.19,1.39.28,1.96-.13,1.55-1.13,3.53-1.5,4.95-2.85,2.13-2.01,4.59-3.61,6.81-5.49,3.12-2.64,6.51-4.77,10.14-6.6,1.41-.71,2.76-1.52,4.13-2.3,1.53-.87,2.68-2.09,3.05-3.86.31-1.45,1.16-2.27,2.46-2.97,1.15-.62,2.65-.96,3.28-2.25.9-1.82,2.42-3.26,3.06-5.23.2-.61.61-1.22,1.09-1.67,1.25-1.18,2.24-2.58,3.07-4.02,1.5-2.63,3.64-4.55,6.03-6.27,1.32-.95,2.25-2.11,2.88-3.64.64-1.55,1.26-3.29,2.41-4.41,1.52-1.48,2.26-3.32,3.33-5.01.44-.69.71-1.39.63-2.22-.15-1.44.42-2.65,1.27-3.75.89-1.16,1.81-2.29,2.75-3.41.95-1.12,1.93-2.2,3.55-2.37.78-.08,1.2-.71,1.18-1.43-.02-1.15.04-2.3.52-3.31.77-1.6.76-3.17.56-4.91-.42-3.57.17-6.93,2.75-9.73,1.08-1.17,1.68-2.6,1.96-4.22,1-5.74,3.37-11.15,4.22-16.93.02-.11.07-.21.13-.31.55-.96.53-1.9-.02-2.88-.41-.73-.49-1.58.23-2.17.95-.77,1.01-1.61.67-2.7-.19-.61-.19-1.38,0-2,.67-2.19.65-4.45.92-6.68.48-3.9.87-7.8.91-11.74,0-.27,0-.53,0-.8.53-.44,1.09-.85,1.63-1.28.85-.68,1.42-1.42,1.57-2.48.28-2.1,1.55-3.42,3.41-4.19.68-.28,1.08-.62,1.33-1.34.29-.84.84-1.58,1.23-2.39.48-1,1.16-1.69,2.35-1.54,1.01.12,1.57-.47,2.32-1.04,2.27-1.73,3.55-4.3,5.6-6.19,2.61-2.41,3.67-6.22,7.11-7.89.27-.13.42-.52.6-.81.82-1.29,2.05-2.08,3.43-2.63,1.68-.67,3.38-1.28,4.32-3.03.2-.37.62-.71,1.02-.85,1.6-.58,2.21-1.76,2.32-3.36.03-.42.3-.85.55-1.22.69-1.04.08-2.23.42-3.3.43-1.32,2.21-1.18,2.69-2.4.6-1.53,1.92-2.46,2.86-3.71,1.07-1.43,2.6-2.51,3.3-4.24,1.18-2.92,3.16-5.4,4.49-8.27.77-1.65,1.53-3.26,1.72-5.05.39-3.76,2.09-6.8,4.75-9.4,1.04-1.02,2.11-2.08,2.52-3.53.44-1.55,1.14-2.9,2.18-4.14.48-.58.68-1.4.95-2.13.35-.95.54-1.97.99-2.87,1.12-2.21,2.43-4.33,2.39-6.93.88-1.39.69-2.72-.07-4.11-.42-.78-.59-1.69-.93-2.52Zm-322.47,214.1c-1.91.97-3.97,1.69-6.08,1.97-2.65.35-4.64,2.27-7.2,2.74-.3.05-.56.37-.8.6-.89.85-1.94,1.6-2.61,2.61-1.09,1.63-2.77,2.16-4.39,2.08-2.42-.12-4.66.73-6.96.82-2.34.08-4.15.67-6.09,1.95-2.01,1.33-4.27,2.26-6.27,3.72-1.33.97-2.87,1.69-4.13,2.82-.57.51-1.44.88-2.2.48-1-.52-2.13-1.28-2.05-2.46.09-1.33-.66-3.06,1.14-3.91,1.4-.66,2.23-1.85,3.08-3.04.52-.73.98-1.54,1.61-2.17,1.79-1.8,2.93-3.97,3.75-6.32.22-.64.42-1.25.9-1.78,1.13-1.25,2.12-2.64,3.33-3.81,1.39-1.34,2.74-2.61,3.04-4.66.07-.48.57-.96.97-1.32.57-.5.9-1.02.6-1.76-.61-1.52,1.47-2.58.69-4.13-.04-.07.25-.36.43-.47,1.64-.98,3.21-2.14,4.96-2.84,1.63-.65,2.94-1.65,4.22-2.74,1.71-1.46,3.38-2.96,4.97-4.55,1.37-1.37,2.52-2.9,2.1-5.06-.14-.73.14-1.31.61-1.88.14.31.3.61.43.92.78,1.86,1.62,3.74,2.72,5.41,1.73,2.62,3.57,5.19,5.62,7.57,1.51,1.76,2.45,4.1,4.79,5.12.34.15.52.71.71,1.11.28.61.35,1.41.79,1.84,1.35,1.36,1.95,2.99,2.18,4.82.24,1.94,2.62,2.47,2.93,4.38-1.02.41-2.07.73-3.21.77-1.6.05-3.09.45-4.53,1.18Zm284.72-207.99c-.54,1.13-1.26,2.14-2.5,2.62-.77.3-1.38.78-1.58,1.63-.34,1.42-1.52,2.53-1.45,4.1.08,1.8-1.86,2.11-2.51,3.38-.15.29-.14.67-.27.97-.18.4-.35.86-.67,1.13-1.12.92-2.23,1.9-3.48,2.61-.92.52-1.65,1.1-2.24,1.96-.44.64-1.06,1.15-1.58,1.73-.37.41-.98.82-1.03,1.28-.22,2.04-1.63,3.17-3.1,4.19-2.02,1.41-1.12,4.09-2.66,5.69-.19.2-.16.63-.2.96-.01.1.02.23.08.32.82,1.38-.19,2.32-.79,3.37-.72,1.25-2.11,1.64-3.11,2.51-1.1.94-1.21,2.67-2.54,3.5-2.66,1.67-5.02,3.8-8.01,4.97-.16.06-.28.18-.43.27-.06-.07-.1-.15-.17-.22-.44-.46-.8-1.18-.83-1.8-.11-2.23-1.42-3.75-2.9-5.16-1.52-1.44-2.64-3.15-3.11-5.14-.5-2.1-1.17-4.06-2.44-5.82-.53-.73-.73-1.64-.66-2.58.04-.57.03-1.24-.44-1.57-1.56-1.1-2.44-2.91-4.29-3.73-1.63-.72-3.29-1.55-4.62-2.7-.8-.7-1.66-1.34-2.52-1.99.48-.19.98-.41,1.51-.69.6-.31,1.11-.78,1.71-1.08,1.2-.61,2.39-1.43,3.67-1.65,2.57-.45,4.92-1.55,7.41-2.22.54-.15,1.1-.39,1.62-.33,1.14.13,1.94-.46,2.75-1.06,2.73-2.02,5.62-3.77,8.85-4.84,1.99-.66,3.63-1.71,4.9-3.4,1.65-2.2,4.06-3.32,6.65-3.64,3.15-.39,6.19-1.08,9.21-1.98,1.61-.48,3.25-.99,4.94-.15.37.18.91.19,1.32.1,1.87-.41,3.25.73,4.72,1.49.96.5,1.3,2,.83,3Z"/>
      </g>
    </g>
  </g>
</svg>